<svg width="49" height="48" viewBox="0 0 49 48" fill="none" xmlns="http://www.w3.org/2000/svg">
<path d="M18.5 6.50085C18.5 3.46329 20.9624 1.00085 24 1.00085V1.00085C27.0376 1.00085 29.5 3.46329 29.5 6.50085V47.0009H18.5V6.50085Z" fill="var(--background-primary-subtlest)"/>
<path d="M22.5 32.7509C22.5 32.3366 22.8358 32.0009 23.25 32.0009H24.75C25.1642 32.0009 25.5 32.3366 25.5 32.7509C25.5 33.1651 25.1642 33.5009 24.75 33.5009H23.25C22.8358 33.5009 22.5 33.1651 22.5 32.7509Z" fill="var(--icon-on-subtle)"/>
<path d="M25.25 27.0009C24.8358 27.0009 24.5 27.3366 24.5 27.7509C24.5 28.1651 24.8358 28.5009 25.25 28.5009H26.75C27.1642 28.5009 27.5 28.1651 27.5 27.7509C27.5 27.3366 27.1642 27.0009 26.75 27.0009H25.25Z" fill="var(--icon-on-subtle)"/>
<path d="M21.25 20.0009C20.8358 20.0009 20.5 20.3366 20.5 20.7509C20.5 21.1651 20.8358 21.5009 21.25 21.5009H22.75C23.1642 21.5009 23.5 21.1651 23.5 20.7509C23.5 20.3366 23.1642 20.0009 22.75 20.0009H21.25Z" fill="var(--icon-on-subtle)"/>
<path d="M25.5 11.7509C25.5 11.3366 25.8358 11.0009 26.25 11.0009H27.75C28.1642 11.0009 28.5 11.3366 28.5 11.7509C28.5 12.1651 28.1642 12.5009 27.75 12.5009H26.25C25.8358 12.5009 25.5 12.1651 25.5 11.7509Z" fill="var(--icon-on-subtle)"/>
<path fill-rule="evenodd" clip-rule="evenodd" d="M30.5 46.5009V36.0009H32.5C36.0452 36.0009 39.0518 33.6948 40.1016 30.5009H40.75C41.1642 30.5009 41.5 30.1651 41.5 29.7509C41.5 29.3366 41.1642 29.0009 40.75 29.0009H40.4381C40.479 28.6733 40.5 28.3395 40.5 28.0009V24.5009H40.75C41.1642 24.5009 41.5 24.1651 41.5 23.7509C41.5 23.3366 41.1642 23.0009 40.75 23.0009H40.5V19.5009H40.75C41.1642 19.5009 41.5 19.1651 41.5 18.7509C41.5 18.3366 41.1642 18.0009 40.75 18.0009H40.5V15.0009C40.5 13.344 39.1569 12.0009 37.5 12.0009C35.8431 12.0009 34.5 13.344 34.5 15.0009V16.0009H34.25C33.8358 16.0009 33.5 16.3366 33.5 16.7509C33.5 17.1651 33.8358 17.5009 34.25 17.5009H34.5V25.0009H34.25C33.8358 25.0009 33.5 25.3366 33.5 25.7509C33.5 26.1651 33.8358 26.5009 34.25 26.5009H34.5V28.0009C34.5 29.1054 33.6046 30.0009 32.5 30.0009H30.5V21.5009H30.75C31.1642 21.5009 31.5 21.1651 31.5 20.7509C31.5 20.3366 31.1642 20.0009 30.75 20.0009H30.5V6.50085H30.75C31.1642 6.50085 31.5 6.16507 31.5 5.75085C31.5 5.33664 31.1642 5.00085 30.75 5.00085H30.3261C29.6489 2.13415 27.0736 0.000854492 24 0.000854492C20.5784 0.000854492 17.7743 2.64463 17.5189 6.00085H17.25C16.8358 6.00085 16.5 6.33664 16.5 6.75085C16.5 7.16507 16.8358 7.50085 17.25 7.50085H17.5V12.0009H17.25C16.8358 12.0009 16.5 12.3366 16.5 12.7509C16.5 13.1651 16.8358 13.5009 17.25 13.5009H17.5V24.0009C16.3954 24.0009 15.5 23.1054 15.5 22.0009V18.5009H15.75C16.1642 18.5009 16.5 18.1651 16.5 17.7509C16.5 17.3366 16.1642 17.0009 15.75 17.0009H15.5V11.5009C15.5 9.56786 13.933 8.00085 12 8.00085C10.067 8.00085 8.5 9.56786 8.5 11.5009V12.0009H8.25C7.83579 12.0009 7.5 12.3366 7.5 12.7509C7.5 13.1651 7.83579 13.5009 8.25 13.5009H8.5V20.0009H7.25C6.83579 20.0009 6.5 20.3366 6.5 20.7509C6.5 21.1651 6.83579 21.5009 7.25 21.5009H8.5V23.0009C8.5 27.4191 12.0817 31.0009 16.5 31.0009H17.5V46.5009H3.25C2.83579 46.5009 2.5 46.8366 2.5 47.2509C2.5 47.6651 2.83579 48.0009 3.25 48.0009H45.75C46.1642 48.0009 46.5 47.6651 46.5 47.2509C46.5 46.8366 46.1642 46.5009 45.75 46.5009H30.5ZM36 26.4582V28.0009C36 29.9339 34.433 31.5009 32.5 31.5009H30.5V34.5009H32.5C35.204 34.5009 37.5223 32.8498 38.5018 30.5009H38.25C37.8358 30.5009 37.5 30.1651 37.5 29.7509C37.5 29.3366 37.8358 29.0009 38.25 29.0009H38.9236C38.9739 28.6749 39 28.3409 39 28.0009V24.5009H38.25C37.8358 24.5009 37.5 24.1651 37.5 23.7509C37.5 23.3366 37.8358 23.0009 38.25 23.0009H39V19.4582C38.7087 19.3552 38.5 19.0774 38.5 18.7509C38.5 18.4243 38.7087 18.1465 39 18.0435V15.0009C39 14.1724 38.3284 13.5009 37.5 13.5009C36.6716 13.5009 36 14.1724 36 15.0009V16.0009H36.75C37.1642 16.0009 37.5 16.3366 37.5 16.7509C37.5 17.1651 37.1642 17.5009 36.75 17.5009H36V25.0435C36.2913 25.1465 36.5 25.4243 36.5 25.7509C36.5 26.0774 36.2913 26.3552 36 26.4582ZM10.75 21.5009H10V23.0009C10 26.5907 12.9101 29.5009 16.5 29.5009H17.5V25.5009C15.567 25.5009 14 23.9339 14 22.0009V18.5009H13.25C12.8358 18.5009 12.5 18.1651 12.5 17.7509C12.5 17.3366 12.8358 17.0009 13.25 17.0009H14V11.5009C14 10.3963 13.1046 9.50085 12 9.50085C10.8954 9.50085 10 10.3963 10 11.5009V12.0435C10.2913 12.1465 10.5 12.4243 10.5 12.7509C10.5 13.0774 10.2913 13.3552 10 13.4582V20.0009H10.75C11.1642 20.0009 11.5 20.3366 11.5 20.7509C11.5 21.1651 11.1642 21.5009 10.75 21.5009ZM19 13.5009V46.5009H29V21.5009H28.25C27.8358 21.5009 27.5 21.1651 27.5 20.7509C27.5 20.3366 27.8358 20.0009 28.25 20.0009H29V6.50085H28.25C27.8358 6.50085 27.5 6.16507 27.5 5.75085C27.5 5.33664 27.8358 5.00085 28.25 5.00085H28.7711C28.134 2.9723 26.2388 1.50085 24 1.50085C21.3902 1.50085 19.2475 3.50031 19.02 6.05091C19.3008 6.1593 19.5 6.43181 19.5 6.75085C19.5 7.07741 19.2913 7.35522 19 7.45818V12.0009H19.75C20.1642 12.0009 20.5 12.3366 20.5 12.7509C20.5 13.1651 20.1642 13.5009 19.75 13.5009H19Z" fill="var(--icon-on-subtle)"/>
</svg>
