<svg width="49" height="48" viewBox="0 0 49 48" fill="none" xmlns="http://www.w3.org/2000/svg">
<path fill-rule="evenodd" clip-rule="evenodd" d="M24.5 8.00085C25.6804 8.00085 26.7414 7.48955 27.4736 6.67633L36.598 15.8008H39.0022L28.3368 5.13541C28.443 4.77573 28.5 4.39495 28.5 4.00085C28.5 1.79172 26.7091 0.000854492 24.5 0.000854492C22.2909 0.000854492 20.5 1.79172 20.5 4.00085C20.5 4.39495 20.557 4.77573 20.6632 5.13541L9.9978 15.8008H12.402L21.5264 6.67633C22.2586 7.48955 23.3196 8.00085 24.5 8.00085ZM24.5 6.30085C25.7703 6.30085 26.8 5.27111 26.8 4.00085C26.8 2.7306 25.7703 1.70085 24.5 1.70085C23.2297 1.70085 22.2 2.7306 22.2 4.00085C22.2 5.27111 23.2297 6.30085 24.5 6.30085Z" fill="var(--icon-on-subtle)"/>
<path d="M5.29997 24.0009C5.83016 24.0009 6.25997 23.5711 6.25997 23.0409C6.25997 22.5107 5.83016 22.0809 5.29997 22.0809C4.76977 22.0809 4.33997 22.5107 4.33997 23.0409C4.33997 23.5711 4.76977 24.0009 5.29997 24.0009Z" fill="var(--icon-on-subtle)"/>
<path d="M6.25997 43.2009C6.25997 43.7311 5.83016 44.1609 5.29997 44.1609C4.76977 44.1609 4.33997 43.7311 4.33997 43.2009C4.33997 42.6707 4.76977 42.2409 5.29997 42.2409C5.83016 42.2409 6.25997 42.6707 6.25997 43.2009Z" fill="var(--icon-on-subtle)"/>
<path d="M44.66 23.0409C44.66 23.5711 44.2302 24.0009 43.7 24.0009C43.1698 24.0009 42.74 23.5711 42.74 23.0409C42.74 22.5107 43.1698 22.0809 43.7 22.0809C44.2302 22.0809 44.66 22.5107 44.66 23.0409Z" fill="var(--icon-on-subtle)"/>
<path d="M44.66 43.2009C44.66 43.7311 44.2302 44.1609 43.7 44.1609C43.1698 44.1609 42.74 43.7311 42.74 43.2009C42.74 42.6707 43.1698 42.2409 43.7 42.2409C44.2302 42.2409 44.66 42.6707 44.66 43.2009Z" fill="var(--icon-on-subtle)"/>
<path fill-rule="evenodd" clip-rule="evenodd" d="M4.5 18.0009C2.29086 18.0009 0.5 19.7917 0.5 22.0009V44.0009C0.5 46.21 2.29086 48.0009 4.5 48.0009H44.5C46.7091 48.0009 48.5 46.21 48.5 44.0009V22.0009C48.5 19.7917 46.7091 18.0009 44.5 18.0009H4.5ZM44.5 19.5009H4.5C3.11929 19.5009 2 20.6201 2 22.0009V44.0009C2 45.3816 3.11929 46.5009 4.5 46.5009H44.5C45.8807 46.5009 47 45.3816 47 44.0009V22.0009C47 20.6201 45.8807 19.5009 44.5 19.5009Z" fill="var(--icon-on-subtle)"/>
<path d="M28.2905 32.3933V34.2278C28.2905 35.1066 28.2032 35.8568 28.0285 36.4786C27.8589 37.0953 27.6122 37.5963 27.2885 37.9817C26.9647 38.3671 26.5768 38.6497 26.1246 38.8296C25.6775 39.0094 25.1764 39.0994 24.6215 39.0994C24.1795 39.0994 23.7684 39.0429 23.3882 38.9298C23.013 38.8167 22.6739 38.6395 22.3707 38.3979C22.0675 38.1564 21.808 37.8455 21.5922 37.4652C21.3815 37.0798 21.217 36.6199 21.0988 36.0855C20.9858 35.5511 20.9293 34.9318 20.9293 34.2278V32.3933C20.9293 31.5094 21.0166 30.7643 21.1913 30.1579C21.3661 29.5464 21.6153 29.0505 21.939 28.6702C22.2628 28.2848 22.6482 28.0048 23.0952 27.8301C23.5475 27.6553 24.0511 27.568 24.606 27.568C25.0531 27.568 25.4642 27.6245 25.8393 27.7376C26.2196 27.8455 26.5588 28.0176 26.8568 28.254C27.16 28.4904 27.417 28.7987 27.6276 29.179C27.8435 29.5541 28.0079 30.0089 28.121 30.5433C28.234 31.0726 28.2905 31.6893 28.2905 32.3933ZM26.4329 34.4899V32.1158C26.4329 31.6687 26.4072 31.2756 26.3558 30.9364C26.3044 30.5921 26.2273 30.3018 26.1246 30.0654C26.0269 29.8239 25.9036 29.6286 25.7546 29.4796C25.6055 29.3254 25.436 29.215 25.2458 29.1481C25.0557 29.0762 24.8424 29.0402 24.606 29.0402C24.3183 29.0402 24.0613 29.0968 23.8352 29.2098C23.6091 29.3177 23.419 29.4924 23.2648 29.734C23.1107 29.9755 22.9925 30.2941 22.9103 30.6898C22.8332 31.0803 22.7946 31.5557 22.7946 32.1158V34.4899C22.7946 34.9421 22.8203 35.3404 22.8717 35.6847C22.9231 36.029 23.0002 36.3244 23.103 36.5711C23.2057 36.8126 23.3291 37.013 23.4729 37.1723C23.622 37.3265 23.7916 37.4396 23.9817 37.5115C24.177 37.5834 24.3902 37.6194 24.6215 37.6194C24.9144 37.6194 25.1739 37.5629 25.4 37.4498C25.6261 37.3368 25.8162 37.1569 25.9704 36.9103C26.1246 36.6585 26.2402 36.3321 26.3173 35.9313C26.3943 35.5305 26.4329 35.05 26.4329 34.4899Z" fill="var(--icon-on-subtle)"/>
<path d="M37.8943 32.3933V34.2278C37.8943 35.1066 37.8069 35.8568 37.6322 36.4786C37.4626 37.0953 37.216 37.5963 36.8922 37.9817C36.5685 38.3671 36.1805 38.6497 35.7283 38.8296C35.2812 39.0094 34.7802 39.0994 34.2252 39.0994C33.7833 39.0994 33.3722 39.0429 32.9919 38.9298C32.6168 38.8167 32.2776 38.6395 31.9744 38.3979C31.6712 38.1564 31.4117 37.8455 31.1959 37.4652C30.9852 37.0798 30.8208 36.6199 30.7026 36.0855C30.5895 35.5511 30.533 34.9318 30.533 34.2278V32.3933C30.533 31.5094 30.6204 30.7643 30.7951 30.1579C30.9698 29.5464 31.219 29.0505 31.5428 28.6702C31.8665 28.2848 32.2519 28.0048 32.699 27.8301C33.1512 27.6553 33.6548 27.568 34.2098 27.568C34.6569 27.568 35.068 27.6245 35.4431 27.7376C35.8234 27.8455 36.1625 28.0176 36.4606 28.254C36.7638 28.4904 37.0207 28.7987 37.2314 29.179C37.4472 29.5541 37.6117 30.0089 37.7247 30.5433C37.8378 31.0726 37.8943 31.6893 37.8943 32.3933ZM36.0366 34.4899V32.1158C36.0366 31.6687 36.0109 31.2756 35.9595 30.9364C35.9081 30.5921 35.8311 30.3018 35.7283 30.0654C35.6307 29.8239 35.5073 29.6286 35.3583 29.4796C35.2093 29.3254 35.0397 29.215 34.8496 29.1481C34.6594 29.0762 34.4462 29.0402 34.2098 29.0402C33.922 29.0402 33.6651 29.0968 33.439 29.2098C33.2129 29.3177 33.0227 29.4924 32.8686 29.734C32.7144 29.9755 32.5962 30.2941 32.514 30.6898C32.4369 31.0803 32.3984 31.5557 32.3984 32.1158V34.4899C32.3984 34.9421 32.4241 35.3404 32.4755 35.6847C32.5268 36.029 32.6039 36.3244 32.7067 36.5711C32.8095 36.8126 32.9328 37.013 33.0767 37.1723C33.2257 37.3265 33.3953 37.4396 33.5854 37.5115C33.7807 37.5834 33.994 37.6194 34.2252 37.6194C34.5181 37.6194 34.7776 37.5629 35.0037 37.4498C35.2298 37.3368 35.42 37.1569 35.5741 36.9103C35.7283 36.6585 35.8439 36.3321 35.921 35.9313C35.9981 35.5305 36.0366 35.05 36.0366 34.4899Z" fill="var(--icon-on-subtle)"/>
<path fill-rule="evenodd" clip-rule="evenodd" d="M19.258 35.0123V36.4923H17.8551V39.0129H15.9974V36.4923H11.1644L11.1027 35.3746L15.9435 27.7898H17.8551V35.0123H19.258ZM13.0375 35.0123L15.9803 30.2951V35.0123H13.0375Z" fill="var(--icon-on-subtle)"/>
<path fill-rule="evenodd" clip-rule="evenodd" d="M4.5 19.5009H44.5C45.8807 19.5009 47 20.6201 47 22.0009V44.0009C47 45.3816 45.8807 46.5009 44.5 46.5009H4.5C3.11929 46.5009 2 45.3816 2 44.0009V22.0009C2 20.6201 3.11929 19.5009 4.5 19.5009ZM5.29997 24.0009C5.83016 24.0009 6.25997 23.5711 6.25997 23.0409C6.25997 22.5107 5.83016 22.0809 5.29997 22.0809C4.76977 22.0809 4.33997 22.5107 4.33997 23.0409C4.33997 23.5711 4.76977 24.0009 5.29997 24.0009ZM6.25997 43.2009C6.25997 43.7311 5.83016 44.1609 5.29997 44.1609C4.76977 44.1609 4.33997 43.7311 4.33997 43.2009C4.33997 42.6707 4.76977 42.2409 5.29997 42.2409C5.83016 42.2409 6.25997 42.6707 6.25997 43.2009ZM44.66 23.0409C44.66 23.5711 44.2302 24.0009 43.7 24.0009C43.1698 24.0009 42.74 23.5711 42.74 23.0409C42.74 22.5107 43.1698 22.0809 43.7 22.0809C44.2302 22.0809 44.66 22.5107 44.66 23.0409ZM44.66 43.2009C44.66 43.7311 44.2302 44.1609 43.7 44.1609C43.1698 44.1609 42.74 43.7311 42.74 43.2009C42.74 42.6707 43.1698 42.2409 43.7 42.2409C44.2302 42.2409 44.66 42.6707 44.66 43.2009ZM28.2905 34.2278V32.3933C28.2905 31.6893 28.234 31.0726 28.121 30.5433C28.0079 30.0089 27.8435 29.5541 27.6276 29.179C27.417 28.7987 27.16 28.4904 26.8568 28.254C26.5588 28.0176 26.2196 27.8455 25.8393 27.7376C25.4642 27.6245 25.0531 27.568 24.606 27.568C24.0511 27.568 23.5475 27.6553 23.0952 27.8301C22.6482 28.0048 22.2628 28.2848 21.939 28.6702C21.6153 29.0505 21.3661 29.5464 21.1913 30.1579C21.0166 30.7643 20.9293 31.5094 20.9293 32.3933V34.2278C20.9293 34.9318 20.9858 35.5511 21.0988 36.0855C21.217 36.6199 21.3815 37.0798 21.5922 37.4652C21.808 37.8455 22.0675 38.1564 22.3707 38.3979C22.6739 38.6395 23.013 38.8167 23.3882 38.9298C23.7684 39.0429 24.1795 39.0994 24.6215 39.0994C25.1764 39.0994 25.6775 39.0094 26.1246 38.8296C26.5768 38.6497 26.9647 38.3671 27.2885 37.9817C27.6122 37.5963 27.8589 37.0953 28.0285 36.4786C28.2032 35.8568 28.2905 35.1066 28.2905 34.2278ZM37.8943 34.2278V32.3933C37.8943 31.6893 37.8378 31.0726 37.7247 30.5433C37.6117 30.0089 37.4472 29.5541 37.2314 29.179C37.0207 28.7987 36.7638 28.4904 36.4606 28.254C36.1625 28.0176 35.8234 27.8455 35.4431 27.7376C35.068 27.6245 34.6569 27.568 34.2098 27.568C33.6548 27.568 33.1512 27.6553 32.699 27.8301C32.2519 28.0048 31.8665 28.2848 31.5428 28.6702C31.219 29.0505 30.9698 29.5464 30.7951 30.1579C30.6204 30.7643 30.533 31.5094 30.533 32.3933V34.2278C30.533 34.9318 30.5895 35.5511 30.7026 36.0855C30.8208 36.6199 30.9852 37.0798 31.1959 37.4652C31.4117 37.8455 31.6712 38.1564 31.9744 38.3979C32.2776 38.6395 32.6168 38.8167 32.9919 38.9298C33.3722 39.0429 33.7833 39.0994 34.2252 39.0994C34.7802 39.0994 35.2812 39.0094 35.7283 38.8296C36.1805 38.6497 36.5685 38.3671 36.8922 37.9817C37.216 37.5963 37.4626 37.0953 37.6322 36.4786C37.8069 35.8568 37.8943 35.1066 37.8943 34.2278ZM19.258 36.4923V35.0123H17.8551V27.7898H15.9435L11.1027 35.3746L11.1644 36.4923H15.9974V39.0129H17.8551V36.4923H19.258Z" fill="var(--background-primary-subtlest)"/>
<path d="M36.0366 34.4899V32.1158C36.0366 31.6687 36.0109 31.2756 35.9595 30.9364C35.9081 30.5921 35.8311 30.3018 35.7283 30.0654C35.6307 29.8239 35.5073 29.6286 35.3583 29.4796C35.2093 29.3254 35.0397 29.215 34.8496 29.1481C34.6594 29.0762 34.4462 29.0402 34.2098 29.0402C33.922 29.0402 33.6651 29.0968 33.439 29.2098C33.2129 29.3177 33.0227 29.4924 32.8686 29.734C32.7144 29.9755 32.5962 30.2941 32.514 30.6898C32.4369 31.0803 32.3984 31.5557 32.3984 32.1158V34.4899C32.3984 34.9421 32.4241 35.3404 32.4755 35.6847C32.5268 36.029 32.6039 36.3244 32.7067 36.5711C32.8095 36.8126 32.9328 37.013 33.0767 37.1723C33.2257 37.3265 33.3953 37.4396 33.5854 37.5115C33.7807 37.5834 33.994 37.6194 34.2252 37.6194C34.5181 37.6194 34.7776 37.5629 35.0037 37.4498C35.2298 37.3368 35.42 37.1569 35.5741 36.9103C35.7283 36.6585 35.8439 36.3321 35.921 35.9313C35.9981 35.5305 36.0366 35.05 36.0366 34.4899Z" fill="var(--background-primary-subtlest)"/>
<path d="M26.4329 34.4899V32.1158C26.4329 31.6687 26.4072 31.2756 26.3558 30.9364C26.3044 30.5921 26.2273 30.3018 26.1246 30.0654C26.0269 29.8239 25.9036 29.6286 25.7546 29.4796C25.6055 29.3254 25.436 29.215 25.2458 29.1481C25.0557 29.0762 24.8424 29.0402 24.606 29.0402C24.3183 29.0402 24.0613 29.0968 23.8352 29.2098C23.6091 29.3177 23.419 29.4924 23.2648 29.734C23.1107 29.9755 22.9925 30.2941 22.9103 30.6898C22.8332 31.0803 22.7946 31.5557 22.7946 32.1158V34.4899C22.7946 34.9421 22.8203 35.3404 22.8717 35.6847C22.9231 36.029 23.0002 36.3244 23.103 36.5711C23.2057 36.8126 23.3291 37.013 23.4729 37.1723C23.622 37.3265 23.7916 37.4396 23.9817 37.5115C24.177 37.5834 24.3902 37.6194 24.6215 37.6194C24.9144 37.6194 25.1739 37.5629 25.4 37.4498C25.6261 37.3368 25.8162 37.1569 25.9704 36.9103C26.1246 36.6585 26.2402 36.3321 26.3173 35.9313C26.3943 35.5305 26.4329 35.05 26.4329 34.4899Z" fill="var(--background-primary-subtlest)"/>
<path d="M15.9803 30.2951L13.0375 35.0123H15.9803V30.2951Z" fill="var(--background-primary-subtlest)"/>
</svg>
