<svg width="49" height="48" viewBox="0 0 49 48" fill="none" xmlns="http://www.w3.org/2000/svg">
<rect x="1.5" y="19.0009" width="46" height="28" rx="3" fill="var(--background-primary-subtlest)"/>
<path fill-rule="evenodd" clip-rule="evenodd" d="M24.5 8.00085C25.6804 8.00085 26.7414 7.48955 27.4736 6.67633L36.598 15.8008H39.0022L28.3368 5.13541C28.443 4.77573 28.5 4.39495 28.5 4.00085C28.5 1.79172 26.7091 0.000854492 24.5 0.000854492C22.2909 0.000854492 20.5 1.79172 20.5 4.00085C20.5 4.39495 20.557 4.77573 20.6632 5.13541L9.9978 15.8008H12.402L21.5264 6.67633C22.2586 7.48955 23.3196 8.00085 24.5 8.00085ZM24.5 6.30085C25.7703 6.30085 26.8 5.27111 26.8 4.00085C26.8 2.7306 25.7703 1.70085 24.5 1.70085C23.2297 1.70085 22.2 2.7306 22.2 4.00085C22.2 5.27111 23.2297 6.30085 24.5 6.30085Z" fill="var(--icon-on-subtle)"/>
<path d="M5.29997 24.0009C5.83016 24.0009 6.25997 23.5711 6.25997 23.0409C6.25997 22.5107 5.83016 22.0809 5.29997 22.0809C4.76977 22.0809 4.33997 22.5107 4.33997 23.0409C4.33997 23.5711 4.76977 24.0009 5.29997 24.0009Z" fill="var(--icon-on-subtle)"/>
<path d="M6.25997 43.2009C6.25997 43.7311 5.83016 44.1609 5.29997 44.1609C4.76977 44.1609 4.33997 43.7311 4.33997 43.2009C4.33997 42.6707 4.76977 42.2409 5.29997 42.2409C5.83016 42.2409 6.25997 42.6707 6.25997 43.2009Z" fill="var(--icon-on-subtle)"/>
<path d="M44.66 23.0409C44.66 23.5711 44.2302 24.0009 43.7 24.0009C43.1698 24.0009 42.74 23.5711 42.74 23.0409C42.74 22.5107 43.1698 22.0809 43.7 22.0809C44.2302 22.0809 44.66 22.5107 44.66 23.0409Z" fill="var(--icon-on-subtle)"/>
<path d="M44.66 43.2009C44.66 43.7311 44.2302 44.1609 43.7 44.1609C43.1698 44.1609 42.74 43.7311 42.74 43.2009C42.74 42.6707 43.1698 42.2409 43.7 42.2409C44.2302 42.2409 44.66 42.6707 44.66 43.2009Z" fill="var(--icon-on-subtle)"/>
<path fill-rule="evenodd" clip-rule="evenodd" d="M4.5 18.0009C2.29086 18.0009 0.5 19.7917 0.5 22.0009V44.0009C0.5 46.21 2.29086 48.0009 4.5 48.0009H44.5C46.7091 48.0009 48.5 46.21 48.5 44.0009V22.0009C48.5 19.7917 46.7091 18.0009 44.5 18.0009H4.5ZM44.5 19.5009H4.5C3.11929 19.5009 2 20.6201 2 22.0009V44.0009C2 45.3816 3.11929 46.5009 4.5 46.5009H44.5C45.8807 46.5009 47 45.3816 47 44.0009V22.0009C47 20.6201 45.8807 19.5009 44.5 19.5009Z" fill="var(--icon-on-subtle)"/>
<path d="M13.1575 34.6693L11.6775 34.307L12.2865 28.6646H18.3374V30.2371H13.8281L13.5198 32.9889C13.6945 32.8861 13.936 32.7859 14.2443 32.6883C14.5527 32.5855 14.9047 32.5341 15.3003 32.5341C15.8296 32.5341 16.3024 32.6215 16.7186 32.7962C17.14 32.9658 17.4972 33.215 17.7901 33.5439C18.083 33.8676 18.3065 34.2633 18.4607 34.7309C18.6149 35.1934 18.6919 35.715 18.6919 36.2957C18.6919 36.8147 18.6149 37.3003 18.4607 37.7525C18.3117 38.2047 18.0856 38.603 17.7824 38.9473C17.4792 39.2916 17.0963 39.5614 16.6339 39.7566C16.1765 39.9468 15.6344 40.0418 15.0074 40.0418C14.5398 40.0418 14.0902 39.975 13.6585 39.8414C13.232 39.7027 12.8492 39.4997 12.51 39.2325C12.1708 38.9601 11.8985 38.6261 11.6929 38.2304C11.4874 37.8296 11.3692 37.3697 11.3384 36.8507H13.1575C13.2037 37.2155 13.3039 37.5264 13.4581 37.7834C13.6174 38.0352 13.8281 38.2279 14.0902 38.3615C14.3522 38.4951 14.6554 38.5619 14.9997 38.5619C15.3132 38.5619 15.583 38.5079 15.8091 38.4C16.0352 38.287 16.2228 38.1277 16.3718 37.9221C16.5259 37.7114 16.639 37.4647 16.7109 37.1821C16.788 36.8995 16.8266 36.586 16.8266 36.2417C16.8266 35.9128 16.7829 35.6122 16.6955 35.3399C16.6133 35.0675 16.4874 34.8311 16.3178 34.6307C16.1534 34.4303 15.9453 34.2761 15.6935 34.1682C15.4417 34.0552 15.1513 33.9986 14.8224 33.9986C14.3805 33.9986 14.0413 34.0629 13.805 34.1914C13.5737 34.3198 13.3579 34.4791 13.1575 34.6693Z" fill="var(--icon-on-subtle)"/>
<path d="M28.1261 33.3357V35.1703C28.1261 36.049 28.0387 36.7993 27.864 37.4211C27.6944 38.0377 27.4478 38.5388 27.124 38.9242C26.8003 39.3096 26.4123 39.5922 25.9601 39.7721C25.513 39.9519 25.012 40.0418 24.457 40.0418C24.0151 40.0418 23.604 39.9853 23.2237 39.8723C22.8486 39.7592 22.5094 39.5819 22.2062 39.3404C21.9031 39.0989 21.6435 38.788 21.4277 38.4077C21.217 38.0223 21.0526 37.5624 20.9344 37.028C20.8213 36.4935 20.7648 35.8743 20.7648 35.1703V33.3357C20.7648 32.4519 20.8522 31.7068 21.0269 31.1004C21.2016 30.4889 21.4508 29.993 21.7746 29.6127C22.0983 29.2273 22.4837 28.9472 22.9308 28.7725C23.383 28.5978 23.8866 28.5104 24.4416 28.5104C24.8887 28.5104 25.2998 28.567 25.6749 28.68C26.0552 28.7879 26.3943 28.9601 26.6924 29.1965C26.9956 29.4329 27.2525 29.7412 27.4632 30.1214C27.679 30.4966 27.8435 30.9514 27.9565 31.4858C28.0696 32.0151 28.1261 32.6317 28.1261 33.3357ZM26.2684 35.4324V33.0583C26.2684 32.6112 26.2427 32.2181 26.1914 31.8789C26.14 31.5346 26.0629 31.2443 25.9601 31.0079C25.8625 30.7664 25.7391 30.5711 25.5901 30.4221C25.4411 30.2679 25.2715 30.1574 25.0814 30.0906C24.8912 30.0187 24.678 29.9827 24.4416 29.9827C24.1538 29.9827 23.8969 30.0392 23.6708 30.1523C23.4447 30.2602 23.2545 30.4349 23.1004 30.6764C22.9462 30.918 22.828 31.2366 22.7458 31.6322C22.6687 32.0228 22.6302 32.4981 22.6302 33.0583V35.4324C22.6302 35.8846 22.6559 36.2828 22.7073 36.6271C22.7587 36.9714 22.8357 37.2669 22.9385 37.5136C23.0413 37.7551 23.1646 37.9555 23.3085 38.1148C23.4575 38.269 23.6271 38.382 23.8172 38.454C24.0125 38.5259 24.2258 38.5619 24.457 38.5619C24.7499 38.5619 25.0094 38.5053 25.2355 38.3923C25.4616 38.2792 25.6518 38.0994 25.8059 37.8527C25.9601 37.6009 26.0757 37.2746 26.1528 36.8738C26.2299 36.473 26.2684 35.9925 26.2684 35.4324Z" fill="var(--icon-on-subtle)"/>
<path d="M37.938 38.4077V39.8877H30.4148V38.6158L34.0685 34.6307C34.4693 34.1785 34.7853 33.788 35.0166 33.4591C35.2478 33.1302 35.4097 32.8347 35.5022 32.5726C35.5998 32.3054 35.6486 32.0459 35.6486 31.7941C35.6486 31.4395 35.5818 31.1286 35.4482 30.8614C35.3198 30.5891 35.1296 30.3758 34.8778 30.2217C34.626 30.0624 34.3203 29.9827 33.9606 29.9827C33.5443 29.9827 33.1949 30.0726 32.9122 30.2525C32.6296 30.4323 32.4164 30.6816 32.2725 31.0002C32.1286 31.3136 32.0566 31.6734 32.0566 32.0793H30.199C30.199 31.4267 30.348 30.8306 30.646 30.291C30.9441 29.7463 31.3758 29.3147 31.941 28.9961C32.5063 28.6723 33.1872 28.5104 33.9837 28.5104C34.7339 28.5104 35.3711 28.6363 35.8953 28.8881C36.4195 29.1399 36.8177 29.4971 37.0901 29.9596C37.3676 30.4221 37.5063 30.9693 37.5063 31.6014C37.5063 31.9508 37.4498 32.2977 37.3367 32.642C37.2237 32.9863 37.0618 33.3306 36.8511 33.6749C36.6456 34.0141 36.4015 34.3558 36.1188 34.7001C35.8362 35.0393 35.5253 35.3835 35.1862 35.733L32.7581 38.4077H37.938Z" fill="var(--icon-on-subtle)"/>
</svg>
