<svg width="49" height="48" viewBox="0 0 49 48" fill="none" xmlns="http://www.w3.org/2000/svg">
<path fill-rule="evenodd" clip-rule="evenodd" d="M11.5 12.0009L24.5 1.00085L37.5 12.0009V47.0009H27.5V34.0009H21.5V47.0009H11.5V12.0009ZM18.5 17.0009H14.5V28.0009H18.5V17.0009ZM18.5 34.0009H14.5V39.0009H18.5V34.0009ZM22.5 17.0009V28.0009H26.5V17.0009H22.5ZM34.5 17.0009H30.5V28.0009H34.5V17.0009ZM34.5 34.0009H30.5V39.0009H34.5V34.0009Z" fill="var(--background-primary-subtlest)"/>
<path fill-rule="evenodd" clip-rule="evenodd" d="M13.5 29.0009V16.0009H19.5V29.0009H13.5ZM15 17.5009H18V21.7509H15V17.5009ZM15 23.2509V27.5009H18V23.2509H15Z" fill="var(--icon-on-subtle)"/>
<path fill-rule="evenodd" clip-rule="evenodd" d="M21.5 29.0009V16.0009H27.5V29.0009H21.5ZM23 17.5009H26V21.7509H23V17.5009ZM23 23.2509V27.5009H26V23.2509H23Z" fill="var(--icon-on-subtle)"/>
<path fill-rule="evenodd" clip-rule="evenodd" d="M29.5 16.0009V29.0009H35.5V16.0009H29.5ZM34 17.5009H31V21.7509H34V17.5009ZM31 27.5009V23.2509H34V27.5009H31Z" fill="var(--icon-on-subtle)"/>
<path fill-rule="evenodd" clip-rule="evenodd" d="M29.5 40.0009V33.0009H35.5V40.0009H29.5ZM31 34.5009H34V38.5009H31V34.5009Z" fill="var(--icon-on-subtle)"/>
<path fill-rule="evenodd" clip-rule="evenodd" d="M13.5 33.0009V40.0009H19.5V33.0009H13.5ZM18 34.5009H15V38.5009H18V34.5009Z" fill="var(--icon-on-subtle)"/>
<path fill-rule="evenodd" clip-rule="evenodd" d="M3.5 28.0009V41.0009H8.5V28.0009H3.5ZM7 29.5009H5V33.7509H7V29.5009ZM5 39.5009V35.2509H7V39.5009H5Z" fill="var(--icon-on-subtle)"/>
<path fill-rule="evenodd" clip-rule="evenodd" d="M40.5 41.0009V28.0009H45.5V41.0009H40.5ZM42 29.5009H44V33.7509H42V29.5009ZM42 35.2509V39.5009H44V35.2509H42Z" fill="var(--icon-on-subtle)"/>
<path fill-rule="evenodd" clip-rule="evenodd" d="M25.1508 0.241598L38.5 11.6838V23.0009H46.5C47.6046 23.0009 48.5 23.8963 48.5 25.0009V44.0009C48.5 45.1054 47.6046 46.0009 46.5 46.0009H38.5C38.5 47.1054 37.6046 48.0009 36.5 48.0009H12.5C11.3954 48.0009 10.5 47.1054 10.5 46.0009H2.5C1.39543 46.0009 0.5 45.1054 0.5 44.0009V25.0009C0.5 23.8963 1.39543 23.0009 2.5 23.0009H10.5V11.6838L23.8492 0.241598C24.2237 -0.0793932 24.7763 -0.0793935 25.1508 0.241598ZM36.5 46.5009H28V33.0009H21V46.5009H12.5C12.2239 46.5009 12 46.277 12 46.0009V12.3737L24.5 1.65939L37 12.3737V46.0009C37 46.277 36.7761 46.5009 36.5 46.5009ZM10.5 24.5009H2.5C2.22386 24.5009 2 24.7247 2 25.0009V44.0009C2 44.277 2.22386 44.5009 2.5 44.5009H10.5V24.5009ZM38.5 44.5009H46.5C46.7761 44.5009 47 44.277 47 44.0009V25.0009C47 24.7247 46.7761 24.5009 46.5 24.5009H38.5V44.5009ZM26.5 46.5009H22.5V34.5009H26.5V46.5009Z" fill="var(--icon-on-subtle)"/>
</svg>
