<svg width="49" height="48" viewBox="0 0 49 48" fill="none" xmlns="http://www.w3.org/2000/svg">
<path fill-rule="evenodd" clip-rule="evenodd" d="M19.7101 11.6918C19.7101 18.1868 25.0462 23.3828 31.4496 23.3828C37.853 23.3828 43.1891 18.0687 43.1891 11.6918C43.1891 5.19684 37.853 0.000854492 31.4496 0.000854492C25.0462 0.000854492 19.7101 5.31493 19.7101 11.6918ZM21.3702 11.6918C21.3702 6.14156 25.8763 1.65412 31.4496 1.65412C37.0229 1.65412 41.529 6.14156 41.529 11.6918C41.529 17.2421 37.0229 21.7295 31.4496 21.7295C25.8763 21.7295 21.3702 17.2421 21.3702 11.6918Z" fill="var(--icon-on-subtle)"/>
<path d="M6.42905 31.6492H23.0304V33.1843H6.42905V31.6492Z" fill="var(--icon-on-subtle)"/>
<path d="M23.0304 22.5561H6.42905V24.0913H23.0304V22.5561Z" fill="var(--icon-on-subtle)"/>
<path d="M41.9598 22.5384L43.1337 21.3694L48.5 26.7135L47.3261 27.8825L41.9598 22.5384Z" fill="var(--icon-on-subtle)"/>
<path d="M13.8997 13.4632H6.42905V14.9984H13.8997V13.4632Z" fill="var(--icon-on-subtle)"/>
<path d="M0.5 47.0009H35.7186V25.8626H34.0584V45.3476H2.16013V3.54354H20.0659V1.89027H0.5V47.0009Z" fill="var(--icon-on-subtle)"/>
<path d="M31.4496 1.65412C25.8763 1.65412 21.3702 6.14156 21.3702 11.6918C21.3702 17.2421 25.8763 21.7295 31.4496 21.7295C37.0229 21.7295 41.529 17.2421 41.529 11.6918C41.529 6.14156 37.0229 1.65412 31.4496 1.65412Z" fill="var(--background-primary-subtlest)"/>
</svg>
