<svg width="49" height="48" viewBox="0 0 49 48" fill="none" xmlns="http://www.w3.org/2000/svg">
<path d="M13.5395 4.86684L20 8.50085L17.5404 2.76189C16.6964 0.79257 13.9696 0.624406 12.89 2.4751C12.4007 3.31385 12.6932 4.39078 13.5395 4.86684Z" fill="var(--background-primary-subtlest)"/>
<path d="M29.1133 4.86646L22.6528 8.50048L25.1124 2.76152C25.9564 0.792195 28.6832 0.624031 29.7628 2.47473C30.2521 3.31348 29.9596 4.39041 29.1133 4.86646Z" fill="var(--background-primary-subtlest)"/>
<path d="M20 30.5009L19.0528 28.6064C18.714 27.9289 18.0215 27.5009 17.2639 27.5009H7.72237C6.73238 27.5009 5.89136 28.2251 5.7445 29.2042L3.3445 45.2042C3.16312 46.4134 4.09964 47.5009 5.32238 47.5009H41.322C42.2925 47.5009 43.1229 46.8041 43.2916 45.8484L45.5857 32.8484C45.8018 31.6237 44.8598 30.5009 43.6162 30.5009H20Z" fill="var(--background-primary-subtlest)"/>
<path fill-rule="evenodd" clip-rule="evenodd" d="M20.3211 6.92717C20.6619 6.65777 21.0924 6.49695 21.5605 6.49695C21.8443 6.49695 22.1143 6.55605 22.3588 6.66262C22.5251 6.22458 22.725 5.71282 22.9444 5.1811C23.2508 4.4384 23.5995 3.6468 23.9512 2.95947C24.2902 2.29684 24.6728 1.64794 25.062 1.25882C26.4283 -0.107428 28.6519 -0.521167 30.0011 0.827911C31.3504 2.17707 30.9366 4.40052 29.5702 5.76678C29.181 6.15589 28.5321 6.5384 27.8694 6.87742C27.1819 7.22907 26.3903 7.57768 25.6475 7.88412C24.9028 8.19134 24.1973 8.46026 23.6785 8.65218L23.5504 8.69942C23.4489 9.7089 22.5968 10.4969 21.5605 10.4969C20.5963 10.4969 19.7914 9.81456 19.6025 8.90636L19.5238 8.87837C19.3748 8.82524 19.1613 8.74824 18.9017 8.65218C18.383 8.46026 17.6774 8.19134 16.9328 7.88412C16.19 7.57768 15.3983 7.22907 14.7109 6.87742C14.0482 6.5384 13.3992 6.15589 13.0101 5.76678C11.6437 4.40052 11.2298 2.17707 12.5791 0.827911C13.9284 -0.521167 16.1519 -0.107428 17.5183 1.25882C17.9075 1.64794 18.29 2.29684 18.6291 2.95947C18.9808 3.6468 19.3294 4.4384 19.6359 5.1811C19.9012 5.82397 20.1379 6.43767 20.3211 6.92717ZM16.4577 2.31953C15.444 1.30595 14.1946 1.33385 13.6397 1.88863C13.085 2.44333 13.057 3.69249 14.0707 4.70606C14.2765 4.9119 14.7331 5.20391 15.3941 5.54201C16.0303 5.86748 16.7803 6.19858 17.5048 6.49749C17.9399 6.677 18.3623 6.84343 18.7402 6.98843C18.5952 6.61054 18.4288 6.18829 18.2493 5.75326C17.9504 5.0288 17.6192 4.27888 17.2937 3.64274C16.9556 2.9819 16.6635 2.52537 16.4577 2.31953ZM23.84 6.98843C24.218 6.84343 24.6403 6.677 25.0754 6.49749C25.8 6.19858 26.55 5.86748 27.1862 5.54201C27.8471 5.20391 28.3037 4.9119 28.5096 4.70606C29.5232 3.69249 29.4953 2.44333 28.9405 1.88863C28.3857 1.33385 27.1362 1.30595 26.1226 2.31953C25.9167 2.52537 25.6247 2.9819 25.2865 3.64274C24.961 4.27888 24.6299 5.0288 24.331 5.75326C24.1514 6.18829 23.985 6.61054 23.84 6.98843Z" fill="var(--icon-on-subtle)"/>
<path fill-rule="evenodd" clip-rule="evenodd" d="M4.5 19.0009C3.39543 19.0009 2.5 19.8963 2.5 21.0009V46.0009C2.5 47.1054 3.39543 48.0009 4.5 48.0009H41.8057C42.7834 48.0009 43.6178 47.294 43.7785 46.3297L46.1119 32.3297C46.315 31.1106 45.375 30.0009 44.1391 30.0009H43.5V21.0009C43.5 19.8963 42.6046 19.0009 41.5 19.0009H24.6252C24.7638 18.7653 24.7682 18.4622 24.6109 18.2161C24.3879 17.867 23.9241 17.7649 23.5751 17.9879C23.1365 18.2681 22.7286 18.6031 22.3582 19.0009H4.5ZM21.2569 20.5009H4.5C4.22386 20.5009 4 20.7247 4 21.0009V37.5009L5.25469 28.718C5.39545 27.7327 6.23929 27.0009 7.23459 27.0009H17.8513C18.5626 27.0009 19.2204 27.3787 19.5788 27.9931L20.75 30.0009H23.018C22.7821 29.6493 22.5323 29.3035 22.2768 28.9499C22.1676 28.7988 22.0574 28.6463 21.9468 28.4913C21.7063 28.1541 21.7846 27.6857 22.1218 27.4451C22.459 27.2046 22.9274 27.2829 23.1679 27.6201C23.2668 27.7586 23.369 27.8999 23.4732 28.044C23.9104 28.6487 24.3829 29.3021 24.7884 30.0009H42V21.0009C42 20.7247 41.7761 20.5009 41.5 20.5009H23.064C22.4145 21.3857 22.0279 22.1466 21.822 22.8105C21.6993 23.2061 21.2791 23.4274 20.8835 23.3046C20.4879 23.1819 20.2666 22.7618 20.3893 22.3661C20.5741 21.7705 20.8593 21.1516 21.2569 20.5009ZM44.6323 32.0831C44.6831 31.7783 44.448 31.5009 44.1391 31.5009H19.8884L18.2831 28.7489C18.1935 28.5953 18.0291 28.5009 17.8513 28.5009H7.23459C6.98577 28.5009 6.77481 28.6838 6.73962 28.9301L4.31104 45.9301C4.26801 46.2314 4.50174 46.5009 4.80602 46.5009H41.8057C42.0502 46.5009 42.2588 46.3241 42.2989 46.0831L44.6323 32.0831Z" fill="var(--icon-on-subtle)"/>
<path d="M40.5608 6.44864C39.4651 5.95939 38.149 5.81427 36.7862 5.86631C36.3723 5.88212 36.0496 6.23047 36.0654 6.64438C36.0812 7.0583 36.4295 7.38102 36.8434 7.36522C38.0873 7.31772 39.1458 7.45954 39.9492 7.8183C40.3274 7.98718 40.7709 7.81749 40.9398 7.43927C41.1087 7.06105 40.939 6.61753 40.5608 6.44864Z" fill="var(--icon-on-subtle)"/>
<path d="M33.5042 7.8341C33.9085 7.74429 34.1635 7.34368 34.0737 6.93932C33.9839 6.53496 33.5833 6.27997 33.179 6.36978C32.0101 6.62939 30.8374 6.96761 29.7261 7.3366C29.333 7.46713 29.1202 7.89163 29.2507 8.28474C29.3812 8.67785 29.8057 8.89071 30.1988 8.76018C31.2725 8.40366 32.3951 8.08041 33.5042 7.8341Z" fill="var(--icon-on-subtle)"/>
<path d="M26.9699 9.97664C27.3516 9.81572 27.5305 9.37586 27.3696 8.99418C27.2087 8.6125 26.7688 8.43354 26.3872 8.59446C25.7827 8.84933 25.2324 9.09683 24.7552 9.3237C24.3811 9.50152 24.2219 9.94894 24.3998 10.323C24.5776 10.6971 25.025 10.8563 25.3991 10.6784C25.8553 10.4616 26.3851 10.2232 26.9699 9.97664Z" fill="var(--icon-on-subtle)"/>
<path d="M43.1136 9.58177C43.0226 9.17767 42.6213 8.92384 42.2172 9.01481C41.8131 9.10579 41.5592 9.50713 41.6502 9.91122C41.7469 10.3406 41.7875 10.8508 41.7519 11.4551C41.7098 12.1709 41.6126 12.7861 41.4712 13.3147C41.3643 13.7149 41.602 14.126 42.0021 14.233C42.4023 14.3399 42.8134 14.1022 42.9204 13.7021C43.092 13.0599 43.2023 12.3426 43.2494 11.5431C43.2916 10.8244 43.2463 10.171 43.1136 9.58177Z" fill="var(--icon-on-subtle)"/>
<path d="M40.2506 17.3588C40.6107 17.1541 40.7368 16.6963 40.5321 16.3361C40.3275 15.976 39.8696 15.85 39.5095 16.0546C38.5779 16.584 37.3693 16.8005 35.9322 16.8502C35.5183 16.8645 35.1943 17.2117 35.2086 17.6257C35.2229 18.0396 35.5701 18.3636 35.9841 18.3493C37.5064 18.2967 39.0047 18.0668 40.2506 17.3588Z" fill="var(--icon-on-subtle)"/>
<path d="M27.8981 18.2261C29.1404 18.1211 30.4781 18.1698 31.859 18.2384C32.2727 18.2589 32.6247 17.9402 32.6453 17.5265C32.6658 17.1128 32.3471 16.7608 31.9334 16.7402C30.5555 16.6718 29.126 16.617 27.7718 16.7314C27.3591 16.7663 27.0528 17.1291 27.0876 17.5419C27.1225 17.9546 27.4854 18.2609 27.8981 18.2261Z" fill="var(--icon-on-subtle)"/>
</svg>
