<svg width="49" height="48" viewBox="0 0 49 48" fill="none" xmlns="http://www.w3.org/2000/svg">
<path d="M13.8934 24.0007L24.5 34.6073L22.0251 37.0821C20.2677 38.8395 17.4185 38.8395 15.6611 37.0821L11.4185 32.8395C9.66112 31.0821 9.66112 28.2329 11.4185 26.4755L13.8934 24.0007Z" fill="var(--background-primary-subtlest)"/>
<path d="M24.5 13.3943L35.1066 24.0009L37.5815 21.526C39.3388 19.7687 39.3388 16.9194 37.5815 15.1621L33.3388 10.9194C31.5815 9.16205 28.7322 9.16205 26.9749 10.9194L24.5 13.3943Z" fill="var(--background-primary-subtlest)"/>
<path fill-rule="evenodd" clip-rule="evenodd" d="M37.4051 36.552L33.8696 33.0165L34.9303 31.9558L38.4658 35.4913L37.4051 36.552Z" fill="var(--icon-on-subtle)"/>
<path fill-rule="evenodd" clip-rule="evenodd" d="M42.9105 27.933H37.9105V26.433H42.9105V27.933Z" fill="var(--icon-on-subtle)"/>
<path fill-rule="evenodd" clip-rule="evenodd" d="M26.9329 37.4113V42.4113H28.4329V37.4113H26.9329Z" fill="var(--icon-on-subtle)"/>
<path fill-rule="evenodd" clip-rule="evenodd" d="M20.569 5.59145V10.5915H22.069V5.59145H20.569Z" fill="var(--icon-on-subtle)"/>
<path fill-rule="evenodd" clip-rule="evenodd" d="M11.0907 21.569H6.09071V20.069H11.0907V21.569Z" fill="var(--icon-on-subtle)"/>
<path fill-rule="evenodd" clip-rule="evenodd" d="M15.4848 14.6317L11.9493 11.0961L13.0099 10.0355L16.5455 13.571L15.4848 14.6317Z" fill="var(--icon-on-subtle)"/>
<path fill-rule="evenodd" clip-rule="evenodd" d="M21.4958 22.4098L20.4352 21.3492L16.8995 24.8849L13.8942 21.8796L10.3586 25.4151C8.01549 27.7583 8.01549 31.5573 10.3586 33.9004L11.9497 35.4915L3.4646 43.9766L4.52526 45.0373L13.0104 36.5521L14.6013 38.143C16.9444 40.4862 20.7434 40.4862 23.0866 38.143L26.6221 34.6075L23.617 31.6024L27.1524 28.067L26.0917 27.0063L22.5563 30.5417L17.9601 25.9455L21.4958 22.4098ZM24.5009 34.6074L13.8943 24.0008L11.4194 26.4757C9.66203 28.2331 9.66203 31.0823 11.4194 32.8397L15.662 37.0823C17.4194 38.8397 20.2686 38.8397 22.026 37.0823L24.5009 34.6074Z" fill="var(--icon-on-subtle)"/>
<path fill-rule="evenodd" clip-rule="evenodd" d="M45.5367 4.02513L37.0517 12.5102L38.6426 14.1011C40.9857 16.4442 40.9857 20.2432 38.6426 22.5864L35.107 26.1219L22.3791 13.394L25.9146 9.85843C28.2578 7.51529 32.0568 7.51529 34.3999 9.85843L35.9909 11.4494L44.476 2.96436L45.5367 4.02513ZM35.1066 24.0007L24.5 13.3941L26.9748 10.9193C28.7322 9.1619 31.5814 9.1619 33.3388 10.9193L37.5814 15.1619C39.3388 16.9193 39.3388 19.7685 37.5814 21.5259L35.1066 24.0007Z" fill="var(--icon-on-subtle)"/>
</svg>
