<svg width="49" height="48" viewBox="0 0 49 48" fill="none" xmlns="http://www.w3.org/2000/svg"><path fill-rule="evenodd" clip-rule="evenodd" d="M34.7685 38.6201L37.5634 41.0567L40.7229 36.1836L39.5077 30.5795L35.7406 33.9907L34.7685 38.6201ZM37.1988 38.4983L36.5913 38.011L37.3204 34.9653L38.6571 33.747L39.0216 35.8181L37.1988 38.4983Z" fill="var(--icon-on-subtle)"/>
<path fill-rule="evenodd" clip-rule="evenodd" d="M27.3557 41.9094C26.5051 41.9094 25.776 41.422 25.4114 40.6911L24.5608 38.0109L22.9811 31.6759C22.9811 31.6149 22.9507 31.554 22.9203 31.4931C22.8899 31.4322 22.8595 31.3713 22.8595 31.3104C22.8595 31.3104 22.8595 31.1885 22.738 31.0667L21.8874 29.3611C21.6443 28.8738 21.1583 28.2647 20.1861 28.2647C19.9431 28.2647 19.8216 28.2647 19.5785 28.3865L18.8494 28.6302C18.2418 28.8738 17.5127 28.6302 17.0266 28.1429L14.4747 25.95C13.9886 25.5845 13.7456 25.0972 13.7456 24.3662V23.5134C13.7456 23.1015 13.9193 22.7766 14.0464 22.5388C14.0697 22.4953 14.0914 22.4547 14.1102 22.417L17.3912 17.6657C17.6342 17.4221 18.2418 16.9347 18.9709 16.9347H21.5228L24.6823 18.884C25.1684 19.1276 25.533 19.2495 26.019 19.1276L27.8418 18.7622C28.6925 18.6403 29.6646 19.0058 30.0292 19.9804L31.6089 23.7571C31.7304 24.2444 32.095 24.488 32.4595 24.7317L34.1608 25.8281C34.4038 26.0718 34.8899 26.5591 34.8899 27.2901C34.8899 27.7774 34.8899 28.3865 34.4039 28.8738L33.0671 30.5794C32.8241 30.9449 32.5811 31.4322 32.5811 31.9195V34.5997C32.5811 35.2089 32.338 35.5743 31.9735 36.0616L31.2444 36.9144C31.1228 37.0363 31.1228 37.1581 31.1228 37.1581C31.1228 37.219 31.0925 37.2495 31.0621 37.2799C31.0317 37.3104 31.0013 37.3408 31.0013 37.4017L29.057 40.8129C28.814 41.3002 28.4494 41.5439 28.0849 41.6657L27.8418 41.7875C27.7203 41.9094 27.5988 41.9094 27.3557 41.9094ZM26.2621 37.8891L27.1127 40.082C27.2342 40.3256 27.3557 40.3256 27.5988 40.3256C27.7203 40.3256 27.7203 40.2038 27.7203 40.2038L29.6646 36.7926C29.6646 36.6708 29.7861 36.549 29.9076 36.4271C29.9076 36.3662 29.938 36.3358 29.9684 36.3053C29.9988 36.2748 30.0292 36.2444 30.0292 36.1835L30.1507 36.0616L31.0013 35.087C31.1228 34.9652 31.1228 34.8434 31.1228 34.7215V32.0413C31.1228 31.3104 31.3659 30.3358 31.8519 29.7266L33.3102 27.8992C33.4317 27.7774 33.4317 27.5337 33.4317 27.4119C33.4317 27.4119 33.3102 27.2901 33.3102 27.1682L31.8519 26.1936L31.779 26.1352C31.2054 25.6761 30.7436 25.3064 30.3937 24.488L28.814 20.7114C28.814 20.7114 28.6925 20.4677 28.4494 20.4677L26.6266 20.8332C25.6545 20.955 24.9254 20.8332 24.0747 20.3459L21.4013 18.6403H19.3355C19.3355 18.6403 19.0924 18.6403 18.9709 18.884L15.8114 23.2698L15.6899 23.5134V24.3662C15.6899 24.6099 15.8114 24.6099 15.8114 24.6099L18.4848 26.8028L18.6064 26.9246L19.3355 26.6809C19.8216 26.5591 20.1861 26.5591 20.4292 26.5591C21.7659 26.5591 22.9811 27.2901 23.5887 28.6302L24.4393 30.3358C24.5608 30.4576 24.5608 30.5794 24.5608 30.7012C24.5608 30.7012 24.5608 30.8231 24.6823 30.9449L24.8038 31.0667L26.2621 37.8891Z" fill="var(--icon-on-subtle)"/>
<path fill-rule="evenodd" clip-rule="evenodd" d="M25.5203 0.020008L25.533 0.000854492H26.0191C37.3204 0.731819 46.6773 9.13791 48.2571 20.1024L48.3786 21.077H48.3232C48.4399 22.0351 48.5 23.0109 48.5 24.0009C48.5 37.28 37.6848 48.0009 24.5607 48.0009C18.4918 48.0009 12.9166 45.6823 8.67628 41.8884L8.39874 41.6658C4.02405 37.7673 1.22911 32.4069 0.621519 26.9247L0.5 26.3155L0.723189 26.2037C0.655898 25.4778 0.621489 24.743 0.621489 24.0009C0.621489 23.4689 0.639165 22.9408 0.673956 22.417H0.5L0.621519 21.4424C1.1076 17.4221 2.56582 13.5236 4.99621 10.1124L5.48228 9.5033L5.5231 9.52786C9.91363 3.75587 16.8374 0.000854492 24.5607 0.000854492C24.882 0.000854492 25.2019 0.00727887 25.5203 0.020008ZM46.3128 21.1988C45.2191 21.1988 44.3685 20.4679 44.1254 19.6151C44.0647 19.4323 44.0039 19.242 43.9432 19.0517C43.7609 18.4806 43.5786 17.9095 43.3963 17.544C43.0816 16.8077 42.4045 16.6163 41.9907 16.4993C41.9254 16.4809 41.8663 16.4642 41.8166 16.4476H41.6951C40.9659 16.4476 40.3584 16.6912 39.8723 17.1785C38.9001 18.275 37.4419 19.8587 35.7406 19.6151C34.5911 19.6151 33.8909 18.624 33.6401 18.269C33.5992 18.2112 33.5703 18.1702 33.5533 18.1531C31.852 14.8638 29.3001 12.5491 26.1406 11.3308C24.1963 10.7217 22.495 10.7217 22.009 10.7217H21.8875C21.4848 10.7217 20.9987 10.8889 20.4292 11.0848C20.3116 11.1253 20.1894 11.1673 20.0647 11.209C18.4849 11.6963 17.0267 11.3308 16.0545 10.1125C15.2039 9.13791 14.9609 7.43233 16.0545 6.09222V5.72674C16.5406 5.23943 17.2697 4.87395 17.9988 4.87395C20.6087 4.67268 22.7211 3.6401 24.336 1.70756C17.2647 1.7779 10.979 5.16414 6.95328 10.3881L8.52026 11.3307C9.49241 11.6962 10.343 12.7926 10.4646 14.0109L10.5861 14.2546C10.9506 15.8383 10.1 17.5439 8.64178 18.3967L7.06203 19.2495C6.45443 19.615 5.96836 19.9805 5.6038 20.5896C4.87469 21.8079 3.78102 22.417 2.56582 22.417H2.37812C2.34142 22.9402 2.32276 23.4684 2.32276 24.0009C2.32276 24.5561 2.34305 25.1066 2.38292 25.6517C3.51221 25.5301 4.638 25.8971 5.36076 26.8028L6.81899 28.1429C7.42659 28.7521 8.03418 29.1176 8.64178 29.1176C10.343 29.483 11.6798 30.945 11.6798 32.7724V33.016C11.6798 34.1125 11.4367 35.2089 10.8291 36.0617C10.4646 36.6709 10.1 37.5237 9.97849 38.3764L9.78362 40.6557C13.7133 44.1632 18.8906 46.2953 24.5607 46.2953C36.8342 46.2953 46.7987 36.3054 46.7987 24.0009C46.7987 23.0351 46.7374 22.0837 46.6183 21.1502C46.523 21.176 46.4179 21.1988 46.3128 21.1988ZM46.3426 19.4905C46.0573 19.4791 45.8028 19.4214 45.7052 19.1278C45.4621 18.1531 45.2191 17.3003 44.8546 16.6912C44.3685 15.5948 43.3963 14.8638 41.9381 14.742H41.6951C40.4799 14.742 39.5077 15.2293 38.5356 15.9602C37.0773 17.6658 36.2267 17.9095 35.7406 17.9095C35.3761 17.9095 35.0115 17.544 34.89 17.3003C32.9457 13.6455 30.1507 11.0871 26.5052 9.74705C24.3178 9.13791 22.3735 9.13791 21.7659 9.13791H21.6444C20.9153 9.13791 20.0647 9.38156 19.3356 9.62522C18.1204 9.9907 17.3913 9.38156 17.0267 9.01608C16.6621 8.52877 16.5406 7.79781 17.0267 7.06684L17.1482 6.94502C17.3912 6.70136 17.6343 6.57953 17.9988 6.57953C21.4947 6.21698 24.273 4.65558 26.3339 1.77642C36.269 2.56372 44.3757 9.9092 46.3426 19.4905ZM8.40262 39.3122L8.52026 38.1328C8.64178 37.0363 9.00633 35.9399 9.61393 35.0871C9.97849 34.478 10.2215 33.747 10.2215 33.016V32.7724C10.2215 31.7978 9.49241 30.945 8.64178 30.8231C7.66962 30.7013 6.69747 30.0922 5.84684 29.3612L4.26709 27.8993C3.83359 27.356 3.20678 27.2004 2.55906 27.2595C3.23699 31.8919 5.33823 36.0632 8.40262 39.3122ZM2.56359 20.7114H2.56582C3.41646 20.7114 4.02405 20.2241 4.38861 19.7368C4.87469 19.0058 5.48228 18.3967 6.33291 17.9094L7.91266 17.0566C8.7633 16.5693 9.24937 15.5947 9.12785 14.7419L8.88482 14.3764C8.7633 13.6454 8.39874 13.0363 7.79114 12.7926L6.00398 11.7176C4.25069 14.373 3.0491 17.4259 2.56359 20.7114Z" fill="var(--icon-on-subtle)"/>
<path d="M46.3426 19.4905C46.0573 19.4791 45.8028 19.4214 45.7052 19.1278C45.4621 18.1531 45.2191 17.3003 44.8546 16.6912C44.3685 15.5948 43.3963 14.8638 41.9381 14.742H41.6951C40.4799 14.742 39.5077 15.2293 38.5356 15.9602C37.0773 17.6658 36.2267 17.9095 35.7406 17.9095C35.3761 17.9095 35.0115 17.544 34.89 17.3003C32.9457 13.6455 30.1507 11.0871 26.5052 9.74705C24.3178 9.13791 22.3735 9.13791 21.7659 9.13791H21.6444C20.9153 9.13791 20.0647 9.38156 19.3356 9.62522C18.1204 9.9907 17.3913 9.38156 17.0267 9.01608C16.6621 8.52877 16.5406 7.79781 17.0267 7.06684L17.1482 6.94502C17.3912 6.70136 17.6343 6.57953 17.9988 6.57953C21.4947 6.21698 24.273 4.65558 26.3339 1.77642C36.269 2.56372 44.3757 9.9092 46.3426 19.4905Z" fill="var(--background-primary-subtlest)"/>
<path d="M27.1127 40.082L26.2621 37.8891L24.8038 31.0667L24.6823 30.9449C24.5608 30.8231 24.5608 30.7012 24.5608 30.7012C24.5608 30.5794 24.5608 30.4576 24.4393 30.3358L23.5887 28.6302C22.9811 27.2901 21.7659 26.5591 20.4292 26.5591C20.1861 26.5591 19.8216 26.5591 19.3355 26.6809L18.6064 26.9246L18.4848 26.8028L15.8114 24.6099C15.8114 24.6099 15.6899 24.6099 15.6899 24.3662V23.5134L15.8114 23.2698L18.9709 18.884C19.0924 18.6403 19.3355 18.6403 19.3355 18.6403H21.4013L24.0747 20.3459C24.9254 20.8332 25.6545 20.955 26.6266 20.8332L28.4494 20.4677C28.6925 20.4677 28.814 20.7114 28.814 20.7114L30.3937 24.488C30.7436 25.3064 31.2054 25.6761 31.779 26.1352L31.8519 26.1936L33.3102 27.1682C33.3102 27.2901 33.4317 27.4119 33.4317 27.4119C33.4317 27.5337 33.4317 27.7774 33.3102 27.8992L31.8519 29.7266C31.3659 30.3358 31.1228 31.3104 31.1228 32.0413V34.7215C31.1228 34.8434 31.1228 34.9652 31.0013 35.087L30.1507 36.0616L30.0292 36.1835C30.0292 36.2444 29.9988 36.2748 29.9684 36.3053C29.938 36.3358 29.9076 36.3662 29.9076 36.4271C29.7861 36.549 29.6646 36.6708 29.6646 36.7926L27.7203 40.2038C27.7203 40.2038 27.7203 40.3256 27.5988 40.3256C27.3557 40.3256 27.2342 40.3256 27.1127 40.082Z" fill="var(--background-primary-subtlest)"/>
<path d="M8.40262 39.3122L8.52026 38.1328C8.64178 37.0363 9.00633 35.9399 9.61393 35.0871C9.97849 34.478 10.2215 33.747 10.2215 33.016V32.7724C10.2215 31.7978 9.49241 30.945 8.64178 30.8231C7.66962 30.7013 6.69747 30.0922 5.84684 29.3612L4.26709 27.8993C3.83359 27.356 3.20678 27.2004 2.55906 27.2595C3.23699 31.8919 5.33823 36.0632 8.40262 39.3122Z" fill="var(--background-primary-subtlest)"/>
<path d="M2.56359 20.7114H2.56582C3.41646 20.7114 4.02405 20.2241 4.38861 19.7368C4.87469 19.0058 5.48228 18.3967 6.33291 17.9094L7.91266 17.0566C8.7633 16.5693 9.24937 15.5947 9.12785 14.7419L8.88482 14.3764C8.7633 13.6454 8.39874 13.0363 7.79114 12.7926L6.00398 11.7176C4.25069 14.373 3.0491 17.4259 2.56359 20.7114Z" fill="var(--background-primary-subtlest)"/>
<path d="M36.5913 38.011L37.1988 38.4983L39.0216 35.8181L38.6571 33.747L37.3204 34.9653L36.5913 38.011Z" fill="var(--background-primary-subtlest)"/>
</svg>
