<svg width="49" height="48" viewBox="0 0 49 48" fill="none" xmlns="http://www.w3.org/2000/svg">
<path fill-rule="evenodd" clip-rule="evenodd" d="M4.07447 0.000854492H44.9255C46.8997 0.000854492 48.5 1.6012 48.5 3.57532V19.9157C48.5 21.8899 46.8997 23.4902 44.9255 23.4902H26.5426V28.717H29.3088C30.0549 28.717 30.7704 29.0134 31.298 29.541C31.8255 30.0685 32.1219 30.7841 32.1219 31.5301C32.1219 32.2674 31.8648 32.9732 31.402 33.4934C31.4714 33.5496 31.5378 33.6089 31.601 33.6711C32.1456 34.2071 32.4146 34.9194 32.4146 35.6245C32.4146 36.3296 32.1456 37.0418 31.601 37.5778C31.4453 37.731 31.2708 37.8663 31.079 37.9816C31.4914 38.4853 31.6954 39.1048 31.6954 39.7188C31.6954 40.4239 31.4263 41.1361 30.8818 41.6721C30.6309 41.919 30.3312 42.1194 29.9889 42.2643C30.3068 42.73 30.4643 43.2737 30.4643 43.8131C30.4643 44.5182 30.1953 45.2304 29.6507 45.7664C29.0997 46.3087 28.3132 46.6262 27.3585 46.6262H10.3993C9.96797 47.4256 9.12283 47.9688 8.15082 47.9688H5.60638C4.19629 47.9688 3.05319 46.8257 3.05319 45.4156V31.6604C3.05319 30.2503 4.19629 29.1072 5.60638 29.1072H8.15082C9.23855 29.1072 10.1674 29.7874 10.5353 30.7457L16.2273 26.3329C16.8247 25.7954 17.5894 25.4799 18.3927 25.4403C19.2073 25.4001 20.0102 25.6459 20.6626 26.1353L22.4574 27.4814V23.4902H4.07447C2.10035 23.4902 0.5 21.8899 0.5 19.9157V3.57532C0.5 1.6012 2.10034 0.000854492 4.07447 0.000854492ZM4.07447 1.53277C2.9464 1.53277 2.03192 2.44725 2.03192 3.57532V19.9157C2.03192 21.0438 2.9464 21.9583 4.07447 21.9583H44.9255C46.0536 21.9583 46.9681 21.0438 46.9681 19.9157V3.57532C46.9681 2.44725 46.0536 1.53277 44.9255 1.53277H4.07447ZM28.5761 42.9516C28.3471 42.7262 27.9637 42.5319 27.3585 42.5319H26.5792C26.1562 42.5319 25.8132 42.189 25.8132 41.766C25.8132 41.5545 25.899 41.363 26.0376 41.2244C26.0722 41.1897 26.1102 41.1583 26.1509 41.1308C26.2732 41.0482 26.4206 41 26.5792 41H28.5896C29.1948 41 29.5782 40.8057 29.8072 40.5803C30.0426 40.3486 30.1635 40.0373 30.1635 39.7188C30.1635 39.4003 30.0426 39.0889 29.8072 38.8572C29.5782 38.6319 29.1948 38.4376 28.5896 38.4376H26.5792C26.1562 38.4376 25.8133 38.0946 25.8133 37.6716C25.8133 37.2486 26.1562 36.9057 26.5792 36.9057H29.3088C29.914 36.9057 30.2974 36.7114 30.5264 36.486C30.7618 36.2543 30.8827 35.9429 30.8827 35.6245C30.8827 35.306 30.7618 34.9946 30.5264 34.7629C30.2974 34.5375 29.914 34.3433 29.3088 34.3433H26.5792C26.1562 34.3433 25.8133 34.0003 25.8133 33.5773C25.8133 33.1543 26.1562 32.8113 26.5792 32.8113H29.4671C30.0961 32.8113 30.59 32.3212 30.59 31.5301C30.59 31.1903 30.455 30.8645 30.2147 30.6242C29.9745 30.3839 29.6486 30.2489 29.3088 30.2489H23.8601C23.8528 30.249 23.8454 30.249 23.838 30.2489H19.7554C19.3324 30.2489 18.9894 29.906 18.9894 29.483C18.9894 29.06 19.3324 28.717 19.7554 28.717H21.5517L19.7434 27.3608C19.3769 27.0859 18.9258 26.9477 18.4683 26.9703C18.0107 26.9929 17.5754 27.1748 17.2378 27.4845C17.2223 27.4987 17.2061 27.5124 17.1894 27.5253L10.7128 32.5464V45.0943H27.3585C27.9637 45.0943 28.3471 44.9 28.5761 44.6746C28.8115 44.443 28.9324 44.1316 28.9324 43.8131C28.9324 43.4946 28.8115 43.1833 28.5761 42.9516ZM4.58511 31.6604C4.58511 31.0964 5.04235 30.6392 5.60638 30.6392H8.15082C8.71486 30.6392 9.1721 31.0964 9.1721 31.6604V45.4156C9.1721 45.9796 8.71486 46.4368 8.15082 46.4368H5.60638C5.04235 46.4368 4.58511 45.9796 4.58511 45.4156V31.6604Z" fill="var(--icon-on-subtle)"/>
<path d="M27.8467 11.4099V13.213C27.8467 14.0766 27.7619 14.814 27.5923 15.4251C27.4278 16.0312 27.1884 16.5236 26.8742 16.9024C26.56 17.2812 26.1835 17.5589 25.7447 17.7357C25.3108 17.9125 24.8246 18.0009 24.286 18.0009C23.8571 18.0009 23.4582 17.9453 23.0891 17.8342C22.7251 17.7231 22.3959 17.5488 22.1017 17.3115C21.8075 17.0741 21.5556 16.7685 21.3462 16.3948C21.1417 16.016 20.9821 15.564 20.8674 15.0387C20.7577 14.5135 20.7029 13.9049 20.7029 13.213V11.4099C20.7029 10.5413 20.7876 9.80894 20.9572 9.21298C21.1268 8.61197 21.3686 8.12459 21.6828 7.75085C21.997 7.37207 22.371 7.09681 22.8049 6.9251C23.2437 6.75338 23.7324 6.66752 24.271 6.66752C24.7049 6.66752 25.1038 6.72308 25.4679 6.83419C25.8369 6.94025 26.1661 7.10944 26.4553 7.34176C26.7495 7.57409 26.9989 7.87712 27.2033 8.25085C27.4128 8.61954 27.5724 9.06651 27.6821 9.59176C27.7918 10.112 27.8467 10.718 27.8467 11.4099ZM26.0439 13.4706V11.1372C26.0439 10.6978 26.0189 10.3115 25.9691 9.97813C25.9192 9.63974 25.8444 9.35439 25.7447 9.12207C25.6499 8.88469 25.5302 8.69277 25.3856 8.54631C25.241 8.39479 25.0764 8.28621 24.8919 8.22055C24.7074 8.14984 24.5004 8.11449 24.271 8.11449C23.9918 8.11449 23.7424 8.17005 23.523 8.28116C23.3036 8.38722 23.119 8.55894 22.9694 8.79631C22.8198 9.03368 22.7051 9.34681 22.6253 9.7357C22.5505 10.1195 22.5131 10.5867 22.5131 11.1372V13.4706C22.5131 13.915 22.5381 14.3064 22.5879 14.6448C22.6378 14.9832 22.7126 15.2736 22.8123 15.516C22.9121 15.7534 23.0318 15.9504 23.1714 16.1069C23.316 16.2584 23.4806 16.3695 23.6651 16.4403C23.8546 16.511 24.0616 16.5463 24.286 16.5463C24.5702 16.5463 24.8221 16.4908 25.0415 16.3796C25.2609 16.2685 25.4455 16.0918 25.5951 15.8493C25.7447 15.6019 25.8569 15.2812 25.9317 14.8872C26.0065 14.4933 26.0439 14.0211 26.0439 13.4706Z" fill="var(--icon-on-subtle)"/>
<path d="M37.1667 11.4099V13.213C37.1667 14.0766 37.0819 14.814 36.9123 15.4251C36.7478 16.0312 36.5084 16.5236 36.1942 16.9024C35.88 17.2812 35.5035 17.5589 35.0647 17.7357C34.6308 17.9125 34.1446 18.0009 33.606 18.0009C33.1771 18.0009 32.7782 17.9453 32.4091 17.8342C32.0451 17.7231 31.7159 17.5488 31.4217 17.3115C31.1275 17.0741 30.8756 16.7685 30.6662 16.3948C30.4617 16.016 30.3021 15.564 30.1874 15.0387C30.0777 14.5135 30.0229 13.9049 30.0229 13.213V11.4099C30.0229 10.5413 30.1076 9.80894 30.2772 9.21298C30.4468 8.61197 30.6886 8.12459 31.0028 7.75085C31.317 7.37207 31.691 7.09681 32.1249 6.9251C32.5637 6.75338 33.0524 6.66752 33.591 6.66752C34.0249 6.66752 34.4238 6.72308 34.7879 6.83419C35.1569 6.94025 35.4861 7.10944 35.7753 7.34176C36.0695 7.57409 36.3189 7.87712 36.5234 8.25085C36.7328 8.61954 36.8924 9.06651 37.0021 9.59176C37.1118 10.112 37.1667 10.718 37.1667 11.4099ZM35.3639 13.4706V11.1372C35.3639 10.6978 35.339 10.3115 35.2891 9.97813C35.2392 9.63974 35.1644 9.35439 35.0647 9.12207C34.9699 8.88469 34.8502 8.69277 34.7056 8.54631C34.561 8.39479 34.3964 8.28621 34.2119 8.22055C34.0274 8.14984 33.8204 8.11449 33.591 8.11449C33.3118 8.11449 33.0624 8.17005 32.843 8.28116C32.6236 8.38722 32.439 8.55894 32.2894 8.79631C32.1398 9.03368 32.0251 9.34681 31.9453 9.7357C31.8705 10.1195 31.8331 10.5867 31.8331 11.1372V13.4706C31.8331 13.915 31.8581 14.3064 31.9079 14.6448C31.9578 14.9832 32.0326 15.2736 32.1323 15.516C32.2321 15.7534 32.3518 15.9504 32.4914 16.1069C32.636 16.2584 32.8006 16.3695 32.9851 16.4403C33.1746 16.511 33.3816 16.5463 33.606 16.5463C33.8902 16.5463 34.1421 16.4908 34.3615 16.3796C34.5809 16.2685 34.7655 16.0918 34.9151 15.8493C35.0647 15.6019 35.1769 15.2812 35.2517 14.8872C35.3265 14.4933 35.3639 14.0211 35.3639 13.4706Z" fill="var(--icon-on-subtle)"/>
<path fill-rule="evenodd" clip-rule="evenodd" d="M19.081 13.984V15.4386H17.7195V17.9158H15.9167V15.4386H11.2265L11.1667 14.3401L15.8644 6.88552H17.7195V13.984H19.081ZM13.0443 13.984L15.9001 9.34776V13.984H13.0443Z" fill="var(--icon-on-subtle)"/>
<path fill-rule="evenodd" clip-rule="evenodd" d="M2.03192 3.57532C2.03192 2.44725 2.9464 1.53277 4.07447 1.53277H44.9255C46.0536 1.53277 46.9681 2.44725 46.9681 3.57532V19.9157C46.9681 21.0438 46.0536 21.9583 44.9255 21.9583H4.07447C2.9464 21.9583 2.03192 21.0438 2.03192 19.9157V3.57532ZM27.8467 13.213V11.4099C27.8467 10.718 27.7918 10.112 27.6821 9.59176C27.5724 9.06651 27.4128 8.61954 27.2033 8.25085C26.9989 7.87712 26.7495 7.57409 26.4553 7.34176C26.1661 7.10944 25.8369 6.94025 25.4679 6.83419C25.1038 6.72308 24.7049 6.66752 24.271 6.66752C23.7324 6.66752 23.2437 6.75338 22.8049 6.9251C22.371 7.09681 21.997 7.37207 21.6828 7.75085C21.3686 8.12459 21.1268 8.61197 20.9572 9.21298C20.7876 9.80894 20.7029 10.5413 20.7029 11.4099V13.213C20.7029 13.9049 20.7577 14.5135 20.8674 15.0387C20.9821 15.564 21.1417 16.016 21.3462 16.3948C21.5556 16.7685 21.8075 17.0741 22.1017 17.3115C22.3959 17.5488 22.7251 17.7231 23.0891 17.8342C23.4582 17.9453 23.8571 18.0009 24.286 18.0009C24.8246 18.0009 25.3108 17.9125 25.7447 17.7357C26.1835 17.5589 26.56 17.2812 26.8742 16.9024C27.1884 16.5236 27.4278 16.0312 27.5923 15.4251C27.7619 14.814 27.8467 14.0766 27.8467 13.213ZM37.1667 13.213V11.4099C37.1667 10.718 37.1118 10.112 37.0021 9.59176C36.8924 9.06651 36.7328 8.61954 36.5234 8.25085C36.3189 7.87712 36.0695 7.57409 35.7753 7.34176C35.4861 7.10944 35.1569 6.94025 34.7879 6.83419C34.4238 6.72308 34.0249 6.66752 33.591 6.66752C33.0524 6.66752 32.5637 6.75338 32.1249 6.9251C31.691 7.09681 31.317 7.37207 31.0028 7.75085C30.6886 8.12459 30.4468 8.61197 30.2772 9.21298C30.1076 9.80894 30.0229 10.5413 30.0229 11.4099V13.213C30.0229 13.9049 30.0777 14.5135 30.1874 15.0387C30.3021 15.564 30.4617 16.016 30.6662 16.3948C30.8756 16.7685 31.1275 17.0741 31.4217 17.3115C31.7159 17.5488 32.0451 17.7231 32.4091 17.8342C32.7782 17.9453 33.1771 18.0009 33.606 18.0009C34.1446 18.0009 34.6308 17.9125 35.0647 17.7357C35.5035 17.5589 35.88 17.2812 36.1942 16.9024C36.5084 16.5236 36.7478 16.0312 36.9123 15.4251C37.0819 14.814 37.1667 14.0766 37.1667 13.213ZM19.081 15.4386V13.984H17.7195V6.88552H15.8644L11.1667 14.3401L11.2265 15.4386H15.9167V17.9158H17.7195V15.4386H19.081Z" fill="var(--background-primary-subtlest)"/>
<path d="M35.3639 13.4706V11.1372C35.3639 10.6978 35.339 10.3115 35.2891 9.97813C35.2392 9.63974 35.1644 9.35439 35.0647 9.12207C34.9699 8.88469 34.8502 8.69277 34.7056 8.54631C34.561 8.39479 34.3964 8.28621 34.2119 8.22055C34.0274 8.14984 33.8204 8.11449 33.591 8.11449C33.3118 8.11449 33.0624 8.17005 32.843 8.28116C32.6236 8.38722 32.439 8.55894 32.2894 8.79631C32.1398 9.03368 32.0251 9.34681 31.9453 9.7357C31.8705 10.1195 31.8331 10.5867 31.8331 11.1372V13.4706C31.8331 13.915 31.8581 14.3064 31.9079 14.6448C31.9578 14.9832 32.0326 15.2736 32.1323 15.516C32.2321 15.7534 32.3518 15.9504 32.4914 16.1069C32.636 16.2584 32.8006 16.3695 32.9851 16.4403C33.1746 16.511 33.3816 16.5463 33.606 16.5463C33.8902 16.5463 34.1421 16.4908 34.3615 16.3796C34.5809 16.2685 34.7655 16.0918 34.9151 15.8493C35.0647 15.6019 35.1769 15.2812 35.2517 14.8872C35.3265 14.4933 35.3639 14.0211 35.3639 13.4706Z" fill="var(--background-primary-subtlest)"/>
<path d="M26.0439 13.4706V11.1372C26.0439 10.6978 26.0189 10.3115 25.9691 9.97813C25.9192 9.63974 25.8444 9.35439 25.7447 9.12207C25.6499 8.88469 25.5302 8.69277 25.3856 8.54631C25.241 8.39479 25.0764 8.28621 24.8919 8.22055C24.7074 8.14984 24.5004 8.11449 24.271 8.11449C23.9918 8.11449 23.7424 8.17005 23.523 8.28116C23.3036 8.38722 23.119 8.55894 22.9694 8.79631C22.8198 9.03368 22.7051 9.34681 22.6253 9.7357C22.5505 10.1195 22.5131 10.5867 22.5131 11.1372V13.4706C22.5131 13.915 22.5381 14.3064 22.5879 14.6448C22.6378 14.9832 22.7126 15.2736 22.8123 15.516C22.9121 15.7534 23.0318 15.9504 23.1714 16.1069C23.316 16.2584 23.4806 16.3695 23.6651 16.4403C23.8546 16.511 24.0616 16.5463 24.286 16.5463C24.5702 16.5463 24.8221 16.4908 25.0415 16.3796C25.2609 16.2685 25.4455 16.0918 25.5951 15.8493C25.7447 15.6019 25.8569 15.2812 25.9317 14.8872C26.0065 14.4933 26.0439 14.0211 26.0439 13.4706Z" fill="var(--background-primary-subtlest)"/>
<path d="M15.9001 9.34776L13.0443 13.984H15.9001V9.34776Z" fill="var(--background-primary-subtlest)"/>
</svg>
