<svg width="49" height="48" viewBox="0 0 49 48" fill="none" xmlns="http://www.w3.org/2000/svg">
<rect x="1.5" y="1.00085" width="46" height="21" rx="3" fill="var(--background-primary-subtlest)"/>
<path fill-rule="evenodd" clip-rule="evenodd" d="M4.07447 0.000854492H44.9255C46.8997 0.000854492 48.5 1.6012 48.5 3.57532V19.9157C48.5 21.8899 46.8997 23.4902 44.9255 23.4902H26.5426V28.717H29.3088C30.0549 28.717 30.7704 29.0134 31.298 29.541C31.8255 30.0685 32.1219 30.7841 32.1219 31.5301C32.1219 32.2674 31.8648 32.9732 31.402 33.4934C31.4714 33.5496 31.5378 33.6089 31.601 33.6711C32.1456 34.2071 32.4146 34.9194 32.4146 35.6245C32.4146 36.3296 32.1456 37.0418 31.601 37.5778C31.4453 37.731 31.2708 37.8663 31.079 37.9816C31.4914 38.4853 31.6954 39.1048 31.6954 39.7188C31.6954 40.4239 31.4263 41.1361 30.8818 41.6721C30.6309 41.919 30.3312 42.1194 29.9889 42.2643C30.3068 42.73 30.4643 43.2737 30.4643 43.8131C30.4643 44.5182 30.1953 45.2304 29.6507 45.7664C29.0997 46.3087 28.3132 46.6262 27.3585 46.6262H10.3993C9.96797 47.4256 9.12283 47.9688 8.15082 47.9688H5.60638C4.19629 47.9688 3.05319 46.8257 3.05319 45.4156V31.6604C3.05319 30.2503 4.19629 29.1072 5.60638 29.1072H8.15082C9.23855 29.1072 10.1674 29.7874 10.5353 30.7457L16.2273 26.3329C16.8247 25.7954 17.5894 25.4799 18.3927 25.4403C19.2073 25.4001 20.0102 25.6459 20.6626 26.1353L22.4574 27.4814V23.4902H4.07447C2.10035 23.4902 0.5 21.8899 0.5 19.9157V3.57532C0.5 1.6012 2.10034 0.000854492 4.07447 0.000854492ZM4.07447 1.53277C2.9464 1.53277 2.03192 2.44725 2.03192 3.57532V19.9157C2.03192 21.0438 2.9464 21.9583 4.07447 21.9583H44.9255C46.0536 21.9583 46.9681 21.0438 46.9681 19.9157V3.57532C46.9681 2.44725 46.0536 1.53277 44.9255 1.53277H4.07447ZM28.5761 42.9516C28.3471 42.7262 27.9637 42.5319 27.3585 42.5319H26.5792C26.1562 42.5319 25.8132 42.189 25.8132 41.766C25.8132 41.5545 25.899 41.363 26.0376 41.2244C26.0722 41.1897 26.1102 41.1583 26.1509 41.1308C26.2732 41.0482 26.4206 41 26.5792 41H28.5896C29.1948 41 29.5782 40.8057 29.8072 40.5803C30.0426 40.3486 30.1635 40.0373 30.1635 39.7188C30.1635 39.4003 30.0426 39.0889 29.8072 38.8572C29.5782 38.6319 29.1948 38.4376 28.5896 38.4376H26.5792C26.1562 38.4376 25.8133 38.0946 25.8133 37.6716C25.8133 37.2486 26.1562 36.9057 26.5792 36.9057H29.3088C29.914 36.9057 30.2974 36.7114 30.5264 36.486C30.7618 36.2543 30.8827 35.9429 30.8827 35.6245C30.8827 35.306 30.7618 34.9946 30.5264 34.7629C30.2974 34.5375 29.914 34.3433 29.3088 34.3433H26.5792C26.1562 34.3433 25.8133 34.0003 25.8133 33.5773C25.8133 33.1543 26.1562 32.8113 26.5792 32.8113H29.4671C30.0961 32.8113 30.59 32.3212 30.59 31.5301C30.59 31.1903 30.455 30.8645 30.2147 30.6242C29.9745 30.3839 29.6486 30.2489 29.3088 30.2489H23.8601C23.8528 30.249 23.8454 30.249 23.838 30.2489H19.7554C19.3324 30.2489 18.9894 29.906 18.9894 29.483C18.9894 29.06 19.3324 28.717 19.7554 28.717H21.5517L19.7434 27.3608C19.3769 27.0859 18.9258 26.9477 18.4683 26.9703C18.0107 26.9929 17.5754 27.1748 17.2378 27.4845C17.2223 27.4987 17.2061 27.5124 17.1894 27.5253L10.7128 32.5464V45.0943H27.3585C27.9637 45.0943 28.3471 44.9 28.5761 44.6746C28.8115 44.443 28.9324 44.1316 28.9324 43.8131C28.9324 43.4946 28.8115 43.1833 28.5761 42.9516ZM4.58511 31.6604C4.58511 31.0964 5.04235 30.6392 5.60638 30.6392H8.15082C8.71486 30.6392 9.1721 31.0964 9.1721 31.6604V45.4156C9.1721 45.9796 8.71486 46.4368 8.15082 46.4368H5.60638C5.04235 46.4368 4.58511 45.9796 4.58511 45.4156V31.6604Z" fill="var(--icon-on-subtle)"/>
<path d="M12.9448 12.7206L11.4982 12.3645L12.0934 6.81904H18.0079V8.36449H13.6003L13.2989 11.069C13.4697 10.968 13.7058 10.8695 14.0071 10.7736C14.3085 10.6726 14.6526 10.6221 15.0393 10.6221C15.5567 10.6221 16.0188 10.7079 16.4257 10.8796C16.8376 11.0463 17.1867 11.2913 17.473 11.6145C17.7593 11.9327 17.9778 12.3216 18.1285 12.7812C18.2791 13.2357 18.3545 13.7483 18.3545 14.319C18.3545 14.8291 18.2791 15.3064 18.1285 15.7509C17.9828 16.1953 17.7618 16.5867 17.4654 16.9251C17.1691 17.2635 16.7949 17.5286 16.3428 17.7206C15.8958 17.9074 15.3658 18.0009 14.753 18.0009C14.296 18.0009 13.8564 17.9352 13.4345 17.8039C13.0176 17.6675 12.6434 17.468 12.3119 17.2054C11.9804 16.9377 11.7142 16.6094 11.5132 16.2206C11.3123 15.8266 11.1968 15.3746 11.1667 14.8645H12.9448C12.99 15.2231 13.0879 15.5286 13.2386 15.7812C13.3943 16.0286 13.6003 16.218 13.8564 16.3493C14.1126 16.4807 14.409 16.5463 14.7455 16.5463C15.0519 16.5463 15.3156 16.4933 15.5366 16.3872C15.7576 16.2761 15.941 16.1195 16.0866 15.9175C16.2373 15.7105 16.3478 15.468 16.4181 15.1902C16.4935 14.9125 16.5312 14.6044 16.5312 14.266C16.5312 13.9428 16.4885 13.6473 16.4031 13.3796C16.3227 13.112 16.1996 12.8796 16.0339 12.6827C15.8732 12.4857 15.6697 12.3342 15.4236 12.2281C15.1775 12.117 14.8937 12.0615 14.5722 12.0615C14.1402 12.0615 13.8087 12.1246 13.5777 12.2509C13.3516 12.3771 13.1407 12.5337 12.9448 12.7206Z" fill="var(--icon-on-subtle)"/>
<path d="M27.576 11.4099V13.213C27.576 14.0766 27.4906 14.814 27.3198 15.4251C27.1541 16.0312 26.913 16.5236 26.5965 16.9024C26.2801 17.2812 25.9008 17.5589 25.4588 17.7357C25.0218 17.9125 24.5321 18.0009 23.9896 18.0009C23.5576 18.0009 23.1558 17.9453 22.7841 17.8342C22.4174 17.7231 22.0859 17.5488 21.7896 17.3115C21.4932 17.0741 21.2396 16.7685 21.0286 16.3948C20.8227 16.016 20.6619 15.564 20.5464 15.0387C20.4359 14.5135 20.3806 13.9049 20.3806 13.213V11.4099C20.3806 10.5413 20.466 9.80894 20.6368 9.21298C20.8076 8.61197 21.0512 8.12459 21.3676 7.75085C21.6841 7.37207 22.0608 7.09681 22.4978 6.9251C22.9398 6.75338 23.4321 6.66752 23.9745 6.66752C24.4115 6.66752 24.8134 6.72308 25.18 6.83419C25.5517 6.94025 25.8833 7.10944 26.1746 7.34176C26.4709 7.57409 26.7221 7.87712 26.928 8.25085C27.139 8.61954 27.2997 9.06651 27.4102 9.59176C27.5207 10.112 27.576 10.718 27.576 11.4099ZM25.7602 13.4706V11.1372C25.7602 10.6978 25.7351 10.3115 25.6848 9.97813C25.6346 9.63974 25.5593 9.35439 25.4588 9.12207C25.3634 8.88469 25.2428 8.69277 25.0972 8.54631C24.9515 8.39479 24.7857 8.28621 24.5999 8.22055C24.414 8.14984 24.2056 8.11449 23.9745 8.11449C23.6933 8.11449 23.4421 8.17005 23.2211 8.28116C23.0001 8.38722 22.8142 8.55894 22.6636 8.79631C22.5129 9.03368 22.3973 9.34681 22.317 9.7357C22.2416 10.1195 22.204 10.5867 22.204 11.1372V13.4706C22.204 13.915 22.2291 14.3064 22.2793 14.6448C22.3295 14.9832 22.4049 15.2736 22.5053 15.516C22.6058 15.7534 22.7263 15.9504 22.867 16.1069C23.0127 16.2584 23.1784 16.3695 23.3643 16.4403C23.5551 16.511 23.7636 16.5463 23.9896 16.5463C24.2759 16.5463 24.5296 16.4908 24.7506 16.3796C24.9716 16.2685 25.1574 16.0918 25.3081 15.8493C25.4588 15.6019 25.5718 15.2812 25.6472 14.8872C25.7225 14.4933 25.7602 14.0211 25.7602 13.4706Z" fill="var(--icon-on-subtle)"/>
<path d="M37.1667 16.3948V17.8493H29.8131V16.5993L33.3844 12.6827C33.7762 12.2382 34.0851 11.8544 34.3111 11.5312C34.5372 11.2079 34.6954 10.9175 34.7858 10.6599C34.8812 10.3973 34.929 10.1423 34.929 9.89479C34.929 9.54631 34.8637 9.24075 34.7331 8.97813C34.6075 8.71045 34.4216 8.50085 34.1755 8.34934C33.9294 8.19277 33.6305 8.11449 33.2789 8.11449C32.8721 8.11449 32.5305 8.20287 32.2542 8.37964C31.978 8.55641 31.7695 8.80136 31.6289 9.11449C31.4882 9.42257 31.4179 9.77611 31.4179 10.1751H29.6021C29.6021 9.53368 29.7478 8.94782 30.0391 8.41752C30.3305 7.88217 30.7524 7.45793 31.3049 7.14479C31.8574 6.82661 32.523 6.66752 33.3015 6.66752C34.0349 6.66752 34.6577 6.79126 35.1701 7.03873C35.6824 7.28621 36.0717 7.63722 36.3379 8.09176C36.6091 8.54631 36.7447 9.08419 36.7447 9.7054C36.7447 10.0488 36.6895 10.3897 36.579 10.7281C36.4685 11.0665 36.3103 11.4049 36.1043 11.7433C35.9034 12.0766 35.6648 12.4125 35.3885 12.7509C35.1123 13.0842 34.8084 13.4226 34.4769 13.766L32.1036 16.3948H37.1667Z" fill="var(--icon-on-subtle)"/>
</svg>
