<svg width="49" height="48" viewBox="0 0 49 48" fill="none" xmlns="http://www.w3.org/2000/svg">
<path fill-rule="evenodd" clip-rule="evenodd" d="M18.8382 5.00085L22.8466 9.0092L26.1534 5.70232L35.4729 15.0217H42.6879L48.5 25.5436H42.9885V42.5791H4.40814V18.9299L1.80271 24.1407L0.5 23.5395L4.40814 15.7232V15.1219H8.71712L18.8382 5.00085ZM29.9614 18.7295V41.1762H41.4854V25.6439H33.7693L29.9614 18.7295ZM28.4582 16.6251H5.91127V41.1762H28.4582V16.6251ZM20.1409 21.9361C21.4436 21.9361 22.5459 23.0384 22.5459 24.3411V25.0426C22.5459 26.3453 21.4436 27.4476 20.1409 27.4476H13.0261C11.7234 27.4476 10.6211 26.3453 10.6211 25.0426V24.3411C10.6211 23.0384 11.7234 21.9361 13.0261 21.9361H20.1409ZM20.1409 23.4393H13.0261C12.5251 23.4393 12.1242 23.8401 12.1242 24.3411V25.0426C12.1242 25.5437 12.5251 25.9445 13.0261 25.9445H20.1409C20.642 25.9445 21.0428 25.5437 21.0428 25.0426V24.3411C21.0428 23.8401 20.642 23.4393 20.1409 23.4393ZM41.786 16.6251H30.4624L34.6712 24.1407H45.9948L41.786 16.6251ZM26.1534 7.8067L23.9489 10.0113L28.9593 15.0217H33.4687L26.1534 7.8067ZM18.8382 7.10524L10.9217 15.0217H26.8549L18.8382 7.10524Z" fill="var(--icon-on-subtle)"/>
<path fill-rule="evenodd" clip-rule="evenodd" d="M28.4582 16.6251H5.91127V41.1762H28.4582V16.6251ZM22.5459 24.3411C22.5459 23.0384 21.4436 21.9361 20.1409 21.9361H13.0261C11.7234 21.9361 10.6211 23.0384 10.6211 24.3411V25.0426C10.6211 26.3453 11.7234 27.4476 13.0261 27.4476H20.1409C21.4436 27.4476 22.5459 26.3453 22.5459 25.0426V24.3411Z" fill="var(--background-primary-subtlest)"/>
<path d="M41.786 16.6251H30.4624L34.6712 24.1407H45.9948L41.786 16.6251Z" fill="var(--background-primary-subtlest)"/>
</svg>
