<svg width="49" height="48" viewBox="0 0 49 48" fill="none" xmlns="http://www.w3.org/2000/svg">
<path d="M46.1913 11.0009H16.5118C16.0976 11.0009 15.863 11.4756 16.1146 11.8046L27.1877 26.2848C27.8955 27.2104 29.2416 27.3373 30.11 26.5603L46.5247 11.8735C46.8667 11.5674 46.6503 11.0009 46.1913 11.0009Z" fill="var(--background-primary-subtlest)"/>
<path d="M12.5129 37.0692H42.1924C42.6066 37.0692 42.8412 36.5945 42.5896 36.2655C41.165 34.5312 33.0609 26.7664 29.8777 23.7312C29.1435 23.0311 28.0069 22.9995 27.2277 23.6492L12.1795 36.1966C11.8375 36.5026 12.054 37.0692 12.5129 37.0692Z" fill="var(--background-primary-subtlest)"/>
<path fill-rule="evenodd" clip-rule="evenodd" d="M0.5 15.7509C0.5 15.3366 0.835786 15.0009 1.25 15.0009H10.75C11.1642 15.0009 11.5 15.3366 11.5 15.7509C11.5 16.1651 11.1642 16.5009 10.75 16.5009H1.25C0.835786 16.5009 0.5 16.1651 0.5 15.7509Z" fill="var(--icon-on-subtle)"/>
<path fill-rule="evenodd" clip-rule="evenodd" d="M0.5 21.7509C0.5 21.3366 0.835786 21.0009 1.25 21.0009H9.75C10.1642 21.0009 10.5 21.3366 10.5 21.7509C10.5 22.1651 10.1642 22.5009 9.75 22.5009H1.25C0.835786 22.5009 0.5 22.1651 0.5 21.7509Z" fill="var(--icon-on-subtle)"/>
<path fill-rule="evenodd" clip-rule="evenodd" d="M0.5 27.7509C0.5 27.3366 0.835786 27.0009 1.25 27.0009H8.75C9.16421 27.0009 9.5 27.3366 9.5 27.7509C9.5 28.1651 9.16421 28.5009 8.75 28.5009H1.25C0.835786 28.5009 0.5 28.1651 0.5 27.7509Z" fill="var(--icon-on-subtle)"/>
<path fill-rule="evenodd" clip-rule="evenodd" d="M16.2336 10.0009C15.2383 10.0009 14.3945 10.7327 14.2537 11.718L10.8252 35.718C10.653 36.9229 11.588 38.0009 12.8051 38.0009H42.7645C43.7598 38.0009 44.6036 37.269 44.7444 36.2837L48.1729 12.2837C48.345 11.0788 47.4101 10.0009 46.193 10.0009H16.2336ZM16.8262 11.5009L27.7856 25.8324C28.2275 26.4103 29.0676 26.4902 29.6106 26.006L45.8739 11.5009H16.8262ZM46.5713 12.8888L32.9793 25.0113L43.3093 35.7226L46.5713 12.8888ZM31.8308 26.0357L30.609 27.1254C29.4146 28.1907 27.5663 28.0149 26.5941 26.7436L25.7947 25.6982L13.1532 36.5009H41.9725L31.8308 26.0357ZM24.9016 24.5304L15.6643 12.4508L12.4205 35.1575L24.9016 24.5304Z" fill="var(--icon-on-subtle)"/>
</svg>
