<svg width="16" height="16" viewBox="0 0 16 16" fill="none" xmlns="http://www.w3.org/2000/svg">
<path d="M0.5 9.90002C0.632608 9.90002 0.759785 9.9527 0.853553 10.0465C0.947322 10.1402 1 10.2674 1 10.4V12.9C1 13.1652 1.10536 13.4196 1.29289 13.6071C1.48043 13.7947 1.73478 13.9 2 13.9H14C14.2652 13.9 14.5196 13.7947 14.7071 13.6071C14.8946 13.4196 15 13.1652 15 12.9V10.4C15 10.2674 15.0527 10.1402 15.1464 10.0465C15.2402 9.9527 15.3674 9.90002 15.5 9.90002C15.6326 9.90002 15.7598 9.9527 15.8536 10.0465C15.9473 10.1402 16 10.2674 16 10.4V12.9C16 13.4305 15.7893 13.9392 15.4142 14.3142C15.0391 14.6893 14.5304 14.9 14 14.9H2C1.46957 14.9 0.960859 14.6893 0.585786 14.3142C0.210714 13.9392 0 13.4305 0 12.9V10.4C0 10.2674 0.0526784 10.1402 0.146447 10.0465C0.240215 9.9527 0.367392 9.90002 0.5 9.90002Z" fill="currentColor"/>
<path d="M7.64602 1.14604C7.69247 1.09948 7.74764 1.06253 7.80839 1.03733C7.86913 1.01212 7.93425 0.999146 8.00002 0.999146C8.06579 0.999146 8.13091 1.01212 8.19165 1.03733C8.2524 1.06253 8.30758 1.09948 8.35402 1.14604L11.354 4.14604C11.4479 4.23993 11.5007 4.36726 11.5007 4.50004C11.5007 4.63282 11.4479 4.76015 11.354 4.85404C11.2601 4.94793 11.1328 5.00067 11 5.00067C10.8672 5.00067 10.7399 4.94793 10.646 4.85404L8.50002 2.70704V11.5C8.50002 11.6326 8.44734 11.7598 8.35358 11.8536C8.25981 11.9474 8.13263 12 8.00002 12C7.86741 12 7.74024 11.9474 7.64647 11.8536C7.5527 11.7598 7.50002 11.6326 7.50002 11.5V2.70704L5.35402 4.85404C5.30753 4.90053 5.25234 4.9374 5.19161 4.96256C5.13087 4.98772 5.06577 5.00067 5.00002 5.00067C4.93428 5.00067 4.86918 4.98772 4.80844 4.96256C4.7477 4.9374 4.69251 4.90053 4.64602 4.85404C4.59953 4.80755 4.56266 4.75236 4.5375 4.69162C4.51234 4.63088 4.49939 4.56578 4.49939 4.50004C4.49939 4.4343 4.51234 4.3692 4.5375 4.30846C4.56266 4.24772 4.59953 4.19253 4.64602 4.14604L7.64602 1.14604Z" fill="currentColor"/>
</svg>
