<svg width="16" height="16" viewBox="0 0 16 16" fill="none" xmlns="http://www.w3.org/2000/svg">
<path d="M2.14601 2.85402C2.09952 2.80753 2.06264 2.75234 2.03748 2.6916C2.01232 2.63087 1.99937 2.56577 1.99937 2.50002C1.99937 2.43428 2.01232 2.36918 2.03748 2.30844C2.06264 2.2477 2.09952 2.19251 2.14601 2.14602C2.19249 2.09953 2.24768 2.06266 2.30842 2.0375C2.36916 2.01234 2.43426 1.99939 2.50001 1.99939C2.56575 1.99939 2.63085 2.01234 2.69159 2.0375C2.75233 2.06266 2.80752 2.09953 2.85401 2.14602L8.00001 7.29302L13.146 2.14602C13.1925 2.09953 13.2477 2.06266 13.3084 2.0375C13.3692 2.01234 13.4343 1.99939 13.5 1.99939C13.5657 1.99939 13.6308 2.01234 13.6916 2.0375C13.7523 2.06266 13.8075 2.09953 13.854 2.14602C13.9005 2.19251 13.9374 2.2477 13.9625 2.30844C13.9877 2.36918 14.0006 2.43428 14.0006 2.50002C14.0006 2.56577 13.9877 2.63087 13.9625 2.6916C13.9374 2.75234 13.9005 2.80753 13.854 2.85402L8.70701 8.00002L13.854 13.146C13.9005 13.1925 13.9374 13.2477 13.9625 13.3084C13.9877 13.3692 14.0006 13.4343 14.0006 13.5C14.0006 13.5658 13.9877 13.6309 13.9625 13.6916C13.9374 13.7523 13.9005 13.8075 13.854 13.854C13.8075 13.9005 13.7523 13.9374 13.6916 13.9625C13.6308 13.9877 13.5657 14.0007 13.5 14.0007C13.4343 14.0007 13.3692 13.9877 13.3084 13.9625C13.2477 13.9374 13.1925 13.9005 13.146 13.854L8.00001 8.70702L2.85401 13.854C2.80752 13.9005 2.75233 13.9374 2.69159 13.9625C2.63085 13.9877 2.56575 14.0007 2.50001 14.0007C2.43426 14.0007 2.36916 13.9877 2.30842 13.9625C2.24768 13.9374 2.19249 13.9005 2.14601 13.854C2.09952 13.8075 2.06264 13.7523 2.03748 13.6916C2.01232 13.6309 1.99937 13.5658 1.99937 13.5C1.99937 13.4343 2.01232 13.3692 2.03748 13.3084C2.06264 13.2477 2.09952 13.1925 2.14601 13.146L7.29301 8.00002L2.14601 2.85402Z" fill="currentColor"/>
</svg>
