<svg width="16" height="16" viewBox="0 0 16 16" fill="none" xmlns="http://www.w3.org/2000/svg">
<path d="M4.646 4.64604C4.69245 4.59948 4.74762 4.56253 4.80837 4.53733C4.86911 4.51212 4.93423 4.49915 5 4.49915C5.06577 4.49915 5.13089 4.51212 5.19163 4.53733C5.25238 4.56253 5.30756 4.59948 5.354 4.64604L8 7.29304L10.646 4.64604C10.6925 4.59955 10.7477 4.56267 10.8084 4.53752C10.8692 4.51236 10.9343 4.49941 11 4.49941C11.0657 4.49941 11.1308 4.51236 11.1916 4.53752C11.2523 4.56267 11.3075 4.59955 11.354 4.64604C11.4005 4.69253 11.4374 4.74772 11.4625 4.80846C11.4877 4.86919 11.5006 4.9343 11.5006 5.00004C11.5006 5.06578 11.4877 5.13088 11.4625 5.19162C11.4374 5.25236 11.4005 5.30755 11.354 5.35404L8.707 8.00004L11.354 10.646C11.4005 10.6925 11.4374 10.7477 11.4625 10.8085C11.4877 10.8692 11.5006 10.9343 11.5006 11C11.5006 11.0658 11.4877 11.1309 11.4625 11.1916C11.4374 11.2524 11.4005 11.3076 11.354 11.354C11.3075 11.4005 11.2523 11.4374 11.1916 11.4626C11.1308 11.4877 11.0657 11.5007 11 11.5007C10.9343 11.5007 10.8692 11.4877 10.8084 11.4626C10.7477 11.4374 10.6925 11.4005 10.646 11.354L8 8.70704L5.354 11.354C5.30751 11.4005 5.25232 11.4374 5.19158 11.4626C5.13085 11.4877 5.06574 11.5007 5 11.5007C4.93426 11.5007 4.86916 11.4877 4.80842 11.4626C4.74768 11.4374 4.69249 11.4005 4.646 11.354C4.59951 11.3076 4.56264 11.2524 4.53748 11.1916C4.51232 11.1309 4.49937 11.0658 4.49937 11C4.49937 10.9343 4.51232 10.8692 4.53748 10.8085C4.56264 10.7477 4.59951 10.6925 4.646 10.646L7.293 8.00004L4.646 5.35404C4.59944 5.30759 4.56249 5.25242 4.53729 5.19167C4.51208 5.13093 4.49911 5.06581 4.49911 5.00004C4.49911 4.93427 4.51208 4.86915 4.53729 4.80841C4.56249 4.74766 4.59944 4.69248 4.646 4.64604Z" fill="currentColor"/>
</svg>
