<svg width="48" height="48" viewBox="0 0 48 48" fill="none" xmlns="http://www.w3.org/2000/svg">
<path fill-rule="evenodd" clip-rule="evenodd" d="M24 8.00092C25.1804 8.00092 26.2414 7.48961 26.9736 6.67639L35.8491 15.5519C36.0085 15.7113 36.2247 15.8009 36.4501 15.8009C37.2074 15.8009 37.5866 14.8853 37.0512 14.3498L27.8368 5.13547C27.943 4.77579 28 4.39501 28 4.00092C28 1.79178 26.2091 0.000915527 24 0.000915527C21.7909 0.000915527 20 1.79178 20 4.00092C20 4.39501 20.057 4.77579 20.1632 5.13547L10.9488 14.3498C10.4134 14.8853 10.7926 15.8009 11.5499 15.8009C11.7753 15.8009 11.9915 15.7113 12.1509 15.5519L21.0264 6.67639C21.7586 7.48961 22.8196 8.00092 24 8.00092ZM24 6.30092C25.2703 6.30092 26.3 5.27117 26.3 4.00092C26.3 2.73066 25.2703 1.70092 24 1.70092C22.7297 1.70092 21.7 2.73066 21.7 4.00092C21.7 5.27117 22.7297 6.30092 24 6.30092Z" fill="currentColor"/>
<path d="M15.4844 39.0009V37.5009H10.2344L12.6953 34.79C13.0391 34.4358 13.3542 34.0869 13.6406 33.7431C13.9271 33.3941 14.1745 33.0478 14.3828 32.704C14.5964 32.3551 14.7604 32.0061 14.875 31.6572C14.9896 31.3082 15.0469 30.9566 15.0469 30.6025C15.0469 29.9619 14.9062 29.4072 14.625 28.9384C14.349 28.4697 13.9453 28.1077 13.4141 27.8525C12.8828 27.5973 12.237 27.4697 11.4766 27.4697C10.6693 27.4697 9.97917 27.6337 9.40625 27.9619C8.83333 28.2848 8.39583 28.7223 8.09375 29.2744C7.79167 29.8212 7.64062 30.4254 7.64062 31.0869H9.52344C9.52344 30.6754 9.59635 30.3108 9.74219 29.9931C9.88802 29.6702 10.1042 29.4176 10.3906 29.2353C10.6771 29.053 11.0312 28.9619 11.4531 28.9619C11.8177 28.9619 12.1276 29.0426 12.3828 29.204C12.638 29.3603 12.8307 29.5764 12.9609 29.8525C13.0964 30.1233 13.1641 30.4384 13.1641 30.7978C13.1641 31.053 13.1146 31.316 13.0156 31.5869C12.9219 31.8525 12.7578 32.152 12.5234 32.4853C12.2891 32.8186 11.9688 33.2145 11.5625 33.6728L7.85938 37.7119V39.0009H15.4844Z" fill="currentColor"/>
<path fill-rule="evenodd" clip-rule="evenodd" d="M24.7891 34.9462V36.4462H23.3672V39.0009H21.4844V36.4462H16.5859L16.5234 35.3134L21.4297 27.6259H23.3672V34.9462H24.7891ZM21.3047 30.4228L21.4844 30.115V34.9462H18.4844L21.3047 30.4228Z" fill="currentColor"/>
<path d="M31.1016 27.6259L26.6719 39.9775H25.1953L29.6328 27.6259H31.1016Z" fill="currentColor"/>
<path d="M39.8516 27.6259V28.6572L35.3047 39.0009H33.3203L37.8594 29.1259H31.9688V27.6259H39.8516Z" fill="currentColor"/>
<path d="M4.79997 24.001C5.33016 24.001 5.75997 23.5712 5.75997 23.041C5.75997 22.5108 5.33016 22.081 4.79997 22.081C4.26977 22.081 3.83997 22.5108 3.83997 23.041C3.83997 23.5712 4.26977 24.001 4.79997 24.001Z" fill="currentColor"/>
<path d="M5.75997 43.201C5.75997 43.7312 5.33016 44.161 4.79997 44.161C4.26977 44.161 3.83997 43.7312 3.83997 43.201C3.83997 42.6708 4.26977 42.241 4.79997 42.241C5.33016 42.241 5.75997 42.6708 5.75997 43.201Z" fill="currentColor"/>
<path d="M44.16 23.041C44.16 23.5712 43.7302 24.001 43.2 24.001C42.6698 24.001 42.24 23.5712 42.24 23.041C42.24 22.5108 42.6698 22.081 43.2 22.081C43.7302 22.081 44.16 22.5108 44.16 23.041Z" fill="currentColor"/>
<path d="M44.16 43.201C44.16 43.7312 43.7302 44.161 43.2 44.161C42.6698 44.161 42.24 43.7312 42.24 43.201C42.24 42.6708 42.6698 42.241 43.2 42.241C43.7302 42.241 44.16 42.6708 44.16 43.201Z" fill="currentColor"/>
<path fill-rule="evenodd" clip-rule="evenodd" d="M4 18.0009C1.79086 18.0009 0 19.7918 0 22.0009V44.0009C0 46.2101 1.79086 48.0009 4 48.0009H44C46.2091 48.0009 48 46.2101 48 44.0009V22.0009C48 19.7918 46.2091 18.0009 44 18.0009H4ZM44 19.5009H4C2.61929 19.5009 1.5 20.6202 1.5 22.0009V44.0009C1.5 45.3816 2.61929 46.5009 4 46.5009H44C45.3807 46.5009 46.5 45.3816 46.5 44.0009V22.0009C46.5 20.6202 45.3807 19.5009 44 19.5009Z" fill="currentColor"/>
</svg>
