<svg width="48" height="48" viewBox="0 0 48 48" fill="none" xmlns="http://www.w3.org/2000/svg">
<g clip-path="url(#clip0_100_771)">
<path fill-rule="evenodd" clip-rule="evenodd" d="M24.2456 5.62366C24.2456 7.11491 23.6532 8.54509 22.5987 9.59956C21.5442 10.654 20.114 11.2464 18.6228 11.2464C17.1315 11.2464 15.7013 10.654 14.6469 9.59956C13.5924 8.54509 13 7.11491 13 5.62366C13 4.13241 13.5924 2.70223 14.6469 1.64776C15.7013 0.593283 17.1315 0.00088501 18.6228 0.00088501C20.114 0.00088501 21.5442 0.593283 22.5987 1.64776C23.6532 2.70223 24.2456 4.13241 24.2456 5.62366ZM22.7456 5.62366C22.7456 6.71709 22.3112 7.76573 21.538 8.5389C20.7648 9.31207 19.7162 9.74644 18.6228 9.74644C17.5293 9.74644 16.4807 9.31207 15.7075 8.5389C14.9344 7.76573 14.5 6.71709 14.5 5.62366C14.5 4.53023 14.9344 3.48159 15.7075 2.70842C16.4807 1.93525 17.5293 1.50089 18.6228 1.50089C19.7162 1.50089 20.7648 1.93525 21.538 2.70842C22.3112 3.48159 22.7456 4.53023 22.7456 5.62366Z" fill="currentColor"/>
<path d="M26.25 31.0009C26.25 30.5867 26.5858 30.2509 27 30.2509H38C38.4142 30.2509 38.75 30.5867 38.75 31.0009C38.75 31.4151 38.4142 31.7509 38 31.7509H27C26.5858 31.7509 26.25 31.4151 26.25 31.0009Z" fill="currentColor"/>
<path fill-rule="evenodd" clip-rule="evenodd" d="M9.42055 32.7237C9.92606 32.7681 10.4362 32.7095 10.9199 32.5504C10.9199 34.4974 10.9201 36.4443 10.9202 38.3912C10.9204 40.3383 10.9206 42.2853 10.9206 44.2327C10.9193 45.1982 11.2906 46.1271 11.9573 46.8256C12.6239 47.5241 13.5344 47.9385 14.499 47.9823C15.4636 48.0261 16.4078 47.696 17.1351 47.0608C17.4014 46.8282 17.6311 46.5612 17.8195 46.2689C18.1374 45.7759 18.3377 45.211 18.3982 44.6181L18.4014 44.5857L18.4026 44.5725L18.6658 33.9871L18.9303 44.5725L18.9315 44.5857L18.9347 44.6203C18.9932 45.213 19.1914 45.7782 19.5072 46.2721C19.6957 46.5668 19.9261 46.8361 20.1936 47.0707C20.9215 47.709 21.8681 48.041 22.8352 47.9971C23.8024 47.9532 24.715 47.5367 25.382 46.835C25.6514 46.5517 25.8723 46.2307 26.0396 45.8848C26.3472 45.9607 26.6689 46.0009 27 46.0009V47.0009C27 47.5531 27.4478 48.0009 28 48.0009C28.5522 48.0009 29 47.5531 29 47.0009V46.0009H36V47.0009C36 47.5531 36.4478 48.0009 37 48.0009C37.5522 48.0009 38 47.5531 38 47.0009V46.0009C40.2092 46.0009 42 44.2101 42 42.0009V28.0009C42 25.7917 40.2092 24.0009 38 24.0009H35.5V21.7509H37C37.4143 21.7509 37.75 21.4152 37.75 21.0009C37.75 20.5866 37.4143 20.2509 37 20.2509H30.9873C30.7429 19.0712 30.3745 17.9561 29.8373 16.9563C29.1875 15.7481 28.2554 14.6435 26.9597 13.8601C25.6602 13.0729 24.2207 12.7455 22.7701 12.7455H14.6403C13.1909 12.7455 11.7502 13.0729 10.452 13.8601C9.15625 14.6435 8.22412 15.7468 7.57438 16.9563C6.34361 19.2429 6 22.1368 6 25.0232V28.9891C5.99992 29.5819 6.14044 30.1663 6.41002 30.6943C6.67961 31.2222 7.07057 31.6787 7.55081 32.0263C8.03105 32.3738 8.58688 32.6026 9.17266 32.6936C9.25507 32.7064 9.33775 32.7165 9.42055 32.7237ZM29.4521 20.2509C29.2352 19.3079 28.9306 18.4381 28.5162 17.6668C27.9694 16.65 27.2096 15.7641 26.1836 15.1437L26.1825 15.143C25.1542 14.5201 23.9932 14.2455 22.7701 14.2455H14.6403C13.4182 14.2455 12.2563 14.5202 11.2297 15.1427L11.2281 15.1437C10.2016 15.7643 9.44215 16.6491 8.89578 17.6662L8.8952 17.6673C7.84347 19.6213 7.5 22.211 7.5 25.0232V28.9891C7.49995 29.3447 7.58424 29.6954 7.74595 30.0121C7.90766 30.3288 8.14217 30.6027 8.43024 30.8111C8.71831 31.0196 9.05172 31.1568 9.40309 31.2114C9.75447 31.2661 10.1138 31.2366 10.4516 31.1254C10.6046 31.075 10.9199 31.0009 10.9199 31.0009V22.5009C10.9199 22.0867 11.2557 21.7509 11.6699 21.7509C12.0841 21.7509 12.4199 22.0867 12.4199 22.5009C12.4199 26.1235 12.4201 29.7457 12.4202 33.368C12.4204 36.9901 12.4206 40.6123 12.4206 44.2346C12.4198 44.8138 12.6425 45.371 13.0424 45.79C13.4423 46.209 13.9884 46.4575 14.567 46.4838C15.1456 46.5101 15.7121 46.3121 16.1483 45.9311C16.5739 45.5593 16.8435 45.0414 16.9044 44.4806L17.1663 33.9498C17.1865 33.1362 17.8519 32.4872 18.6658 32.4871C19.4796 32.4871 20.145 33.136 20.1654 33.9496L20.4286 44.4839C20.4869 45.0474 20.7559 45.5687 21.1826 45.9429C21.6192 46.3258 22.187 46.525 22.7672 46.4986C23.3473 46.4723 23.8948 46.2225 24.2949 45.8016C24.4497 45.6387 24.5779 45.455 24.6766 45.2574C23.6616 44.5319 23 43.3437 23 42.0009V28.0009C23 26.5577 23.7641 25.2932 24.9099 24.5897V22.5009C24.9099 22.0867 25.2457 21.7509 25.6599 21.7509C26.0741 21.7509 26.4099 22.0867 26.4099 22.5009V24.0441C26.6025 24.0156 26.7995 24.0009 27 24.0009H29.5V21.7509H28C27.5857 21.7509 27.25 21.4152 27.25 21.0009C27.25 20.9118 27.2656 20.8263 27.2939 20.7472C27.3296 20.6481 27.3855 20.5585 27.4568 20.4838C27.5935 20.3402 27.7861 20.2509 28 20.2509H29.4521ZM34 21.7509V24.0009H31V21.7509H34ZM38 25.5009H27C25.6194 25.5009 24.5 26.6203 24.5 28.0009V42.0009C24.5 43.3815 25.6194 44.5009 27 44.5009H38C39.3806 44.5009 40.5 43.3815 40.5 42.0009V28.0009C40.5 26.6203 39.3806 25.5009 38 25.5009Z" fill="currentColor"/>
</g>
<defs>
<clipPath id="clip0_100_771">
<rect width="48" height="48" fill="white" transform="translate(0 0.00088501)"/>
</clipPath>
</defs>
</svg>
