<svg width="48" height="48" viewBox="0 0 48 48" fill="none" xmlns="http://www.w3.org/2000/svg">
<path fill-rule="evenodd" clip-rule="evenodd" d="M42.7916 40C43.9192 40 44.8333 39.1393 44.8333 38.0776V37.4778C44.8333 36.9628 44.6138 36.4693 44.2241 36.108L42.7752 34.7648C40.8265 32.9582 39.7291 30.4908 39.7291 27.9158V20.1109C39.7291 12.7764 35.6458 6.86139 28.2448 5.2052V3.54901C28.2448 1.65622 26.4583 3.05176e-05 24.4166 3.05176e-05C22.375 3.05176e-05 20.5885 1.65622 20.5885 3.54901V5.2052C13.1875 6.86139 9.10416 12.7764 9.10416 20.1109V27.9158C9.10416 30.4908 8.0068 32.9582 6.05804 34.7648L4.60922 36.108C4.21947 36.4693 4 36.9628 4 37.4778V38.0776C4 39.1393 4.91408 40 6.04166 40H42.7916ZM26.5093 3.54901V6.56064L27.8583 6.8625C34.3551 8.31634 37.9937 13.4477 37.9937 20.1109V27.9158C37.9937 30.9687 39.2954 33.8793 41.5824 35.9996L43.0312 37.3427C43.0827 37.3905 43.0979 37.4408 43.0979 37.4778V38.0776C43.0979 38.1169 43.0837 38.1633 43.0327 38.2113C42.9805 38.2605 42.8988 38.3 42.7916 38.3H6.04166C5.93452 38.3 5.85282 38.2605 5.80059 38.2113C5.74957 38.1633 5.73541 38.1169 5.73541 38.0776V37.4778C5.73541 37.4408 5.75057 37.3905 5.8021 37.3427L7.25092 35.9996C9.5379 33.8793 10.8396 30.9688 10.8396 27.9158V20.1109C10.8396 13.4477 14.4782 8.31634 20.975 6.8625L22.3239 6.56064V3.54901C22.3239 2.68214 23.2421 1.70003 24.4166 1.70003C25.5912 1.70003 26.5093 2.68214 26.5093 3.54901Z" fill="currentColor"/>
<path d="M24.4166 48C27.2239 48 29.5208 45.7846 29.5208 43.077H19.3125C19.3125 45.7846 21.6094 48 24.4166 48Z" fill="currentColor"/>
</svg>
