<svg width="48" height="48" viewBox="0 0 48 48" fill="none" xmlns="http://www.w3.org/2000/svg">
<g clip-path="url(#clip0_100_791)">
<path fill-rule="evenodd" clip-rule="evenodd" d="M22.3802 2.34023C20.907 0.842144 18.9114 0.00088501 16.831 0.00088501C14.7505 0.00088501 12.7549 0.842144 11.2817 2.34023C9.81994 3.84647 9 5.88004 9 7.9992C9 10.1184 9.81994 12.1519 11.2817 13.6582L22.9351 25.5573C23.0753 25.6991 23.2415 25.8112 23.4242 25.8873C23.6069 25.9634 23.8026 26.002 24 26.0009C24.1974 26.002 24.3931 25.9634 24.5758 25.8873C24.7585 25.8112 24.9247 25.6991 25.0649 25.5573L36.7183 13.6582C38.1801 12.1519 39 10.1184 39 7.9992C39 5.88004 38.1801 3.84647 36.7183 2.34023C35.2451 0.842144 33.2495 0.00088501 31.169 0.00088501C29.0886 0.00088501 27.093 0.842144 25.6198 2.34023L24 3.99204L22.3802 2.34023ZM35.6453 3.38844C34.4513 2.17613 32.8412 1.50089 31.169 1.50089C29.4955 1.50089 27.8843 2.17717 26.69 3.39124L26.6893 3.39197L24 6.13443L21.31 3.39124C20.1157 2.17717 18.5045 1.50089 16.831 1.50089C15.1588 1.50089 13.5487 2.17612 12.3547 3.38842C11.1696 4.61141 10.5 6.26755 10.5 7.9992C10.5 9.73145 11.1701 11.3881 12.3559 12.6112L12.3581 12.6135L24 24.5008L35.6419 12.6135L35.6441 12.6113C36.8299 11.3882 37.5 9.73146 37.5 7.9992C37.5 6.26756 36.8304 4.61143 35.6453 3.38844Z" fill="currentColor"/>
<path fill-rule="evenodd" clip-rule="evenodd" d="M40.816 24.6199C40.9033 24.2231 40.984 23.7346 41.0621 23.1692C41.1632 22.4369 41.2508 21.649 41.3425 20.8244C41.4008 20.2999 41.4609 19.7596 41.5271 19.2098C41.6902 17.8555 41.8897 16.4554 42.1925 15.3715C42.3414 14.8385 42.5444 14.271 42.8477 13.8034C43.1404 13.3521 43.724 12.707 44.681 12.6724C45.7847 12.6326 46.4566 13.393 46.7827 13.9292C47.1223 14.4878 47.3412 15.1845 47.495 15.8664C47.8089 17.258 47.953 19.0673 47.9888 20.8691C48.025 22.6877 47.952 24.5789 47.803 26.1672C47.7285 26.9608 47.6335 27.6957 47.5195 28.3176C47.4119 28.9049 47.2676 29.5068 47.0548 29.963L47.0362 30.003L47.0152 30.0419C45.8191 32.2567 44.2408 34.263 42.7598 36.1456L42.7576 36.1484C42.5621 36.3969 42.3683 36.6432 42.1774 36.8876C40.5737 38.9396 39.1406 40.8833 38.2067 43.0268C38.8447 43.5526 39.0734 44.4614 38.7077 45.2455L37.9251 46.9238C37.4915 47.8538 36.3859 48.2562 35.4559 47.8225L26.3833 43.5919C25.4533 43.1582 25.0509 42.0527 25.4846 41.1227L26.2672 39.4444C26.5896 38.753 27.2833 38.3532 28.0001 38.3717C27.9973 36.4561 28.2825 34.8652 28.8015 33.4868C29.4202 31.8435 30.3375 30.5928 31.3302 29.5099C31.8947 28.894 32.5689 28.2507 33.2105 27.6385C33.6062 27.2609 33.9896 26.8951 34.3272 26.5548C35.2896 25.5849 36.1855 24.5459 36.9352 23.2132C37.2504 22.6527 37.815 22.275 38.4497 22.2073C39.1266 22.135 39.8664 22.4312 40.2736 23.132C40.5622 23.625 40.7333 24.1248 40.816 24.6199ZM29.5088 38.9058C29.3403 33.3937 31.6354 31.2095 34.172 28.7952C35.3897 27.6363 36.6631 26.4244 37.7463 24.766L37.7551 24.7525C37.8059 24.6746 37.8563 24.5957 37.9062 24.5157L37.6838 24.6462L37.6777 24.6358L37.9174 24.4978C38.0281 24.3199 38.1365 24.137 38.2425 23.9485C38.4073 23.6557 38.8097 23.5959 38.9774 23.887C39.0981 24.0927 39.1888 24.303 39.253 24.5169C39.2946 24.6556 39.3251 24.7959 39.3453 24.9375C39.3492 24.9647 39.3527 24.992 39.3559 25.0193C39.5545 26.7474 38.2658 28.6569 37.1743 30.2739C36.9435 30.6159 36.7209 30.9457 36.5238 31.2571C36.2759 31.6483 36.4001 32.1541 36.7815 32.4168C37.1944 32.7011 37.7597 32.5997 38.0461 32.1882C39.4207 30.213 40.7589 28.2092 41.9072 26.0917C42.3577 25.2627 42.5912 23.1651 42.8372 20.9563C43.1992 17.705 43.588 14.2129 44.7351 14.1715C47.1135 14.0855 46.714 27.1447 45.6954 29.3291C44.5649 31.4223 43.072 33.3212 41.5826 35.2156C40.017 37.207 38.4552 39.1934 37.3223 41.3955C37.1629 41.7054 37.0119 42.0196 36.8706 42.3387L29.5088 38.9058ZM26.8441 41.7566L27.6266 40.0783C27.7102 39.8991 27.9233 39.8215 28.1025 39.9051L37.175 44.1357C37.3543 44.2193 37.4318 44.4324 37.3483 44.6116L36.5657 46.2899C36.4821 46.4691 36.269 46.5466 36.0898 46.4631L27.0173 42.2325C26.838 42.1489 26.7605 41.9358 26.8441 41.7566Z" fill="currentColor"/>
<path fill-rule="evenodd" clip-rule="evenodd" d="M6.9359 23.1692C7.01398 23.7346 7.0947 24.2231 7.18199 24.6199C7.26466 24.1248 7.43579 23.625 7.72441 23.132C8.13152 22.4312 8.87134 22.135 9.54822 22.2073C10.183 22.275 10.7476 22.6527 11.0628 23.2132C11.8124 24.5459 12.7084 25.5849 13.6708 26.5548C14.0084 26.8951 14.3917 27.2609 14.7875 27.6385C15.4291 28.2507 16.1033 28.894 16.6678 29.5099C17.6604 30.5928 18.5777 31.8435 19.1964 33.4868C19.7154 34.8652 20.0007 36.4561 19.9978 38.3717C20.7147 38.3532 21.4084 38.753 21.7308 39.4444L22.5134 41.1227C22.9471 42.0527 22.5447 43.1582 21.6146 43.5919L12.5421 47.8225C11.612 48.2562 10.5065 47.8538 10.0728 46.9238L9.29024 45.2455C8.92461 44.4614 9.15322 43.5526 9.79128 43.0268C8.85736 40.8833 7.42427 38.9396 5.8206 36.8876C5.62935 36.6428 5.43529 36.3961 5.23953 36.1473L5.23819 36.1456C3.75715 34.263 2.17888 32.2567 0.982746 30.0419L0.961767 30.003L0.943111 29.963C0.730354 29.5068 0.586101 28.9049 0.478426 28.3176C0.364414 27.6957 0.269438 26.9608 0.19499 26.1672C0.0460032 24.5789 -0.0270082 22.6877 0.00913034 20.8691C0.044937 19.0673 0.189085 17.258 0.50293 15.8664C0.656711 15.1845 0.875612 14.4878 1.21526 13.9292C1.54132 13.393 2.21324 12.6326 3.317 12.6724C4.27393 12.707 4.85758 13.3521 5.15026 13.8034C5.45356 14.271 5.65655 14.8385 5.80548 15.3715C6.1083 16.4554 6.30774 17.8555 6.47083 19.2098C6.53703 19.7596 6.59709 20.2996 6.65542 20.8241C6.74713 21.6488 6.83477 22.4368 6.9359 23.1692ZM13.8259 28.7952C16.3626 31.2095 18.6576 33.3937 18.4891 38.9058L11.1273 42.3387C10.9861 42.0196 10.8351 41.7054 10.6757 41.3955C9.54273 39.1934 7.98097 37.207 6.41538 35.2156C4.92594 33.3212 3.43302 31.4223 2.30257 29.3291C1.28398 27.1447 0.884434 14.0855 3.26286 14.1715C4.40994 14.2129 4.79878 17.705 5.16079 20.9563C5.40672 23.1651 5.64029 25.2627 6.09081 26.0917C7.23905 28.2092 8.57727 30.213 9.95189 32.1882C10.2383 32.5997 10.8035 32.7011 11.2165 32.4168C11.5979 32.1541 11.722 31.6483 11.4742 31.2571C11.2769 30.9455 11.0546 30.6162 10.8236 30.2739C9.73221 28.6569 8.44344 26.7474 8.64211 25.0193C8.64525 24.992 8.64876 24.9647 8.65265 24.9375C8.67288 24.7959 8.70332 24.6556 8.74494 24.5169C8.80912 24.303 8.89984 24.0927 9.02054 23.887C9.18827 23.5959 9.59071 23.6557 9.75542 23.9485C9.86142 24.137 9.9699 24.3199 10.0806 24.4978L10.3203 24.6358L10.3142 24.6462L10.0918 24.5157C10.1417 24.5957 10.1921 24.6746 10.2429 24.7525L10.2517 24.766C11.3349 26.4244 12.6083 27.6363 13.8259 28.7952ZM20.3713 40.0783L21.1539 41.7566C21.2375 41.9358 21.1599 42.1489 20.9807 42.2325L11.9082 46.4631C11.7289 46.5466 11.5159 46.4691 11.4323 46.2899L10.6497 44.6116C10.5661 44.4324 10.6437 44.2193 10.8229 44.1357L19.8954 39.9051C20.0747 39.8215 20.2877 39.8991 20.3713 40.0783Z" fill="currentColor"/>
</g>
<defs>
<clipPath id="clip0_100_791">
<rect width="48" height="48" fill="white" transform="translate(0 0.00088501)"/>
</clipPath>
</defs>
</svg>
