<svg width="48" height="48" viewBox="0 0 48 48" fill="none" xmlns="http://www.w3.org/2000/svg">
<path fill-rule="evenodd" clip-rule="evenodd" d="M40 16.2509C38.4812 16.2509 37.25 17.482 37.25 19.0008C37.25 20.5196 38.4812 21.7508 40 21.7508C41.5188 21.7508 42.75 20.5196 42.75 19.0008C42.75 17.482 41.5188 16.2509 40 16.2509ZM38.75 19.0008C38.75 18.3105 39.3096 17.7509 40 17.7509C40.6904 17.7509 41.25 18.3105 41.25 19.0008C41.25 19.6911 40.6904 20.2508 40 20.2508C39.3096 20.2508 38.75 19.6911 38.75 19.0008Z" fill="currentColor"/>
<path d="M24 19.7509C20.5482 19.7509 17.75 22.5491 17.75 26.0008H16.25C16.25 21.7206 19.7198 18.2509 24 18.2509V19.7509Z" fill="currentColor"/>
<path fill-rule="evenodd" clip-rule="evenodd" d="M16.5936 6.25085C15.9532 6.25085 15.364 6.60066 15.0573 7.16287L12.6258 11.6206C12.582 11.7009 12.4979 11.7509 12.4064 11.7509H5C2.37665 11.7509 0.25 13.8775 0.25 16.5009V37.0009C0.25 39.6242 2.37665 41.7509 5 41.7509H43C45.6234 41.7509 47.75 39.6242 47.75 37.0009V16.5009C47.75 13.8775 45.6234 11.7509 43 11.7509H35.5936C35.5021 11.7509 35.418 11.7009 35.3742 11.6206L32.9427 7.16287C32.636 6.60066 32.0468 6.25085 31.4064 6.25085H16.5936ZM16.3742 7.88114C16.418 7.80083 16.5021 7.75085 16.5936 7.75085H31.4064C31.4979 7.75085 31.582 7.80083 31.6258 7.88114L34.0573 12.3389C34.364 12.9011 34.9532 13.2509 35.5936 13.2509H43C44.7949 13.2509 46.25 14.706 46.25 16.5009V32.2509H32.7474C34.008 30.4897 34.75 28.3319 34.75 26.0008C34.75 20.0638 29.9371 15.2509 24 15.2509C18.0629 15.2509 13.25 20.0638 13.25 26.0008C13.25 28.3319 13.992 30.4897 15.2526 32.2509H1.75V16.5009C1.75 14.706 3.20508 13.2509 5 13.2509H12.4064C13.0468 13.2509 13.636 12.9011 13.9427 12.3389L16.3742 7.88114ZM31.4498 33.7509C29.5176 35.6087 26.8922 36.7508 24 36.7508C21.1078 36.7508 18.4824 35.6087 16.5502 33.7509H1.75V37.0009C1.75 38.7958 3.20507 40.2509 5 40.2509H43C44.7949 40.2509 46.25 38.7958 46.25 37.0009V33.7509H31.4498ZM14.75 26.0008C14.75 20.8922 18.8914 16.7509 24 16.7509C29.1086 16.7509 33.25 20.8922 33.25 26.0008C33.25 31.1094 29.1086 35.2508 24 35.2508C18.8914 35.2508 14.75 31.1094 14.75 26.0008Z" fill="currentColor"/>
</svg>
