<svg width="48" height="48" viewBox="0 0 48 48" fill="none" xmlns="http://www.w3.org/2000/svg">
<g clip-path="url(#clip0_100_809)">
<path d="M32.25 36.5009C32.6642 36.5009 33 36.1651 33 35.7509C33 35.3366 32.6642 35.0009 32.25 35.0009H15.75C15.3358 35.0009 15 35.3366 15 35.7509C15 36.1651 15.3358 36.5009 15.75 36.5009H32.25Z" fill="currentColor"/>
<path d="M29.25 40.0009C29.6642 40.0009 30 40.3366 30 40.7509C30 41.1651 29.6642 41.5009 29.25 41.5009H18.75C18.3358 41.5009 18 41.1651 18 40.7509C18 40.3366 18.3358 40.0009 18.75 40.0009H29.25Z" fill="currentColor"/>
<path fill-rule="evenodd" clip-rule="evenodd" d="M8 48.0009C6.89543 48.0009 6 47.1054 6 46.0009V2.00086C6 0.896286 6.89543 0.000854492 8 0.000854492H40C41.1046 0.000854492 42 0.896285 42 2.00085V46.0009C42 47.1054 41.1046 48.0009 40 48.0009H8ZM7.5 2.00086C7.5 1.72471 7.72386 1.50085 8 1.50085H40C40.2761 1.50085 40.5 1.72471 40.5 2.00085V46.0009C40.5 46.277 40.2761 46.5009 40 46.5009H8C7.72386 46.5009 7.5 46.277 7.5 46.0009V2.00086Z" fill="currentColor"/>
<path fill-rule="evenodd" clip-rule="evenodd" d="M18.8263 9.85783L16 12.0009L18.8263 14.1439L18.3431 17.6577L21.857 17.1746L24 20.0009L26.143 17.1746L29.6569 17.6577L29.1737 14.1439L32 12.0009L29.1737 9.85783L29.6569 6.344L26.143 6.82713L24 4.00085L21.857 6.82713L18.3431 6.344L18.8263 9.85783ZM20.0986 8.09948L20.4318 10.5229L18.4826 12.0009L20.4318 13.4788L20.0986 15.9022L22.522 15.569L24 17.5182L25.478 15.569L27.9014 15.9022L27.5682 13.4788L29.5174 12.0009L27.5682 10.5229L27.9014 8.09948L25.478 8.43268L24 6.48348L22.522 8.43268L20.0986 8.09948Z" fill="currentColor"/>
<path fill-rule="evenodd" clip-rule="evenodd" d="M20.8787 26.2569L21.5479 17.0555L20.0519 16.9467L19.1211 29.7452L23.9999 25.5525L28.8787 29.7452L27.9479 16.9467L26.4519 17.0555L27.1211 26.2569L23.9999 23.5747L20.8787 26.2569Z" fill="currentColor"/>
</g>
<defs>
<clipPath id="clip0_100_809">
<rect width="48" height="48" fill="white" transform="translate(0 0.000854492)"/>
</clipPath>
</defs>
</svg>
