<svg width="48" height="48" viewBox="0 0 48 48" fill="none" xmlns="http://www.w3.org/2000/svg">
<g clip-path="url(#clip0_100_1020)">
<path fill-rule="evenodd" clip-rule="evenodd" d="M36.4019 0.250854C33.4572 0.250854 30.7612 1.12512 28.7834 2.57552C26.806 4.0256 25.5049 6.09088 25.5049 8.44203C25.5049 10.7932 26.806 12.8585 28.7834 14.3085C30.7612 15.7589 33.4572 16.6332 36.4019 16.6332C37.2658 16.6332 38.1071 16.558 38.9145 16.4156L44.6053 20.7989L43.4458 14.7008C45.7458 13.2381 47.2989 11.0153 47.2989 8.44203C47.2989 6.09088 45.9978 4.0256 44.0205 2.57552C42.0426 1.12512 39.3466 0.250854 36.4019 0.250854ZM27.0049 8.44203C27.0049 6.68353 27.9753 5.02822 29.6704 3.78513C31.3651 2.54236 33.7426 1.75085 36.4019 1.75085C39.0612 1.75085 41.4387 2.54236 43.1334 3.78513C44.8285 5.02822 45.7989 6.68353 45.7989 8.44203C45.7989 10.4879 44.4793 12.4037 42.2409 13.6756L41.7744 13.9406L42.3947 17.2028L39.2923 14.8132L38.957 14.881C38.1455 15.0451 37.2886 15.1332 36.4019 15.1332C33.7426 15.1332 31.3651 14.3417 29.6704 13.0989C27.9753 11.8558 27.0049 10.2005 27.0049 8.44203Z" fill="currentColor"/>
<path fill-rule="evenodd" clip-rule="evenodd" d="M18.3626 14.5842C13.5468 14.5842 9.15774 16.0407 5.95553 18.4317C2.75321 20.8228 0.700928 24.1842 0.700928 27.9616C0.700928 32.2964 3.39659 36.0729 7.44053 38.4826L3.89626 46.869L13.6559 40.8603C15.1554 41.1726 16.7339 41.3391 18.3626 41.3391C23.1785 41.3391 27.5675 39.8826 30.7697 37.4916C33.972 35.1005 36.0243 31.7391 36.0243 27.9616C36.0243 24.1842 33.972 20.8228 30.7697 18.4317C27.5675 16.0407 23.1785 14.5842 18.3626 14.5842ZM2.20093 27.9616C2.20093 24.7651 3.93445 21.8128 6.85297 19.6337C9.77159 17.4544 13.8384 16.0842 18.3626 16.0842C22.8869 16.0842 26.9537 17.4544 29.8723 19.6337C32.7908 21.8128 34.5243 24.7651 34.5243 27.9616C34.5243 31.1582 32.7908 34.1105 29.8723 36.2896C26.9537 38.4689 22.8869 39.8391 18.3626 39.8391C16.7338 39.8391 15.1628 39.6614 13.6824 39.3316L13.3853 39.2654L7.10374 43.1327L9.34554 37.8283L8.74996 37.5031C4.70588 35.295 2.20093 31.7983 2.20093 27.9616Z" fill="currentColor"/>
</g>
<defs>
<clipPath id="clip0_100_1020">
<rect width="48" height="48" fill="white" transform="translate(0 0.000854492)"/>
</clipPath>
</defs>
</svg>
