<svg width="48" height="48" viewBox="0 0 48 48" fill="none" xmlns="http://www.w3.org/2000/svg">
<g clip-path="url(#clip0_100_775)">
<path fill-rule="evenodd" clip-rule="evenodd" d="M19 11.9999V17.9999H25V11.9999H19ZM23.5 13.4999H20.5V16.4999H23.5V13.4999Z" fill="currentColor"/>
<path fill-rule="evenodd" clip-rule="evenodd" d="M10 25.9999V19.9999H16V25.9999H10ZM11.5 21.4999H14.5V24.4999H11.5V21.4999Z" fill="currentColor"/>
<path fill-rule="evenodd" clip-rule="evenodd" d="M10 27.9999V33.9999H16V27.9999H10ZM14.5 29.4999H11.5V32.4999H14.5V29.4999Z" fill="currentColor"/>
<path fill-rule="evenodd" clip-rule="evenodd" d="M10 35.9999V41.9999H16V35.9999H10ZM14.5 37.4999H11.5V40.4999H14.5V37.4999Z" fill="currentColor"/>
<path fill-rule="evenodd" clip-rule="evenodd" d="M19 19.9999V25.9999H25V19.9999H19ZM23.5 21.4999H20.5V24.4999H23.5V21.4999Z" fill="currentColor"/>
<path fill-rule="evenodd" clip-rule="evenodd" d="M33 37.9999V43.9999H39V37.9999H33ZM37.5 39.4999H34.5V42.4999H37.5V39.4999Z" fill="currentColor"/>
<path fill-rule="evenodd" clip-rule="evenodd" d="M34 31.9999C34 33.6567 32.6569 34.9999 31 34.9999C29.3431 34.9999 28 33.6567 28 31.9999C28 30.343 29.3431 28.9999 31 28.9999C32.6569 28.9999 34 30.343 34 31.9999ZM32.5 31.9999C32.5 32.8283 31.8284 33.4999 31 33.4999C30.1716 33.4999 29.5 32.8283 29.5 31.9999C29.5 31.1715 30.1716 30.4999 31 30.4999C31.8284 30.4999 32.5 31.1715 32.5 31.9999Z" fill="currentColor"/>
<path fill-rule="evenodd" clip-rule="evenodd" d="M29 23.8181V-0.00012207L6 14.2271V47.9999H42V31.9999L31 21.9999L29 23.8181ZM7.5 15.0631V46.4999H20V31.9999L27.5 25.1817V2.69153L7.5 15.0631ZM31 24.0271L40.5 32.6634V46.4999H30V37.9999H24V46.4999H21.5V32.6634L31 24.0271ZM25.5 46.4999H28.5V39.4999H25.5V46.4999Z" fill="currentColor"/>
</g>
<defs>
<clipPath id="clip0_100_775">
<rect width="48" height="48" fill="white" transform="translate(0 0.000854492)"/>
</clipPath>
</defs>
</svg>
