<svg width="48" height="48" viewBox="0 0 48 48" fill="none" xmlns="http://www.w3.org/2000/svg">
<g clip-path="url(#clip0_100_997)">
<path fill-rule="evenodd" clip-rule="evenodd" d="M13 21.0009V32.0009H19V21.0009H13ZM17.5 22.5009H14.5V24.7509H17.5V22.5009ZM14.5 30.5009V26.2509H17.5V30.5009H14.5Z" fill="currentColor"/>
<path fill-rule="evenodd" clip-rule="evenodd" d="M21 21.0009V32.0009H27V21.0009H21ZM25.5 24.7509V22.5009H22.5V24.7509H25.5ZM22.5 30.5009V26.2509H25.5V30.5009H22.5Z" fill="currentColor"/>
<path fill-rule="evenodd" clip-rule="evenodd" d="M29 21.0009V32.0009H35V21.0009H29ZM33.5 22.5009H30.5V24.7509H33.5V22.5009ZM30.5 30.5009V26.2509H33.5V30.5009H30.5Z" fill="currentColor"/>
<path fill-rule="evenodd" clip-rule="evenodd" d="M29 36.0009V43.0009H35V36.0009H29ZM33.5 37.5009H30.5V41.5009H33.5V37.5009Z" fill="currentColor"/>
<path fill-rule="evenodd" clip-rule="evenodd" d="M13 36.0009V43.0009H19V36.0009H13ZM17.5 37.5009H14.5V41.5009H17.5V37.5009Z" fill="currentColor"/>
<path fill-rule="evenodd" clip-rule="evenodd" d="M3 42.0009V31.0009H8V42.0009H3ZM4.5 32.5009H6.5V36.7509H4.5V32.5009ZM4.5 38.2509V40.5009H6.5V38.2509H4.5Z" fill="currentColor"/>
<path fill-rule="evenodd" clip-rule="evenodd" d="M40 42.0009V31.0009H45V42.0009H40ZM41.5 32.5009H43.5V36.7509H41.5V32.5009ZM41.5 38.2509V40.5009H43.5V38.2509H41.5Z" fill="currentColor"/>
<path fill-rule="evenodd" clip-rule="evenodd" d="M33.1701 0.000854492H23.25V8.32663L10 19.6838V26.0009H2C0.895431 26.0009 0 26.8963 0 28.0009V44.0009C0 45.1054 0.895432 46.0009 2 46.0009H10C10 47.1054 10.8954 48.0009 12 48.0009H36C37.1046 48.0009 38 47.1054 38 46.0009H46C47.1046 46.0009 48 45.1054 48 44.0009V28.0009C48 26.8963 47.1046 26.0009 46 26.0009H38V19.6838L24.75 8.32663V6.00085H33.1701L30.5035 3.00085L33.1701 0.000854492ZM29.8299 4.50085H24.75V1.50085H29.8299L28.4965 3.00085L29.8299 4.50085ZM27.5 46.5009H36C36.2761 46.5009 36.5 46.277 36.5 46.0009V20.3737L24 9.65939L11.5 20.3737V46.0009C11.5 46.277 11.7239 46.5009 12 46.5009H20.5V36.0009H27.5V46.5009ZM2 27.5009H10V44.5009H2C1.72386 44.5009 1.5 44.277 1.5 44.0009V28.0009C1.5 27.7247 1.72386 27.5009 2 27.5009ZM46 44.5009H38V27.5009H46C46.2761 27.5009 46.5 27.7247 46.5 28.0009V44.0009C46.5 44.277 46.2761 44.5009 46 44.5009ZM22 46.5009H26V37.5009H22V46.5009Z" fill="currentColor"/>
</g>
<defs>
<clipPath id="clip0_100_997">
<rect width="48" height="48" fill="white" transform="translate(0 0.000854492)"/>
</clipPath>
</defs>
</svg>
