<svg width="48" height="48" viewBox="0 0 48 48" fill="none" xmlns="http://www.w3.org/2000/svg">
<g clip-path="url(#clip0_100_725)">
<path d="M46.5 14.0009C46.5 17.91 44.7057 21.3999 41.8957 23.692C41.6727 23.8739 41.5638 24.161 41.6178 24.4437C41.7207 24.9829 42.3409 25.2595 42.7686 24.9154C45.9586 22.3493 48 18.4135 48 14.0009C48 6.26893 41.732 0.000915527 34 0.000915527C29.2277 0.000915527 25.0131 2.38874 22.4858 6.03482C22.173 6.4861 22.4935 7.08508 23.0388 7.14924C23.3247 7.18286 23.6029 7.0536 23.7685 6.81818C26.0302 3.60231 29.7697 1.50092 34 1.50092C40.9036 1.50092 46.5 7.09736 46.5 14.0009Z" fill="currentColor"/>
<path fill-rule="evenodd" clip-rule="evenodd" d="M20.7645 29.818V27.5994C20.7645 26.748 20.6963 26.0022 20.5598 25.3621C20.4234 24.7158 20.225 24.1658 19.9645 23.7121C19.7103 23.2523 19.4002 22.8794 19.0344 22.5935C18.6747 22.3076 18.2654 22.0994 17.8066 21.9689C17.3539 21.8322 16.8578 21.7639 16.3183 21.7639C15.6486 21.7639 15.0409 21.8695 14.4952 22.0808C13.9557 22.2921 13.4906 22.6308 13.1 23.0969C12.7093 23.5568 12.4086 24.1565 12.1977 24.896C11.9869 25.6293 11.8815 26.5305 11.8815 27.5994V29.818C11.8815 30.6694 11.9497 31.4183 12.0861 32.0646C12.2287 32.7109 12.4272 33.2671 12.6814 33.7332C12.9418 34.1931 13.255 34.5691 13.6209 34.8612C13.9867 35.1532 14.396 35.3677 14.8487 35.5044C15.3075 35.6411 15.8036 35.7095 16.3369 35.7095C17.0066 35.7095 17.6112 35.6007 18.1507 35.3832C18.6964 35.1657 19.1646 34.8239 19.5553 34.3578C19.9459 33.8917 20.2436 33.2858 20.4482 32.54C20.659 31.788 20.7645 30.8807 20.7645 29.818ZM18.5228 27.2638V30.1349C18.5228 30.8123 18.4763 31.3934 18.3833 31.8781C18.2902 32.3629 18.1507 32.7575 17.9647 33.062C17.7787 33.3603 17.5492 33.5778 17.2764 33.7146C17.0035 33.8513 16.6904 33.9196 16.3369 33.9196C16.0579 33.9196 15.8005 33.8761 15.5649 33.7891C15.3355 33.7021 15.1308 33.5654 14.951 33.379C14.7774 33.1863 14.6285 32.944 14.5045 32.6519C14.3805 32.3536 14.2875 31.9962 14.2255 31.5798C14.1635 31.1635 14.1324 30.6818 14.1324 30.1349V27.2638C14.1324 26.5864 14.179 26.0115 14.272 25.5392C14.3712 25.0607 14.5138 24.6754 14.6998 24.3833C14.8859 24.0912 15.1153 23.8799 15.3882 23.7494C15.661 23.6127 15.9711 23.5443 16.3183 23.5443C16.6036 23.5443 16.8609 23.5878 17.0903 23.6749C17.3198 23.7556 17.5244 23.8893 17.7042 24.0757C17.8841 24.2559 18.0329 24.4921 18.1507 24.7842C18.2747 25.07 18.3678 25.4212 18.4298 25.8375C18.4918 26.2477 18.5228 26.7231 18.5228 27.2638Z" fill="currentColor"/>
<path d="M23.9981 34.9637L24.0017 34.3585C24.0049 33.8082 23.5596 33.3603 23.0093 33.3603C22.4612 33.3603 22.0169 33.8046 22.0169 34.3527V35.0476C22.0169 35.4391 21.9735 35.7965 21.8867 36.1196C21.7999 36.4428 21.6852 36.7473 21.5425 37.0332C21.5208 37.0768 21.4986 37.1204 21.4761 37.1639C21.2684 37.5656 21.3908 38.0695 21.7815 38.2971C22.0735 38.4673 22.4463 38.4409 22.6762 38.1932C23.0123 37.8311 23.2949 37.4071 23.5238 36.9213C23.84 36.2501 23.9981 35.5976 23.9981 34.9637Z" fill="currentColor"/>
<path d="M28.7925 30.6197C29.2868 30.6197 29.6875 30.219 29.6875 29.7248C29.6875 29.2305 29.2868 28.8299 28.7925 28.8299H25.6618C25.1676 28.8299 24.7669 29.2305 24.7669 29.7248C24.7669 30.219 25.1676 30.6197 25.6618 30.6197H28.7925Z" fill="currentColor"/>
<path fill-rule="evenodd" clip-rule="evenodd" d="M20.5 48.0009C31.2696 48.0009 40 39.2705 40 28.5009C40 17.7314 31.2696 9.00092 20.5 9.00092C9.73045 9.00092 1 17.7314 1 28.5009C1 39.2705 9.73045 48.0009 20.5 48.0009ZM20.5 46.5009C30.4411 46.5009 38.5 38.442 38.5 28.5009C38.5 18.5598 30.4411 10.5009 20.5 10.5009C10.5589 10.5009 2.5 18.5598 2.5 28.5009C2.5 38.442 10.5589 46.5009 20.5 46.5009Z" fill="currentColor"/>
</g>
<defs>
<clipPath id="clip0_100_725">
<rect width="48" height="48" fill="white" transform="translate(0 0.00088501)"/>
</clipPath>
</defs>
</svg>
