<svg width="48" height="48" viewBox="0 0 48 48" fill="none" xmlns="http://www.w3.org/2000/svg">
<path d="M41.3184 11.7978C41.1828 12.1224 41.0828 12.5054 41.0185 12.9467C40.9119 13.6787 41.5313 14.2822 42.271 14.2822C43.0034 14.2822 43.568 13.6831 43.7522 12.9742C43.8838 12.4679 44.096 12.0484 44.3887 11.7158L45.8301 10.2978C47.0176 9.06342 47.6113 7.80951 47.6113 6.53607C47.6113 5.10638 47.1699 3.9931 46.2871 3.19623C45.4121 2.39935 44.1895 2.00092 42.6191 2.00092C41.0957 2.00092 39.8691 2.40326 38.9395 3.20795C38.3578 3.71566 37.9565 4.33846 37.7356 5.07632C37.5096 5.83139 38.1769 6.4892 38.9651 6.4892C39.747 6.4892 40.3098 5.77679 40.7953 5.16388C40.854 5.08973 40.919 5.01978 40.9902 4.95404C41.4043 4.57123 41.9473 4.37982 42.6191 4.37982C43.3223 4.37982 43.8535 4.57513 44.2129 4.96576C44.5801 5.34857 44.7637 5.90717 44.7637 6.64154C44.7637 7.19623 44.6074 7.71185 44.2949 8.18842C44.0918 8.50092 43.6074 9.02826 42.8418 9.77045C42.084 10.5048 41.5762 11.1806 41.3184 11.7978Z" fill="currentColor"/>
<path d="M41.166 16.8134C40.877 17.0947 40.7324 17.4658 40.7324 17.9267C40.7324 18.3564 40.8691 18.7158 41.1426 19.0048C41.4238 19.2939 41.8223 19.4384 42.3379 19.4384C42.8535 19.4384 43.252 19.2939 43.5332 19.0048C43.8145 18.7158 43.9551 18.3564 43.9551 17.9267C43.9551 17.4814 43.8105 17.1142 43.5215 16.8251C43.2324 16.5283 42.8379 16.3798 42.3379 16.3798C41.8457 16.3798 41.4551 16.5244 41.166 16.8134Z" fill="currentColor"/>
<path d="M14.0969 29.327C14.0969 30.1567 13.4243 30.8293 12.5947 30.8293C11.765 30.8293 11.0924 30.1567 11.0924 29.327C11.0924 28.4973 11.765 27.8248 12.5947 27.8248C13.4243 27.8248 14.0969 28.4973 14.0969 29.327Z" fill="currentColor"/>
<path d="M28.7827 29.3271C28.7827 30.1568 28.1101 30.8294 27.2804 30.8294C26.4508 30.8294 25.7782 30.1568 25.7782 29.3271C25.7782 28.4974 26.4508 27.8249 27.2804 27.8249C28.1101 27.8249 28.7827 28.4974 28.7827 29.3271Z" fill="currentColor"/>
<path d="M16.0682 37.6335C16.0682 37.2329 16.393 36.9081 16.7937 36.9081H23.0812C23.4818 36.9081 23.8066 37.2329 23.8066 37.6335C23.8066 38.0342 23.4818 38.359 23.0812 38.359H16.7937C16.393 38.359 16.0682 38.0342 16.0682 37.6335Z" fill="currentColor"/>
<path fill-rule="evenodd" clip-rule="evenodd" d="M27.067 6.07544C28.4605 6.73455 29.6235 7.69472 30.1387 9.05813C30.2874 9.07047 30.4459 9.09273 30.6077 9.12135C31.0813 9.20516 31.657 9.35719 32.2433 9.55291C32.831 9.74905 33.4474 9.99512 34.0004 10.2733C34.5423 10.5459 35.0707 10.8728 35.4433 11.2454C36.1717 11.9739 36.5627 13.0043 36.7599 14.1063C36.9586 15.2174 36.9742 16.4792 36.8874 17.7565C36.7156 20.2846 36.1823 22.7666 35.5764 25.2217C37.4735 25.7308 38.8745 27.4644 38.8745 29.5199C38.8745 31.7785 37.183 33.6483 35.0005 33.9324C34.4675 37.012 33.0035 39.8479 30.7481 42.1033C27.8609 44.9905 24.022 46.5808 19.9387 46.5812H19.9373C15.8488 46.5812 12.005 44.966 9.11353 42.033C6.89897 39.7864 5.4505 36.9791 4.89943 33.9357C2.70458 33.663 1 31.7874 1 29.52C1 27.3398 2.57611 25.5221 4.64839 25.1429V21.911C3.67544 21.6771 2.84296 21.4128 2.21894 21.1216L1.82547 20.938L1.80138 20.5045C1.61963 17.233 2.20689 14.1344 3.70843 11.5258C5.2148 8.90866 7.61628 6.82952 10.9773 5.57191C11.9992 5.18955 13.6138 4.88457 15.4428 4.71884C17.2851 4.55189 19.3984 4.52147 21.4378 4.71362C23.4685 4.90494 25.4722 5.32108 27.067 6.07544ZM11.4858 6.93084C12.3292 6.61527 13.7945 6.3251 15.5737 6.16387C17.3396 6.00385 19.3627 5.97548 21.3017 6.15817C23.2493 6.34166 25.0658 6.73397 26.4466 7.38706C27.7629 8.00966 28.5866 8.8185 28.8636 9.82451C28.8437 9.9295 28.8309 10.0354 28.8213 10.1326C28.8034 10.3136 28.7916 10.5236 28.7807 10.7451C28.7772 10.8165 28.7738 10.8899 28.7703 10.9653L28.7701 10.9681C28.7513 11.3696 28.7298 11.8273 28.6837 12.335C28.574 13.5413 28.3286 14.9737 27.684 16.3471C27.0445 17.7096 26.0074 19.0251 24.2856 20.0079C22.5559 20.9954 20.0886 21.6733 16.5516 21.6733C13.8688 21.6733 10.9995 21.474 8.50652 21.1358C6.26578 20.8318 4.39233 20.4237 3.2303 19.975C3.13676 17.0957 3.69878 14.4511 4.96594 12.2496C6.29385 9.94253 8.42098 8.07762 11.4858 6.93084ZM32.8148 25.0174C33.1014 25.1185 33.3742 25.2019 33.621 25.2699V31.292C33.621 34.9472 32.1978 38.3836 29.6131 40.968C27.029 43.5522 23.5933 44.9755 19.9387 44.9758H19.9373C16.2822 44.9758 12.8439 43.5303 10.2566 40.9059C7.67521 38.2873 6.25355 34.8191 6.25355 31.1402V22.248C6.90703 22.368 7.59776 22.4768 8.31147 22.5736C10.8691 22.9206 13.8036 23.1243 16.5516 23.1243C20.2694 23.1243 23.0014 22.4117 25.0049 21.268C26.682 20.3107 27.8159 19.0697 28.5818 17.7563C28.5978 18.4274 28.6299 19.0795 28.6837 19.6821C28.7421 20.3356 28.8273 20.9473 28.9506 21.4695C29.0698 21.9742 29.241 22.4703 29.5137 22.8339C30.37 23.9756 31.7462 24.6401 32.8148 25.0174ZM33.2978 23.6492C33.7085 23.7941 34.0894 23.8981 34.3906 23.9696C34.8292 22.1313 35.2934 19.8124 35.4398 17.6581C35.5223 16.4445 35.5016 15.3124 35.3316 14.3619C35.16 13.4023 34.8497 12.7037 34.4173 12.2714C34.206 12.0601 33.8379 11.8158 33.3483 11.5695C32.8698 11.3287 32.3199 11.1081 31.7839 10.9292C31.2467 10.7499 30.7416 10.6186 30.3548 10.5501C30.3288 10.5455 30.3036 10.5412 30.2793 10.5373C30.2581 10.8099 30.2325 11.1585 30.2056 11.5644C30.1381 12.5853 30.0632 13.9642 30.0333 15.4008C30.0034 16.8409 30.019 18.322 30.1289 19.5531C30.184 20.1692 30.2612 20.7061 30.3627 21.1361C30.4684 21.5836 30.5843 21.8432 30.6744 21.9633C31.2691 22.7562 32.311 23.3008 33.2978 23.6492ZM4.64839 26.7901C3.4689 27.1375 2.60516 28.2295 2.60516 29.5199C2.60516 30.8249 3.4885 31.9267 4.6883 32.2611C4.66185 31.8898 4.64839 31.5161 4.64839 31.1403V26.7901ZM35.2262 31.2921C35.2262 31.616 35.215 31.9381 35.1952 32.2585C36.3905 31.9213 37.2694 30.8216 37.2694 29.5199C37.2694 28.2295 36.4057 27.1375 35.2262 26.7901V31.2921Z" fill="currentColor"/>
</svg>
