<svg width="48" height="48" viewBox="0 0 48 48" fill="none" xmlns="http://www.w3.org/2000/svg">
<path fill-rule="evenodd" clip-rule="evenodd" d="M7 7.00085V5.75085C7 5.33664 6.66421 5.00085 6.25 5.00085C5.83579 5.00085 5.5 5.33664 5.5 5.75085V7.00085L2 7.00085C0.895433 7.00085 0 7.89629 0 9.00085V41.0009C0 42.1054 0.895431 43.0009 2 43.0009H46C47.1046 43.0009 48 42.1054 48 41.0009V9.00086C48 7.89629 47.1046 7.00086 46 7.00086L43 7.00086V5.75086C43 5.33664 42.6642 5.00085 42.25 5.00085C41.8358 5.00085 41.5 5.33664 41.5 5.75086V7.00086L37 7.00086V5.75086C37 5.33664 36.6642 5.00085 36.25 5.00085C35.8358 5.00085 35.5 5.33664 35.5 5.75086V7.00086L31 7.00086V5.75086C31 5.33664 30.6642 5.00085 30.25 5.00085C29.8358 5.00085 29.5 5.33664 29.5 5.75086V7.00086L25 7.00086V5.75086C25 5.33664 24.6642 5.00085 24.25 5.00085C23.8358 5.00085 23.5 5.33664 23.5 5.75086V7.00086L19 7.00086V5.75085C19 5.33664 18.6642 5.00085 18.25 5.00085C17.8358 5.00085 17.5 5.33664 17.5 5.75086V7.00086L13 7.00085V5.75085C13 5.33664 12.6642 5.00085 12.25 5.00085C11.8358 5.00085 11.5 5.33664 11.5 5.75085V7.00085L7 7.00085ZM5.5 10.2509C5.5 10.6651 5.83579 11.0009 6.25 11.0009C6.66421 11.0009 7 10.6651 7 10.2509V8.50085L11.5 8.50085V10.2509C11.5 10.6651 11.8358 11.0009 12.25 11.0009C12.6642 11.0009 13 10.6651 13 10.2509V8.50085L17.5 8.50086V10.2509C17.5 10.6651 17.8358 11.0009 18.25 11.0009C18.6642 11.0009 19 10.6651 19 10.2509V8.50086L23.5 8.50086V10.2509C23.5 10.6651 23.8358 11.0009 24.25 11.0009C24.6642 11.0009 25 10.6651 25 10.2509V8.50086L29.5 8.50086V10.2509C29.5 10.6651 29.8358 11.0009 30.25 11.0009C30.6642 11.0009 31 10.6651 31 10.2509V8.50086L35.5 8.50086V10.2509C35.5 10.6651 35.8358 11.0009 36.25 11.0009C36.6642 11.0009 37 10.6651 37 10.2509V8.50086L41.5 8.50086V10.2509C41.5 10.6651 41.8358 11.0009 42.25 11.0009C42.6642 11.0009 43 10.6651 43 10.2509V8.50086H45.5C46.0523 8.50086 46.5 8.94857 46.5 9.50086V40.5009C46.5 41.0531 46.0523 41.5009 45.5 41.5009H2.5C1.94772 41.5009 1.5 41.0531 1.5 40.5009L1.5 9.50085C1.5 8.94857 1.94772 8.50085 2.5 8.50085L5.5 8.50085V10.2509Z" fill="currentColor"/>
<path fill-rule="evenodd" clip-rule="evenodd" d="M26 19.0009H41C42.3807 19.0009 43.5 20.1201 43.5 21.5009V31.5009C43.5 32.8816 42.3807 34.0009 41 34.0009H26C24.6193 34.0009 23.5 32.8816 23.5 31.5009V21.5009C23.5 20.1201 24.6193 19.0009 26 19.0009ZM26 20.5009C25.4477 20.5009 25 20.9486 25 21.5009V31.5009C25 32.0531 25.4477 32.5009 26 32.5009H41C41.5523 32.5009 42 32.0531 42 31.5009V21.5009C42 20.9486 41.5523 20.5009 41 20.5009H26Z" fill="currentColor"/>
<path fill-rule="evenodd" clip-rule="evenodd" d="M31.6156 27.7567L24.4863 21.0468L25.5144 19.9545L32.6436 26.6644C33.125 27.1174 33.8757 27.1174 34.3571 26.6644L41.4863 19.9545L42.5144 21.0468L35.3851 27.7567C34.3262 28.7533 32.6745 28.7533 31.6156 27.7567Z" fill="currentColor"/>
<path fill-rule="evenodd" clip-rule="evenodd" d="M6.00198 19.8955L6.0132 19.8833C6.64206 19.1998 7.41876 19.0009 7.96455 19.0009C8.10041 19.0009 8.22827 19.0049 8.32833 19.008C8.43742 19.0115 8.50712 19.0137 8.56804 19.0137H8.61487L8.6467 19.0157C8.65076 19.0157 8.65682 19.0158 8.66537 19.0159L8.66831 19.016C8.6969 19.0163 8.76455 19.0171 8.84156 19.0228C9.01577 19.0357 9.27787 19.0751 9.56489 19.2148C10.1555 19.5023 10.4758 20.0216 10.6685 20.4812C10.7882 20.7608 10.9745 21.213 11.1503 21.6396C11.1808 21.7136 11.2109 21.7869 11.2404 21.8583C11.3424 22.1058 11.4365 22.3332 11.5095 22.5068C11.5786 22.6712 11.6058 22.7309 11.6047 22.7314C11.6044 22.7315 11.6013 22.726 11.5959 22.7161L11.6054 22.7336L11.6174 22.7576C11.7988 23.1204 12.0366 23.8163 11.6587 24.6192L11.6511 24.6354L11.6431 24.6514C11.6372 24.6631 11.6297 24.6792 11.6204 24.6991C11.559 24.8309 11.4199 25.1289 11.1647 25.4315C11.1309 25.479 11.0955 25.5264 11.0595 25.5729C11.324 25.9479 11.6897 26.4063 12.1345 26.803L12.1356 26.804C12.772 27.3727 13.3016 27.6664 13.728 27.8666C13.9326 27.6178 14.0767 27.4298 14.1228 27.3579L14.1634 27.2944L14.2101 27.2354C14.4663 26.9117 14.897 26.5204 15.5561 26.445C16.0353 26.3903 16.4628 26.5463 16.5781 26.5884C16.5864 26.5915 16.593 26.5939 16.598 26.5956L16.6079 26.5991L16.6178 26.6027C16.8528 26.6881 17.4048 26.9526 17.8336 27.1619C18.245 27.3626 18.699 27.5896 18.9357 27.7168C18.9409 27.7191 18.9464 27.7215 18.9519 27.7239C19.0676 27.7741 19.23 27.8445 19.3575 27.9102C19.511 27.9894 19.8584 28.1775 20.1204 28.5518L20.1683 28.6203L20.2084 28.6937C20.3918 29.0299 20.4191 29.3739 20.4279 29.4941C20.4417 29.6826 20.4369 29.8812 20.4192 30.0774C20.3837 30.4726 20.2886 30.9427 20.1093 31.4377C19.8019 32.2869 19.0685 32.869 18.5701 33.1906C18.0396 33.5329 17.3657 33.8398 16.7711 33.9265L16.7619 33.9279L16.7619 33.9278C16.1087 34.019 15.163 34.0839 14.1032 33.7453C13.612 33.595 12.9615 33.3825 12.1348 33.0054C10.2795 32.2111 8.80075 30.9122 7.78928 29.8387C6.82713 28.8176 6.05972 27.7168 6.12612 27.7975L6.07141 27.731L6.02728 27.6628C6.02641 27.6616 6.02199 27.655 6.01168 27.6401L5.95275 27.5548C5.90351 27.4833 5.83877 27.3881 5.76493 27.2741C5.61785 27.0471 5.43291 26.7429 5.25101 26.3839C4.90034 25.6919 4.5 24.6787 4.5 23.5568C4.5 21.5306 5.56244 20.375 5.92186 19.9841C5.94926 19.9543 5.97258 19.9289 5.99103 19.908L6.00198 19.8955ZM12.7411 31.6333C13.4987 31.98 14.0893 32.1726 14.5516 32.3138C15.3091 32.5578 16.0025 32.5193 16.5546 32.4422C17.171 32.3523 18.4293 31.6718 18.6989 30.9271C18.9686 30.1824 18.9686 29.5532 18.8915 29.4119C18.8125 29.2991 18.6442 29.2259 18.3865 29.1138C18.3511 29.0984 18.314 29.0823 18.2752 29.0653C17.9542 28.8855 16.3877 28.1151 16.1052 28.0124C15.8099 27.9096 15.6301 27.8583 15.3862 28.1664C15.1807 28.4875 14.5644 29.2065 14.3846 29.4119C14.192 29.6302 14.0123 29.6559 13.7041 29.5018C13.6484 29.474 13.5734 29.4415 13.4815 29.4017C13.0226 29.2028 12.1417 28.8211 11.1361 27.9225C10.1859 27.075 9.55673 26.035 9.36413 25.714C9.21005 25.4058 9.35129 25.2132 9.50537 25.072C9.64661 24.9307 9.85206 24.6996 9.98046 24.507C10.1184 24.3584 10.1774 24.2362 10.2517 24.0823C10.2674 24.0499 10.2836 24.0162 10.3015 23.9805C10.4042 23.7623 10.3528 23.5825 10.2758 23.4284C10.2316 23.3474 10.0015 22.7889 9.76241 22.2087C9.58471 21.7774 9.40206 21.3341 9.28709 21.0658C9.05993 20.5206 8.83277 20.518 8.64115 20.5158C8.61615 20.5155 8.59175 20.5152 8.56804 20.5137C8.48252 20.5137 8.39118 20.5108 8.29542 20.5077C8.18989 20.5044 8.07898 20.5009 7.96455 20.5009C7.75911 20.5009 7.41242 20.5779 7.1171 20.8989C7.09497 20.924 7.06946 20.952 7.04123 20.983C6.709 21.3473 6 22.1248 6 23.5568C6 24.9872 6.95282 26.3641 7.22593 26.7587C7.25191 26.7963 7.27175 26.8249 7.28402 26.8439C7.30062 26.8641 7.33341 26.9097 7.38179 26.9771C7.8574 27.6392 9.83907 30.3979 12.7411 31.6333Z" fill="currentColor"/>
</svg>
