<svg width="48" height="48" viewBox="0 0 48 48" fill="none" xmlns="http://www.w3.org/2000/svg">
<path fill-rule="evenodd" clip-rule="evenodd" d="M24.2395 0.799074C24.1682 0.561523 23.8318 0.561523 23.7605 0.799074L22.7132 4.29012C21.7003 4.77182 21 5.80459 21 7.00092L21.0001 7.02468L10.0901 9.934C10.0598 9.94208 10.0295 9.9497 9.99905 9.95689C9.976 9.42503 9.53753 9.00092 9 9.00092C8.51618 9.00092 8.11261 9.34451 8.01999 9.801L4.27874 8.3045C3.89415 8.15066 3.45768 8.33773 3.30384 8.72231C3.15001 9.1069 3.33707 9.54338 3.72166 9.69721L7.48862 11.204C7.89746 11.3675 8.32432 11.4724 8.75677 11.5178L1 28.0009C1 31.4193 4.58154 33.0009 9 33.0009C13.4185 33.0009 17 31.4193 17 28.0009L9.25545 11.5437C9.66523 11.5435 10.0758 11.4903 10.4766 11.3834L21.3861 8.47417C21.782 9.17512 22.4517 9.70093 23.25 9.9064V41.7509C23.25 42.1651 23.5858 42.5009 24 42.5009C24.4142 42.5009 24.75 42.1651 24.75 41.7509V9.9064C25.5483 9.70093 26.218 9.17512 26.6139 8.47417L37.5234 11.3834C37.9243 11.4903 38.3348 11.5435 38.7446 11.5437L31 28.0009C31 31.4193 34.5815 33.0009 39 33.0009C43.4185 33.0009 47 31.4193 47 28.0009L39.2432 11.5178C39.6757 11.4724 40.1025 11.3675 40.5114 11.204L44.2783 9.69721C44.6629 9.54338 44.85 9.1069 44.6962 8.72231C44.5423 8.33773 44.1058 8.15066 43.7213 8.3045L39.98 9.801C39.8874 9.34451 39.4838 9.00092 39 9.00092C38.4625 9.00092 38.024 9.42503 38.001 9.95689C37.9705 9.9497 37.9402 9.94208 37.9099 9.934L26.9999 7.02468L27 7.00092C27 5.80459 26.2997 4.77182 25.2868 4.29012L24.2395 0.799074ZM32.7754 27.7509L39 14.5237L45.2246 27.7509H32.7754ZM9 14.5237L2.77544 27.7509H15.2246L9 14.5237Z" fill="currentColor"/>
<path d="M14 44.7509C14 44.3367 14.3358 44.0009 14.75 44.0009H33.25C33.6642 44.0009 34 44.3367 34 44.7509C34 45.1651 33.6642 45.5009 33.25 45.5009H14.75C14.3358 45.5009 14 45.1651 14 44.7509Z" fill="currentColor"/>
<path d="M9.75 46.5009C9.33579 46.5009 9 46.8367 9 47.2509C9 47.6651 9.33579 48.0009 9.75 48.0009H38.25C38.6642 48.0009 39 47.6651 39 47.2509C39 46.8367 38.6642 46.5009 38.25 46.5009H9.75Z" fill="currentColor"/>
</svg>
