<svg width="48" height="48" viewBox="0 0 48 48" fill="none" xmlns="http://www.w3.org/2000/svg">
<path fill-rule="evenodd" clip-rule="evenodd" d="M18.0005 22C18.0005 23.6569 19.3436 25 21.0005 25C22.6573 25 24.0005 23.6569 24.0005 22C24.0005 20.3431 22.6573 19 21.0005 19C19.3436 19 18.0005 20.3431 18.0005 22ZM19.5005 22C19.5005 22.8284 20.1721 23.5 21.0005 23.5C21.8289 23.5 22.5005 22.8284 22.5005 22C22.5005 21.1716 21.8289 20.5 21.0005 20.5C20.1721 20.5 19.5005 21.1716 19.5005 22Z" fill="currentColor"/>
<path fill-rule="evenodd" clip-rule="evenodd" d="M24.0005 29C24.0005 31.2091 25.7913 33 28.0005 33C30.2096 33 32.0005 31.2091 32.0005 29C32.0005 26.7909 30.2096 25 28.0005 25C25.7913 25 24.0005 26.7909 24.0005 29ZM25.5005 29C25.5005 30.3807 26.6198 31.5 28.0005 31.5C29.3812 31.5 30.5005 30.3807 30.5005 29C30.5005 27.6193 29.3812 26.5 28.0005 26.5C26.6198 26.5 25.5005 27.6193 25.5005 29Z" fill="currentColor"/>
<path fill-rule="evenodd" clip-rule="evenodd" d="M21.2505 6.20866V5.01904C20.8002 4.8415 20.3945 4.6139 20.067 4.3361C19.6132 3.9512 19.2505 3.41318 19.2505 2.75C19.2505 1.76059 20.0331 1.06676 20.8367 0.664966C21.6851 0.240743 22.8047 0 24.0005 0C25.1962 0 26.3159 0.240742 27.1643 0.664966C27.9679 1.06676 28.7505 1.76059 28.7505 2.75C28.7505 3.41318 28.3878 3.95119 27.934 4.3361C27.6065 4.6139 27.2007 4.8415 26.7505 5.01904V6.20866C29.6685 6.656 32.3557 7.80408 34.6349 9.47572L35.477 8.63362C35.2842 8.1897 35.1582 7.74186 35.1231 7.31385C35.0744 6.72081 35.1983 6.08389 35.6673 5.61495C36.3669 4.91534 37.4109 4.97809 38.2632 5.2622C39.1631 5.56217 40.125 6.18364 40.9706 7.02917C41.8161 7.87469 42.4376 8.83663 42.7375 9.73654C43.0217 10.5889 43.0844 11.6329 42.3848 12.3325C41.9158 12.8014 41.2789 12.9254 40.6859 12.8767C40.2579 12.8415 39.81 12.7156 39.3661 12.5227L38.5241 13.3647C40.1961 15.6441 41.3444 18.3316 41.7918 21.25H42.981C43.1585 20.7997 43.3861 20.394 43.6639 20.0665C44.0488 19.6127 44.5868 19.25 45.25 19.25C46.2394 19.25 46.9332 20.0326 47.335 20.8362C47.7593 21.6846 48 22.8042 48 24C48 25.1958 47.7593 26.3154 47.335 27.1638C46.9332 27.9674 46.2394 28.75 45.25 28.75C44.5868 28.75 44.0488 28.3873 43.6639 27.9335C43.3861 27.606 43.1585 27.2003 42.981 26.75H41.7917C41.3443 29.6682 40.1961 32.3556 38.5243 34.6349L39.3661 35.4768C39.81 35.284 40.2579 35.158 40.6859 35.1229C41.2789 35.0742 41.9158 35.1981 42.3848 35.667C43.0844 36.3667 43.0217 37.4106 42.7375 38.263C42.4376 39.1629 41.8161 40.1248 40.9706 40.9703C40.125 41.8159 39.1631 42.4373 38.2632 42.7373C37.4109 43.0214 36.3669 43.0842 35.6673 42.3846C35.1983 41.9156 35.0744 41.2787 35.1231 40.6857C35.1582 40.2576 35.2842 39.8098 35.477 39.3659L34.6351 38.524C32.3559 40.1957 29.6686 41.3438 26.7505 41.7912V42.981C27.2007 43.1585 27.6065 43.3861 27.934 43.6639C28.3878 44.0488 28.7505 44.5868 28.7505 45.25C28.7505 46.2394 27.9679 46.9332 27.1643 47.335C26.3159 47.7593 25.1962 48 24.0005 48C22.8047 48 21.6851 47.7593 20.8367 47.335C20.0331 46.9332 19.2505 46.2394 19.2505 45.25C19.2505 44.5868 19.6132 44.0488 20.067 43.6639C20.3945 43.3861 20.8002 43.1585 21.2505 42.981V41.7912C18.3321 41.3438 15.6447 40.1955 13.3653 38.5236L12.523 39.3659C12.7158 39.8098 12.8418 40.2576 12.8769 40.6857C12.9256 41.2787 12.8017 41.9156 12.3327 42.3846C11.6331 43.0842 10.5891 43.0214 9.7368 42.7373C8.83689 42.4373 7.87495 41.8159 7.02943 40.9703C6.1839 40.1248 5.56243 39.1629 5.26246 38.263C4.97835 37.4106 4.9156 36.3667 5.61521 35.667C6.08415 35.1981 6.72107 35.0742 7.31411 35.1229C7.74212 35.158 8.18996 35.284 8.63388 35.4768L9.4763 34.6344C7.80467 32.3552 6.65659 29.668 6.20924 26.75H5.01904C4.8415 27.2003 4.6139 27.606 4.3361 27.9335C3.95119 28.3873 3.41318 28.75 2.75 28.75C1.76059 28.75 1.06676 27.9674 0.664967 27.1638C0.240742 26.3154 0 25.1958 0 24C0 22.8042 0.240742 21.6846 0.664967 20.8362C1.06676 20.0326 1.76059 19.25 2.75 19.25C3.41318 19.25 3.95119 19.6127 4.3361 20.0665C4.6139 20.394 4.8415 20.7997 5.01904 21.25H6.20921C6.65654 18.332 7.8046 15.6448 9.47623 13.3655L8.63388 12.5232C8.18996 12.716 7.74212 12.842 7.31411 12.8771C6.72107 12.9258 6.08415 12.8019 5.61521 12.333C4.9156 11.6333 4.97835 10.5894 5.26246 9.73703C5.56243 8.83711 6.1839 7.87518 7.02943 7.02966C7.87495 6.18413 8.83689 5.56266 9.7368 5.26269C10.5891 4.97858 11.6331 4.91583 12.3327 5.61544C12.8017 6.08438 12.9256 6.7213 12.8769 7.31434C12.8418 7.74235 12.7158 8.19019 12.523 8.63411L13.3652 9.47633C15.6446 7.80436 18.3321 6.65605 21.2505 6.20866ZM20.7505 2.75C20.7505 2.63484 20.8633 2.32867 21.5075 2.00661C22.1067 1.70697 22.9871 1.5 24.0005 1.5C25.0139 1.5 25.8942 1.70697 26.4935 2.00661C27.1376 2.32867 27.2505 2.63484 27.2505 2.75C27.2505 2.8271 27.211 2.9824 26.9637 3.19219C26.717 3.40142 26.3221 3.60868 25.7921 3.76197C25.4713 3.85475 25.2505 4.14848 25.2505 4.48244V9.75C25.2505 10.1642 25.5863 10.5 26.0005 10.5C26.4147 10.5 26.7505 10.1642 26.7505 9.75V7.72805C29.2574 8.14863 31.5726 9.13449 33.5606 10.5501L31.955 12.1557C31.6621 12.4486 31.6621 12.9235 31.955 13.2164C32.2479 13.5092 32.7227 13.5092 33.0156 13.2164L36.9171 9.31484C37.1533 9.0787 37.2048 8.71487 37.0436 8.42242C36.7772 7.93927 36.6445 7.51345 36.6181 7.19109C36.5915 6.86786 36.6734 6.73013 36.7279 6.67561C36.8094 6.59418 37.1057 6.45749 37.7889 6.68522C38.4245 6.8971 39.1933 7.37326 39.9099 8.08983C40.6265 8.8064 41.1026 9.57526 41.3145 10.2109C41.5423 10.8941 41.4056 11.1904 41.3241 11.2718C41.2696 11.3263 41.1319 11.4082 40.8087 11.3817C40.4863 11.3552 40.0605 11.2225 39.5773 10.9561C39.2849 10.7949 38.921 10.8465 38.6849 11.0826L34.7834 14.9841C34.4905 15.277 34.4905 15.7519 34.7834 16.0448C35.0763 16.3377 35.5512 16.3377 35.8441 16.0448L37.4498 14.4391C38.8657 16.4272 39.8517 18.7428 40.2724 21.25H34C33.5858 21.25 33.25 21.5858 33.25 22C33.25 22.4142 33.5858 22.75 34 22.75H43.5176C43.8515 22.75 44.1452 22.5292 44.238 22.2084C44.3913 21.6784 44.5986 21.2835 44.8078 21.0368C45.0176 20.7895 45.1729 20.75 45.25 20.75C45.3652 20.75 45.6713 20.8629 45.9934 21.507C46.293 22.1063 46.5 22.9866 46.5 24C46.5 25.0134 46.293 25.8937 45.9934 26.493C45.6713 27.1371 45.3652 27.25 45.25 27.25C45.1729 27.25 45.0176 27.2105 44.8078 26.9632C44.5986 26.7165 44.3913 26.3216 44.238 25.7916C44.1452 25.4708 43.8515 25.25 43.5176 25.25H38.25C37.8358 25.25 37.5 25.5858 37.5 26C37.5 26.4142 37.8358 26.75 38.25 26.75H40.2723C39.8517 29.2571 38.8657 31.5725 37.4499 33.5606L35.8441 31.9547C35.5512 31.6618 35.0763 31.6618 34.7834 31.9547C34.4905 32.2476 34.4905 32.7225 34.7834 33.0154L38.6849 36.9169C38.921 37.153 39.2849 37.2046 39.5773 37.0434C40.0605 36.777 40.4863 36.6443 40.8087 36.6178C41.1319 36.5913 41.2696 36.6732 41.3241 36.7277C41.4056 36.8091 41.5423 37.1054 41.3145 37.7886C41.1026 38.4243 40.6265 39.1931 39.9099 39.9097C39.1933 40.6263 38.4245 41.1024 37.7889 41.3143C37.1057 41.542 36.8094 41.4053 36.7279 41.3239C36.6734 41.2694 36.5915 41.1317 36.6181 40.8084C36.6445 40.4861 36.7772 40.0602 37.0436 39.5771C37.2048 39.2846 37.1533 38.9208 36.9171 38.6847L33.0156 34.7832C32.7227 34.4903 32.2479 34.4903 31.955 34.7832C31.6621 35.0761 31.6621 35.5509 31.955 35.8438L33.5608 37.4496C31.5727 38.8653 29.2575 39.8512 26.7505 40.2718V38.25C26.7505 37.8358 26.4147 37.5 26.0005 37.5C25.5863 37.5 25.2505 37.8358 25.2505 38.25V43.5176C25.2505 43.8515 25.4713 44.1452 25.7921 44.238C26.3221 44.3913 26.717 44.5986 26.9637 44.8078C27.211 45.0176 27.2505 45.1729 27.2505 45.25C27.2505 45.3652 27.1376 45.6713 26.4935 45.9934C25.8942 46.293 25.0139 46.5 24.0005 46.5C22.9871 46.5 22.1067 46.293 21.5075 45.9934C20.8633 45.6713 20.7505 45.3652 20.7505 45.25C20.7505 45.1729 20.79 45.0176 21.0373 44.8078C21.284 44.5986 21.6789 44.3913 22.2089 44.238C22.5297 44.1452 22.7505 43.8515 22.7505 43.5176V38C22.7505 37.5858 22.4147 37.25 22.0005 37.25C21.5863 37.25 21.2505 37.5858 21.2505 38V40.2718C18.7433 39.8512 16.4278 38.8651 14.4396 37.4492L16.045 35.8438C16.3379 35.5509 16.3379 35.0761 16.045 34.7832C15.7521 34.4903 15.2773 34.4903 14.9844 34.7832L11.0829 38.6847C10.8467 38.9208 10.7952 39.2846 10.9564 39.5771C11.2228 40.0602 11.3555 40.4861 11.3819 40.8084C11.4085 41.1317 11.3266 41.2694 11.2721 41.3239C11.1906 41.4053 10.8943 41.542 10.2111 41.3143C9.57552 41.1024 8.80666 40.6263 8.09009 39.9097C7.37352 39.1931 6.89735 38.4243 6.68548 37.7886C6.45775 37.1054 6.59444 36.8091 6.67587 36.7277C6.73039 36.6732 6.86811 36.5913 7.19135 36.6178C7.51371 36.6443 7.93953 36.777 8.42268 37.0434C8.71513 37.2046 9.07896 37.153 9.3151 36.9169L15.8683 30.3637C16.1612 30.0709 16.1612 29.596 15.8683 29.3031C15.5754 29.0102 15.1005 29.0102 14.8076 29.3031L10.5507 33.56C9.13508 31.5721 8.14922 29.2569 7.72863 26.75H9.75C10.1642 26.75 10.5 26.4142 10.5 26C10.5 25.5858 10.1642 25.25 9.75 25.25H4.48244C4.14848 25.25 3.85476 25.4708 3.76197 25.7916C3.60868 26.3216 3.40142 26.7165 3.19219 26.9632C2.9824 27.2105 2.8271 27.25 2.75 27.25C2.63484 27.25 2.32867 27.1371 2.00661 26.493C1.70697 25.8937 1.5 25.0134 1.5 24C1.5 22.9866 1.70697 22.1063 2.00661 21.507C2.32867 20.8629 2.63484 20.75 2.75 20.75C2.8271 20.75 2.9824 20.7895 3.19219 21.0368C3.40142 21.2835 3.60868 21.6784 3.76197 22.2084C3.85476 22.5292 4.14848 22.75 4.48244 22.75H10C10.4142 22.75 10.75 22.4142 10.75 22C10.75 21.5858 10.4142 21.25 10 21.25H7.7286C8.14917 18.7431 9.13501 16.4279 10.5506 14.4399L14.8076 18.6969C15.1005 18.9898 15.5754 18.9898 15.8683 18.6969C16.1612 18.404 16.1612 17.9291 15.8683 17.6363L9.3151 11.0831C9.07896 10.847 8.71513 10.7954 8.42268 10.9566C7.93953 11.223 7.51371 11.3557 7.19135 11.3822C6.86811 11.4087 6.73039 11.3268 6.67587 11.2723C6.59444 11.1909 6.45775 10.8946 6.68548 10.2114C6.89735 9.57575 7.37352 8.80689 8.09009 8.09032C8.80666 7.37375 9.57552 6.89759 10.2111 6.68571C10.8943 6.45798 11.1906 6.59467 11.2721 6.6761C11.3266 6.73062 11.4085 6.86834 11.3819 7.19158C11.3555 7.51394 11.2228 7.93976 10.9564 8.4229C10.7952 8.71536 10.8467 9.07919 11.0829 9.31533L14.9844 13.2168C15.2773 13.5097 15.7521 13.5097 16.045 13.2168C16.3379 12.9239 16.3379 12.4491 16.045 12.1562L14.4395 10.5507C16.4277 9.13477 18.7432 8.14868 21.2505 7.72805V14C21.2505 14.4142 21.5863 14.75 22.0005 14.75C22.4147 14.75 22.7505 14.4142 22.7505 14V4.48244C22.7505 4.14848 22.5297 3.85475 22.2089 3.76197C21.6789 3.60868 21.284 3.40142 21.0373 3.19219C20.79 2.9824 20.7505 2.8271 20.7505 2.75Z" fill="currentColor"/>
</svg>
