<svg width="48" height="48" viewBox="0 0 48 48" fill="none" xmlns="http://www.w3.org/2000/svg">
<g clip-path="url(#clip0_100_1014)">
<path fill-rule="evenodd" clip-rule="evenodd" d="M24 0.250854C21.6528 0.250854 19.75 2.15364 19.75 4.50085C19.75 6.59215 21.2605 8.33065 23.25 8.68489V32.8749L14.25 26.551V21.9452C16.2395 21.591 17.75 19.8525 17.75 17.7612C17.75 15.4139 15.8472 13.5112 13.5 13.5112C11.1528 13.5112 9.25 15.4139 9.25 17.7612C9.25 19.8525 10.7605 21.591 12.75 21.9452V27.3303L23.25 34.7081V39.3168C21.2605 39.6711 19.75 41.4096 19.75 43.5009C19.75 45.8481 21.6528 47.7509 24 47.7509C26.3472 47.7509 28.25 45.8481 28.25 43.5009C28.25 41.4096 26.7395 39.6711 24.75 39.3168V29.4829C24.8462 29.4608 24.9395 29.4192 25.0242 29.3572L34.25 22.6031V17.2272C36.2395 16.873 37.75 15.1345 37.75 13.0432C37.75 10.696 35.8472 8.79321 33.5 8.79321C31.1528 8.79321 29.25 10.696 29.25 13.0432C29.25 15.1345 30.7605 16.873 32.75 17.2272V21.8423L24.75 27.6989V8.68489C26.7395 8.33066 28.25 6.59215 28.25 4.50085C28.25 2.15364 26.3472 0.250854 24 0.250854ZM21.25 4.50085C21.25 2.98207 22.4812 1.75085 24 1.75085C25.5188 1.75085 26.75 2.98207 26.75 4.50085C26.75 6.01964 25.5188 7.25085 24 7.25085C22.4812 7.25085 21.25 6.01964 21.25 4.50085ZM24 40.7509C22.4812 40.7509 21.25 41.9821 21.25 43.5009C21.25 45.0196 22.4812 46.2509 24 46.2509C25.5188 46.2509 26.75 45.0196 26.75 43.5009C26.75 41.9821 25.5188 40.7509 24 40.7509ZM33.5 10.2932C31.9812 10.2932 30.75 11.5244 30.75 13.0432C30.75 14.562 31.9812 15.7932 33.5 15.7932C35.0188 15.7932 36.25 14.562 36.25 13.0432C36.25 11.5244 35.0188 10.2932 33.5 10.2932ZM10.75 17.7612C10.75 16.2424 11.9812 15.0112 13.5 15.0112C15.0188 15.0112 16.25 16.2424 16.25 17.7612C16.25 19.2799 15.0188 20.5112 13.5 20.5112C11.9812 20.5112 10.75 19.2799 10.75 17.7612Z" fill="currentColor"/>
</g>
<defs>
<clipPath id="clip0_100_1014">
<rect width="48" height="48" fill="white" transform="translate(0 0.000854492)"/>
</clipPath>
</defs>
</svg>
