<svg width="48" height="48" viewBox="0 0 48 48" fill="none" xmlns="http://www.w3.org/2000/svg">
<path fill-rule="evenodd" clip-rule="evenodd" d="M36.6981 5.70843C36.6981 8.86062 34.1427 11.416 30.9905 11.416C27.8383 11.416 25.283 8.86062 25.283 5.70843C25.283 2.55624 27.8383 0.00088501 30.9905 0.00088501C34.1427 0.00088501 36.6981 2.55624 36.6981 5.70843ZM35.1414 5.70843C35.1414 8.00093 33.283 9.85938 30.9905 9.85938C28.698 9.85938 26.8396 8.00093 26.8396 5.70843C26.8396 3.41593 28.698 1.55749 30.9905 1.55749C33.283 1.55749 35.1414 3.41593 35.1414 5.70843Z" fill="currentColor"/>
<path fill-rule="evenodd" clip-rule="evenodd" d="M5.25 9.75089C5.25 9.33667 5.58579 9.00089 6 9.00089H9.98156C11.7135 9.00089 13.2201 10.187 13.6267 11.8705L15.5918 20.0067C15.7274 20.0028 15.8635 20.0009 16 20.0009C16.7698 20.0009 17.5251 20.063 18.2611 20.1825C18.4201 19.5261 18.5834 18.8916 18.7501 18.2924C19.3027 16.3053 20.3063 13.9039 21.2488 11.8487C22.5046 9.1106 26.2145 9.06844 27.6976 11.5965L33.5952 21.6497L42.5272 23.3087C44.1024 23.6013 45.0839 25.1863 44.6437 26.7269C44.2783 28.0059 43.0408 28.8323 41.7194 28.6799L39.4516 28.4182L44.8955 41.3997C45.5159 42.8792 44.827 44.5822 43.3524 45.2142C42.0342 45.7792 40.5009 45.3036 39.7338 44.0919L32.6803 32.9511C32.6346 32.8788 32.5513 32.8393 32.4663 32.8496L29.9747 33.1516C29.9915 33.4325 30 33.7157 30 34.0009C30 41.7329 23.732 48.0009 16 48.0009C8.26801 48.0009 2 41.7329 2 34.0009C2 26.9206 7.25587 21.068 14.0789 20.1316L12.1687 12.2226C11.9247 11.2125 11.0207 10.5009 9.98156 10.5009H6C5.58579 10.5009 5.25 10.1651 5.25 9.75089ZM29.7958 31.6053L32.279 31.3043C32.9604 31.2217 33.6284 31.5385 33.9955 32.1184L41.0489 43.2592C41.4073 43.8252 42.1235 44.0474 42.7392 43.7835C43.428 43.4883 43.7498 42.6928 43.46 42.0017L37.6779 28.2135L31.2153 27.4679C30.1334 27.343 29.158 26.7574 28.5392 25.8613L25.7557 21.83C25.5115 21.4763 25.6002 20.9915 25.9539 20.7473C26.3077 20.5031 26.7924 20.5918 27.0366 20.9456L29.8201 24.9768C30.184 25.5038 30.7575 25.8481 31.3937 25.9215L41.8979 27.1335C42.4623 27.1987 42.9909 26.8456 43.147 26.2993C43.3351 25.6412 42.9158 24.9641 42.2429 24.8391L32.6122 23.0504L26.355 12.3842C25.4676 10.8716 23.3609 10.9774 22.6637 12.4976C21.7288 14.5362 20.768 16.846 20.2498 18.7094C20.0908 19.2811 19.9344 19.8878 19.7816 20.5176C24.9267 21.9576 28.8748 26.2635 29.7958 31.6053ZM16 46.5009C22.9036 46.5009 28.5 40.9044 28.5 34.0009C28.5 27.0973 22.9036 21.5009 16 21.5009C9.09644 21.5009 3.5 27.0973 3.5 34.0009C3.5 40.9044 9.09644 46.5009 16 46.5009Z" fill="currentColor"/>
<path fill-rule="evenodd" clip-rule="evenodd" d="M33 48.0009C35.2091 48.0009 37 46.21 37 44.0009C37 41.7917 35.2091 40.0009 33 40.0009C30.7909 40.0009 29 41.7917 29 44.0009C29 46.21 30.7909 48.0009 33 48.0009ZM33 46.5009C34.3807 46.5009 35.5 45.3816 35.5 44.0009C35.5 42.6202 34.3807 41.5009 33 41.5009C31.6193 41.5009 30.5 42.6202 30.5 44.0009C30.5 45.3816 31.6193 46.5009 33 46.5009Z" fill="currentColor"/>
</svg>
