<svg width="48" height="48" viewBox="0 0 48 48" fill="none" xmlns="http://www.w3.org/2000/svg">
<g clip-path="url(#clip0_100_723)">
<path d="M32.25 32.5009C32.6642 32.5009 33 32.1651 33 31.7509C33 31.3367 32.6642 31.0009 32.25 31.0009H15.75C15.3358 31.0009 15 31.3367 15 31.7509C15 32.1651 15.3358 32.5009 15.75 32.5009H32.25Z" fill="currentColor"/>
<path d="M32.25 37.5009C32.6642 37.5009 33 37.1651 33 36.7509C33 36.3367 32.6642 36.0009 32.25 36.0009H15.75C15.3358 36.0009 15 36.3367 15 36.7509C15 37.1651 15.3358 37.5009 15.75 37.5009H32.25Z" fill="currentColor"/>
<path d="M29.25 41.0009C29.6642 41.0009 30 41.3367 30 41.7509C30 42.1651 29.6642 42.5009 29.25 42.5009H18.75C18.3358 42.5009 18 42.1651 18 41.7509C18 41.3367 18.3358 41.0009 18.75 41.0009H29.25Z" fill="currentColor"/>
<path d="M18.5 19.0009C19.3284 19.0009 20 18.3293 20 17.5009C20 16.6725 19.3284 16.0009 18.5 16.0009C17.6716 16.0009 17 16.6725 17 17.5009C17 18.3293 17.6716 19.0009 18.5 19.0009Z" fill="currentColor"/>
<path d="M31 17.5009C31 18.3293 30.3284 19.0009 29.5 19.0009C28.6716 19.0009 28 18.3293 28 17.5009C28 16.6725 28.6716 16.0009 29.5 16.0009C30.3284 16.0009 31 16.6725 31 17.5009Z" fill="currentColor"/>
<path fill-rule="evenodd" clip-rule="evenodd" d="M13 12.3759C13 13.1012 13.5615 13.6953 14.2736 13.7472C14.0493 14.0514 13.9167 14.4273 13.9167 14.8342V19.2339C13.9167 20.0783 14.4912 20.8031 15.2917 21.0091V22.1258C15.2917 22.6321 15.7021 23.0425 16.2084 23.0425H18.0417C18.5479 23.0425 18.9584 22.6321 18.9584 22.1258V21.5069C22.3092 21.8777 25.6908 21.8777 29.0416 21.5069V22.1258C29.0416 22.6321 29.4521 23.0425 29.9583 23.0425H31.7916C32.2979 23.0425 32.7083 22.6321 32.7083 22.1258V21.0091C33.5088 20.8031 34.0834 20.0783 34.0834 19.2339V14.8342C34.0834 14.4273 33.9508 14.0514 33.7265 13.7472C34.4385 13.6953 35 13.1012 35 12.3759C35 11.6165 34.3844 11.0009 33.625 11.0009H31.425L30.3992 8.20312C30.1344 7.481 29.447 7.00092 28.6779 7.00092H19.3222C18.553 7.00092 17.8657 7.481 17.6009 8.20312L16.575 11.0009H14.375C13.6156 11.0009 13 11.6165 13 12.3759ZM33.625 12.7509H32.0667L31.7917 12.0009H33.625C33.8321 12.0009 34 12.1688 34 12.3759C34 12.583 33.8321 12.7509 33.625 12.7509ZM14.375 12.0009H16.2084L15.9334 12.7509H14.375C14.1679 12.7509 14 12.583 14 12.3759C14 12.1688 14.1679 12.0009 14.375 12.0009ZM19.3222 8.50092H28.6779C28.8177 8.50092 28.9427 8.5882 28.9908 8.7195L30.5607 13.0009H17.4393L19.0092 8.7195C19.0573 8.5882 19.1823 8.50092 19.3222 8.50092ZM15.75 14.5009C15.5659 14.5009 15.4167 14.6502 15.4167 14.8342V19.2339C15.4167 19.4006 15.5398 19.5416 15.705 19.5641L18.01 19.8785C21.985 20.4205 26.0151 20.4205 29.99 19.8785L32.2951 19.5641C32.4602 19.5416 32.5834 19.4006 32.5834 19.2339V14.8342C32.5834 14.6502 32.4341 14.5009 32.25 14.5009H15.75Z" fill="currentColor"/>
<path fill-rule="evenodd" clip-rule="evenodd" d="M8 48.0009C6.89543 48.0009 6 47.1055 6 46.0009V2.00092C6 0.896346 6.89543 0.000915527 8 0.000915527H40C41.1046 0.000915527 42 0.896347 42 2.00092V46.0009C42 47.1055 41.1046 48.0009 40 48.0009H8ZM7.5 2.00092C7.5 1.72477 7.72386 1.50092 8 1.50092H40C40.2761 1.50092 40.5 1.72477 40.5 2.00092V46.0009C40.5 46.2771 40.2761 46.5009 40 46.5009H8C7.72386 46.5009 7.5 46.2771 7.5 46.0009V2.00092Z" fill="currentColor"/>
</g>
<defs>
<clipPath id="clip0_100_723">
<rect width="48" height="48" fill="white" transform="translate(0 0.00088501)"/>
</clipPath>
</defs>
</svg>
