<svg width="48" height="48" viewBox="0 0 48 48" fill="none" xmlns="http://www.w3.org/2000/svg">
  <path d="M20.6001 9.75085C20.6001 10.1651 20.2643 10.5009 19.8501 10.5009H10.3501C9.93588 10.5009 9.6001 10.1651 9.6001 9.75085C9.6001 9.33664 9.93588 9.00085 10.3501 9.00085H19.8501C20.2643 9.00085 20.6001 9.33664 20.6001 9.75085Z" fill="currentColor"/>
  <path d="M25.8501 17.0009C26.2643 17.0009 26.6001 17.3366 26.6001 17.7509C26.6001 18.1651 26.2643 18.5009 25.8501 18.5009H10.3501C9.93588 18.5009 9.6001 18.1651 9.6001 17.7509C9.6001 17.3366 9.93588 17.0009 10.3501 17.0009H25.8501Z" fill="currentColor"/>
  <path d="M25.8501 25.0009C26.2643 25.0009 26.6001 25.3366 26.6001 25.7509C26.6001 26.1651 26.2643 26.5009 25.8501 26.5009H10.3501C9.93588 26.5009 9.6001 26.1651 9.6001 25.7509C9.6001 25.3366 9.93588 25.0009 10.3501 25.0009H25.8501Z" fill="currentColor"/>
  <path fill-rule="evenodd" clip-rule="evenodd" d="M32.236 38.0406L43.736 18.122C44.2883 17.1655 43.9606 15.9423 43.004 15.39L41.2719 14.39C40.3154 13.8377 39.0922 14.1655 38.5399 15.122L27.0399 35.0406L27.138 40.8708L32.236 38.0406ZM37.0264 20.7434L28.5467 35.4308L28.5957 38.3459L31.1447 36.9308L39.6245 22.2434L37.0264 20.7434ZM40.3745 20.9444L37.7764 19.4444L39.8389 15.872C39.977 15.6329 40.2828 15.551 40.5219 15.689L42.254 16.689C42.4931 16.8271 42.5751 17.1329 42.437 17.372L40.3745 20.9444Z" fill="currentColor"/>
  <path d="M14.4936 38.093C14.6324 37.908 14.9264 37.9945 14.9429 38.2252L15.0867 40.2379C15.1961 41.7697 17.0846 42.4278 18.1223 41.2958L20.2161 39.0117C20.1931 40.3658 21.5615 41.4038 22.9088 40.8986L24.0613 40.4664C24.4492 40.321 24.6457 39.8886 24.5002 39.5008C24.3548 39.113 23.9225 38.9165 23.5347 39.0619L22.3821 39.4941C22.0166 39.6312 21.6447 39.3081 21.7294 38.927C22.0337 37.5576 20.3285 36.6692 19.3806 37.7032L17.0165 40.2822C16.8683 40.4439 16.5985 40.3499 16.5829 40.1311L16.4391 38.1184C16.3237 36.5031 14.2652 35.8975 13.2936 37.193L10.8502 40.4508C10.6017 40.7822 10.6689 41.2523 11.0002 41.5008C11.3316 41.7493 11.8017 41.6822 12.0502 41.3508L14.4936 38.093Z" fill="currentColor"/>
  <path d="M5.5 2.00085C5.5 1.72471 5.72386 1.50085 6 1.50085H38C38.2761 1.50085 38.5 1.72471 38.5 2.00085V9.25085C38.5 9.66507 38.8358 10.0009 39.25 10.0009C39.6642 10.0009 40 9.66507 40 9.25085V2.00085C40 0.896285 39.1046 0.000854492 38 0.000854492H6C4.89543 0.000854492 4 0.896285 4 2.00085V46.0009C4 47.1054 4.89543 48.0009 6 48.0009H38C39.1046 48.0009 40 47.1054 40 46.0009V33.7509C40 33.3366 39.6642 33.0009 39.25 33.0009C38.8358 33.0009 38.5 33.3366 38.5 33.7509V46.0009C38.5 46.277 38.2761 46.5009 38 46.5009H6C5.72386 46.5009 5.5 46.277 5.5 46.0009V2.00085Z" fill="currentColor"/>
</svg>
