<svg width="48" height="48" viewBox="0 0 48 48" fill="none" xmlns="http://www.w3.org/2000/svg">
<path d="M30 26.0615C30.2929 25.7687 30.2929 25.2938 30 25.0009C29.7071 24.708 29.2322 24.708 28.9393 25.0009L22.5 31.4402L21.0607 30.0009C20.7678 29.708 20.2929 29.708 20 30.0009C19.7071 30.2938 19.7071 30.7687 20 31.0615L21.7929 32.8544C22.1834 33.245 22.8166 33.245 23.2071 32.8544L30 26.0615Z" fill="currentColor"/>
<path d="M30 8.00088C30.2929 8.29378 30.2929 8.76865 30 9.06155L23.2071 15.8544C22.8166 16.245 22.1834 16.245 21.7929 15.8544L20 14.0615C19.7071 13.7687 19.7071 13.2938 20 13.0009C20.2929 12.708 20.7678 12.708 21.0607 13.0009L22.5 14.4402L28.9393 8.00088C29.2322 7.70799 29.7071 7.70799 30 8.00088Z" fill="currentColor"/>
<path d="M23 24.0009C23.9228 24.0009 24.8039 24.1794 25.6106 24.5039C26.0846 24.6945 26.1643 25.3014 25.8031 25.6627C25.5679 25.8978 25.2112 25.9524 24.8991 25.8376C24.3072 25.6198 23.6675 25.5009 23 25.5009C19.9624 25.5009 17.5 27.9633 17.5 31.0009C17.5 34.0385 19.9624 36.5009 23 36.5009C26.0376 36.5009 28.5 34.0385 28.5 31.0009C28.5 30.8399 28.4931 30.6806 28.4795 30.5232C28.4571 30.2619 28.5379 29.9989 28.7234 29.8134C29.155 29.3818 29.8801 29.5667 29.9515 30.1729C29.9835 30.4444 30 30.7207 30 31.0009C30 34.8669 26.866 38.0009 23 38.0009C19.134 38.0009 16 34.8669 16 31.0009C16 27.1349 19.134 24.0009 23 24.0009Z" fill="currentColor"/>
<path d="M25.8031 8.66266C26.1643 8.30142 26.0846 7.69452 25.6106 7.5039C24.8039 7.17944 23.9228 7.00089 23 7.00089C19.134 7.00089 16 10.1349 16 14.0009C16 17.8669 19.134 21.0009 23 21.0009C26.866 21.0009 30 17.8669 30 14.0009C30 13.7207 29.9835 13.4444 29.9515 13.1729C29.8801 12.5667 29.155 12.3818 28.7234 12.8134C28.5379 12.9989 28.4571 13.2619 28.4795 13.5232C28.4931 13.6806 28.5 13.8399 28.5 14.0009C28.5 17.0385 26.0376 19.5009 23 19.5009C19.9624 19.5009 17.5 17.0385 17.5 14.0009C17.5 10.9633 19.9624 8.50089 23 8.50089C23.6675 8.50089 24.3072 8.61979 24.8991 8.83758C25.2112 8.9524 25.5679 8.89779 25.8031 8.66266Z" fill="currentColor"/>
<path fill-rule="evenodd" clip-rule="evenodd" d="M8 45.0009C6.89543 45.0009 6 44.1055 6 43.0009V2.00089C6 0.896316 6.89543 0.00088501 8 0.00088501H38C39.1046 0.00088501 40 0.896316 40 2.00089V3.00089H41C42.1046 3.00089 43 3.89632 43 5.00089V46.0009C43 47.1055 42.1046 48.0009 41 48.0009H11C9.89543 48.0009 9 47.1055 9 46.0009V45.0009H8ZM7.5 2.00089C7.5 1.72474 7.72386 1.50089 8 1.50089H38C38.2761 1.50089 38.5 1.72474 38.5 2.00089V43.0009C38.5 43.277 38.2761 43.5009 38 43.5009H8C7.72386 43.5009 7.5 43.277 7.5 43.0009V2.00089ZM10.5 45.0009V46.0009C10.5 46.277 10.7239 46.5009 11 46.5009H41C41.2761 46.5009 41.5 46.277 41.5 46.0009V5.00089C41.5 4.72474 41.2761 4.50089 41 4.50089H40V43.0009C40 44.1055 39.1046 45.0009 38 45.0009H10.5Z" fill="currentColor"/>
</svg>
