<svg width="48" height="48" viewBox="0 0 48 48" fill="none" xmlns="http://www.w3.org/2000/svg">
<g clip-path="url(#clip0_100_787)">
<path d="M32.25 36.5009C32.6642 36.5009 33 36.1651 33 35.7509C33 35.3366 32.6642 35.0009 32.25 35.0009H15.75C15.3358 35.0009 15 35.3366 15 35.7509C15 36.1651 15.3358 36.5009 15.75 36.5009H32.25Z" fill="currentColor"/>
<path d="M29.25 40.0009C29.6642 40.0009 30 40.3366 30 40.7509C30 41.1651 29.6642 41.5009 29.25 41.5009H18.75C18.3358 41.5009 18 41.1651 18 40.7509C18 40.3366 18.3358 40.0009 18.75 40.0009H29.25Z" fill="currentColor"/>
<path fill-rule="evenodd" clip-rule="evenodd" d="M8 48.0009C6.89543 48.0009 6 47.1054 6 46.0009V2.00086C6 0.896286 6.89543 0.000854492 8 0.000854492H40C41.1046 0.000854492 42 0.896285 42 2.00085V46.0009C42 47.1054 41.1046 48.0009 40 48.0009H8ZM7.5 2.00086C7.5 1.72471 7.72386 1.50085 8 1.50085H40C40.2761 1.50085 40.5 1.72471 40.5 2.00085V46.0009C40.5 46.277 40.2761 46.5009 40 46.5009H8C7.72386 46.5009 7.5 46.277 7.5 46.0009V2.00086Z" fill="currentColor"/>
<path d="M26.2745 6.41181C26.6581 6.41181 26.7677 6.63099 26.8225 6.79537V6.90496C26.8225 7.01455 26.8225 7.17894 26.7677 7.23373L26.7129 7.34332V7.39811L26.7677 7.45291L26.9321 7.72688L27.0417 7.89127C27.2608 8.27483 27.5348 8.76798 27.5348 9.26113C27.5348 10.083 27.6992 11.0693 28.4663 11.8913H28.3019L28.1923 11.8365C27.9732 11.7817 27.754 11.6173 27.48 11.3981C27.4252 11.3981 27.4252 11.5077 27.4252 11.6721V12.22C27.4252 12.2748 27.4252 12.3844 27.4252 12.4392V12.6584C27.4252 12.7132 27.4252 12.7132 27.4252 12.768V12.9872C27.48 13.3159 27.5348 13.5899 27.6444 13.7543C27.754 13.8639 27.5348 13.8091 27.3156 13.5899L27.0417 13.3159C26.9869 13.2063 26.9321 13.1515 26.8773 13.2063H26.8225L26.7677 13.2611L26.6033 13.5899C26.4937 14.0283 26.3841 14.6858 26.7677 15.3433C26.8225 15.4529 26.7677 15.4529 26.6581 15.3981L26.6033 15.3433L26.4937 15.2885C26.3293 15.1789 26.0553 14.9598 25.9458 14.7406C25.9458 14.6858 25.891 14.7406 25.8362 14.8502L25.7266 15.0693V15.2337C25.617 15.7269 25.617 16.5488 26.0006 17.2611C26.0553 17.3707 25.9458 17.3159 25.8362 17.2611L25.617 17.1515L25.7266 17.0967C25.7266 17.0967 25.6718 17.0967 25.6718 17.042L25.617 16.9872C25.5622 16.9324 25.5622 16.9324 25.5074 16.8776V16.8228C25.3978 16.6584 25.2334 17.042 25.5074 17.6447L25.8362 18.2474L26.0553 18.6858C26.2197 18.9598 26.3293 19.1789 26.4389 19.2885C26.5485 19.3981 26.7677 19.5625 27.0417 19.6721L27.48 19.8913C27.5348 19.9461 27.5896 19.9461 27.6444 20.0009H27.6992L28.1923 20.3296C28.6307 20.6036 29.2882 20.9324 29.891 20.9324C30.8225 20.9324 31.3156 20.2748 31.3156 19.9461H31.2608L30.9321 19.8913H30.8225L30.7129 19.8365L30.3841 19.7269H30.3293L30.1649 19.6721C29.343 19.3433 28.3019 18.631 28.3019 16.8776C28.3019 15.5077 29.1786 14.5214 29.891 13.9187L30.2197 13.6995L30.3293 13.5899L30.6581 13.3707L31.1512 13.8639L30.9869 13.9735L30.7677 14.1378L30.6033 14.2474L30.3841 14.4666C29.7814 15.0146 29.0143 15.8913 29.0143 16.8776C29.0143 18.5214 30.4937 19.2885 31.3704 19.2885V19.0146C31.3704 19.0146 31.3704 19.0146 31.3704 18.9598V18.7954C31.3704 18.7406 31.3704 18.7406 31.3704 18.6858L31.3156 18.5762C31.1512 18.1926 30.7677 17.7543 29.7814 17.3159H30.1101C30.4389 17.3159 30.9869 17.3707 31.3704 17.9187C31.5348 18.1378 31.5896 17.9735 31.6444 17.9187C31.6992 17.8639 31.9732 17.5351 32.4115 17.6995L32.3019 17.7543C32.3019 17.7543 32.3019 17.7543 32.3019 17.8091L32.2471 17.8639C32.0827 18.083 31.8636 18.5762 32.0827 19.2337H32.2471L32.3567 19.1789H32.4115L32.5211 19.1241C33.0143 18.8502 33.7814 18.3022 33.7814 17.0967C33.7814 16.0009 33.0143 15.1789 32.2471 14.4666L32.028 14.2474L31.5896 13.8639C31.5348 13.8091 31.5348 13.8091 31.48 13.7543L31.3156 13.5899C31.206 13.5351 31.1512 13.4255 31.0964 13.3707L31.0417 13.3159C30.9321 13.2063 30.8225 13.042 30.7129 12.9324L30.2197 12.4392C29.6718 11.8913 29.1786 11.2885 29.069 10.4118L29.0143 10.3022H28.9595C28.7951 10.1926 28.3567 9.97346 28.3567 9.26113C28.3567 8.82277 28.6307 8.38442 28.9047 8.05565L29.0143 7.89127L29.2882 7.61729L29.3978 7.5625L29.4526 7.5077H29.5074C29.5074 7.5077 29.5074 7.5077 29.5074 7.5625L29.4526 7.83647L29.3978 7.94606C29.343 8.16524 29.343 8.43921 29.5622 8.43921C29.891 8.43921 30.6033 7.61729 30.6033 7.45291C30.6033 7.39812 30.6581 7.45291 30.6581 7.5077V7.78168L30.6033 7.89127C30.5485 8.05565 30.4937 8.22003 30.3841 8.32962L30.3293 8.38442C30.2745 8.49401 30.1649 8.5488 30.1101 8.65839L29.7814 9.04195C29.617 9.26113 29.4526 9.42551 29.617 9.5899C29.7814 9.80907 30.1649 9.5351 30.3841 9.31592L30.4389 9.20633L30.4937 9.15154V9.09674C30.4937 9.04195 30.5485 9.04195 30.4937 9.09674V9.15154V9.26113L30.4389 9.37072V9.42551L30.3841 9.5351C30.2745 9.80907 30.0553 10.1378 29.7266 10.3022V10.6858L29.7814 10.7406L29.891 10.9598C29.891 10.9598 29.891 11.0146 29.9458 11.0146L30.0006 11.1241L30.2745 11.3981L30.3841 11.5625L30.7129 11.8913C30.6033 11.9461 30.6581 11.9461 30.6581 12.0009L31.2608 12.6036L31.8088 13.042L32.028 13.2611L32.3567 13.5351L32.9047 13.9735L33.2334 14.3022H33.2882C33.343 14.2474 33.3978 14.1926 33.3978 14.0283V13.9735C33.3978 13.6447 33.5074 13.3159 33.6718 13.2063V14.083C33.6718 14.5214 33.7266 15.0146 33.891 15.1241C34.0554 15.1789 34.1101 15.0146 34.1101 14.7954C34.1649 14.5762 34.3293 14.357 34.3841 14.4118L34.3293 14.5762L34.2745 14.7954V15.1241C34.2197 15.5625 34.2197 16.0009 34.4937 16.1652C34.5485 16.1652 34.5485 16.1652 34.6033 16.1104L34.6581 16.0556C34.7129 15.9461 34.8773 15.8913 35.1512 16.0009L35.0964 15.7817L35.0417 15.8365C34.8225 15.9461 34.4937 16.3296 34.5485 16.8776C34.6033 17.6447 33.891 19.6173 32.0827 19.8913V20.0009L32.028 20.1104L31.9732 20.1652L31.8636 20.3844C31.5896 20.8776 31.0417 21.5899 29.6718 21.4255L30.0554 21.8091L30.2745 22.1378C30.2745 22.1926 30.3293 22.1926 30.3293 22.2474L30.4389 22.4118C30.9321 23.1241 31.4252 24.1652 31.3704 25.3159L31.3156 25.2063L31.2608 24.9872L31.0417 24.4392L30.9321 24.2748C30.9321 24.22 30.8773 24.22 30.8773 24.1652L30.7677 24.0009L30.5485 23.5625L30.2197 23.1241C30.1101 22.905 29.9458 22.7406 29.7814 22.5214L29.5622 22.3022C29.0143 21.6447 28.3567 21.042 27.5896 20.6036L27.4252 20.494C27.3704 20.494 27.3156 20.5488 27.3704 20.768C27.4252 21.042 27.206 21.6447 27.0417 21.9187C27.0417 21.9735 26.9869 21.9735 26.9869 22.083V22.905C27.0964 23.8365 27.5896 25.0967 29.1238 25.5351C29.3978 25.5899 29.617 25.5899 29.8362 25.5899H30.0554L30.1649 25.5351V25.5899L30.0554 25.6995L30.1101 25.5899C29.891 25.7543 29.5074 25.9735 28.7403 25.9735C28.4115 25.9735 28.4115 26.4666 28.9047 26.4666C28.9047 26.4666 28.9047 26.4666 28.9047 26.5214V26.7954L28.7403 27.2885L28.5759 27.9461L28.2471 28.6036C28.2471 28.6584 28.1923 28.6584 28.1923 28.7132L28.0827 28.9324C27.8636 29.4255 27.5896 29.8639 27.3156 30.1378C27.1512 30.2474 27.2608 30.3022 27.3156 30.357H27.4252C27.48 30.357 27.5348 30.4118 27.6444 30.4666L27.754 30.5214C27.754 30.5214 27.8088 30.5214 27.8088 30.5762L27.9184 30.631C27.9732 30.6858 28.028 30.6858 28.0827 30.7406H28.028C27.9184 30.7406 27.8088 30.7406 27.8088 30.7954V31.1241C27.754 31.2885 27.6992 31.5077 27.3704 31.5077C26.9321 31.5077 26.8225 31.0693 26.8225 30.8502C26.8225 30.631 26.6033 30.631 26.4937 30.631C26.4389 30.631 26.1101 30.7406 26.0006 31.1241L25.9458 31.2885C25.891 31.6721 25.7266 32.0009 25.3978 32.0009C25.0143 32.0009 24.9047 31.7269 24.9047 31.5077C24.9047 31.4529 24.9047 31.4529 24.8499 31.4529H24.7951C24.7403 31.4529 24.6307 31.4529 24.5211 31.3981L24.6855 31.2885L24.7951 31.2337L25.1238 31.0146C25.3978 30.7954 25.617 30.5762 25.5622 30.4666C25.4526 30.1926 25.2882 30.2474 25.1786 30.357L25.1238 30.4118L25.0143 30.4666C24.8499 30.5762 24.5759 30.7406 24.3567 30.7954C24.028 30.8502 23.8636 30.4118 24.028 30.083L24.0827 30.0283C24.1375 29.9735 24.0827 29.9735 24.028 29.9187L23.9184 29.8639C23.8636 29.8091 23.8088 29.8091 23.754 29.7543H24.3567C24.7951 29.7543 25.2882 29.7543 25.2882 29.5351C25.2334 29.2063 24.9595 29.2063 24.7951 29.2611C24.6307 29.3159 24.1375 29.2611 24.1375 28.9324C24.1375 28.8776 24.1923 28.8228 24.1923 28.768L24.2471 28.6584C24.3019 28.6036 24.3019 28.5488 24.3019 28.494C24.3019 28.4392 24.2471 28.3844 24.1923 28.3296L24.1375 28.2748H24.1923C24.1923 28.2748 24.1923 28.2748 24.2471 28.2748H24.3567C24.4663 28.2748 24.6307 28.2748 24.7951 28.3296C24.9047 28.3844 25.0143 28.4392 25.1238 28.6036L25.343 28.8228C25.5622 29.042 25.8362 29.3159 26.0553 29.3159C26.4937 29.3159 26.8773 28.6584 26.8773 27.3433V26.1926C26.8225 25.9735 26.8225 25.8639 26.7129 25.8091L26.6581 25.7543L26.5485 25.6995L26.4937 25.6447C26.4937 25.6447 26.4389 25.5899 26.4389 25.5351V25.4255C26.4389 25.3707 26.4389 25.2611 26.3293 25.2063C26.1649 25.1515 25.9458 25.3707 25.891 26.2474V26.4666C25.891 26.5214 25.891 26.5214 25.891 26.5762V27.1241L25.8362 27.2885L25.7266 27.0693V27.0146L25.617 26.6858C25.5622 26.4666 25.5074 26.2474 25.5074 25.9735C25.5074 25.9187 25.5074 25.8639 25.5074 25.8091V25.5351C25.5074 25.4255 25.5074 25.3707 25.4526 25.3159C25.4526 25.3159 25.3978 25.3159 25.343 25.3707L25.1238 25.5899C24.9595 25.7543 24.7403 25.9735 24.4663 26.083L24.6307 25.7543C24.7403 25.5351 24.8499 25.2063 24.8499 24.9324C24.8499 24.8776 24.8499 24.8228 24.7951 24.768V24.7132L24.8499 24.5488L24.6855 24.3844C24.5211 24.1652 24.3019 23.7269 24.3019 22.5762C24.3019 22.1926 24.3567 21.9187 24.4115 21.6995L24.4663 21.5351C24.5211 21.3159 24.5759 21.0967 24.5759 20.768C24.5759 20.3844 24.1375 19.9461 23.6444 19.5077L23.206 19.1789L23.0964 19.0693L22.3841 18.5762L21.9458 18.2474C21.891 18.1926 21.891 18.1926 21.8362 18.1378L21.5622 17.9187L20.9047 17.2611C20.9047 17.2611 20.9047 17.2611 20.9047 17.2063C20.8499 17.1515 20.9595 17.042 21.0143 16.9324L21.343 16.5488L21.4526 16.3844C21.617 16.1652 21.7266 15.9461 21.5622 15.8365C21.343 15.6721 21.2334 15.7817 21.069 16.0009L20.9047 16.3296C20.9047 16.3844 20.8499 16.3844 20.8499 16.4392C20.6307 16.768 20.2471 17.0967 20.0827 17.2063C20.028 17.2063 20.028 17.1515 20.028 17.042V16.4392C20.028 16.1652 19.9732 15.8913 19.8088 15.8913C19.4252 15.8913 19.3704 16.2748 19.4252 16.4392V16.494C19.4252 16.5488 19.4252 16.5488 19.3156 16.5488H19.206C19.0417 16.5488 18.8773 16.6036 18.7129 16.768L18.6581 16.8776C18.6581 16.8776 18.6581 16.9324 18.6033 16.9324L18.5485 17.042C18.4389 17.2611 18.2745 17.5351 18.2197 17.9735V17.8639C18.1649 17.6995 18.1101 17.3159 18.2197 16.9872L18.2745 16.8776C18.2745 16.8228 18.2745 16.8228 18.1649 16.8228H17.5074L17.069 16.9324L16.6855 16.9872L16.1375 17.0967C16.0827 17.0967 16.028 17.0967 15.9732 17.1515C15.8088 17.2063 15.754 17.2611 15.754 17.5351V18.1926C15.754 18.4118 15.754 18.5214 15.754 18.6858C15.754 18.7406 15.6992 18.6858 15.6992 18.631V18.4666C15.6992 18.4666 15.6992 18.4666 15.6444 18.4666H15.48C15.2608 18.5214 14.9321 18.5214 14.9321 18.1926C14.9321 17.9187 14.9869 17.8639 15.0964 17.8091L15.1512 17.7543C15.206 17.6995 15.2608 17.6995 15.2608 17.5899C15.2608 17.2611 15.0417 17.0967 14.7677 17.0967C14.6033 17.0967 14.4937 17.2063 14.3841 17.3159L14.2745 17.4255C14.1101 17.5899 13.9458 17.7543 13.7266 17.7543C13.2334 17.7543 13.1786 17.4255 13.1786 17.2611C13.1786 17.0967 13.2334 17.042 13.2334 16.9324C13.2334 16.8228 13.1238 16.7132 13.0143 16.7132C12.9595 16.7132 13.069 16.6584 13.2334 16.6584H13.2882L13.617 16.7132C14.0006 16.768 14.4937 16.7132 14.4937 16.3844C14.4937 16.2748 14.3841 16.22 14.2745 16.2748H14.1101C14.0553 16.2748 14.0553 16.2748 14.0006 16.2748L13.7814 16.22C13.5074 16.1652 13.1238 16.0556 13.1238 15.6173C13.1238 15.3981 13.343 15.2885 13.4526 15.2337H13.5074C13.5074 15.1789 13.5622 15.0693 13.5622 14.9598C13.5622 14.905 13.5622 14.905 13.6718 14.9598V14.8502L13.7814 14.905L13.9458 15.0146L14.4389 15.5077C14.5485 15.6721 14.7129 15.6173 14.7677 15.5625H14.8225C14.8773 15.5077 14.9869 15.3433 14.7129 15.1789C14.3841 15.0146 14.3841 14.8502 14.3841 14.5762C14.3841 14.357 14.5485 14.3022 14.6581 14.2474H14.7129C14.7677 14.2474 14.8225 14.0283 14.7677 13.9187V13.8639C14.7129 13.6995 15.1512 14.083 15.3704 14.5214C15.3704 14.5762 15.4252 14.631 15.4252 14.6858V14.9598C15.4252 15.2337 15.48 15.4529 15.8088 15.6173H16.028C16.028 15.6173 16.028 15.6173 16.0827 15.6173H16.1923L16.3019 15.5625L16.4663 15.5077C16.4663 15.5077 16.5211 15.5077 16.5759 15.4529L16.6855 15.3981L17.0143 15.2885L18.0006 14.905L19.5348 14.357C19.6444 14.3022 19.8636 14.1926 19.754 14.0283C19.6444 13.8091 19.2608 13.7543 18.7129 14.1378L18.6581 14.1926C18.5485 14.3022 18.4937 14.2474 18.5485 14.1378L18.6033 14.083L18.6581 13.9735C18.6581 13.9735 18.6581 13.9187 18.7129 13.9187L18.7677 13.8091C18.7677 13.8091 18.7677 13.7543 18.8225 13.7543L18.9321 13.6447C18.9869 13.5899 18.9869 13.5351 19.0417 13.5351L19.1512 13.4255C19.5348 12.9324 20.1375 12.4392 20.6855 12.4392C20.9047 12.4392 20.9595 12.3296 20.9595 12.22V12.1652C20.9595 12.0556 20.8499 11.9461 20.4663 11.9461C19.9732 11.9461 19.3156 12.4392 19.0417 12.9324C19.0417 12.9324 18.9869 12.9324 18.9321 12.9324L18.7677 12.8228C18.6581 12.7132 18.4389 12.6584 18.1649 12.6584C17.8362 12.6584 17.617 12.7132 17.4526 12.7132L17.343 12.768H17.1786C17.069 12.768 17.4526 12.22 18.1101 12.22C18.2197 12.22 18.2197 12.0556 18.0006 11.8913L17.9458 11.8365C17.8362 11.7817 17.6718 11.5625 17.5074 11.3981L17.0143 10.7406C16.9595 10.6858 16.9595 10.6858 16.9047 10.631C16.7951 10.5214 16.6855 10.6858 16.5211 10.9598L16.4663 11.0693L16.3019 11.5625C16.3019 11.6173 16.2471 11.5625 16.2471 11.5077V11.3433C16.2471 11.2885 16.1923 11.2885 16.1923 11.2885L16.0827 11.2337C15.9184 11.1789 15.754 11.0693 15.754 10.7406C15.754 10.357 15.9732 10.3022 16.1923 10.357H16.2471L16.3567 10.4118C16.3567 10.4118 16.3567 10.4118 16.4115 10.4118C16.6307 10.4666 16.8499 10.1926 16.7951 9.97346C16.4115 9.75428 16.1923 9.48031 15.8636 9.48031H15.8088C15.4252 9.5351 14.8773 9.26113 14.8773 8.82277C14.8773 8.60359 14.9869 8.49401 15.0964 8.43921L15.206 8.38442H15.2608C15.3156 8.32962 15.3156 8.11044 15.3156 8.05565C15.3156 8.05565 15.3156 8.05565 15.3704 8.05565L15.4252 8.11044L15.5348 8.16524L15.9184 8.5488C15.9732 8.60359 15.9732 8.60359 16.028 8.65839L16.1923 8.82277C16.3567 8.98716 16.4115 9.04195 16.5211 8.98716C16.6307 8.93236 16.6855 8.65839 16.3019 8.32962C15.9184 8.00085 15.9732 7.61729 16.1375 7.39811C16.1375 7.39811 16.1923 7.39811 16.2471 7.39811H16.4115C16.5759 7.39811 16.7403 7.39811 16.7951 7.28853C16.7951 7.17894 16.8499 7.23373 16.8499 7.28853V7.45291L16.9047 7.5625V8.00085L16.9595 8.11044V8.27483C16.9595 8.60359 17.069 8.65839 17.1786 8.65839C17.2882 8.65839 17.3978 8.60359 17.343 8.11044C17.2882 7.67209 17.3978 7.5625 17.5074 7.5077L17.5622 7.45291C17.6718 7.39812 17.8362 7.39811 17.9458 7.5077C18.0553 7.61729 18.2745 7.45291 18.2745 7.28853V7.5077C18.3293 7.67209 18.3293 7.89126 18.1649 8.11044C18.1101 8.16524 18.1101 8.22003 18.0553 8.22003L17.8362 8.43921C17.617 8.65839 17.4526 8.93236 17.6718 9.37072L17.7266 9.48031L19.9184 11.7269C19.9732 11.7269 20.028 11.6721 19.9184 11.5625C19.8088 11.3981 19.8088 11.2337 19.9184 11.1241V11.0693L19.9732 11.1241L20.1923 11.2337C20.1923 11.2337 20.2471 11.2337 20.2471 11.2885L20.3567 11.3433C20.7403 11.5077 21.2882 11.6721 22.1101 11.5625C23.5896 11.3981 24.1923 10.357 23.9732 10.1378L24.0827 10.1926L23.8088 10.4666C23.5348 10.631 23.206 10.8502 22.8773 10.8502C22.2745 10.8502 21.9458 10.2474 22.0553 9.86387V9.80907L22.1649 9.91866C22.2745 10.0283 22.5485 10.1926 22.8773 10.1926C23.3704 10.1926 23.9184 9.5899 23.8088 9.26113C23.8088 9.20633 23.754 9.20633 23.6444 9.26113L23.5348 9.20633L22.9869 9.37072L22.7677 9.42551C22.7129 9.42551 22.7129 9.42551 22.6581 9.48031L22.4389 9.5351C22.0553 9.64469 21.5074 9.69948 20.9595 9.69948C19.206 9.69948 18.9321 7.94606 20.1923 7.23373L20.1375 7.28853L20.0827 7.39811V7.89127C19.9732 8.49401 20.1375 9.26113 21.5622 9.26113C21.8362 9.26113 22.1101 9.26113 22.3293 9.20633L22.5485 9.15154C22.6033 9.15154 22.7129 9.15154 22.7677 9.09674L22.9869 9.04195L23.3156 8.93236L23.5348 8.82277L23.6992 8.76798V8.65839C23.6444 8.49401 23.4252 8.11044 22.9321 8.11044C22.4389 8.11044 22.2197 8.49401 22.1101 8.65839L22.0553 8.71318V8.76798L22.0006 8.71318L21.891 8.82277C21.7266 8.71318 21.4526 8.38442 21.5622 8.00085C21.5622 7.94606 21.617 7.94606 21.6718 7.94606H21.891C22.0553 7.89127 22.2197 7.83647 22.2197 7.61729C22.2197 7.5077 22.1649 7.45291 22.1101 7.45291H22.0553C22.0006 7.45291 21.9458 7.5077 21.891 7.5625L21.8362 7.67209C21.7814 7.72688 21.7814 7.78168 21.6718 7.78168C21.4526 7.78168 21.4526 7.12414 21.891 7.12414H21.9458C22.0554 7.12414 22.2197 7.12414 22.2745 7.01455V6.95976C22.2745 6.79538 22.6581 6.63099 23.48 6.5762H23.754C23.8636 6.5762 24.028 6.5762 24.1923 6.5762C24.7951 6.5762 25.1786 6.68579 25.3978 6.74058L25.5074 6.79537L25.6718 6.95976V6.90496C25.7266 6.68579 25.891 6.41181 26.2745 6.41181ZM20.4663 19.0146H22.6033C22.6581 19.0146 22.6581 19.0693 22.6581 19.1241V19.1789C22.6581 19.2337 22.6581 19.3433 22.8225 19.3981C23.0417 19.4529 23.6992 20.0009 23.6992 20.2748C23.6992 20.3296 23.6444 20.4392 23.5896 20.494L23.4252 20.7132C23.3704 20.8228 23.3156 20.9324 23.4252 21.1515C23.6992 21.5351 23.9184 21.5351 24.0827 21.5351H24.028C24.028 21.5351 24.028 21.5351 23.9732 21.5351L23.9184 21.5899C23.754 21.6447 23.4252 21.6995 22.9321 21.6995H22.8225C22.6033 21.6995 22.3841 21.6447 22.1649 21.5899L21.5622 21.4803C21.2334 21.4255 20.9595 21.3707 20.6307 21.4255H20.4663C19.8636 21.5351 19.48 22.083 19.754 23.8365V24.0009C19.754 24.0556 19.8636 24.1104 20.0827 24.1104C20.4115 24.1104 21.2334 24.494 21.7266 25.3159L21.5074 25.2063V25.0967L21.1786 24.9872C20.7403 24.768 20.3019 24.6036 20.1375 24.8776C20.028 25.0967 20.0827 25.2611 20.2471 25.3707C20.3019 25.3707 20.1923 25.4255 20.028 25.4803L19.8636 25.5351L19.5896 25.6447H19.3156L18.7677 25.8091L17.7814 26.083C17.617 26.1378 17.5622 26.2474 17.891 26.4666L17.9458 26.5214L18.2745 26.7406L18.3293 26.7954C18.3841 26.8502 18.4389 26.905 18.3841 26.905H18.2197C18.0553 26.905 17.891 26.905 17.891 27.0146C17.891 27.1241 17.8362 27.3981 17.5622 27.3981C17.2882 27.3981 17.1238 27.2337 17.1238 27.0146V26.7406C17.1238 26.5214 17.0143 26.357 16.7951 26.357C16.4663 26.357 16.2471 26.6858 16.2471 27.2885C16.2471 27.7269 15.8088 27.8365 15.6444 27.8365C15.48 27.8365 15.3156 27.7817 15.3156 27.5077C15.3156 27.4529 15.206 27.4529 15.0964 27.4529H14.9869C14.9321 27.4529 14.9869 27.3981 15.0964 27.2885L15.206 27.2337L15.5348 27.0146L15.8636 26.7406C15.9732 26.6858 15.9732 26.4666 15.9184 26.4118L15.8636 26.357C15.754 26.3022 15.6444 26.2474 15.4252 26.4118C15.206 26.631 14.9321 26.7954 14.7129 26.7954C14.4937 26.7954 14.2745 26.5762 14.2745 26.357V26.083C14.2745 25.9735 14.2745 25.8091 14.1101 25.7543L14.0553 25.6995C14.0006 25.6447 14.0006 25.6447 14.1101 25.6447H15.3704C15.5896 25.6447 15.8088 25.5899 15.8088 25.5351C15.8088 25.2611 15.5348 25.2063 15.4252 25.2063H15.2608C14.9869 25.2063 14.6033 25.2063 14.6033 24.8228C14.6033 24.7132 14.6581 24.6584 14.7129 24.6036H14.7677C14.7677 24.5488 14.8225 24.5488 14.8225 24.494C14.8225 24.3844 14.6581 24.3844 14.6033 24.3844L14.7129 24.2748C14.8773 24.22 15.206 24.1104 15.5348 24.3844C15.5896 24.4392 15.6992 24.5488 15.754 24.6036L15.9732 24.9324C16.1375 25.1515 16.3019 25.3159 16.5759 25.3159H16.6855C17.2334 25.2611 18.5485 24.768 18.5485 23.2885C18.5485 22.8502 18.4389 22.4666 18.3293 22.1378L18.2197 21.8091L18.0553 21.4803C18.0553 21.4255 18.0553 21.4255 18.0553 21.4255C18.0553 21.3707 18.0553 21.3707 18.1101 21.3707H18.2197C18.3293 21.3707 18.4937 21.3159 18.4937 21.0967C18.4937 20.6584 15.8636 20.6036 15.0417 21.4255V21.2063L15.0964 21.0967C15.2608 20.8228 15.6444 20.4392 16.5211 20.4392C16.7403 20.4392 16.9047 20.494 17.0143 20.494L17.1786 20.5488C17.343 20.6036 17.4526 20.6036 17.617 20.5488C17.6718 20.5488 17.6718 20.494 17.617 20.4392L17.3978 20.1652C17.2334 20.0009 17.069 19.8365 17.1238 19.5077L17.1786 19.5625C17.343 19.7269 17.7266 20.0556 18.1649 20.0556C18.2197 20.0556 18.2197 20.0556 18.2745 20.0009L18.3293 19.9461L18.4389 19.7817L18.6581 19.5625C18.9869 19.3433 19.5348 19.0146 20.4663 19.0146ZM23.1512 15.7269C23.0417 15.7269 22.9321 15.7817 22.9321 15.8913V16.0556C22.9321 16.0556 22.9321 16.1104 22.8773 16.1104L22.7677 16.3296C22.6033 16.5488 22.3841 16.8228 21.891 17.042C21.8362 17.0967 21.7814 17.2063 21.8362 17.3159C21.891 17.3707 21.9458 17.4255 22.0553 17.4255H22.1101C22.8225 17.0967 23.1512 16.6584 23.2608 16.3296L23.3156 16.22V15.9461C23.3156 15.8365 23.2608 15.7269 23.1512 15.7269ZM24.6855 15.6173C24.5759 15.6173 24.5211 15.6721 24.4663 15.7817V16.0009C24.4115 16.2748 24.2471 16.768 23.6444 17.0967C23.5896 17.1515 23.5348 17.2611 23.5896 17.3707C23.6444 17.4255 23.6992 17.4803 23.8088 17.4803H23.8636C24.5211 17.1515 24.7951 16.6036 24.9047 16.22V15.8365C24.8499 15.6721 24.7951 15.6173 24.6855 15.6173ZM22.2197 13.0967C22.1649 13.2063 22.2197 13.3159 22.2745 13.4255L22.3293 13.4803C22.3841 13.5351 22.5485 13.6995 22.6033 13.9187C22.7129 14.3022 22.6033 14.8502 22.2745 15.3981C22.2197 15.4529 22.2197 15.6173 22.3293 15.6721C22.3841 15.7269 22.3841 15.7269 22.4389 15.7269C22.4937 15.7269 22.6033 15.6721 22.6581 15.6173C23.0417 14.9598 23.206 14.357 23.0964 13.8639V13.7543C23.0417 13.4255 22.8225 13.2611 22.7129 13.1515L22.6581 13.0967L22.4937 13.042C22.3841 12.9872 22.2197 12.9872 22.2197 13.0967ZM21.1786 13.2611L21.069 13.3159L20.8499 13.5351C20.5759 13.8091 20.3019 14.3022 20.1923 15.1241C20.1923 15.2337 20.2471 15.3433 20.3567 15.3433H20.4663C20.5211 15.3433 20.6307 15.2885 20.6855 15.1789V15.1241C20.7403 14.357 21.069 13.9187 21.2882 13.6995L21.3978 13.5899C21.5074 13.5351 21.5074 13.3707 21.4526 13.3159C21.3978 13.2611 21.2882 13.2611 21.1786 13.2611ZM23.754 11.8365C23.6992 11.9461 23.6992 12.0556 23.8088 12.1104L23.9732 12.2748C23.9732 12.2748 23.9732 12.2748 23.9732 12.3296L24.028 12.3844C24.1923 12.6584 24.3567 13.0967 24.1923 13.9187L24.1375 14.083C24.0827 14.1926 24.1375 14.2474 24.2471 14.3022H24.3567C24.4115 14.3022 24.5211 14.2474 24.5759 14.1378C24.8499 12.9324 24.4663 12.2748 24.2471 12.0009L24.1375 11.8913L24.0827 11.7817L24.028 11.7269C23.9184 11.7269 23.8088 11.7269 23.754 11.8365ZM32.4663 7.34332L32.6307 7.67209C32.7951 8.00085 33.1238 8.38442 33.4526 8.32962C33.5622 8.32962 33.5622 8.16524 33.5074 8.00085L33.4526 7.78168L33.3978 7.67209V7.5625C33.3978 7.5077 33.3978 7.5077 33.3978 7.45291L33.7266 7.78168C33.891 7.94606 34.0553 8.11044 34.2197 8.22003C34.5485 8.43921 34.6033 9.09674 34.4389 9.48031C34.2745 9.75428 34.0006 10.0283 33.9458 10.3022V10.357C33.891 10.5214 33.7814 10.7406 33.617 11.0693L33.5074 11.2885C33.3978 11.4529 33.343 11.5625 33.1786 11.7269L32.9595 11.9461C32.7951 12.1652 32.5759 12.3844 32.3567 12.6036L32.2471 12.7132L31.6992 12.22L32.5759 11.3433C32.9595 10.905 33.2882 10.4666 33.2334 10.1378H33.1786L33.1238 10.083C33.1238 10.083 33.1238 10.083 33.069 10.083L32.9595 10.0283C32.7403 9.86387 32.4115 9.5351 32.4663 9.04195L32.5211 9.15154C32.5211 9.15154 32.5211 9.15154 32.5759 9.20633L32.6307 9.31592C32.7951 9.5351 33.069 9.75428 33.2334 9.5899C33.5074 9.42551 33.2882 8.98716 32.9595 8.65839L32.8499 8.5488V8.38442L32.7951 8.32962C32.5759 8.11044 32.4663 7.78168 32.4663 7.5625V7.34332ZM24.6855 9.15154C24.6307 9.26113 24.6855 9.37072 24.7951 9.42551C25.3978 9.64469 25.9458 9.97346 26.0006 10.1378H25.9458C25.9458 10.1378 25.9458 10.1378 25.891 10.1378H25.1786C25.1238 10.1378 25.0143 10.1926 24.9595 10.2474C24.9047 10.3022 24.9595 10.357 24.9595 10.4666L25.0143 10.5762L25.069 10.631V10.6858C25.069 10.6858 25.069 10.6858 25.069 10.7406V11.2337C25.069 11.4529 25.069 11.7269 25.0143 12.0009C25.0143 12.1104 25.069 12.1652 25.2334 12.22H25.343C25.3978 12.22 25.5074 12.1104 25.5074 12.0009C25.5074 11.8913 25.5074 11.7817 25.5074 11.7269V11.4529C25.5074 11.3981 25.5074 11.3981 25.5074 11.3433V11.1241C25.5074 10.8502 25.4526 10.6858 25.3978 10.5214C25.7266 10.5214 26.0006 10.4666 26.1649 10.3022C26.2197 10.2474 26.2745 10.1378 26.2745 10.0283C26.2745 9.64469 25.7266 9.31592 25.2882 9.09674L24.9595 8.98716L24.8499 8.93236H24.7951C24.8499 8.98716 24.7403 9.04195 24.6855 9.15154ZM24.1923 7.01455H23.206C23.0417 7.01455 23.0417 7.06935 22.9869 7.12414C22.9869 7.23373 23.0417 7.28853 23.0417 7.34332L23.0964 7.39811H23.6992C23.754 7.39811 23.8636 7.39812 23.8636 7.45291C23.8636 7.5077 23.6992 7.5625 23.5348 7.61729H23.2608L23.3156 7.67209C23.3704 7.78168 23.48 7.83647 23.6992 7.83647C24.028 7.83647 24.1375 7.5625 24.1375 7.34332V7.23373C24.1923 7.23373 24.3567 7.23373 24.3567 7.12414C24.4115 7.06935 24.3019 7.01455 24.1923 7.01455ZM23.9732 4.00085L24.1375 4.05565L24.3019 4.22003L24.4663 4.27483C24.6855 4.43921 24.9047 4.65839 24.9047 4.87757C24.9047 5.15154 24.6307 5.26113 24.4663 5.31592H24.4115C24.5211 5.5899 24.7403 5.69948 24.8499 5.75428H25.343C25.6718 5.75428 25.6718 5.48031 25.6718 5.37072V5.26113H25.617C25.5074 5.26113 25.2882 5.15154 25.2882 4.93236C25.2882 4.65839 25.6718 4.43921 26.0553 4.32962L26.2745 4.22003L26.4389 4.16524L26.3293 4.60359H26.2745C26.1649 4.60359 26.0553 4.71318 26.0553 4.87757C26.0553 4.93236 26.1101 4.98716 26.1649 5.04195H26.2197L25.891 6.13784H22.2745L22.0006 5.09675C22.0554 5.04195 22.1649 4.98716 22.1649 4.87757C22.1649 4.71318 22.0554 4.60359 21.9458 4.60359H21.891L21.7266 4.11044C22.0554 4.16524 22.8773 4.49401 22.8773 4.87757C22.8773 5.15154 22.6581 5.26113 22.5485 5.26113H22.4937C22.4937 5.5899 22.7129 5.69948 22.8225 5.69948H23.4252C23.6992 5.69948 23.754 5.37072 23.754 5.26113V5.20633H23.5896C23.4252 5.15154 23.2608 5.09675 23.2608 4.93236C23.2608 4.65839 23.48 4.43921 23.6992 4.22003L23.9184 4.00085H23.9732ZM24.0827 4.65839C23.9184 4.65839 23.8088 4.76798 23.8088 4.93236C23.8088 5.09675 23.9184 5.20633 24.0827 5.20633C24.2471 5.20633 24.3567 5.09675 24.3567 4.93236C24.3567 4.76798 24.2471 4.65839 24.0827 4.65839Z" fill="currentColor"/>
</g>
<defs>
<clipPath id="clip0_100_787">
<rect width="48" height="48" fill="white" transform="translate(0 0.000854492)"/>
</clipPath>
</defs>
</svg>
