<svg width="48" height="48" viewBox="0 0 48 48" fill="none" xmlns="http://www.w3.org/2000/svg">
<path d="M23.4973 7.25092C23.4973 7.66513 23.1615 8.00092 22.7473 8.00092H17.2028C16.7885 8.00092 16.4528 7.66513 16.4528 7.25092C16.4528 6.8367 16.7885 6.50092 17.2028 6.50092H22.7473C23.1615 6.50092 23.4973 6.8367 23.4973 7.25092Z" fill="currentColor"/>
<path d="M32.0827 11.2509C32.0827 11.6651 31.7469 12.0009 31.3327 12.0009H17.2028C16.7885 12.0009 16.4528 11.6651 16.4528 11.2509C16.4528 10.8367 16.7885 10.5009 17.2028 10.5009H31.3327C31.7469 10.5009 32.0827 10.8367 32.0827 11.2509Z" fill="currentColor"/>
<path d="M31.3327 16.0009C31.7469 16.0009 32.0827 15.6651 32.0827 15.2509C32.0827 14.8367 31.7469 14.5009 31.3327 14.5009H17.2028C16.7885 14.5009 16.4528 14.8367 16.4528 15.2509C16.4528 15.6651 16.7885 16.0009 17.2028 16.0009H31.3327Z" fill="currentColor"/>
<path fill-rule="evenodd" clip-rule="evenodd" d="M24 35.0001C27.5899 35.0001 30.5 32.0899 30.5 28.5001C30.5 24.9102 27.5899 22.0001 24 22.0001C20.4101 22.0001 17.5 24.9102 17.5 28.5001C17.5 32.0899 20.4101 35.0001 24 35.0001ZM24 33.5001C26.7614 33.5001 29 31.2615 29 28.5001C29 25.7386 26.7614 23.5001 24 23.5001C21.2386 23.5001 19 25.7386 19 28.5001C19 31.2615 21.2386 33.5001 24 33.5001Z" fill="currentColor"/>
<path fill-rule="evenodd" clip-rule="evenodd" d="M7 2.00092C7 0.896347 7.89543 0.000915527 9 0.000915527H39C40.1046 0.000915527 41 0.896346 41 2.00092V46.0009C41 47.1055 40.1046 48.0009 39 48.0009H9C7.89543 48.0009 7 47.1055 7 46.0009V2.00092ZM39 1.50092C39.2761 1.50092 39.5 1.72477 39.5 2.00092V46.0009C39.5 46.2771 39.2761 46.5009 39 46.5009H34C34 40.9781 29.5228 36.5009 24 36.5009C18.4772 36.5009 14 40.9781 14 46.5009H9C8.72386 46.5009 8.5 46.2771 8.5 46.0009V2.00092C8.5 1.72477 8.72386 1.50092 9 1.50092H39ZM15.5 46.5009H32.5C32.5 41.8065 28.6944 38.0009 24 38.0009C19.3056 38.0009 15.5 41.8065 15.5 46.5009Z" fill="currentColor"/>
</svg>
