<svg width="48" height="48" viewBox="0 0 48 48" fill="none" xmlns="http://www.w3.org/2000/svg">
<g clip-path="url(#clip0_100_767)">
<path d="M22 13.7509C22 14.1651 21.6642 14.5009 21.25 14.5009H15.75C15.3358 14.5009 15 14.1651 15 13.7509C15 13.3366 15.3358 13.0009 15.75 13.0009H21.25C21.6642 13.0009 22 13.3366 22 13.7509Z" fill="currentColor"/>
<path d="M35 17.7509C35 18.1651 34.6642 18.5009 34.25 18.5009H15.75C15.3358 18.5009 15 18.1651 15 17.7509C15 17.3366 15.3358 17.0009 15.75 17.0009H34.25C34.6642 17.0009 35 17.3366 35 17.7509Z" fill="currentColor"/>
<path d="M15 21.7509C15 22.1651 15.3358 22.5009 15.75 22.5009H34.25C34.6642 22.5009 35 22.1651 35 21.7509C35 21.3366 34.6642 21.0009 34.25 21.0009H15.75C15.3358 21.0009 15 21.3366 15 21.7509Z" fill="currentColor"/>
<path fill-rule="evenodd" clip-rule="evenodd" d="M6 5.00085V2.00085C6 0.896285 6.89543 0.000854492 8 0.000854492H40C41.1046 0.000854492 42 0.896286 42 2.00086V46.0009C42 47.1054 41.1046 48.0009 40 48.0009H8C6.89543 48.0009 6 47.1054 6 46.0009V42.5009H4.75C4.33579 42.5009 4 42.1651 4 41.7509C4 41.3366 4.33579 41.0009 4.75 41.0009H6V36.5009H4.75C4.33579 36.5009 4 36.1651 4 35.7509C4 35.3366 4.33579 35.0009 4.75 35.0009H6V30.5009H4.75C4.33579 30.5009 4 30.1651 4 29.7509C4 29.3366 4.33579 29.0009 4.75 29.0009H6V24.5009H4.75C4.33579 24.5009 4 24.1651 4 23.7509C4 23.3366 4.33579 23.0009 4.75 23.0009H6V18.5009H4.75C4.33579 18.5009 4 18.1651 4 17.7509C4 17.3366 4.33579 17.0009 4.75 17.0009H6V12.5009H4.75C4.33579 12.5009 4 12.1651 4 11.7509C4 11.3366 4.33579 11.0009 4.75 11.0009H6V6.50085H4.75C4.33579 6.50085 4 6.16507 4 5.75085C4 5.33664 4.33579 5.00085 4.75 5.00085H6ZM7.5 42.5009H8.25C8.66421 42.5009 9 42.1651 9 41.7509C9 41.3366 8.66421 41.0009 8.25 41.0009H7.5V36.5009H8.25C8.66421 36.5009 9 36.1651 9 35.7509C9 35.3366 8.66421 35.0009 8.25 35.0009H7.5V30.5009H8.25C8.66421 30.5009 9 30.1651 9 29.7509C9 29.3366 8.66421 29.0009 8.25 29.0009H7.5V24.5009H8.25C8.66421 24.5009 9 24.1651 9 23.7509C9 23.3366 8.66421 23.0009 8.25 23.0009H7.5V18.5009H8.25C8.66421 18.5009 9 18.1651 9 17.7509C9 17.3366 8.66421 17.0009 8.25 17.0009H7.5V12.5009H8.25C8.66421 12.5009 9 12.1651 9 11.7509C9 11.3366 8.66421 11.0009 8.25 11.0009H7.5V6.50085H8.25C8.66421 6.50085 9 6.16507 9 5.75085C9 5.33664 8.66421 5.00085 8.25 5.00085H7.5V2.00085C7.5 1.72471 7.72386 1.50085 8 1.50085H40C40.2761 1.50085 40.5 1.72471 40.5 2.00086V46.0009C40.5 46.277 40.2761 46.5009 40 46.5009H8C7.72386 46.5009 7.5 46.277 7.5 46.0009V42.5009Z" fill="currentColor"/>
</g>
<defs>
<clipPath id="clip0_100_767">
<rect width="48" height="48" fill="white" transform="translate(0 0.000854492)"/>
</clipPath>
</defs>
</svg>
