<svg width="48" height="48" viewBox="0 0 48 48" fill="none" xmlns="http://www.w3.org/2000/svg">
<path fill-rule="evenodd" clip-rule="evenodd" d="M15.43 12.8952C15.7314 12.8952 15.8175 13.0674 15.8605 13.1965V13.2827C15.8605 13.3688 15.8605 13.4979 15.8175 13.541L15.7744 13.6271V13.6701L15.8175 13.7132L15.9466 13.9284L16.0327 14.0576C16.2049 14.359 16.4202 14.7465 16.4202 15.1339C16.4202 15.7797 16.5494 16.5547 17.1521 17.2005H17.0229L16.9368 17.1574C16.7646 17.1144 16.5924 16.9852 16.3771 16.813C16.3341 16.813 16.3341 16.8991 16.3341 17.0283V18.0615C16.3771 18.3198 16.4202 18.5351 16.5063 18.6643C16.5924 18.7504 16.4202 18.7073 16.248 18.5351L16.0327 18.3198C15.9897 18.2337 15.9466 18.1907 15.9036 18.2337H15.8605L15.8175 18.2768L15.6883 18.5351C15.6022 18.8795 15.5161 19.3962 15.8175 19.9128C15.8605 19.9989 15.8175 19.9989 15.7314 19.9558L15.6883 19.9128L15.6022 19.8697C15.473 19.7836 15.2578 19.6114 15.1717 19.4392C15.1717 19.3962 15.1286 19.4392 15.0856 19.5253L14.9995 19.6975V19.8267C14.9134 20.2142 14.9134 20.86 15.2147 21.4196C15.2578 21.5057 15.1717 21.4627 15.0856 21.4196L14.9134 21.3335L14.9995 21.2905C14.9995 21.2905 14.9564 21.2905 14.9564 21.2474L14.8272 21.1183V21.0752C14.7411 20.9461 14.612 21.2474 14.8272 21.721L15.0856 22.1946L15.2578 22.539C15.2924 22.5967 15.3239 22.6513 15.3532 22.702C15.4331 22.8404 15.4961 22.9496 15.5591 23.0126C15.6453 23.0987 15.8175 23.2279 16.0327 23.314L16.3771 23.4862C16.3987 23.5077 16.4202 23.5185 16.4417 23.5292C16.4633 23.54 16.4848 23.5508 16.5063 23.5723H16.5494L16.9368 23.8306C17.2813 24.0459 17.7979 24.3042 18.2715 24.3042C19.0034 24.3042 19.3908 23.7875 19.3908 23.5292H19.3478L19.0895 23.4862H19.0034L18.9173 23.4431L18.659 23.357H18.6159L18.4867 23.314C17.8409 23.0556 17.0229 22.496 17.0229 21.1183C17.0229 20.042 17.7118 19.267 18.2715 18.7934L18.5298 18.6212L18.6159 18.5351L18.8742 18.3629L19.2617 18.7504L19.1325 18.8365L18.9603 18.9656L18.8312 19.0517L18.659 19.2239C18.1854 19.6545 17.5826 20.3433 17.5826 21.1183C17.5826 22.4099 18.7451 23.0126 19.4339 23.0126V22.539L19.3908 22.4529C19.2617 22.1515 18.9603 21.8071 18.1854 21.4627H18.4437C18.702 21.4627 19.1325 21.5057 19.4339 21.9363C19.541 22.079 19.5889 22.0147 19.6266 21.964C19.6344 21.9535 19.6418 21.9436 19.6492 21.9363L19.6591 21.926C19.7194 21.8627 19.9288 21.6429 20.2519 21.7641L20.1658 21.8071V21.8502L20.1227 21.8932C19.9936 22.0654 19.8214 22.4529 19.9936 22.9695H20.1227L20.2089 22.9265H20.2519L20.338 22.8834C20.7255 22.6682 21.3282 22.2376 21.3282 21.2905C21.3282 20.4294 20.7255 19.7836 20.1227 19.2239L19.9505 19.0517L19.6061 18.7504L19.3908 18.5351C19.3308 18.5051 19.2917 18.4541 19.2589 18.4114C19.2447 18.3929 19.2317 18.3759 19.2186 18.3629L19.1756 18.3198C19.1325 18.2768 19.0895 18.223 19.0464 18.1692C19.0034 18.1153 18.9603 18.0615 18.9173 18.0185L18.5298 17.631C18.0993 17.2005 17.7118 16.7269 17.6257 16.038L17.5826 15.9519H17.5396C17.5296 15.9453 17.5183 15.9381 17.506 15.9303C17.3592 15.8369 17.066 15.6503 17.066 15.1339C17.066 14.7895 17.2813 14.4451 17.4965 14.1868L17.5826 14.0576L17.7979 13.8423L17.884 13.7993L17.9271 13.7562H17.9701V13.7993L17.9271 14.0146L17.884 14.1007C17.8409 14.2729 17.8409 14.4881 18.0132 14.4881C18.2715 14.4881 18.8312 13.8423 18.8312 13.7132C18.8312 13.6701 18.8742 13.7132 18.8742 13.7562V13.9715L18.8312 14.0576C18.7881 14.1868 18.7451 14.3159 18.659 14.402L18.6159 14.4451C18.5944 14.4881 18.5621 14.5204 18.5298 14.5527C18.4975 14.585 18.4652 14.6173 18.4437 14.6603L18.1854 14.9617C18.1706 14.9813 18.1559 15.0004 18.1416 15.019C18.0301 15.1634 17.9418 15.2778 18.0562 15.3922C18.1854 15.5645 18.4867 15.3492 18.659 15.177L18.702 15.0909L18.7451 15.0478V15.1339L18.702 15.22V15.2631L18.659 15.3492C18.5728 15.5645 18.4006 15.8228 18.1423 15.9519V16.2533L18.1854 16.2964L18.2715 16.4686C18.2715 16.4686 18.2715 16.5116 18.3145 16.5116L18.3576 16.5977L18.5728 16.813L18.659 16.9421L18.9173 17.2005C18.8564 17.2309 18.8601 17.2398 18.8675 17.2577C18.8705 17.265 18.8742 17.274 18.8742 17.2866L19.3478 17.7602L19.7783 18.1046L19.9505 18.2768L20.2089 18.492L20.6394 18.8365L20.8977 19.0948H20.9408C20.9838 19.0517 21.0269 19.0087 21.0269 18.8795V18.8365C21.0269 18.5782 21.113 18.3198 21.2421 18.2337V18.9226C21.2421 19.267 21.2852 19.6545 21.4143 19.7406C21.5435 19.7836 21.5865 19.6545 21.5865 19.4823C21.6296 19.3101 21.7588 19.1378 21.8018 19.1809L21.7588 19.3101L21.7157 19.4823V19.7406C21.6726 20.085 21.6726 20.4294 21.8879 20.5586C21.9062 20.5586 21.9167 20.5586 21.9261 20.5553C21.9387 20.5508 21.9493 20.5403 21.974 20.5155L22.0171 20.4725C22.0443 20.4181 22.1058 20.3809 22.2018 20.3825C22.0508 20.5191 21.897 20.7784 21.931 21.1183C21.974 21.721 21.4143 23.2709 19.9936 23.4862V23.5723L19.9505 23.6584L19.9075 23.7014L19.8214 23.8737C19.6061 24.2611 19.1756 24.8208 18.0993 24.6917L18.4006 24.993L18.5728 25.2513C18.5728 25.2729 18.5836 25.2836 18.5944 25.2944C18.6051 25.3052 18.6159 25.3159 18.6159 25.3375L18.702 25.4666C19.0895 26.0263 19.477 26.8443 19.4339 27.7484L19.3908 27.6623L19.3478 27.4901L19.1756 27.0596L19.0895 26.9304C19.0895 26.9089 19.0787 26.8981 19.068 26.8874C19.0572 26.8766 19.0464 26.8658 19.0464 26.8443L18.9603 26.7151L18.7881 26.3707L18.5298 26.0263C18.4703 25.9074 18.3904 25.809 18.304 25.7028C18.2654 25.6552 18.2253 25.606 18.1854 25.5527L18.0132 25.3805C17.5826 24.8639 17.066 24.3903 16.4633 24.0459L16.3341 23.9598C16.291 23.9598 16.248 24.0028 16.291 24.175C16.3341 24.3903 16.1619 24.8639 16.0327 25.0791C16.0327 25.097 16.0253 25.1074 16.0167 25.1197C16.0044 25.137 15.9897 25.1579 15.9897 25.2083V25.8541C16.0758 26.586 16.4633 27.5762 17.6687 27.9206C17.884 27.9637 18.0562 27.9637 18.2284 27.9637H18.4006L18.4867 27.9206V27.9637L18.4006 28.0498L18.4437 27.9637C18.2715 28.0928 17.9701 28.265 17.3674 28.265C17.109 28.265 17.109 28.6525 17.4965 28.6525V28.9108L17.3674 29.2983L17.2382 29.8149L16.9799 30.3316C16.9799 30.3531 16.9691 30.3639 16.9584 30.3746C16.9476 30.3854 16.9368 30.3962 16.9368 30.4177L16.8507 30.5899C16.6785 30.9774 16.4633 31.3218 16.248 31.5371C16.1369 31.6111 16.185 31.6533 16.2281 31.6911C16.2351 31.6972 16.242 31.7032 16.248 31.7093H16.3341C16.3607 31.7093 16.3873 31.7257 16.4241 31.7484C16.4468 31.7625 16.4734 31.7789 16.5063 31.7954L16.5924 31.8384C16.5924 31.8384 16.6355 31.8384 16.6355 31.8815L16.7216 31.9245C16.7431 31.9461 16.7646 31.9568 16.7862 31.9676C16.8077 31.9783 16.8292 31.9891 16.8507 32.0106H16.8077C16.7216 32.0106 16.6355 32.0106 16.6355 32.0537V32.312L16.6291 32.3314C16.5876 32.4578 16.5366 32.6134 16.291 32.6134C15.9466 32.6134 15.8605 32.269 15.8605 32.0967C15.8605 31.9245 15.6883 31.9245 15.6022 31.9245C15.5591 31.9245 15.3008 32.0106 15.2147 32.312L15.1717 32.4412C15.1286 32.7425 14.9995 33.0009 14.7411 33.0009C14.4398 33.0009 14.3537 32.7856 14.3537 32.6134C14.3537 32.5703 14.3537 32.5703 14.3106 32.5703H14.2676C14.2245 32.5703 14.1384 32.5703 14.0523 32.5273L14.1815 32.4412L14.2676 32.3981L14.5259 32.2259C14.7411 32.0537 14.9134 31.8815 14.8703 31.7954C14.7842 31.5801 14.655 31.6232 14.5689 31.7093L14.5259 31.7523L14.4398 31.7954C14.3106 31.8815 14.0953 32.0106 13.9231 32.0537C13.6648 32.0967 13.5357 31.7523 13.6648 31.494L13.7079 31.451C13.7383 31.4205 13.7257 31.4116 13.7005 31.3938C13.69 31.3864 13.6774 31.3775 13.6648 31.3648L13.5787 31.3218C13.5572 31.3003 13.5357 31.2895 13.5141 31.2787C13.4926 31.268 13.4711 31.2572 13.4496 31.2357H13.9231C14.2676 31.2357 14.655 31.2357 14.655 31.0635C14.612 30.8052 14.3967 30.8052 14.2676 30.8482C14.1384 30.8913 13.7509 30.8482 13.7509 30.5899C13.7509 30.5684 13.7617 30.5468 13.7725 30.5253C13.7832 30.5038 13.794 30.4823 13.794 30.4607L13.837 30.3746C13.8801 30.3316 13.8801 30.2885 13.8801 30.2455C13.8801 30.2024 13.837 30.1594 13.794 30.1163L13.7509 30.0733H13.9231C14.0092 30.0733 14.1384 30.0733 14.2676 30.1163C14.3537 30.1594 14.4398 30.2024 14.5259 30.3316L14.6981 30.5038C14.8703 30.676 15.0856 30.8913 15.2578 30.8913C15.6022 30.8913 15.9036 30.3746 15.9036 29.3414V28.4373C15.895 28.4028 15.8881 28.3718 15.8819 28.3439C15.8571 28.2323 15.8433 28.1703 15.7744 28.1359L15.7314 28.0928L15.6453 28.0498L15.6022 28.0067C15.6022 28.0067 15.5591 27.9637 15.5591 27.9206V27.8345C15.5591 27.7915 15.5591 27.7054 15.473 27.6623C15.3439 27.6193 15.1717 27.7915 15.1286 28.4803V29.1692L15.0856 29.2983L14.9995 29.1261V29.083L14.9134 28.8247C14.8703 28.6525 14.8272 28.4803 14.8272 28.265V27.9206C14.8272 27.8345 14.8272 27.7915 14.7842 27.7484C14.7842 27.7484 14.7411 27.7484 14.6981 27.7915L14.5259 27.9637C14.3967 28.0928 14.2245 28.265 14.0092 28.3511L14.1384 28.0928C14.2245 27.9206 14.3106 27.6623 14.3106 27.447C14.3106 27.404 14.3106 27.3609 14.2676 27.3179V27.2748L14.3106 27.1457L14.1815 27.0165C14.0523 26.8443 13.8801 26.4999 13.8801 25.5958C13.8801 25.2944 13.9231 25.0791 13.9662 24.9069L14.0092 24.7778C14.0523 24.6056 14.0953 24.4333 14.0953 24.175C14.0953 23.8737 13.7509 23.5292 13.3635 23.1848L13.019 22.9265L12.9329 22.8404L12.3732 22.4529L12.0288 22.1946L11.9427 22.1085L11.7274 21.9363L11.2108 21.4196V21.3766C11.1806 21.3464 11.214 21.295 11.2514 21.2373C11.2674 21.2127 11.2841 21.187 11.2969 21.1613L11.5552 20.86L11.6413 20.7308C11.7705 20.5586 11.8566 20.3864 11.7274 20.3003C11.5552 20.1711 11.4691 20.2572 11.34 20.4294L11.2108 20.6877C11.2108 20.7093 11.2 20.72 11.1893 20.7308C11.1785 20.7416 11.1678 20.7523 11.1678 20.7738C10.9955 21.0322 10.6942 21.2905 10.565 21.3766C10.522 21.3766 10.522 21.3335 10.522 21.2474V20.7738C10.522 20.5586 10.4789 20.3433 10.3498 20.3433C10.0484 20.3433 10.0053 20.6447 10.0484 20.7738V20.8169C10.0484 20.8335 10.0484 20.8438 10.0434 20.85C10.0355 20.86 10.0151 20.86 9.96228 20.86H9.87617C9.74701 20.86 9.61785 20.903 9.4887 21.0322L9.44564 21.1183C9.44564 21.1183 9.44564 21.1613 9.40259 21.1613L9.35954 21.2474C9.34916 21.2682 9.33817 21.2895 9.32677 21.3117C9.24356 21.4734 9.13909 21.6764 9.10122 21.9793V21.8932C9.05817 21.7641 9.01511 21.4627 9.10122 21.2044L9.14427 21.1183C9.14427 21.1016 9.14427 21.0914 9.1393 21.0852C9.13141 21.0752 9.11099 21.0752 9.05817 21.0752H8.54153L8.19711 21.1613L7.89574 21.2044L7.46521 21.2905C7.42216 21.2905 7.37911 21.2905 7.33605 21.3335C7.20689 21.3766 7.16384 21.4196 7.16384 21.6349V22.539C7.16384 22.5821 7.12079 22.539 7.12079 22.496V22.3668H6.94858C6.77637 22.4099 6.51805 22.4099 6.51805 22.1515C6.51805 21.9363 6.5611 21.8932 6.64721 21.8502L6.69026 21.8071C6.7018 21.7956 6.71333 21.7871 6.72404 21.7793C6.75329 21.7579 6.77637 21.741 6.77637 21.678C6.77637 21.4196 6.60415 21.2905 6.38889 21.2905C6.25973 21.2905 6.17363 21.3766 6.08752 21.4627L6.00141 21.5488C5.87226 21.678 5.7431 21.8071 5.57089 21.8071C5.18341 21.8071 5.14036 21.5488 5.14036 21.4196C5.14036 21.3485 5.15341 21.3035 5.16513 21.2631C5.17471 21.23 5.18341 21.2 5.18341 21.1613C5.18341 21.0752 5.0973 20.9891 5.0112 20.9891C4.96815 20.9891 5.05425 20.9461 5.18341 20.9461H5.22646L5.48478 20.9891C5.78615 21.0322 6.17363 20.9891 6.17363 20.7308C6.17363 20.6447 6.08752 20.6016 6.00141 20.6447H5.78615L5.61394 20.6016C5.39867 20.5586 5.0973 20.4725 5.0973 20.1281C5.0973 19.9558 5.26952 19.8697 5.35562 19.8267H5.39867C5.39867 19.8089 5.40606 19.7836 5.41472 19.7541C5.42695 19.7123 5.44173 19.6619 5.44173 19.6114C5.44173 19.5948 5.44173 19.5846 5.44666 19.5808C5.45452 19.5748 5.47492 19.585 5.52783 19.6114V19.5253L5.61394 19.5684L5.7431 19.6545L6.13057 20.042C6.21668 20.1711 6.34584 20.1281 6.38889 20.085H6.43194C6.475 20.042 6.5611 19.9128 6.34584 19.7836C6.08752 19.6545 6.08752 19.5253 6.08752 19.3101C6.08752 19.1546 6.1928 19.1044 6.27662 19.0644C6.28564 19.0601 6.29442 19.0559 6.30278 19.0517H6.34584C6.38889 19.0517 6.43194 18.8795 6.38889 18.7934V18.7504C6.34584 18.6212 6.69026 18.9226 6.86247 19.267C6.86247 19.2885 6.87323 19.3101 6.884 19.3316C6.89476 19.3531 6.90552 19.3746 6.90552 19.3962V19.6114C6.90552 19.8267 6.94858 19.9989 7.20689 20.1281H7.50826L7.59437 20.085L7.72353 20.042C7.72353 20.042 7.76658 20.042 7.80963 19.9989L7.89574 19.9558L8.15406 19.8697L8.92901 19.5684L10.1345 19.1378C10.2206 19.0948 10.3928 19.0087 10.3067 18.8795C10.2206 18.7073 9.91922 18.6643 9.4887 18.9656L9.44564 19.0087C9.35954 19.0948 9.31648 19.0517 9.35954 18.9656L9.40259 18.9226L9.44564 18.8365C9.44564 18.8365 9.44564 18.7934 9.4887 18.7934L9.53175 18.7073C9.53175 18.7073 9.53175 18.6643 9.5748 18.6643L9.66091 18.5782C9.67735 18.5617 9.68751 18.5453 9.69619 18.5312C9.71024 18.5085 9.7204 18.492 9.74701 18.492L9.83312 18.4059C10.1345 18.0185 10.6081 17.631 11.0386 17.631C11.2108 17.631 11.2539 17.5449 11.2539 17.4588V17.4157C11.2539 17.3296 11.1678 17.2435 10.8664 17.2435C10.4789 17.2435 9.96228 17.631 9.74701 18.0185H9.66091L9.53175 17.9324C9.44564 17.8463 9.27343 17.8032 9.05817 17.8032C8.90685 17.8032 8.78508 17.818 8.6842 17.8302C8.61286 17.8389 8.55198 17.8463 8.49848 17.8463L8.41237 17.8893H8.28321C8.19711 17.8893 8.49848 17.4588 9.01511 17.4588C9.10122 17.4588 9.10122 17.3296 8.92901 17.2005L8.88595 17.1574C8.8297 17.1293 8.75507 17.046 8.67407 16.9557C8.63109 16.9077 8.58631 16.8578 8.54153 16.813L8.15406 16.2964L8.06795 16.2102C7.98184 16.1241 7.89574 16.2533 7.76658 16.4686L7.72353 16.5547L7.59437 16.9421C7.59437 16.9852 7.55132 16.9421 7.55132 16.8991V16.7699C7.55132 16.7269 7.50826 16.7269 7.50826 16.7269L7.42216 16.6838C7.293 16.6408 7.16384 16.5547 7.16384 16.2964C7.16384 15.995 7.33605 15.9519 7.50826 15.995H7.55132L7.63742 16.038H7.68048C7.85269 16.0811 8.0249 15.8658 7.98184 15.6936C7.88264 15.6369 7.79744 15.5756 7.71855 15.5188C7.55777 15.403 7.42323 15.3061 7.24995 15.3061H7.20689C6.90552 15.3492 6.475 15.1339 6.475 14.7895C6.475 14.6173 6.5611 14.5312 6.64721 14.4881L6.73331 14.4451H6.77637C6.81942 14.402 6.81942 14.2298 6.81942 14.1868H6.86247L6.90552 14.2298L6.99163 14.2729L7.50826 14.7895C7.63742 14.9187 7.68048 14.9617 7.76658 14.9187C7.85269 14.8756 7.89574 14.6603 7.59437 14.402C7.293 14.1437 7.33605 13.8423 7.46521 13.6701H7.68048C7.80963 13.6701 7.93879 13.6701 7.98184 13.584C7.98184 13.4979 8.0249 13.541 8.0249 13.584V13.7132L8.06795 13.7993V14.1437L8.111 14.2298V14.359C8.111 14.6173 8.19711 14.6603 8.28321 14.6603C8.36932 14.6603 8.45543 14.6173 8.41237 14.2298C8.36932 13.8854 8.45543 13.7993 8.54153 13.7562L8.58459 13.7132C8.67069 13.6701 8.79985 13.6701 8.88595 13.7562C8.97206 13.8423 9.14427 13.7132 9.14427 13.584V13.7562C9.18732 13.8854 9.18732 14.0576 9.05817 14.2298C9.04172 14.2463 9.03156 14.2627 9.02288 14.2768C9.00883 14.2995 8.99867 14.3159 8.97206 14.3159L8.79985 14.4881C8.62764 14.6603 8.49848 14.8756 8.67069 15.22L8.71374 15.3061L10.4359 17.0713C10.4789 17.0713 10.522 17.0283 10.4359 16.9421C10.3498 16.813 10.3498 16.6838 10.4359 16.5977V16.5547L10.4789 16.5977L10.6511 16.6838C10.6511 16.6838 10.6942 16.6838 10.6942 16.7269L10.7803 16.7699C11.0816 16.8991 11.5122 17.0283 12.158 16.9421C13.1719 16.8295 13.6617 16.1928 13.6561 15.9176L13.4926 16.0811L13.4338 16.1166C13.2311 16.2397 12.9959 16.3825 12.7607 16.3825C12.2871 16.3825 12.0288 15.9089 12.1149 15.6075V15.5645L12.201 15.6506C12.2871 15.7367 12.5024 15.8658 12.7607 15.8658C13.1482 15.8658 13.5787 15.3922 13.4926 15.1339C13.4926 15.0909 13.4496 15.0909 13.3635 15.1339L13.2773 15.0909L12.8468 15.22L12.6746 15.2631C12.6316 15.2631 12.6316 15.2631 12.5885 15.3061L12.4163 15.3492C12.1149 15.4353 11.6844 15.4783 11.2539 15.4783C9.87617 15.4783 9.66091 14.1007 10.6511 13.541L10.6081 13.584L10.565 13.6701V14.0576C10.4789 14.5312 10.6081 15.1339 11.7274 15.1339C11.9427 15.1339 12.158 15.1339 12.3302 15.0909L12.5024 15.0478C12.5454 15.0478 12.6316 15.0478 12.6746 15.0048L12.8468 14.9617L13.1051 14.8756L13.2773 14.7895L13.4065 14.7465V14.6603C13.3635 14.5312 13.1912 14.2298 12.8038 14.2298C12.4397 14.2298 12.2657 14.4958 12.1746 14.6351L12.158 14.6603L12.1149 14.7034V14.7465L12.0719 14.7034L11.9858 14.7895C11.8566 14.7034 11.6413 14.4451 11.7274 14.1437C11.7274 14.1007 11.7705 14.1007 11.8135 14.1007H11.9858C12.1149 14.0576 12.2441 14.0146 12.2441 13.8423C12.2441 13.7562 12.201 13.7132 12.158 13.7132H12.1149C12.0719 13.7132 12.0288 13.7562 11.9858 13.7993L11.9427 13.8854C11.9312 13.8969 11.9227 13.9085 11.9149 13.9192C11.8935 13.9484 11.8766 13.9715 11.8135 13.9715C11.6413 13.9715 11.6413 13.4549 11.9858 13.4549H12.0288C12.1149 13.4549 12.2441 13.4549 12.2871 13.3688V13.3257C12.2871 13.1965 12.5885 13.0674 13.2343 13.0243H13.794C14.2331 13.0243 14.5241 13.0984 14.7014 13.1435L14.7411 13.1535L14.8272 13.1965L14.9564 13.3257V13.2827C14.9995 13.1104 15.1286 12.8952 15.43 12.8952ZM12.976 20.2142C12.8899 20.2142 12.8038 20.2572 12.8038 20.3433V20.4725C12.8038 20.4725 12.8038 20.5155 12.7607 20.5155L12.6746 20.6877C12.5454 20.86 12.3732 21.0752 11.9858 21.2474C11.9427 21.2905 11.8997 21.3766 11.9427 21.4627C11.9858 21.5057 12.0288 21.5488 12.1149 21.5488H12.158C12.7177 21.2905 12.976 20.9461 13.0621 20.6877L13.1051 20.6016V20.3864C13.1051 20.3003 13.0621 20.2142 12.976 20.2142ZM14.1815 20.1281C14.0953 20.1281 14.0523 20.1711 14.0092 20.2572V20.4294C13.9662 20.6447 13.837 21.0322 13.3635 21.2905C13.3204 21.3335 13.2773 21.4196 13.3204 21.5057C13.3635 21.5488 13.4065 21.5919 13.4926 21.5919H13.5357C14.0523 21.3335 14.2676 20.903 14.3537 20.6016V20.3003C14.3106 20.1711 14.2676 20.1281 14.1815 20.1281ZM12.2441 18.1476C12.201 18.2337 12.2441 18.3198 12.2871 18.4059L12.3302 18.449C12.3732 18.492 12.5024 18.6212 12.5454 18.7934C12.6316 19.0948 12.5454 19.5253 12.2871 19.9558C12.2441 19.9989 12.2441 20.1281 12.3302 20.1711C12.3732 20.2142 12.3732 20.2142 12.4163 20.2142C12.4593 20.2142 12.5454 20.1711 12.5885 20.1281C12.8899 19.6114 13.019 19.1378 12.9329 18.7504V18.6643C12.8955 18.44 12.7608 18.313 12.6696 18.2271C12.6557 18.2141 12.6429 18.202 12.6316 18.1907L12.5885 18.1476L12.4593 18.1046C12.3732 18.0615 12.2441 18.0615 12.2441 18.1476ZM11.4261 18.2768L11.34 18.3198L11.1678 18.492C10.9525 18.7073 10.7372 19.0948 10.6511 19.7406C10.6511 19.8267 10.6942 19.9128 10.7803 19.9128H10.8664C10.9094 19.9128 10.9955 19.8697 11.0386 19.7836V19.7406C11.0816 19.1378 11.34 18.7934 11.5122 18.6212L11.5983 18.5351C11.6844 18.492 11.6844 18.3629 11.6413 18.3198C11.5983 18.2768 11.5122 18.2768 11.4261 18.2768ZM13.4496 17.1574C13.4065 17.2435 13.4065 17.3296 13.4926 17.3727L13.6218 17.5018V17.5449L13.6648 17.5879C13.794 17.8032 13.9231 18.1476 13.794 18.7934L13.7509 18.9226C13.7079 19.0087 13.7509 19.0517 13.837 19.0948H13.9231C13.9662 19.0948 14.0523 19.0517 14.0953 18.9656C14.3106 18.0185 14.0092 17.5018 13.837 17.2866L13.7509 17.2005L13.7079 17.1144L13.6648 17.0713C13.5787 17.0713 13.4926 17.0713 13.4496 17.1574ZM14.1815 15.0478C14.1384 15.1339 14.1815 15.22 14.2676 15.2631C14.7411 15.4353 15.1717 15.6936 15.2147 15.8228H14.5689C14.5259 15.8228 14.4398 15.8658 14.3967 15.9089C14.3701 15.9355 14.3764 15.9621 14.3851 15.9989C14.3904 16.0216 14.3967 16.0482 14.3967 16.0811L14.4398 16.1672L14.4828 16.2102V16.6838C14.4828 16.856 14.4828 17.0713 14.4398 17.2866C14.4398 17.3727 14.4828 17.4157 14.612 17.4588H14.6981C14.7411 17.4588 14.8272 17.3727 14.8272 17.2866V16.5977C14.8272 16.3825 14.7842 16.2533 14.7411 16.1241C14.9995 16.1241 15.2147 16.0811 15.3439 15.9519C15.3869 15.9089 15.43 15.8228 15.43 15.7367C15.43 15.4353 14.9995 15.177 14.655 15.0048L14.3967 14.9187L14.3106 14.8756H14.2676C14.2942 14.9022 14.2714 14.9288 14.24 14.9656C14.2206 14.9883 14.1979 15.0149 14.1815 15.0478ZM13.794 13.3688H13.019C12.9168 13.3688 12.8955 13.3957 12.8697 13.4283C12.8629 13.4369 12.8558 13.4459 12.8468 13.4549C12.8468 13.5053 12.8616 13.541 12.8738 13.5705C12.8825 13.5914 12.8899 13.6092 12.8899 13.6271L12.9329 13.6701H13.4065C13.4496 13.6701 13.5357 13.6701 13.5357 13.7132C13.5357 13.7562 13.4065 13.7993 13.2773 13.8423H13.0621L13.1051 13.8854C13.1482 13.9715 13.2343 14.0146 13.4065 14.0146C13.6648 14.0146 13.7509 13.7993 13.7509 13.6271V13.541C13.794 13.541 13.9231 13.541 13.9231 13.4549C13.9662 13.4118 13.8801 13.3688 13.794 13.3688Z" fill="currentColor"/>
<path d="M22.2018 20.3825C22.2421 20.3461 22.2822 20.3184 22.3184 20.3003L22.3615 20.2572L22.4045 20.4294C22.3253 20.3977 22.2577 20.3835 22.2018 20.3825Z" fill="currentColor"/>
<path d="M10.8664 22.7973H12.5454C12.5885 22.7973 12.5885 22.8404 12.5885 22.8834V22.9265C12.5885 22.9695 12.5885 23.0556 12.7177 23.0987C12.8899 23.1418 13.4065 23.5723 13.4065 23.7875C13.4065 23.8306 13.3635 23.9167 13.3204 23.9598L13.1912 24.132C13.1482 24.2181 13.1051 24.3042 13.1912 24.4764C13.4065 24.7778 13.5787 24.7778 13.7079 24.7778H13.6218L13.5787 24.8208C13.4496 24.8639 13.1912 24.9069 12.8038 24.9069H12.7177C12.5454 24.9069 12.3732 24.8639 12.201 24.8208L11.7274 24.7347L11.6722 24.7254C11.4378 24.6859 11.2352 24.6517 10.9955 24.6917H10.8664C10.3928 24.7778 10.0914 25.2083 10.3067 26.586V26.7151C10.3067 26.7582 10.3928 26.8012 10.565 26.8012C10.8233 26.8012 11.4691 27.1026 11.8566 27.7484L11.6844 27.6623V27.5762L11.4261 27.4901C11.0816 27.3179 10.7372 27.1887 10.6081 27.404C10.522 27.5762 10.565 27.7054 10.6942 27.7915C10.7372 27.7915 10.6511 27.8345 10.522 27.8776L10.3928 27.9206L10.1775 28.0067H9.96228L9.53175 28.1359L8.7568 28.3511C8.62764 28.3942 8.58459 28.4803 8.8429 28.6525L8.88595 28.6956L9.14427 28.8678L9.18732 28.9108C9.23038 28.9539 9.27343 28.9969 9.23038 28.9969H9.10122C8.97206 28.9969 8.8429 28.9969 8.8429 29.083C8.8429 29.1692 8.79985 29.3844 8.58459 29.3844C8.36932 29.3844 8.24016 29.2553 8.24016 29.083V28.8678C8.24016 28.6956 8.15406 28.5664 7.98184 28.5664C7.72353 28.5664 7.55132 28.8247 7.55132 29.2983C7.55132 29.6427 7.20689 29.7288 7.07774 29.7288C6.94858 29.7288 6.81942 29.6858 6.81942 29.4705C6.81942 29.4275 6.73331 29.4275 6.64721 29.4275H6.5611C6.51805 29.4275 6.5611 29.3844 6.64721 29.2983L6.73331 29.2553L6.99163 29.083L7.24995 28.8678C7.33605 28.8247 7.33605 28.6525 7.293 28.6095L7.24995 28.5664C7.16384 28.5234 7.07774 28.4803 6.90552 28.6095C6.73331 28.7817 6.51805 28.9108 6.34584 28.9108C6.17363 28.9108 6.00141 28.7386 6.00141 28.5664V28.3511C6.00141 28.265 6.00141 28.1359 5.87226 28.0928L5.8292 28.0498C5.80968 28.0303 5.79901 28.0196 5.80121 28.0138C5.80385 28.0067 5.82518 28.0067 5.87222 28.0067H6.86247C7.03468 28.0067 7.20689 27.9637 7.20689 27.9206C7.20689 27.7054 6.99163 27.6623 6.90552 27.6623H6.77637C6.5611 27.6623 6.25973 27.6623 6.25973 27.3609C6.25973 27.2748 6.30278 27.2318 6.34584 27.1887H6.38889C6.38889 27.1672 6.39965 27.1564 6.41042 27.1457C6.42118 27.1349 6.43194 27.1241 6.43194 27.1026C6.43194 27.0165 6.30278 27.0165 6.25973 27.0165L6.34584 26.9304C6.475 26.8874 6.73331 26.8012 6.99163 27.0165L7.16384 27.1887L7.33605 27.447C7.46521 27.6193 7.59437 27.7484 7.80963 27.7484H7.89574C8.32627 27.7054 9.35954 27.3179 9.35954 26.1555C9.35954 25.811 9.27343 25.5097 9.18732 25.2513L9.10122 24.993L8.97206 24.7347V24.6917C8.97206 24.6701 8.97206 24.6594 8.97744 24.654C8.98282 24.6486 8.99359 24.6486 9.01511 24.6486H9.10122C9.18732 24.6486 9.31648 24.6056 9.31648 24.4333C9.31648 24.0889 7.24995 24.0459 6.60415 24.6917V24.5194L6.64721 24.4333C6.77637 24.2181 7.07774 23.9167 7.76658 23.9167C7.86746 23.9167 7.95357 23.9315 8.0249 23.9437C8.07533 23.9524 8.1184 23.9598 8.15406 23.9598L8.28321 24.0028C8.41237 24.0459 8.49848 24.0459 8.62764 24.0028C8.67069 24.0028 8.67069 23.9598 8.62764 23.9167L8.45543 23.7014C8.32627 23.5723 8.19711 23.4431 8.24016 23.1848L8.28321 23.2279C8.41237 23.357 8.71374 23.6153 9.05817 23.6153C9.07646 23.6153 9.08698 23.6153 9.09634 23.612C9.10899 23.6076 9.11951 23.597 9.14427 23.5723L9.18732 23.5292L9.27343 23.4001L9.44564 23.2279C9.70396 23.0556 10.1345 22.7973 10.8664 22.7973Z" fill="currentColor"/>
<path d="M20.4241 13.8854C20.5533 14.1437 20.8116 14.4451 21.0699 14.402C21.156 14.402 21.156 14.2729 21.113 14.1437L21.0699 13.9715L21.0269 13.8854V13.7132L21.2852 13.9715C21.4143 14.1007 21.5435 14.2298 21.6726 14.3159C21.931 14.4881 21.974 15.0048 21.8449 15.3061C21.8018 15.3779 21.7492 15.4496 21.6966 15.5214C21.5913 15.6649 21.4861 15.8084 21.4574 15.9519V15.995C21.4143 16.1241 21.3282 16.2964 21.1991 16.5547L21.113 16.7269C21.095 16.7538 21.0789 16.7789 21.0635 16.8029C21.0051 16.8939 20.9568 16.9691 20.8546 17.0713L20.6824 17.2435C20.5533 17.4157 20.3811 17.5879 20.2089 17.7601L20.1227 17.8463L19.6922 17.4588L20.3811 16.7699C20.6824 16.4255 20.9408 16.0811 20.8977 15.8228H20.8546L20.8116 15.7797H20.7685L20.6824 15.7367C20.5102 15.6075 20.2519 15.3492 20.295 14.9617L20.338 15.0478L20.3811 15.0909L20.4241 15.177C20.5533 15.3492 20.7685 15.5214 20.8977 15.3922C21.113 15.2631 20.9408 14.9187 20.6824 14.6603L20.5963 14.5742V14.4451L20.5533 14.402C20.3811 14.2298 20.295 13.9715 20.295 13.7993V13.6271L20.4241 13.8854Z" fill="currentColor"/>
<path fill-rule="evenodd" clip-rule="evenodd" d="M13.6218 11.0009L13.7509 11.0439L13.8801 11.1731L14.0092 11.2161C14.1815 11.3453 14.3537 11.5175 14.3537 11.6897C14.3537 11.905 14.1384 11.9911 14.0092 12.0341H13.9662C14.0523 12.2494 14.2245 12.3355 14.3106 12.3785H14.6981C14.9564 12.3785 14.9564 12.1633 14.9564 12.0772V11.9911H14.9134C14.8272 11.9911 14.655 11.905 14.655 11.7328C14.655 11.5175 14.9564 11.3453 15.2578 11.2592L15.43 11.1731L15.5591 11.13L15.473 11.4744H15.43C15.3439 11.4744 15.2578 11.5605 15.2578 11.6897C15.2578 11.7328 15.3008 11.7758 15.3439 11.8189H15.3869L15.1286 12.6799H12.2871L12.0719 11.8619C12.082 11.8517 12.0946 11.8416 12.1079 11.8309C12.1508 11.7961 12.201 11.7555 12.201 11.6897C12.201 11.5605 12.1149 11.4744 12.0288 11.4744H11.9858L11.8566 11.087C12.1149 11.13 12.7607 11.3883 12.7607 11.6897C12.7607 11.905 12.5885 11.9911 12.5024 11.9911H12.4593C12.4593 12.2494 12.6316 12.3355 12.7177 12.3355H13.1912C13.4065 12.3355 13.4496 12.0772 13.4496 11.9911V11.948H13.3204C13.1912 11.905 13.0621 11.8619 13.0621 11.7328C13.0621 11.5175 13.2343 11.3453 13.4065 11.1731L13.5787 11.0009H13.6218ZM13.7079 11.5175C13.5787 11.5175 13.4926 11.6036 13.4926 11.7328C13.4926 11.8619 13.5787 11.948 13.7079 11.948C13.837 11.948 13.9231 11.8619 13.9231 11.7328C13.9231 11.6036 13.837 11.5175 13.7079 11.5175Z" fill="currentColor"/>
<path d="M33.25 15.0009C33.6642 15.0009 34 15.3366 34 15.7509C34 16.1651 33.6642 16.5009 33.25 16.5009H26.75C26.3358 16.5009 26 16.1651 26 15.7509C26 15.3366 26.3358 15.0009 26.75 15.0009H33.25Z" fill="currentColor"/>
<path d="M32.25 23.0009C32.6642 23.0009 33 23.3366 33 23.7509C33 24.1651 32.6642 24.5009 32.25 24.5009H26.75C26.3358 24.5009 26 24.1651 26 23.7509C26 23.3366 26.3358 23.0009 26.75 23.0009H32.25Z" fill="currentColor"/>
<path d="M38.25 20.5009C38.6642 20.5009 39 20.1651 39 19.7509C39 19.3366 38.6642 19.0009 38.25 19.0009H26.75C26.3358 19.0009 26 19.3366 26 19.7509C26 20.1651 26.3358 20.5009 26.75 20.5009H38.25Z" fill="currentColor"/>
<path fill-rule="evenodd" clip-rule="evenodd" d="M2 37.0009C0.895431 37.0009 0 36.1054 0 35.0009V8.00085C0 6.89629 0.895431 6.00085 2 6.00085H42C43.1046 6.00085 44 6.89629 44 8.00085V10.0009H46C47.1046 10.0009 48 10.8963 48 12.0009V39.0009C48 40.1054 47.1046 41.0009 46 41.0009H6C4.89543 41.0009 4 40.1054 4 39.0009V37.0009H2ZM1.5 8.00085C1.5 7.72471 1.72386 7.50085 2 7.50085H42C42.2761 7.50085 42.5 7.72471 42.5 8.00085V35.0009C42.5 35.277 42.2761 35.5009 42 35.5009H2C1.72386 35.5009 1.5 35.277 1.5 35.0009V8.00085ZM5.5 37.0009V39.5009H46C46.2761 39.5009 46.5 39.277 46.5 39.0009V12.0009C46.5 11.7247 46.2761 11.5009 46 11.5009H44V35.0009C44 36.1054 43.1046 37.0009 42 37.0009H5.5Z" fill="currentColor"/>
</svg>
