<svg width="48" height="48" viewBox="0 0 48 48" fill="none" xmlns="http://www.w3.org/2000/svg">
<path fill-rule="evenodd" clip-rule="evenodd" d="M10.7701 36.5001C13.5103 36.5001 15.7317 34.2787 15.7317 31.5386C15.7317 28.7984 13.5103 26.577 10.7701 26.577C8.02995 26.577 5.80859 28.7984 5.80859 31.5386C5.80859 34.2787 8.02995 36.5001 10.7701 36.5001ZM17.2317 31.5386C17.2317 35.1072 14.3387 38.0001 10.7701 38.0001C7.20152 38.0001 4.30859 35.1072 4.30859 31.5386C4.30859 27.97 7.20152 25.077 10.7701 25.077C14.3387 25.077 17.2317 27.97 17.2317 31.5386Z" fill="currentColor"/>
<path fill-rule="evenodd" clip-rule="evenodd" d="M36.6158 36.5001C39.356 36.5001 41.5774 34.2787 41.5774 31.5386C41.5774 28.7984 39.356 26.577 36.6158 26.577C33.8757 26.577 31.6543 28.7984 31.6543 31.5386C31.6543 34.2787 33.8757 36.5001 36.6158 36.5001ZM43.0774 31.5386C43.0774 35.1072 40.1844 38.0001 36.6158 38.0001C33.0472 38.0001 30.1543 35.1072 30.1543 31.5386C30.1543 27.97 33.0472 25.077 36.6158 25.077C40.1844 25.077 43.0774 27.97 43.0774 31.5386Z" fill="currentColor"/>
<path fill-rule="evenodd" clip-rule="evenodd" d="M2 19.0009H35V20.5009H2V19.0009Z" fill="currentColor"/>
<path d="M34.6879 20.5009L30.0311 12.7173C29.5797 11.9628 28.765 11.5009 27.8858 11.5009H13.7006C11.5744 11.5009 9.54818 12.4033 8.12586 13.9836L2.65518 20.0622C1.9115 20.8885 1.5 21.9608 1.5 23.0725V29.6932C1.5 31.2438 2.75705 32.5009 4.30769 32.5009H5V34.0009H4.30769C1.92862 34.0009 0 32.0722 0 29.6932V23.0725C0 21.5903 0.548662 20.1605 1.54024 19.0587L7.01092 12.9802C8.71771 11.0837 11.1492 10.0009 13.7006 10.0009H27.8858C29.2926 10.0009 30.596 10.7399 31.3183 11.9472L35.5385 19.0009H42C45.3137 19.0009 48 21.6871 48 25.0009V29.6932C48 32.0722 46.0714 34.0009 43.6923 34.0009H42V32.5009H43.6923C45.243 32.5009 46.5 31.2438 46.5 29.6932V25.0009C46.5 22.5156 44.4853 20.5009 42 20.5009H34.6879Z" fill="currentColor"/>
<path d="M16 34.0009H31V32.5009H16V34.0009Z" fill="currentColor"/>
</svg>
