<svg width="48" height="48" viewBox="0 0 48 48" fill="none" xmlns="http://www.w3.org/2000/svg">
<g clip-path="url(#clip0_100_842)">
<path fill-rule="evenodd" clip-rule="evenodd" d="M33.3067 8.1656C33.3418 8.03071 33.3594 7.89227 33.3593 7.75332C33.3593 6.80522 32.5656 6.03238 31.5725 6.00171C31.5516 6.00088 31.5311 6.00088 31.5106 6.00089L31.507 6.00089C31.4573 6.00089 31.4076 6.00261 31.3587 6.00609C31.0335 6.03109 30.8179 6.13449 30.5623 6.29791C30.4184 6.38918 30.2886 6.4992 30.1768 6.62475C30.1432 6.66243 30.1115 6.70161 30.0818 6.74216L19.7577 19.7382C19.35 20.2696 19.2901 20.9711 19.6034 21.5573C19.9161 22.1435 20.5486 22.5151 21.2418 22.5199L26.5603 22.5567L24.8882 31.9268C24.7293 32.7321 25.1807 33.5347 25.9753 33.8581C26.2062 33.9525 26.455 34.0011 26.7063 34.0009C27.2853 34.0009 27.7611 33.7433 28.1182 33.278L38.4552 19.1949C38.8629 18.6635 38.9223 17.9611 38.6095 17.3758C38.2968 16.7896 37.6643 16.4181 36.9711 16.4133L31.6526 16.4045L33.3067 8.1656ZM26.8273 32.3049L37.1512 18.2397C37.1579 18.2305 37.1648 18.2214 37.1717 18.2124C37.1878 18.1914 37.1907 18.1765 37.1913 18.1693C37.1919 18.1621 37.1913 18.1521 37.1831 18.1366C37.164 18.1008 37.0922 18.0304 36.9625 18.0286C36.9616 18.0286 36.9608 18.0286 36.9599 18.0286L31.6499 18.0199C31.1658 18.0191 30.7075 17.8016 30.401 17.4273C30.0944 17.0529 29.9719 16.561 30.0672 16.0868L31.7213 7.84793C31.7272 7.81832 31.734 7.78888 31.7416 7.75965C31.7422 7.75754 31.7423 7.75612 31.7423 7.75516L31.7423 7.75332C31.7423 7.74309 31.7406 7.72063 31.7069 7.68763C31.6714 7.65289 31.6096 7.61901 31.5225 7.61632L31.521 7.61628L31.507 7.61627C31.5056 7.61627 31.5042 7.61628 31.5028 7.61629C31.4874 7.62514 31.4654 7.63843 31.4339 7.65853L31.4289 7.66174C31.4106 7.67334 31.3965 7.6857 31.3859 7.69735C31.3737 7.71392 31.3613 7.73025 31.3485 7.74635L21.0375 20.7258C21.0243 20.7446 21.0219 20.7577 21.0214 20.7639C21.0209 20.7704 21.0212 20.7804 21.0299 20.7966C21.0491 20.8326 21.1216 20.9036 21.253 20.9045C21.253 20.9045 21.2531 20.9045 21.253 20.9045L26.5715 20.9413C27.0481 20.9446 27.4989 21.1577 27.8036 21.5238C28.1083 21.8898 28.2359 22.3715 28.1522 22.8402L26.4801 32.2103L26.4747 32.2393C26.4727 32.2492 26.4722 32.2611 26.4837 32.2815C26.4959 32.3031 26.5247 32.3373 26.5853 32.362L26.5877 32.363C26.6224 32.3772 26.6627 32.3855 26.7052 32.3855C26.7291 32.3855 26.7421 32.3829 26.7451 32.3822C26.7478 32.3816 26.7485 32.3812 26.7495 32.3807C26.7507 32.3801 26.7582 32.3761 26.7716 32.3645C26.7841 32.3537 26.8033 32.3351 26.8273 32.3049ZM31.5253 7.61629C31.5254 7.61629 31.5254 7.61629 31.5253 7.61629V7.61629Z" fill="currentColor"/>
<path fill-rule="evenodd" clip-rule="evenodd" d="M8.47928 33.79C5.68482 30.2468 4.02259 25.8054 4.02259 20.9843C4.02259 9.3955 13.6272 0.00088501 25.475 0.00088501H45.9569C47.0853 0.00088501 48 0.89561 48 1.99931V20.4598C48 32.3383 38.1553 41.9678 26.0113 41.9678H25.475C19.1395 41.9678 13.4455 39.2815 9.51846 35.0098C5.04564 39.7858 2.46996 44.8155 1.56787 47.4626C1.42737 47.8749 0.971783 48.0977 0.550289 47.9603C0.128795 47.8229 -0.0989973 47.3772 0.0415008 46.965C1.01148 44.1186 3.73813 38.802 8.47928 33.79ZM25.475 1.57464H45.9569C46.1967 1.57464 46.3911 1.76477 46.3911 1.99931V20.4598C46.3911 31.4692 37.2667 40.394 26.0113 40.394H25.475C19.5696 40.394 14.2668 37.8708 10.6318 33.8665C12.8077 31.718 15.3807 29.6659 18.3719 27.9592C18.7557 27.7402 18.8853 27.2584 18.6615 26.883C18.4376 26.5076 17.945 26.3808 17.5613 26.5998C14.4941 28.3499 11.8504 30.4448 9.60761 32.6417C7.11115 29.3957 5.63152 25.3591 5.63152 20.9843C5.63152 10.2647 14.5157 1.57464 25.475 1.57464Z" fill="currentColor"/>
</g>
<defs>
<clipPath id="clip0_100_842">
<rect width="48" height="48" fill="white" transform="translate(0 0.00088501)"/>
</clipPath>
</defs>
</svg>
