<svg width="48" height="48" viewBox="0 0 48 48" fill="none" xmlns="http://www.w3.org/2000/svg">
<path fill-rule="evenodd" clip-rule="evenodd" d="M2 40.0009C0.895431 40.0009 0 39.1055 0 38.0009V10.0009C0 8.89632 0.895431 8.00089 2 8.00089H46C47.1046 8.00089 48 8.89632 48 10.0009V38.0009C48 39.1055 47.1046 40.0009 46 40.0009H2ZM45.3118 9.50089H2.68823L23.6673 28.1996C23.8569 28.3686 24.1431 28.3686 24.3327 28.1996L45.3118 9.50089ZM1.5 10.4512V37.548L16.7007 23.9996L1.5 10.4512ZM2.68534 38.5009H45.3147L30.1721 25.0043L25.3307 29.3194C24.5723 29.9954 23.4277 29.9954 22.6693 29.3194L17.8279 25.0043L2.68534 38.5009ZM46.5 37.548V10.4512L31.2993 23.9996L46.5 37.548Z" fill="currentColor"/>
</svg>
