<svg width="48" height="48" viewBox="0 0 48 48" fill="none" xmlns="http://www.w3.org/2000/svg">
<g clip-path="url(#clip0_100_863)">
<path fill-rule="evenodd" clip-rule="evenodd" d="M31.9152 8.2359C33.518 6.63312 36.1166 6.63312 37.7194 8.2359C39.2534 9.76996 39.3192 12.2163 37.9167 13.8286C38.8339 13.9154 39.7276 14.3099 40.43 15.0123C42.0327 16.6151 42.0327 19.2137 40.43 20.8165L38.6072 22.6392C39.52 22.7284 40.4085 23.1226 41.1076 23.8217C42.7104 25.4245 42.7104 28.0231 41.1076 29.6259L28.2025 42.5308C21.7509 48.9825 11.2908 48.9825 4.83918 42.5308C-0.0791974 37.6125 -1.39007 30.1403 1.56043 23.8414L7.38006 11.4174C8.33816 9.3635 10.7801 8.47444 12.8342 9.4323C14.8885 10.3902 15.7773 12.8321 14.8193 14.8864L13.982 16.6821L24.4611 6.20297C26.0639 4.60019 28.6625 4.60019 30.2653 6.20297C30.9644 6.90205 31.3586 7.79059 31.4478 8.70332L31.9152 8.2359ZM29.2046 10.9465C30.2216 9.92948 30.2216 8.28062 29.2046 7.26363C28.1877 6.24664 26.5388 6.24664 25.5218 7.26363L12.5658 20.2196L13.4502 21.104C16.8673 24.521 16.8673 30.0612 13.4502 33.4783C13.1573 33.7712 12.6824 33.7712 12.3895 33.4783C12.0966 33.1854 12.0966 32.7106 12.3895 32.4177C15.2208 29.5864 15.2208 24.9959 12.3895 22.1646L10.9985 20.7736C10.7595 20.5553 10.685 20.2032 10.8249 19.9031L13.4599 14.2525C14.0677 12.949 13.5037 11.3996 12.2003 10.7918C10.8968 10.1839 9.34735 10.7479 8.73952 12.0514L8.73897 12.0525L2.91879 24.4777C0.236183 30.2046 1.42804 36.9984 5.89984 41.4702C11.7657 47.336 21.2761 47.336 27.1419 41.4702L40.0469 28.5652C41.0639 27.5482 41.0639 25.8993 40.0469 24.8824C39.0299 23.8654 37.3811 23.8654 36.3641 24.8824C36.3448 24.9017 36.3246 24.9197 36.3038 24.9365L27.1539 34.0864C26.861 34.3793 26.3861 34.3793 26.0933 34.0864C25.8004 33.7935 25.8004 33.3187 26.0933 33.0258L35.816 23.3031L35.819 23.3061L39.3693 19.7558C40.3863 18.7388 40.3863 17.09 39.3693 16.073C38.3871 15.0908 36.8156 15.0572 35.7931 15.9721L24.5377 27.2275C24.2448 27.5204 23.7699 27.5204 23.477 27.2275C23.1841 26.9346 23.1841 26.4598 23.477 26.1669L34.5731 15.0707C34.5895 15.0506 34.607 15.0311 34.6258 15.0123L36.6587 12.9794C37.6757 11.9624 37.6757 10.3135 36.6587 9.29656C35.6417 8.27957 33.9929 8.27957 32.9759 9.29656L31.6353 10.6371L31.6369 10.6387L20.5 21.7757C20.2071 22.0686 19.7322 22.0686 19.4394 21.7757C19.1465 21.4828 19.1465 21.0079 19.4394 20.715L29.1644 10.99C29.1771 10.9751 29.1905 10.9606 29.2046 10.9465Z" fill="currentColor"/>
<path fill-rule="evenodd" clip-rule="evenodd" d="M23.2502 4.10256C23.2673 4.51642 22.944 4.86103 22.5353 4.92845C20.5838 5.25041 18.8889 6.50252 18.0173 8.31236C17.8376 8.68555 17.3894 8.84239 17.0162 8.66266C16.643 8.48294 16.4862 8.03471 16.6659 7.66152C17.778 5.35223 19.9667 3.77227 22.4726 3.42074C22.8828 3.3632 23.2332 3.6887 23.2502 4.10256Z" fill="currentColor"/>
<path fill-rule="evenodd" clip-rule="evenodd" d="M22.8782 0.962357C22.8621 1.37626 22.5128 1.695 22.0992 1.71882C19.0835 1.89252 16.4115 3.81114 15.3056 6.67099C15.1562 7.05732 14.722 7.2494 14.3356 7.10001C13.9493 6.95062 13.7572 6.51633 13.9066 6.12999C15.2438 2.67202 18.5 0.367386 22.1573 0.214084C22.5711 0.196737 22.8942 0.548453 22.8782 0.962357Z" fill="currentColor"/>
<path fill-rule="evenodd" clip-rule="evenodd" d="M39.0001 35.9975C38.9146 35.5921 39.1762 35.1987 39.5681 35.0644C41.4392 34.4232 42.9028 32.9073 43.4621 30.9779C43.5775 30.5801 43.9935 30.3511 44.3913 30.4664C44.7891 30.5817 45.0182 30.9977 44.9028 31.3956C44.1892 33.8573 42.293 35.7785 39.88 36.5408C39.4851 36.6656 39.0856 36.4028 39.0001 35.9975Z" fill="currentColor"/>
<path fill-rule="evenodd" clip-rule="evenodd" d="M39.8877 39.0326C39.8348 38.6218 40.1265 38.2495 40.5303 38.1575C43.4754 37.4859 45.7922 35.1506 46.4083 32.147C46.4915 31.7412 46.8879 31.4797 47.2937 31.563C47.6995 31.6462 47.9609 32.0426 47.8777 32.4484C47.1327 36.0803 44.3039 38.8931 40.7227 39.651C40.3174 39.7367 39.9405 39.4435 39.8877 39.0326Z" fill="currentColor"/>
</g>
<defs>
<clipPath id="clip0_100_863">
<rect width="48" height="48" fill="white" transform="translate(0 0.00088501)"/>
</clipPath>
</defs>
</svg>
