<svg width="48" height="48" viewBox="0 0 48 48" fill="none" xmlns="http://www.w3.org/2000/svg">
<path d="M22 30.0008V25.0008H17C16.4477 25.0008 16 24.5531 16 24.0008V22.0008C16 21.4485 16.4477 21.0008 17 21.0008H22V16.0008C22 15.4485 22.4477 15.0008 23 15.0008H25C25.5523 15.0008 26 15.4485 26 16.0008V21.0008H31C31.5523 21.0008 32 21.4485 32 22.0008V24.0008C32 24.5531 31.5523 25.0008 31 25.0008H26V30.0008C26 30.5531 25.5523 31.0008 25 31.0008H23C22.4477 31.0008 22 30.5531 22 30.0008Z" fill="currentColor"/>
<path fill-rule="evenodd" clip-rule="evenodd" d="M24.7473 42.6782C24.2681 42.8948 23.7319 42.8948 23.2528 42.678C19.4536 40.9587 8 34.6668 8 21.0713V13.514C8 12.6225 8.59113 11.8417 9.4418 11.5749C11.7547 10.8493 14.0245 9.99139 16.24 9.00525C18.5439 8.0083 20.7872 6.87732 22.9584 5.61821C23.6023 5.24485 24.3977 5.24485 25.0416 5.61821C27.2128 6.87732 29.4561 8.0083 31.76 9.00525C33.9755 9.99139 36.2453 10.8493 38.5582 11.5749C39.4089 11.8417 40 12.6225 40 13.514V21.0713C40 34.6791 28.5465 40.9604 24.7473 42.6782ZM31.9627 36.048C35.4146 32.7433 38.5 27.9034 38.5 21.0713V13.4969C38.5 13.2773 38.3566 13.0835 38.147 13.0179C35.7687 12.2734 33.4349 11.3923 31.1571 10.3788C28.7893 9.35386 26.4841 8.19058 24.2534 6.89508C24.0967 6.80412 23.9033 6.80412 23.7466 6.89508C21.5159 8.19059 19.2106 9.35387 16.8428 10.3788C14.5651 11.3923 12.2313 12.2734 9.85304 13.0179C9.64342 13.0835 9.5 13.2773 9.5 13.4969V21.0713C9.5 27.8965 12.5852 32.7365 16.0376 36.0433C18.9645 38.8468 22.1269 40.5152 23.7982 41.2782C23.9271 41.3371 24.0732 41.3371 24.2021 41.2783C25.8739 40.5158 29.036 38.8499 31.9627 36.048Z" fill="currentColor"/>
<path fill-rule="evenodd" clip-rule="evenodd" d="M24.7602 47.6719C24.2758 47.8897 23.7242 47.8897 23.2399 47.6718C18.678 45.6188 4 37.6886 4 20.3002V10.3536C4 9.46409 4.58823 8.68403 5.43742 8.41937C8.45474 7.47899 11.4142 6.35687 14.3 5.05887C17.2696 3.76032 20.1587 2.28175 22.9515 0.631351C23.598 0.249307 24.402 0.249307 25.0485 0.631351C27.8413 2.28175 30.7304 3.76032 33.7 5.05887C36.5858 6.35687 39.5453 7.47899 42.5626 8.41937C43.4118 8.68403 44 9.46409 44 10.3536V20.3002C44 37.7043 29.3222 45.6206 24.7602 47.6719ZM34.207 39.5087C38.576 35.282 42.5 29.0699 42.5 20.3002V10.3398C42.5 10.12 42.3565 9.9262 42.1466 9.86089C39.0637 8.90139 36.04 7.75578 33.0918 6.43007C30.0587 5.10341 27.1082 3.59244 24.2564 1.9056C24.0983 1.81207 23.9017 1.81207 23.7436 1.9056C20.8918 3.59245 17.9413 5.10342 14.9081 6.43008C11.96 7.75579 8.93632 8.9014 5.85337 9.86089C5.64354 9.9262 5.5 10.12 5.5 10.3398V20.3002C5.5 29.0612 9.42376 35.2734 13.7932 39.5027C17.6123 43.1992 21.7449 45.3487 23.7982 46.278C23.9268 46.3362 24.0735 46.3363 24.2021 46.2781C26.256 45.3493 30.3883 43.2032 34.207 39.5087Z" fill="currentColor"/>
</svg>
