<svg width="48" height="48" viewBox="0 0 48 48" fill="none" xmlns="http://www.w3.org/2000/svg">
<path fill-rule="evenodd" clip-rule="evenodd" d="M28.5374 25.6931C28.7079 25.6235 28.8631 25.5208 28.9939 25.3911L39.8704 14.5006C41.2347 13.122 42 11.2608 42 9.32125C42 7.38171 41.2347 5.52051 39.8704 4.14194C38.4954 2.77084 36.6329 2.00089 34.6911 2.00089C32.7493 2.00089 30.8868 2.77084 29.5118 4.14194L28 5.65374L26.4882 4.14194C25.1132 2.77084 23.2507 2.00089 21.3089 2.00089C19.3671 2.00089 17.5046 2.77084 16.1296 4.14194C14.7653 5.52051 14 7.38171 14 9.32125C14 11.2608 14.7653 13.122 16.1296 14.5006L27.0061 25.3911C27.1369 25.5208 27.2921 25.6235 27.4626 25.6931C27.6332 25.7628 27.8158 25.7981 28 25.797C28.1842 25.7981 28.3668 25.7628 28.5374 25.6931ZM28 24.2636L38.8043 13.4454L38.8064 13.4433C39.8914 12.3458 40.5 10.8647 40.5 9.32125C40.5 7.77849 39.8919 6.29798 38.8077 5.20061C37.7143 4.11208 36.2341 3.50089 34.6911 3.50089C33.147 3.50089 31.6658 4.11295 30.5721 5.20295L30.571 5.2041L28 7.77506L25.429 5.2041L25.4282 5.20323C24.3345 4.11306 22.8532 3.50089 21.3089 3.50089C19.7659 3.50089 18.2857 4.11207 17.1923 5.20059C16.1081 6.29797 15.5 7.77848 15.5 9.32125C15.5 10.8646 16.1085 12.3457 17.1935 13.4432L17.1957 13.4454L28 24.2636Z" fill="currentColor"/>
<path fill-rule="evenodd" clip-rule="evenodd" d="M2.50495 27.5011H5.00132C6.21353 27.5011 7.22464 28.3605 7.45636 29.5021C9.7729 28.4122 11.8382 27.8665 13.7633 27.7198C16.0369 27.5465 18.0186 27.9373 19.8672 28.5194C20.9316 28.8545 22.0613 29.2955 23.1573 29.7233C23.8484 29.993 24.5263 30.2576 25.1658 30.4871C26.923 31.1176 28.7515 31.6351 30.8708 31.7962C31.5712 31.8495 32.2017 32.233 32.5575 32.822C32.9353 33.4472 32.9824 34.2958 32.4851 35.0084C31.5098 36.4173 30.1142 37.0786 28.6817 37.3581C29.2266 37.4072 29.7715 37.4489 30.3169 37.4819L30.3182 37.482C30.4966 37.4929 30.8595 37.4604 31.4531 37.3312C32.02 37.2077 32.6993 37.0187 33.4682 36.782C34.4254 36.4874 35.4509 36.142 36.5171 35.7828C37.1905 35.5559 37.8802 35.3236 38.5794 35.0951C40.3281 34.5235 42.1181 33.9825 43.5713 33.7427C44.2887 33.6242 45.0369 33.5587 45.7039 33.6519C46.3515 33.7423 47.2652 34.0401 47.7398 34.9669C48.2902 36.0419 47.8603 37.0802 47.4321 37.7211C46.9892 38.3838 46.3144 39.0062 45.5854 39.5688C44.1047 40.7113 42.0124 41.8979 39.8432 42.9603C37.6589 44.03 35.3247 45.0087 33.3183 45.7234C32.3155 46.0805 31.3787 46.3775 30.5729 46.5871C29.8013 46.7879 29.0375 46.9393 28.4288 46.9393H28.3845L28.3404 46.9367C25.0006 46.7403 21.6964 45.9677 18.5475 45.2313L18.5429 45.2302C18.1279 45.1332 17.7156 45.0368 17.3062 44.9424C13.9183 44.1613 10.6989 43.5089 7.50405 43.5762C7.44815 44.9075 6.34903 45.9697 5.00132 45.9697H2.50495C1.12151 45.9697 0 44.8504 0 43.4697V30.0011C0 28.6204 1.12151 27.5011 2.50495 27.5011ZM7.50628 31.1466V42.0759C7.80307 42.0701 8.09969 42.0701 8.39614 42.0755C11.9074 42.1393 15.3958 42.9543 18.8933 43.7713C22.0565 44.5103 25.2272 45.2511 28.4288 45.4393C31.678 45.4393 47.8615 38.5009 46.4014 35.6495C45.6973 34.2743 41.209 35.7858 37.0303 37.1931C34.1915 38.1492 31.4955 39.0571 30.2259 38.9791C26.9846 38.783 23.7738 38.2906 20.5774 37.7375C19.9114 37.6222 19.4654 36.9906 19.5776 36.3254C19.6813 35.711 20.2285 35.272 20.8477 35.3517C21.3408 35.4152 21.8695 35.4989 22.4193 35.586C25.6006 36.0898 29.4868 36.7053 31.2505 34.153C31.5106 33.7829 31.2082 33.3262 30.7566 33.2919C27.5282 33.0464 24.9573 32.04 22.5157 31.0842C18.1209 29.3638 14.1446 27.8073 7.50628 31.1466ZM2.50495 29.0011C1.95158 29.0011 1.50297 29.4488 1.50297 30.0011V43.4697C1.50297 44.022 1.95158 44.4697 2.50495 44.4697H5.00132C5.5547 44.4697 6.0033 44.022 6.0033 43.4697V30.0011C6.0033 29.4488 5.5547 29.0011 5.00132 29.0011H2.50495Z" fill="currentColor"/>
</svg>
