<svg width="48" height="48" viewBox="0 0 48 48" fill="none" xmlns="http://www.w3.org/2000/svg">
<path d="M3.75 24.0009C3.75 12.2638 13.2506 2.75089 24.9679 2.75089C30.9495 2.75089 36.3521 5.22882 40.2101 9.21794C40.5287 9.54729 40.8366 9.88692 41.1335 10.2363L38.8893 11.4896C38.5532 11.6773 38.5463 12.1584 38.8769 12.3556L44.8268 15.905C45.1573 16.1022 45.5774 15.8676 45.5829 15.4828L45.6819 8.55528C45.6874 8.17042 45.2742 7.92393 44.9381 8.11159L42.4668 9.49175C42.0909 9.03766 41.6978 8.59846 41.2884 8.17514C37.1596 3.90616 31.3729 1.25089 24.9679 1.25089C12.4201 1.25089 2.25 11.4374 2.25 24.0009C2.25 36.5643 12.4201 46.7509 24.9679 46.7509C34.3618 46.7509 42.4217 41.0415 45.8806 32.9029C46.0426 32.5217 45.8649 32.0813 45.4837 31.9193C45.1025 31.7573 44.6621 31.935 44.5001 32.3162C41.2678 39.9217 33.7381 45.2509 24.9679 45.2509C13.2506 45.2509 3.75 35.738 3.75 24.0009Z" fill="currentColor"/>
<path d="M25.75 8.00089C25.75 7.58667 25.4142 7.25089 25 7.25089C24.5858 7.25089 24.25 7.58667 24.25 8.00089V25.3268L31.9883 32.5492C32.2911 32.8318 32.7657 32.8154 33.0483 32.5126C33.3309 32.2098 33.3146 31.7352 33.0117 31.4526L25.75 24.675V8.00089Z" fill="currentColor"/>
</svg>
