<svg width="48" height="48" viewBox="0 0 48 48" fill="none" xmlns="http://www.w3.org/2000/svg">
<path fill-rule="evenodd" clip-rule="evenodd" d="M20 22.5009C20 25.5384 17.5376 28.0009 14.5 28.0009C11.4624 28.0009 9 25.5384 9 22.5009C9 19.4633 11.4624 17.0009 14.5 17.0009C17.5376 17.0009 20 19.4633 20 22.5009ZM18.5 22.5009C18.5 24.71 16.7091 26.5009 14.5 26.5009C12.2909 26.5009 10.5 24.71 10.5 22.5009C10.5 20.2917 12.2909 18.5009 14.5 18.5009C16.7091 18.5009 18.5 20.2917 18.5 22.5009Z" fill="currentColor"/>
<path fill-rule="evenodd" clip-rule="evenodd" d="M0 39.0009C0 40.1054 0.895431 41.0009 2 41.0009H46C47.1046 41.0009 48 40.1054 48 39.0009V9.00085C48 7.89628 47.1046 7.00085 46 7.00085H2C0.895432 7.00085 0 7.89629 0 9.00085V39.0009ZM2 8.50085C1.72386 8.50085 1.5 8.72471 1.5 9.00085V39.0009C1.5 39.277 1.72386 39.5009 2 39.5009H6V37.5009C6 32.8064 9.80558 29.0009 14.5 29.0009C19.1944 29.0009 23 32.8064 23 37.5009V39.5009H46C46.2761 39.5009 46.5 39.277 46.5 39.0009V9.00085C46.5 8.72471 46.2761 8.50085 46 8.50085H2ZM21.5 39.5009V37.5009C21.5 33.6349 18.366 30.5009 14.5 30.5009C10.634 30.5009 7.5 33.6349 7.5 37.5009V39.5009H21.5Z" fill="currentColor"/>
<path d="M34.25 30.5009C34.6642 30.5009 35 30.8366 35 31.2509C35 31.6651 34.6642 32.0009 34.25 32.0009H27.75C27.3358 32.0009 27 31.6651 27 31.2509C27 30.8366 27.3358 30.5009 27.75 30.5009H34.25Z" fill="currentColor"/>
<path d="M43 35.2509C43 35.6651 42.6642 36.0009 42.25 36.0009H27.75C27.3358 36.0009 27 35.6651 27 35.2509C27 34.8366 27.3358 34.5009 27.75 34.5009H42.25C42.6642 34.5009 43 34.8366 43 35.2509Z" fill="currentColor"/>
<path fill-rule="evenodd" clip-rule="evenodd" d="M33 25.5009C36.5899 25.5009 39.5 22.5907 39.5 19.0009C39.5 15.411 36.5899 12.5009 33 12.5009C29.4101 12.5009 26.5 15.411 26.5 19.0009C26.5 22.5907 29.4101 25.5009 33 25.5009ZM41 19.0009C41 23.4191 37.4183 27.0009 33 27.0009C28.5817 27.0009 25 23.4191 25 19.0009C25 14.5826 28.5817 11.0009 33 11.0009C37.4183 11.0009 41 14.5826 41 19.0009Z" fill="currentColor"/>
<path d="M34.2402 18.1321L34.1285 18.0204L31 18.188V18.6349C31.1676 18.6908 31.2793 18.6908 31.4469 18.7467C31.6145 18.8025 31.7263 18.8584 31.7821 18.9143C31.8939 18.9701 32.0056 19.0819 32.0615 19.1936L32.0615 19.1936C32.1173 19.3053 32.1732 19.4171 32.1732 19.5847V22.3277C32.1732 22.4953 32.1173 22.607 32.0615 22.7187C32.0056 22.8305 31.8939 22.8863 31.7821 22.9422C31.7263 22.9422 31.6145 22.9981 31.5028 22.9981C31.3911 23.0539 31.2793 23.0539 31.1676 23.0539V23.5009H35.2458V23.0539C35.1341 23.0539 35.0223 23.0539 34.9106 22.9981C34.7989 22.9422 34.743 22.9422 34.6313 22.8863C34.5196 22.8305 34.4078 22.7746 34.352 22.6629C34.2961 22.5511 34.2402 22.4394 34.2402 22.2718V18.1321Z" fill="currentColor"/>
<path d="M33.905 14.836C33.6816 14.6126 33.3464 14.5009 33.0112 14.5009C32.676 14.5009 32.3408 14.6126 32.1173 14.836C31.838 15.0595 31.7263 15.3388 31.7263 15.674C31.7263 16.0092 31.838 16.2886 32.1173 16.512C32.3408 16.7355 32.676 16.8472 33.0112 16.8472C33.3464 16.8472 33.6257 16.7355 33.905 16.512C34.1844 16.2886 34.2961 16.0092 34.2961 15.674C34.2961 15.3388 34.1285 15.0595 33.905 14.836Z" fill="currentColor"/>
</svg>
