<svg width="48" height="48" viewBox="0 0 48 48" fill="none" xmlns="http://www.w3.org/2000/svg">
<path d="M34.25 17.5009C34.6642 17.5009 35 17.8366 35 18.2509C35 18.6651 34.6642 19.0009 34.25 19.0009H26.75C26.3358 19.0009 26 18.6651 26 18.2509C26 17.8366 26.3358 17.5009 26.75 17.5009H34.25Z" fill="currentColor"/>
<path d="M43 22.2509C43 22.6651 42.6642 23.0009 42.25 23.0009H26.75C26.3358 23.0009 26 22.6651 26 22.2509C26 21.8366 26.3358 21.5009 26.75 21.5009H42.25C42.6642 21.5009 43 21.8366 43 22.2509Z" fill="currentColor"/>
<path fill-rule="evenodd" clip-rule="evenodd" d="M20 22.5009C20 25.5384 17.5376 28.0009 14.5 28.0009C11.4624 28.0009 9 25.5384 9 22.5009C9 19.4633 11.4624 17.0009 14.5 17.0009C17.5376 17.0009 20 19.4633 20 22.5009ZM18.5 22.5009C18.5 24.71 16.7091 26.5009 14.5 26.5009C12.2909 26.5009 10.5 24.71 10.5 22.5009C10.5 20.2917 12.2909 18.5009 14.5 18.5009C16.7091 18.5009 18.5 20.2917 18.5 22.5009Z" fill="currentColor"/>
<path fill-rule="evenodd" clip-rule="evenodd" d="M0 39.0009C0 40.1054 0.895431 41.0009 2 41.0009H46C47.1046 41.0009 48 40.1054 48 39.0009V9.00085C48 7.89628 47.1046 7.00085 46 7.00085H2C0.895432 7.00085 0 7.89629 0 9.00085V39.0009ZM2 8.50085C1.72386 8.50085 1.5 8.72471 1.5 9.00085V39.0009C1.5 39.277 1.72386 39.5009 2 39.5009H6V37.5009C6 32.8064 9.80558 29.0009 14.5 29.0009C19.1944 29.0009 23 32.8064 23 37.5009V39.5009H46C46.2761 39.5009 46.5 39.277 46.5 39.0009V9.00085C46.5 8.72471 46.2761 8.50085 46 8.50085H2ZM21.5 39.5009V37.5009C21.5 33.6349 18.366 30.5009 14.5 30.5009C10.634 30.5009 7.5 33.6349 7.5 37.5009V39.5009H21.5Z" fill="currentColor"/>
</svg>
