<svg width="48" height="48" viewBox="0 0 48 48" fill="none" xmlns="http://www.w3.org/2000/svg">
<g clip-path="url(#clip0_100_1012)">
<path fill-rule="evenodd" clip-rule="evenodd" d="M24.25 5.00085C24.6642 5.00085 25 5.33664 25 5.75085C25 6.16507 24.6642 6.50085 24.25 6.50085H6.5C5.94772 6.50085 5.5 6.94857 5.5 7.50085V45.5009C5.5 46.0531 5.94772 46.5009 6.5 46.5009H35.5C36.0523 46.5009 36.5 46.0531 36.5 45.5009V19.7509C36.5 19.3366 36.8358 19.0009 37.25 19.0009C37.6642 19.0009 38 19.3366 38 19.7509V46.0005C38 47.1051 37.1046 48.0005 36 48.0005H6C4.89543 48.0005 4 47.1051 4 46.0005V7.00086C4 5.89629 4.89543 5.00085 6 5.00085H24.25ZM31.389 25.9492C31.8049 25.9492 32.142 26.2864 32.142 26.7022C32.142 27.1181 31.8049 27.4552 31.389 27.4552H10.6851C10.2692 27.4552 9.9321 27.1181 9.9321 26.7022C9.9321 26.2864 10.2692 25.9492 10.6851 25.9492H31.389ZM31.389 19.9137C31.8049 19.9137 32.142 20.2509 32.142 20.6667C32.142 21.0826 31.8049 21.4197 31.389 21.4197H10.6851C10.2692 21.4197 9.9321 21.0826 9.9321 20.6667C9.9321 20.2509 10.2692 19.9137 10.6851 19.9137H31.389ZM15.9446 13.8782C16.3604 13.8782 16.6975 14.2154 16.6975 14.6312C16.6975 15.0471 16.3604 15.3842 15.9446 15.3842H10.6851C10.2692 15.3842 9.9321 15.0471 9.9321 14.6312C9.9321 14.2154 10.2692 13.8782 10.6851 13.8782H15.9446Z" fill="currentColor"/>
<path d="M17.6846 43.3837H31.1787C31.5945 43.3837 31.9316 43.0466 31.9316 42.6308C31.9316 42.2149 31.5945 41.8778 31.1787 41.8778H17.6846C17.2688 41.8778 16.9316 42.2149 16.9316 42.6308C16.9316 43.0466 17.2688 43.3837 17.6846 43.3837Z" fill="currentColor"/>
<path fill-rule="evenodd" clip-rule="evenodd" d="M35.5 15.5009C39.366 15.5009 42.5 12.3668 42.5 8.50085C42.5 4.63486 39.366 1.50085 35.5 1.50085C31.634 1.50085 28.5 4.63486 28.5 8.50085C28.5 12.3668 31.634 15.5009 35.5 15.5009ZM35.5 17.0009C40.1944 17.0009 44 13.1953 44 8.50085C44 3.80643 40.1944 0.000854492 35.5 0.000854492C30.8056 0.000854492 27 3.80643 27 8.50085C27 13.1953 30.8056 17.0009 35.5 17.0009Z" fill="currentColor"/>
<path d="M36.7402 7.13214L36.6285 7.02041L33.5 7.18801V7.63493C33.6676 7.6908 33.7793 7.6908 33.9469 7.74666C34.1145 7.80253 34.2263 7.8584 34.2821 7.91426C34.3939 7.97013 34.5056 8.08186 34.5615 8.19359C34.6173 8.30532 34.6732 8.41706 34.6732 8.58465V12.3277C34.6732 12.4953 34.6173 12.607 34.5615 12.7187C34.5056 12.8305 34.3939 12.8863 34.2821 12.9422C34.2263 12.9422 34.1145 12.9981 34.0028 12.9981C33.8911 13.0539 33.7793 13.0539 33.6676 13.0539V13.5009H37.7458V13.0539C37.6341 13.0539 37.5223 13.0539 37.4106 12.9981C37.2989 12.9422 37.243 12.9422 37.1313 12.8863C37.0196 12.8305 36.9078 12.7746 36.852 12.6629C36.7961 12.5511 36.7402 12.4394 36.7402 12.2718V7.13214Z" fill="currentColor"/>
<path d="M36.405 3.83605C36.1816 3.61259 35.8464 3.50085 35.5112 3.50085C35.176 3.50085 34.8408 3.61259 34.6173 3.83605C34.338 4.05951 34.2263 4.33884 34.2263 4.67404C34.2263 5.00923 34.338 5.28856 34.6173 5.51203C34.8408 5.73549 35.176 5.84722 35.5112 5.84722C35.8464 5.84722 36.1257 5.73549 36.405 5.51203C36.6844 5.28856 36.7961 5.00923 36.7961 4.67404C36.7961 4.33884 36.6285 4.05951 36.405 3.83605Z" fill="currentColor"/>
</g>
<defs>
<clipPath id="clip0_100_1012">
<rect width="48" height="48" fill="white" transform="translate(0 0.000854492)"/>
</clipPath>
</defs>
</svg>
