<svg width="48" height="48" viewBox="0 0 48 48" fill="none" xmlns="http://www.w3.org/2000/svg">
<g clip-path="url(#clip0_100_832)">
<path fill-rule="evenodd" clip-rule="evenodd" d="M23.25 2.00092C23.25 0.896346 24.1454 0.000915527 25.25 0.000915527H33.5765C35.0239 0.000915527 35.992 1.49062 35.4042 2.81319L34.5153 4.81319C34.1943 5.53545 33.478 6.00092 32.6877 6.00092H24.75V9.06144L40.6409 18.0001H43.694C44.9111 18.0001 45.846 19.078 45.6739 20.2829L45.2453 23.2829C45.1046 24.2682 44.2453 25.0001 43.25 25.0001V40.0001C44.2498 40.0001 45.0931 40.7445 45.2171 41.7365L45.719 45.752C45.8682 46.9457 44.9374 48.0001 43.7344 48.0001H4.26556C3.06257 48.0001 2.1318 46.9457 2.28101 45.752L2.78294 41.7365C2.90694 40.7445 3.75025 40.0001 4.75 40.0001V25.0001C3.7547 25.0001 2.89545 24.2682 2.75469 23.2829L2.32612 20.2829C2.154 19.078 3.08892 18.0001 4.30602 18.0001H6.85041L23.25 9.05483V2.00092ZM9.9829 18.0001H37.5813L23.9944 10.3574L9.9829 18.0001ZM24.75 4.50092H32.6877C32.8853 4.50092 33.0643 4.38455 33.1446 4.20398L34.0335 2.20398C34.1804 1.87334 33.9384 1.50092 33.5765 1.50092H25.25C24.9739 1.50092 24.75 1.72477 24.75 2.00092V4.50092ZM41.75 40.0001V25.0001H40.25V40.0001H41.75ZM23.25 25.0001H24.75V40.0001H23.25V25.0001ZM26.25 40.0001V25.0001H30.25V40.0001H26.25ZM31.75 40.0001H33.25V25.0001H31.75V40.0001ZM38.75 40.0001H34.75V25.0001H38.75V40.0001ZM21.75 40.0001V25.0001H17.75V40.0001H21.75ZM16.25 40.0001H14.75V25.0001H16.25V40.0001ZM9.25 25.0001H13.25V40.0001H9.25V25.0001ZM7.75 40.0001H6.25V25.0001H7.75V40.0001ZM4.73459 23.5001C4.48577 23.5001 4.27481 23.3171 4.23962 23.0708L3.81104 20.0708C3.76801 19.7696 4.00174 19.5001 4.30602 19.5001H43.694C43.9983 19.5001 44.232 19.7696 44.189 20.0708L43.7604 23.0708C43.7252 23.3171 43.5142 23.5001 43.2654 23.5001H4.73459ZM4.26556 46.5001C3.96482 46.5001 3.73212 46.2365 3.76943 45.938L4.26943 41.938C4.3007 41.6878 4.5134 41.5001 4.76556 41.5001H43.2344C43.4866 41.5001 43.6993 41.6878 43.7306 41.938L44.2306 45.938C44.2679 46.2365 44.0352 46.5001 43.7344 46.5001H4.26556Z" fill="currentColor"/>
</g>
<defs>
<clipPath id="clip0_100_832">
<rect width="48" height="48" fill="white" transform="translate(0 0.00088501)"/>
</clipPath>
</defs>
</svg>
