<svg width="48" height="48" viewBox="0 0 48 48" fill="none" xmlns="http://www.w3.org/2000/svg">
<path fill-rule="evenodd" clip-rule="evenodd" d="M10.25 7.75092V10.0001H4C1.79086 10.0001 0 11.7909 0 14.0001V41.0001C0 43.2092 1.79086 45.0001 4 45.0001H44C46.2091 45.0001 48 43.2092 48 41.0001V14.0001C48 11.7909 46.2091 10.0001 44 10.0001H37.75V7.75092C37.75 5.12756 35.6234 3.00092 33 3.00092H15C12.3766 3.00092 10.25 5.12756 10.25 7.75092ZM15 4.50092C13.2051 4.50092 11.75 5.95599 11.75 7.75092V10.0001H36.25V7.75092C36.25 5.95599 34.7949 4.50092 33 4.50092H15ZM4 11.5001H44C45.3807 11.5001 46.5 12.6193 46.5 14.0001V22.8L40 23.5065V20.7501C40 20.3358 39.6642 20.0001 39.25 20.0001C38.8358 20.0001 38.5 20.3358 38.5 20.7501V23.6696L24 25.2456L9.5 23.6696V20.7501C9.5 20.3358 9.16421 20.0001 8.75 20.0001C8.33579 20.0001 8 20.3358 8 20.7501V23.5065L1.5 22.8V14.0001C1.5 12.6193 2.61929 11.5001 4 11.5001ZM8 25.0154L1.5 24.3088V41.0001C1.5 42.3808 2.61929 43.5001 4 43.5001H44C45.3807 43.5001 46.5 42.3808 46.5 41.0001V24.3088L40 25.0154V28.2501C40 28.6643 39.6642 29.0001 39.25 29.0001C38.8358 29.0001 38.5 28.6643 38.5 28.2501V25.1784L24 26.7545L9.5 25.1784V28.2501C9.5 28.6643 9.16421 29.0001 8.75 29.0001C8.33579 29.0001 8 28.6643 8 28.2501V25.0154Z" fill="currentColor"/>
</svg>
