<svg width="48" height="48" viewBox="0 0 48 48" fill="none" xmlns="http://www.w3.org/2000/svg">
<g clip-path="url(#clip0_100_732)">
<path d="M15 40.0009C15 39.4486 15.4477 39.0009 16 39.0009H19C19.5523 39.0009 20 39.4486 20 40.0009V43.0009C20 43.5532 19.5523 44.0009 19 44.0009H16C15.4477 44.0009 15 43.5532 15 43.0009V40.0009Z" fill="currentColor"/>
<path d="M21.5 40.0009C21.5 39.4486 21.9477 39.0009 22.5 39.0009H25.5C26.0523 39.0009 26.5 39.4486 26.5 40.0009V43.0009C26.5 43.5532 26.0523 44.0009 25.5 44.0009H22.5C21.9477 44.0009 21.5 43.5532 21.5 43.0009V40.0009Z" fill="currentColor"/>
<path d="M29 39.0009C28.4477 39.0009 28 39.4486 28 40.0009V43.0009C28 43.5532 28.4477 44.0009 29 44.0009H32C32.5523 44.0009 33 43.5532 33 43.0009V40.0009C33 39.4486 32.5523 39.0009 32 39.0009H29Z" fill="currentColor"/>
<path fill-rule="evenodd" clip-rule="evenodd" d="M15 0.00088501C12.7909 0.00088501 11 1.79175 11 4.00088V44.0009C11 46.21 12.7909 48.0009 15 48.0009H33C35.2091 48.0009 37 46.21 37 44.0009V4.00089C37 1.79175 35.2091 0.00088501 33 0.00088501H15ZM30 1.50089C29.4477 1.50089 29 1.9486 29 2.50089V3.00089C29 3.55317 28.5523 4.00089 28 4.00089H20C19.4477 4.00089 19 3.55317 19 3.00089V2.50089C19 1.9486 18.5523 1.50089 18 1.50089H15C13.6193 1.50089 12.5 2.62017 12.5 4.00088V44.0009C12.5 45.3816 13.6193 46.5009 15 46.5009H33C34.3807 46.5009 35.5 45.3816 35.5 44.0009V4.00089C35.5 2.62017 34.3807 1.50089 33 1.50089H30Z" fill="currentColor"/>
</g>
<defs>
<clipPath id="clip0_100_732">
<rect width="48" height="48" fill="white" transform="translate(0 0.00088501)"/>
</clipPath>
</defs>
</svg>
