<svg width="48" height="48" viewBox="0 0 48 48" fill="none" xmlns="http://www.w3.org/2000/svg">
<path fill-rule="evenodd" clip-rule="evenodd" d="M29.0511 2.00085C29.0511 1.58664 28.7153 1.25085 28.3011 1.25085C27.8869 1.25085 27.5511 1.58664 27.5511 2.00085V4.72901C27.5511 5.62228 26.9064 6.38514 26.0256 6.53408C24.4232 6.80506 23.2502 8.19296 23.2502 9.81816V12.2744C17.1102 12.661 12.25 17.7634 12.25 24.0009V35.0009C12.25 41.4902 17.5107 46.7509 24 46.7509C30.4893 46.7509 35.75 41.4902 35.75 35.0009V24.0009C35.75 17.7635 30.89 12.6613 24.7502 12.2744V9.81816C24.7502 8.92488 25.3949 8.16202 26.2757 8.01308C27.8782 7.74211 29.0511 6.3542 29.0511 4.72901V2.00085ZM24.7502 13.7779V25.1093H34.25V24.0009C34.25 18.5923 30.0609 14.1621 24.7502 13.7779ZM23.2502 13.7779C17.9394 14.1618 13.75 18.5921 13.75 24.0009V25.1093H23.2502V13.7779ZM34.25 26.6093V35.0009C34.25 40.6618 29.6609 45.2509 24 45.2509C18.3391 45.2509 13.75 40.6618 13.75 35.0009V26.6093H34.25Z" fill="currentColor"/>
</svg>
