<svg width="48" height="48" viewBox="0 0 48 48" fill="none" xmlns="http://www.w3.org/2000/svg">
<g clip-path="url(#clip0_100_1009)">
<path d="M39.6 46.0009C39.6 47.1054 38.7046 48.0009 37.6 48.0009H6C4.89543 48.0009 4 47.1054 4 46.0009V2.00085C4 0.896285 4.89543 0.000854492 6 0.000854492H37.599C38.7035 0.000854492 39.599 0.896285 39.599 2.00085V9.46061C39.599 9.91037 39.2344 10.275 38.7846 10.275C38.3349 10.275 37.9703 9.91037 37.9703 9.46061V2.63537C37.9703 2.08309 37.5225 1.63537 36.9703 1.63537H6.62871C6.07643 1.63537 5.62871 2.08309 5.62871 2.63537V45.3663C5.62871 45.9186 6.07643 46.3663 6.62871 46.3663H36.97C37.5223 46.3663 37.97 45.9186 37.97 45.3663V32.8159C37.97 32.3657 38.3349 32.0009 38.785 32.0009C39.2351 32.0009 39.6 32.3657 39.6 32.8159V46.0009Z" fill="currentColor"/>
<path d="M14.9431 37.2252C14.9266 36.9945 14.6325 36.908 14.4937 37.093L11.6004 40.9508L10.4004 40.0508L13.2937 36.193C14.2653 34.8975 16.3239 35.5031 16.4393 37.1184L16.583 39.1311C16.5987 39.3499 16.8684 39.4439 17.0167 39.2822L19.3807 36.7032C20.3286 35.6692 22.0339 36.5576 21.7295 37.927C21.6448 38.3081 22.0167 38.6312 22.3823 38.4941L24.237 37.7986L24.7637 39.2031L22.909 39.8986C21.5617 40.4038 20.1933 39.3658 20.2162 38.0117L18.1224 40.2958C17.0847 41.4278 15.1963 40.7697 15.0868 39.2379L14.9431 37.2252Z" fill="currentColor"/>
<path fill-rule="evenodd" clip-rule="evenodd" d="M43.7362 17.122L32.2362 37.0406L27.1381 39.8708L27.04 34.0406L38.54 14.122C39.0923 13.1655 40.3155 12.8377 41.2721 13.39L43.0041 14.39C43.9607 14.9423 44.2885 16.1655 43.7362 17.122ZM28.5468 34.4308L37.0266 19.7434L39.6247 21.2434L31.1449 35.9308L28.5959 37.3459L28.5468 34.4308ZM37.7766 18.4444L40.3747 19.9444L42.4372 16.372C42.5752 16.1329 42.4933 15.8271 42.2541 15.689L40.5221 14.689C40.2829 14.551 39.9771 14.6329 39.8391 14.872L37.7766 18.4444Z" fill="currentColor"/>
<path d="M10.6846 22.4552H27.3886C27.8044 22.4552 28.1415 22.1181 28.1415 21.7023C28.1415 21.2864 27.8044 20.9493 27.3886 20.9493H10.6846C10.2688 20.9493 9.93164 21.2864 9.93164 21.7023C9.93164 22.1181 10.2688 22.4552 10.6846 22.4552Z" fill="currentColor"/>
<path d="M10.6846 16.4197H29.3886C29.8044 16.4197 30.1415 16.0826 30.1415 15.6668C30.1415 15.2509 29.8044 14.9138 29.3886 14.9138H10.6846C10.2688 14.9138 9.93164 15.2509 9.93164 15.6668C9.93164 16.0826 10.2688 16.4197 10.6846 16.4197Z" fill="currentColor"/>
<path d="M10.6846 10.3842H15.9441C16.36 10.3842 16.6971 10.0471 16.6971 9.63125C16.6971 9.21541 16.36 8.8783 15.9441 8.8783H10.6846C10.2688 8.8783 9.93164 9.21541 9.93164 9.63125C9.93164 10.0471 10.2688 10.3842 10.6846 10.3842Z" fill="currentColor"/>
</g>
<defs>
<clipPath id="clip0_100_1009">
<rect width="48" height="48" fill="white" transform="translate(0 0.000854492)"/>
</clipPath>
</defs>
</svg>
