<svg width="48" height="48" viewBox="0 0 48 48" fill="none" xmlns="http://www.w3.org/2000/svg">
<g clip-path="url(#clip0_100_779)">
<path d="M20 8.75089C20 8.33667 20.3358 8.00089 20.75 8.00089C21.1642 8.00089 21.5 8.33667 21.5 8.75089V9.75089C21.5 10.1651 21.1642 10.5009 20.75 10.5009C20.3358 10.5009 20 10.1651 20 9.75089V8.75089Z" fill="currentColor"/>
<path d="M20.9144 12.0324C21.1731 11.7089 21.6451 11.6565 21.9685 11.9153C23.1562 12.8654 24.8438 12.8654 26.0315 11.9153C26.355 11.6565 26.8269 11.7089 27.0857 12.0324C27.3444 12.3558 27.292 12.8278 26.9685 13.0866C25.233 14.475 22.767 14.475 21.0315 13.0866C20.7081 12.8278 20.6556 12.3558 20.9144 12.0324Z" fill="currentColor"/>
<path d="M27.25 8.00089C26.8358 8.00089 26.5 8.33667 26.5 8.75089V9.75089C26.5 10.1651 26.8358 10.5009 27.25 10.5009C27.6642 10.5009 28 10.1651 28 9.75089V8.75089C28 8.33667 27.6642 8.00089 27.25 8.00089Z" fill="currentColor"/>
<path fill-rule="evenodd" clip-rule="evenodd" d="M33.5 9.50089C33.5 14.7476 29.2467 19.0009 24 19.0009C18.7533 19.0009 14.5 14.7476 14.5 9.50089C14.5 4.25418 18.7533 0.00088501 24 0.00088501C29.2467 0.00088501 33.5 4.25418 33.5 9.50089ZM32 9.50089C32 13.9192 28.4183 17.5009 24 17.5009C19.5817 17.5009 16 13.9192 16 9.50089C16 6.08095 18.146 3.16223 21.1648 2.01783C21.058 2.32581 21 2.65657 21 3.00089C21 4.65774 22.3431 6.00089 24 6.00089C24.969 6.00089 25.8307 5.54147 26.3792 4.82857C26.6319 4.50008 26.4492 4.05055 26.0683 3.88729C25.6876 3.72414 25.2523 3.92422 24.9268 4.18035C24.6717 4.38112 24.3498 4.50089 24 4.50089C23.1716 4.50089 22.5 3.82931 22.5 3.00089C22.5 2.17246 23.1716 1.50089 24 1.50089C28.4183 1.50089 32 5.08261 32 9.50089Z" fill="currentColor"/>
<path d="M21.5 28.2509C21.0858 28.2509 20.75 28.5867 20.75 29.0009C20.75 29.4151 21.0858 29.7509 21.5 29.7509H26.5C26.9142 29.7509 27.25 29.4151 27.25 29.0009C27.25 28.5867 26.9142 28.2509 26.5 28.2509H21.5Z" fill="currentColor"/>
<path d="M16.5618 19.0009C15.5231 19.0009 14.5269 19.4135 13.7924 20.148L10.0149 23.9255C8.64804 25.2923 8.64804 27.5084 10.0149 28.8753C11.3817 30.2421 13.5978 30.2421 14.9646 28.8753L15.0835 28.7564C15.3764 28.4635 15.3764 27.9886 15.0835 27.6957C14.7906 27.4028 14.3158 27.4028 14.0229 27.6957L13.904 27.8146C13.1229 28.5956 11.8566 28.5956 11.0755 27.8146C10.2945 27.0335 10.2945 25.7672 11.0755 24.9862L15.0405 21.0212C15.7714 20.2903 16.9311 20.2539 17.8165 20.7873C19.6224 21.8751 21.738 22.5009 23.9998 22.5009C26.2617 22.5009 28.3774 21.8751 30.1833 20.7872C31.0687 20.2537 32.2284 20.2901 32.9593 21.021L36.9247 24.9862C37.7058 25.7672 37.7058 27.0335 36.9247 27.8146C36.1437 28.5956 34.8773 28.5956 34.0963 27.8146L33.9774 27.6957C33.6845 27.4028 33.2096 27.4028 32.9167 27.6957C32.6238 27.9886 32.6238 28.4635 32.9167 28.7564L33.0356 28.8753C34.4025 30.2421 36.6185 30.2421 37.9854 28.8753C39.3522 27.5084 39.3522 25.2923 37.9854 23.9255L34.208 20.1481C33.4734 19.4136 32.4771 19.0009 31.4383 19.0009C30.611 19.0009 29.8162 19.2832 29.0931 19.685C27.5846 20.5234 25.8479 21.0009 23.9998 21.0009C22.1517 21.0009 20.4151 20.5233 18.9067 19.685C18.1837 19.2831 17.389 19.0009 16.5618 19.0009Z" fill="currentColor"/>
<path fill-rule="evenodd" clip-rule="evenodd" d="M18.75 23.5009C18.75 23.0867 18.4142 22.7509 18 22.7509C17.5858 22.7509 17.25 23.0867 17.25 23.5009V32.1549L13.8688 35.5361C12.302 37.1029 11.7263 39.4058 12.3714 41.5257L13.641 45.6972C14.1636 47.4143 15.9793 48.3827 17.6965 47.8601C19.4136 47.3375 20.382 45.5218 19.8594 43.8046L18.6772 39.9201L21.5052 37.0921L21.6645 37.1717C23.1346 37.9068 24.8651 37.9068 26.3353 37.1717L26.4957 37.0915L29.3243 39.9201L28.1421 43.8046C27.6194 45.5218 28.5878 47.3375 30.305 47.8601C32.0221 48.3827 33.8378 47.4143 34.3604 45.6972L35.63 41.5257C36.2752 39.4058 35.6995 37.1029 34.1326 35.5361L30.75 32.1534V23.5009C30.75 23.0867 30.4142 22.7509 30 22.7509C29.5858 22.7509 29.25 23.0867 29.25 23.5009V32.1474C27.7665 32.8946 26.5916 34.1486 25.9448 35.6899L25.6645 35.8301C24.6166 36.354 23.3832 36.354 22.3353 35.8301L22.0571 35.691C21.4102 34.1487 20.2345 32.894 18.75 32.1466V23.5009ZM18.0517 33.4745L14.9295 36.5967C13.7544 37.7719 13.3226 39.499 13.8064 41.0889L15.076 45.2604C15.3574 46.185 16.3351 46.7065 17.2597 46.4251C18.1844 46.1437 18.7058 45.166 18.4244 44.2414L17.1548 40.0699C17.0473 39.7166 17.1432 39.3327 17.4044 39.0716L20.5266 35.9494C19.9933 34.8772 19.1239 34.0078 18.0517 33.4745ZM33.072 36.5967L29.9498 33.4745C28.8775 34.0078 28.0082 34.8772 27.4749 35.9494L30.5971 39.0716C30.8582 39.3327 30.9542 39.7166 30.8467 40.0699L29.5771 44.2414C29.2957 45.166 29.8171 46.1437 30.7417 46.4251C31.6663 46.7065 32.644 46.185 32.9254 45.2604L34.195 41.0889C34.6789 39.499 34.2471 37.7719 33.072 36.5967Z" fill="currentColor"/>
</g>
<defs>
<clipPath id="clip0_100_779">
<rect width="48" height="48" fill="white" transform="translate(0 0.00088501)"/>
</clipPath>
</defs>
</svg>
