<svg width="48" height="48" viewBox="0 0 48 48" fill="none" xmlns="http://www.w3.org/2000/svg">
<path fill-rule="evenodd" clip-rule="evenodd" d="M40 19.5009C40 23.643 36.6421 27.0009 32.5 27.0009C28.3579 27.0009 25 23.643 25 19.5009C25 15.3587 28.3579 12.0009 32.5 12.0009C36.6421 12.0009 40 15.3587 40 19.5009ZM38.5 19.5009C38.5 20.1096 38.4093 20.6972 38.2408 21.2509H36.0727C36.1846 20.7032 36.25 20.1187 36.25 19.5005C36.25 18.8826 36.1847 18.2983 36.0728 17.7509H38.2408C38.4093 18.3045 38.5 18.8921 38.5 19.5009ZM34.5352 17.7509C34.6694 18.2922 34.75 18.877 34.75 19.5005C34.75 20.1243 34.6693 20.7093 34.535 21.2509H30.465C30.3307 20.7093 30.25 20.1243 30.25 19.5005C30.25 18.877 30.3306 18.2922 30.4648 17.7509H34.5352ZM35.628 16.2509H37.5444C36.7746 15.0585 35.5936 14.1566 34.202 13.7457C34.3398 13.9249 34.482 14.1214 34.624 14.3345C34.9793 14.8674 35.3382 15.5102 35.628 16.2509ZM30.798 13.7457C29.4064 14.1566 28.2254 15.0585 27.4556 16.2509H29.372C29.6618 15.5102 30.0207 14.8674 30.376 14.3345C30.518 14.1214 30.6602 13.9249 30.798 13.7457ZM31.0061 16.2509C31.1976 15.8502 31.41 15.4877 31.624 15.1665C31.9382 14.6954 32.2521 14.3194 32.5 14.0505C32.7479 14.3194 33.0618 14.6954 33.376 15.1665C33.59 15.4877 33.8024 15.8502 33.9939 16.2509H31.0061ZM28.9272 17.7509H26.7592C26.5907 18.3045 26.5 18.8921 26.5 19.5009C26.5 20.1096 26.5907 20.6972 26.7592 21.2509H28.9273C28.8154 20.7032 28.75 20.1187 28.75 19.5005C28.75 18.8826 28.8153 18.2983 28.9272 17.7509ZM29.3723 22.7509H27.4556C28.2255 23.9434 29.4067 24.8454 30.7986 25.2562C30.6606 25.0768 30.5183 24.88 30.376 24.6665C30.0208 24.1338 29.6621 23.4912 29.3723 22.7509ZM34.2014 25.2562C35.5933 24.8454 36.7745 23.9434 37.5444 22.7509H35.6277C35.3379 23.4912 34.9792 24.1338 34.624 24.6665C34.4817 24.88 34.3394 25.0768 34.2014 25.2562ZM31.0065 22.7509C31.1978 23.1513 31.4101 23.5135 31.624 23.8345C31.9382 24.3057 32.2521 24.6817 32.5 24.9506C32.7479 24.6817 33.0618 24.3057 33.376 23.8345C33.5899 23.5135 33.8022 23.1513 33.9935 22.7509H31.0065Z" fill="currentColor"/>
<path d="M34.25 30.5009C34.6642 30.5009 35 30.8366 35 31.2509C35 31.6651 34.6642 32.0009 34.25 32.0009H26.75C26.3358 32.0009 26 31.6651 26 31.2509C26 30.8366 26.3358 30.5009 26.75 30.5009H34.25Z" fill="currentColor"/>
<path d="M43 35.2509C43 35.6651 42.6642 36.0009 42.25 36.0009H26.75C26.3358 36.0009 26 35.6651 26 35.2509C26 34.8366 26.3358 34.5009 26.75 34.5009H42.25C42.6642 34.5009 43 34.8366 43 35.2509Z" fill="currentColor"/>
<path fill-rule="evenodd" clip-rule="evenodd" d="M20 22.5009C20 25.5384 17.5376 28.0009 14.5 28.0009C11.4624 28.0009 9 25.5384 9 22.5009C9 19.4633 11.4624 17.0009 14.5 17.0009C17.5376 17.0009 20 19.4633 20 22.5009ZM18.5 22.5009C18.5 24.71 16.7091 26.5009 14.5 26.5009C12.2909 26.5009 10.5 24.71 10.5 22.5009C10.5 20.2917 12.2909 18.5009 14.5 18.5009C16.7091 18.5009 18.5 20.2917 18.5 22.5009Z" fill="currentColor"/>
<path fill-rule="evenodd" clip-rule="evenodd" d="M0 39.0009C0 40.1054 0.895431 41.0009 2 41.0009H46C47.1046 41.0009 48 40.1054 48 39.0009V9.00085C48 7.89628 47.1046 7.00085 46 7.00085H2C0.895432 7.00085 0 7.89629 0 9.00085V39.0009ZM2 8.50085C1.72386 8.50085 1.5 8.72471 1.5 9.00085V39.0009C1.5 39.277 1.72386 39.5009 2 39.5009H6V37.5009C6 32.8064 9.80558 29.0009 14.5 29.0009C19.1944 29.0009 23 32.8064 23 37.5009V39.5009H46C46.2761 39.5009 46.5 39.277 46.5 39.0009V9.00085C46.5 8.72471 46.2761 8.50085 46 8.50085H2ZM21.5 39.5009V37.5009C21.5 33.6349 18.366 30.5009 14.5 30.5009C10.634 30.5009 7.5 33.6349 7.5 37.5009V39.5009H21.5Z" fill="currentColor"/>
</svg>
