<svg width="48" height="48" viewBox="0 0 48 48" fill="none" xmlns="http://www.w3.org/2000/svg">
<path fill-rule="evenodd" clip-rule="evenodd" d="M5 12.0009C5 11.4486 5.44772 11.0009 6 11.0009H15C15.5523 11.0009 16 11.4486 16 12.0009V31.0009C16 31.5532 15.5523 32.0009 15 32.0009H6C5.44771 32.0009 5 31.5532 5 31.0009V12.0009ZM6.5 30.5009V12.5009H14.5V30.5009H6.5Z" fill="currentColor"/>
<path d="M40 13.0009C40 13.4151 39.6642 13.7509 39.25 13.7509H20.75C20.3358 13.7509 20 13.4151 20 13.0009C20 12.5867 20.3358 12.2509 20.75 12.2509H39.25C39.6642 12.2509 40 12.5867 40 13.0009Z" fill="currentColor"/>
<path d="M20 18.0009C20 18.4151 20.3358 18.7509 20.75 18.7509H39.25C39.6642 18.7509 40 18.4151 40 18.0009C40 17.5867 39.6642 17.2509 39.25 17.2509H20.75C20.3358 17.2509 20 17.5867 20 18.0009Z" fill="currentColor"/>
<path d="M28 23.0009C28 23.4151 27.6642 23.7509 27.25 23.7509H20.75C20.3358 23.7509 20 23.4151 20 23.0009C20 22.5867 20.3358 22.2509 20.75 22.2509H27.25C27.6642 22.2509 28 22.5867 28 23.0009Z" fill="currentColor"/>
<path d="M32.4975 23.0243L41.7489 26.4715C41.8213 26.4966 41.8841 26.5435 41.9285 26.6059C41.9729 26.6683 41.9968 26.743 41.9968 26.8195C41.9968 26.8961 41.9729 26.9708 41.9285 27.0332C41.8841 27.0956 41.8213 27.1425 41.7489 27.1676L38.5706 28.1509L41.9184 31.414C41.9869 31.483 42.0254 31.5763 42.0254 31.6736C42.0254 31.7709 41.9869 31.8642 41.9184 31.9332L41.0529 32.7987C40.9839 32.8673 40.8905 32.9058 40.7932 32.9058C40.6959 32.9058 40.6026 32.8673 40.5336 32.7987L37.1748 29.521L36.1841 32.7435C36.161 32.8166 36.1157 32.8806 36.0545 32.9268C35.9933 32.9729 35.9192 32.9988 35.8426 33.0008C35.766 33.0028 35.6907 32.9809 35.6271 32.9381C35.5635 32.8952 35.5149 32.8337 35.488 32.7619L32.0224 23.4957C31.9982 23.4296 31.9935 23.3579 32.0088 23.2891C32.0241 23.2203 32.0589 23.1574 32.1089 23.1078C32.1589 23.0581 32.2221 23.0239 32.291 23.0091C32.3599 22.9943 32.4315 22.9996 32.4975 23.0243Z" fill="currentColor"/>
<path fill-rule="evenodd" clip-rule="evenodd" d="M0 8.00092C0 6.89635 0.895431 6.00092 2 6.00092H46C47.1046 6.00092 48 6.89635 48 8.00092V35.0009C48 36.1055 47.1046 37.0009 46 37.0009H28.4545L29.2545 41.0009H40.4545C41.0068 41.0009 41.4545 41.4486 41.4545 42.0009C41.4545 42.5532 41.0068 43.0009 40.4545 43.0009H7.54541C6.99313 43.0009 6.54541 42.5532 6.54541 42.0009C6.54541 41.4486 6.99313 41.0009 7.54541 41.0009H18.7454L19.5454 37.0009H2C0.895432 37.0009 0 36.1055 0 35.0009V8.00092ZM2 7.50092H46C46.2761 7.50092 46.5 7.72477 46.5 8.00092V35.0009C46.5 35.2771 46.2761 35.5009 46 35.5009H2C1.72386 35.5009 1.5 35.2771 1.5 35.0009V8.00092C1.5 7.72477 1.72386 7.50092 2 7.50092Z" fill="currentColor"/>
</svg>
