<svg width="48" height="48" viewBox="0 0 48 48" fill="none" xmlns="http://www.w3.org/2000/svg">
<g clip-path="url(#clip0_100_865)">
<path fill-rule="evenodd" clip-rule="evenodd" d="M16.6228 0.00088501L16.67 0.00108343L16.7173 0.00088501C18.2086 0.00088501 19.6387 0.593283 20.6932 1.64776C21.7477 2.70223 22.3401 4.13241 22.3401 5.62366C22.3401 7.11491 21.7477 8.54509 20.6932 9.59956C19.6387 10.654 18.2086 11.2464 16.7173 11.2464L16.67 11.2462L16.6228 11.2464C15.1315 11.2464 13.7013 10.654 12.6469 9.59956C11.5924 8.54509 11 7.11491 11 5.62366C11 4.13241 11.5924 2.70223 12.6469 1.64776C13.7013 0.593283 15.1315 0.00088501 16.6228 0.00088501ZM16.67 9.74617L16.7173 9.74644C17.8107 9.74644 18.8594 9.31207 19.6326 8.5389C20.4057 7.76573 20.8401 6.71709 20.8401 5.62366C20.8401 4.53023 20.4057 3.48159 19.6326 2.70842C18.8594 1.93525 17.8107 1.50089 16.7173 1.50089L16.67 1.50116L16.6228 1.50089C15.5293 1.50089 14.4807 1.93525 13.7075 2.70842C12.9344 3.48159 12.5 4.53023 12.5 5.62366C12.5 6.71709 12.9344 7.76573 13.7075 8.5389C14.4807 9.31207 15.5293 9.74644 16.6228 9.74644L16.67 9.74617Z" fill="currentColor"/>
<path d="M19.3517 12.7527C20.0118 12.751 20.3224 13.5968 19.8299 14.0365C19.6962 14.1558 19.5057 14.2455 19.3265 14.2455H12.6403C11.4182 14.2455 10.2563 14.5202 9.22971 15.1427L9.2281 15.1437C8.20164 15.7643 7.44215 16.6491 6.89578 17.6662L6.8952 17.6673C5.84347 19.6213 5.5 22.211 5.5 25.0232V28.9891C5.49995 29.3447 5.58424 29.6954 5.74595 30.0121C5.90766 30.3288 6.14217 30.6027 6.43024 30.8111C6.71831 31.0196 7.05172 31.1568 7.40309 31.2114C7.75447 31.2661 8.11378 31.2366 8.45155 31.1254C8.60464 31.075 8.91992 31.0009 8.91992 31.0009V22.5009C8.91992 22.0867 9.25571 21.7509 9.66992 21.7509C10.0841 21.7509 10.4199 22.0867 10.4199 22.5009C10.4199 26.1235 10.4201 29.7457 10.4202 33.368C10.4204 36.9901 10.4206 40.6123 10.4206 44.2346C10.4198 44.8138 10.6425 45.371 11.0424 45.79C11.4423 46.209 11.9884 46.4575 12.567 46.4838C13.1456 46.5101 13.7121 46.3121 14.1483 45.9311C14.5739 45.5593 14.8435 45.0414 14.9044 44.4806L15.1663 33.9498C15.1865 33.1362 15.8519 32.4872 16.6658 32.4871L16.67 32.4871L16.6743 32.4871C17.4882 32.4872 18.1535 33.1362 18.1738 33.9498L18.4357 44.4806C18.4966 45.0414 18.7662 45.5593 19.1918 45.9311C19.628 46.3121 20.1945 46.5101 20.7731 46.4838C20.8763 46.4791 20.9785 46.4674 21.0791 46.4488C21.4622 46.3781 21.893 46.5179 22.0952 46.8509C22.3071 47.2 22.2213 47.6749 21.833 47.8015C21.5147 47.9053 21.1813 47.9668 20.8411 47.9823C19.8765 48.0261 18.9322 47.696 18.205 47.0608C17.9387 46.8282 17.709 46.5612 17.5206 46.2689C17.2027 45.7759 17.0024 45.211 16.9419 44.6181L16.9387 44.5857L16.9375 44.5725L16.6742 33.9871L16.67 34.1553L16.6658 33.9871L16.4026 44.5725L16.4014 44.5857L16.3982 44.6181C16.3377 45.211 16.1374 45.7759 15.8195 46.2689C15.6311 46.5612 15.4014 46.8282 15.1351 47.0608C14.4078 47.696 13.4636 48.0261 12.499 47.9823C11.5344 47.9385 10.6239 47.5241 9.95728 46.8256C9.29065 46.1271 8.91928 45.1982 8.92055 44.2327C8.92055 42.2853 8.92039 40.3383 8.92024 38.3912C8.92008 36.4443 8.91992 34.4974 8.91992 32.5504C8.43624 32.7095 7.92606 32.7681 7.42055 32.7237C7.33775 32.7165 7.25507 32.7064 7.17266 32.6936C6.58688 32.6026 6.03105 32.3738 5.55081 32.0263C5.07057 31.6787 4.67961 31.2222 4.41002 30.6943C4.14044 30.1663 3.99992 29.5819 4 28.9891V25.0232C4 22.1368 4.34361 19.2429 5.57438 16.9563C6.22412 15.7468 7.15625 14.6435 8.45199 13.8601C9.75022 13.0729 11.1909 12.7455 12.6403 12.7455C13.5566 12.7455 14.4731 12.7477 15.3895 12.7498C16.7101 12.7529 18.031 12.756 19.3517 12.7527Z" fill="currentColor"/>
<path fill-rule="evenodd" clip-rule="evenodd" d="M30.67 0.00108343L30.6228 0.00088501C29.1315 0.00088501 27.7013 0.593283 26.6469 1.64776C25.5924 2.70223 25 4.13241 25 5.62366C25 7.11491 25.5924 8.54509 26.6469 9.59956C27.7013 10.654 29.1315 11.2464 30.6228 11.2464L30.67 11.2462L30.7173 11.2464C32.2086 11.2464 33.6387 10.654 34.6932 9.59956C35.7477 8.54509 36.3401 7.11491 36.3401 5.62366C36.3401 4.13241 35.7477 2.70223 34.6932 1.64776C33.6387 0.593283 32.2086 0.00088501 30.7173 0.00088501L30.67 0.00108343ZM30.7173 9.74644L30.67 9.74617L30.6228 9.74644C29.5293 9.74644 28.4807 9.31207 27.7075 8.5389C26.9344 7.76573 26.5 6.71709 26.5 5.62366C26.5 4.53023 26.9344 3.48159 27.7075 2.70842C28.4807 1.93525 29.5293 1.50089 30.6228 1.50089L30.67 1.50116L30.7173 1.50089C31.8107 1.50089 32.8594 1.93525 33.6326 2.70842C34.4057 3.48159 34.8401 4.53023 34.8401 5.62366C34.8401 6.71709 34.4057 7.76573 33.6326 8.5389C32.8594 9.31207 31.8107 9.74644 30.7173 9.74644Z" fill="currentColor"/>
<path fill-rule="evenodd" clip-rule="evenodd" d="M38.8881 13.8601C37.5899 13.0729 36.1492 12.7455 34.6998 12.7455H26.6403C25.1909 12.7455 23.7502 13.0729 22.452 13.8601C21.1562 14.6435 20.2241 15.7468 19.5744 16.9563C18.3436 19.2429 18 22.1368 18 25.0232V28.9891C17.9999 29.5819 18.1404 30.1663 18.41 30.6943C18.6796 31.2222 19.0706 31.6787 19.5508 32.0263C20.0311 32.3738 20.5869 32.6026 21.1727 32.6936C21.2551 32.7064 21.3377 32.7165 21.4206 32.7237C21.9261 32.7681 22.4362 32.7095 22.9199 32.5504C22.9199 34.4974 22.9201 36.4443 22.9202 38.3912C22.9204 40.3383 22.9206 42.2853 22.9206 44.2327C22.9193 45.1982 23.2906 46.1271 23.9573 46.8256C24.6239 47.5241 25.5344 47.9385 26.499 47.9823C27.4636 48.0261 28.4078 47.696 29.1351 47.0608C29.4014 46.8282 29.6311 46.5612 29.8195 46.2689C30.1374 45.7759 30.3377 45.211 30.3982 44.6181L30.4014 44.5857L30.4026 44.5725L30.6658 33.9871L30.67 34.1553L30.6742 33.9871L30.9375 44.5725L30.9387 44.5857L30.9419 44.6181C31.0024 45.211 31.2027 45.7759 31.5206 46.2689C31.709 46.5612 31.9387 46.8282 32.205 47.0608C32.9322 47.696 33.8765 48.0261 34.8411 47.9823C35.8057 47.9385 36.7162 47.5241 37.3828 46.8256C38.0494 46.1271 38.4208 45.1982 38.4195 44.2327C38.4195 42.2853 38.4197 40.3383 38.4199 38.3912C38.42 36.4444 38.4202 34.4973 38.4202 32.5504C38.9038 32.7095 39.414 32.7681 39.9195 32.7237C40.0023 32.7165 40.085 32.7064 40.1674 32.6936C40.7532 32.6026 41.309 32.3738 41.7893 32.0263C42.2695 31.6787 42.6605 31.2222 42.9301 30.6943C43.1996 30.1663 43.3402 29.5819 43.3401 28.9891V25.0232C43.3401 22.1368 42.9965 19.2429 41.7657 16.9563C41.116 15.7468 40.1838 14.6435 38.8881 13.8601ZM30.6743 32.4871L30.67 32.4871L30.6658 32.4871C29.8519 32.4872 29.1865 33.1362 29.1663 33.9498L28.9044 44.4806C28.8435 45.0414 28.5739 45.5593 28.1483 45.9311C27.7121 46.3121 27.1456 46.5101 26.567 46.4838C25.9884 46.4575 25.4423 46.209 25.0424 45.79C24.6425 45.371 24.4198 44.8138 24.4206 44.2346C24.4206 40.6555 24.4204 37.0765 24.4202 33.4975L24.4202 33.368C24.4201 29.7457 24.4199 26.1235 24.4199 22.5009C24.4199 22.0867 24.0841 21.7509 23.6699 21.7509C23.2557 21.7509 22.9199 22.0867 22.9199 22.5009V31.0009C22.9199 31.0009 22.6046 31.075 22.4516 31.1254C22.1138 31.2366 21.7545 31.2661 21.4031 31.2114C21.0517 31.1568 20.7183 31.0196 20.4302 30.8111C20.1422 30.6027 19.9077 30.3288 19.7459 30.0121C19.5842 29.6954 19.5 29.3447 19.5 28.9891V25.0232C19.5 22.211 19.8435 19.6213 20.8952 17.6673L20.8958 17.6662C21.4421 16.6491 22.2016 15.7643 23.2281 15.1437L23.2297 15.1427C24.2563 14.5202 25.4182 14.2455 26.6403 14.2455H34.6998C35.9219 14.2455 37.0838 14.5202 38.1104 15.1427L38.112 15.1437C39.1384 15.7643 39.8979 16.6491 40.4443 17.6662L40.4449 17.6673C41.4966 19.6213 41.8401 22.211 41.8401 25.0232V28.9891C41.8401 29.3447 41.7558 29.6954 41.5941 30.0121C41.4324 30.3288 41.1979 30.6027 40.9098 30.8111C40.6218 31.0196 40.2884 31.1568 39.937 31.2114C39.5856 31.2661 39.2263 31.2366 38.8885 31.1254C38.7354 31.075 38.4202 31.0009 38.4202 31.0009V22.5009C38.4202 22.0867 38.0844 21.7509 37.6702 21.7509C37.256 21.7509 36.9202 22.0867 36.9202 22.5009C36.9202 26.0393 36.92 29.5773 36.9199 33.1154L36.9198 33.4976C36.9197 37.0765 36.9195 40.6556 36.9195 44.2346C36.9203 44.8138 36.6975 45.371 36.2977 45.79C35.8978 46.209 35.3516 46.4575 34.7731 46.4838C34.1945 46.5101 33.628 46.3121 33.1918 45.9311C32.7662 45.5593 32.4966 45.0414 32.4357 44.4806L32.1738 33.9498C32.1535 33.1362 31.4882 32.4872 30.6743 32.4871Z" fill="currentColor"/>
</g>
<defs>
<clipPath id="clip0_100_865">
<rect width="48" height="48" fill="white" transform="translate(0 0.00088501)"/>
</clipPath>
</defs>
</svg>
