<svg width="48" height="48" viewBox="0 0 48 48" fill="none" xmlns="http://www.w3.org/2000/svg">
<path fill-rule="evenodd" clip-rule="evenodd" d="M34.7691 20.569H25.7594L25.7594 12.2917C25.7594 9.96466 26.3379 7.96531 27.6974 6.30821C28.9147 4.82435 30.6048 3.78524 32.1863 2.86216L32.9225 2.4325L34.9846 7.30078L34.4147 7.63341C34.1179 7.80665 33.8549 7.95629 33.6185 8.09083C33.1726 8.34463 32.8211 8.54465 32.515 8.7478C32.0765 9.03878 31.8125 9.28676 31.609 9.6138L31.6003 9.62782L31.5909 9.64145C31.2045 10.2056 31.0453 10.7071 30.9952 11.5417H34.7691V20.569ZM33.2691 19.069V13.0417H29.4763V12.2917C29.4763 10.8573 29.6112 9.88372 30.3443 8.80709C30.6985 8.24332 31.1454 7.85646 31.6856 7.49797C32.0343 7.26657 32.4579 7.02531 32.9373 6.75226L33.0871 6.6669L32.2085 4.59275C30.902 5.38326 29.7229 6.20417 28.8571 7.25958C27.7661 8.58937 27.2594 10.2266 27.2594 12.2917L27.2594 19.069H33.2691Z" fill="currentColor"/>
<path fill-rule="evenodd" clip-rule="evenodd" d="M9.27745 27.4327H0.267787V36.4599H4.04163C3.99159 37.2945 3.83236 37.7961 3.44593 38.3602L3.43659 38.3738L3.42787 38.3879C3.22439 38.7149 2.96036 38.9629 2.52188 39.2538C2.21581 39.457 1.86443 39.6569 1.41862 39.9107C1.18224 40.0452 0.918971 40.195 0.622177 40.3682L0.0522461 40.7009L2.11432 45.5692L2.85051 45.1395C4.4321 44.2164 6.12219 43.1773 7.33949 41.6934C8.69893 40.0363 9.2775 38.037 9.2775 35.7099L9.27745 27.4327ZM1.76779 34.9599V28.9327H7.77746L7.7775 35.7099C7.7775 37.7751 7.27072 39.4123 6.1798 40.7421C5.31398 41.7975 4.13484 42.6184 2.82831 43.4089L1.94975 41.3348L2.09956 41.2494C2.57893 40.9764 3.00262 40.7351 3.35128 40.5037C3.89151 40.1452 4.33834 39.7583 4.69254 39.1946C5.4257 38.1179 5.5606 37.1444 5.5606 35.7099V34.9599H1.76779Z" fill="currentColor"/>
<path fill-rule="evenodd" clip-rule="evenodd" d="M22.2411 27.4327H13.2314V36.4599H17.0053C16.9552 37.2945 16.796 37.7961 16.4096 38.3602L16.4002 38.3738L16.3915 38.3879C16.188 38.7149 15.924 38.9629 15.4855 39.2538C15.1794 39.457 14.8279 39.657 14.382 39.9108C14.1458 40.0452 13.8823 40.1952 13.5858 40.3682L13.0159 40.7009L15.078 45.5692L15.8141 45.1395C17.3957 44.2164 19.0858 43.1773 20.3031 41.6934C21.6626 40.0363 22.2411 38.037 22.2411 35.7099L22.2411 27.4327ZM14.7314 34.9599V28.9327H20.7411L20.7411 35.7099C20.7411 37.7751 20.2344 39.4123 19.1434 40.7421C18.2776 41.7975 17.0985 42.6184 15.7919 43.4089L14.9134 41.3348L15.0632 41.2494C15.5426 40.9764 15.9663 40.7351 16.3149 40.5037C16.8551 40.1452 17.302 39.7583 17.6562 39.1946C18.3893 38.1179 18.5242 37.1444 18.5242 35.7099V34.9599H14.7314Z" fill="currentColor"/>
<path fill-rule="evenodd" clip-rule="evenodd" d="M38.723 20.569H47.7327V11.5417H43.9589C44.0089 10.7071 44.1681 10.2056 44.5546 9.64145L44.5639 9.62782L44.5726 9.6138C44.7761 9.28676 45.0401 9.03878 45.4786 8.74781C45.7847 8.54465 46.1362 8.34463 46.5821 8.09083C46.8185 7.9563 47.0815 7.80665 47.3783 7.63341L47.9482 7.30078L45.8862 2.4325L45.15 2.86217C43.5684 3.78524 41.8783 4.82436 40.661 6.30821C39.3016 7.96532 38.723 9.96466 38.723 12.2917L38.723 20.569ZM46.2327 13.0417V19.069H40.223L40.223 12.2917C40.223 10.2266 40.7298 8.58938 41.8207 7.25958C42.6865 6.20418 43.8657 5.38327 45.1722 4.59275L46.0507 6.66691L45.9009 6.75226C45.4215 7.02531 44.9979 7.26657 44.6492 7.49797C44.109 7.85647 43.6621 8.24332 43.3079 8.80709C42.5748 9.88372 42.4399 10.8573 42.4399 12.2917V13.0417L46.2327 13.0417Z" fill="currentColor"/>
</svg>
