<svg width="48" height="48" viewBox="0 0 48 48" fill="none" xmlns="http://www.w3.org/2000/svg">
<g clip-path="url(#clip0_100_999)">
<path d="M15 21.5009L16 23.5009H19V21.5009L17.5 20.5009L15 21.5009Z" fill="currentColor"/>
<path fill-rule="evenodd" clip-rule="evenodd" d="M15.2353 10.2205C15.4636 9.99227 15.8123 9.93568 16.1011 10.0801L18.0386 11.0488C18.2165 11.1378 18.3518 11.2937 18.4147 11.4825L18.8008 12.6409L19.1563 12.8186L19.5118 12.6409L19.8979 11.4825C20 11.1762 20.2866 10.9696 20.6094 10.9696H22.5469C22.8536 10.9696 23.1294 11.1563 23.2433 11.4411L24.0553 13.4711L26.5452 13.8861C26.6499 13.9035 26.7496 13.943 26.8379 14.0018L28.1021 14.8446H30.0331C30.314 14.8446 30.5713 15.0016 30.6999 15.2513L31.4481 16.7044C31.6228 17.0437 31.5148 17.4601 31.1973 17.6718L30.3944 18.2071L30.6155 18.511L32.2603 20.3206L32.6728 19.908C32.7552 19.8257 32.8555 19.7637 32.966 19.7269L33.7364 19.47L33.2381 17.7397C33.1522 17.4415 33.2589 17.1212 33.5063 16.934C33.7538 16.7468 34.091 16.7313 34.3545 16.895L37.2219 18.676L39.353 18.2498C39.6846 18.1835 40.0196 18.3473 40.1709 18.6498L40.6552 19.6186C40.7996 19.9073 40.743 20.2561 40.5147 20.4843L40.0059 20.9931L40.7444 21.9778L41.6847 21.6644C41.8387 21.613 42.0051 21.613 42.1591 21.6644L43.5849 22.1396L45.4944 22.617C45.7068 22.6701 45.8854 22.8134 45.9834 23.0092L46.8977 24.8379L47.7804 25.7205C47.921 25.8612 48 26.052 48 26.2509V27.704C48 28.1182 47.6643 28.454 47.25 28.454H45.7139L44.9937 29.5343L44.5302 30.4613C44.4413 30.6392 44.2853 30.7745 44.0966 30.8374L43.034 31.1916L42.6495 32.7297C42.6253 32.8266 42.5819 32.9178 42.5219 32.9978L41.0688 34.9353C40.9581 35.0829 40.7968 35.1845 40.6159 35.2207L38.194 35.7051C38.0969 35.7245 37.9969 35.7245 37.8998 35.7051L36.0072 35.3265L34.6095 37.7645C34.4731 38.0025 34.2177 38.147 33.9434 38.1413C33.6692 38.1357 33.42 37.9809 33.2934 37.7375L32.6996 36.5956L31.0665 36.2367L30.0959 36.6328C30.0059 36.6695 29.9097 36.6884 29.8125 36.6884H27.875C27.6761 36.6884 27.4854 36.6094 27.3447 36.4687L26.1112 35.2353H25.4532C25.3367 35.2353 25.2219 35.2081 25.1177 35.1561L23.2701 34.2322L21.5959 33.8974L20.8365 36.1755C20.7543 36.4221 20.5503 36.6086 20.2973 36.6683C20.1576 36.7013 20.0138 36.693 19.8822 36.648L19.3427 37.7269C19.2349 37.9425 19.03 38.0932 18.792 38.1318C18.5541 38.1704 18.312 38.0923 18.1416 37.9218L17.6076 37.3878L16.6661 38.0155C16.5005 38.1259 16.298 38.1659 16.1029 38.1269L13.6811 37.6426C13.4098 37.5883 13.1905 37.3892 13.1103 37.1245C13.0424 36.8999 13.0839 36.6591 13.2174 36.4718L10.5039 34.146L9.61775 33.7029C9.54565 33.6669 9.47983 33.6195 9.42283 33.5625L6.73625 30.8759H6.07816C5.87924 30.8759 5.68848 30.7969 5.54783 30.6562L4.0947 29.2031C4.01237 29.1207 3.95034 29.0204 3.91352 28.9099L3.46763 27.5723L2.08753 25.7321C1.91709 25.5049 1.88967 25.2008 2.01671 24.9467L2.8438 23.2925L1.38337 22.5623C1.20546 22.4734 1.07017 22.3174 1.00727 22.1287L0.0385197 19.2224C-0.057407 18.9346 0.0294664 18.6174 0.258631 18.4187C0.487795 18.2199 0.814121 18.1788 1.08544 18.3144L2.43075 18.9871L3.03224 18.0848C3.10464 17.9763 3.20413 17.8884 3.32087 17.8301L5.25837 16.8613C5.43628 16.7723 5.64225 16.7577 5.83095 16.8206L6.77125 17.134L7.90003 15.629C8.04168 15.4401 8.26397 15.329 8.50003 15.329H9.89697L10.2104 14.3887C10.2915 14.1454 10.4912 13.9605 10.74 13.8983L12.5976 13.4339L14.4995 12.4829L14.2666 12.25C13.9737 11.9571 13.9737 11.4822 14.2666 11.1893L15.2353 10.2205ZM15.8576 11.7196L16.296 12.158C16.4665 12.3285 16.5446 12.5705 16.506 12.8085C16.4674 13.0465 16.3167 13.2514 16.1011 13.3592L13.1948 14.8123C13.1459 14.8368 13.0944 14.8558 13.0413 14.8691L11.5032 15.2536L11.149 16.3162C11.047 16.6224 10.7604 16.829 10.4375 16.829H8.87503L8.02395 17.9638C8.08238 18.0208 8.13243 18.0883 8.17099 18.1654L9.35473 20.5329L15.572 17.8684L16.1201 17.3202L15.3038 15.2794C15.1924 15.0008 15.2577 14.6827 15.4698 14.4705L17.2396 12.7007L17.0899 12.2515L15.9137 11.6634L15.8576 11.7196ZM18.0961 13.9656L16.8802 15.1815L17.317 16.2735C17.3756 16.2589 17.4369 16.2511 17.5 16.2511H21.4824L21.5 16.2509C21.5586 16.2509 21.6157 16.2576 21.6704 16.2703L23.4978 16.6358L24.0463 14.9903L23.3924 14.8813C23.1339 14.8382 22.9166 14.6633 22.8193 14.42L22.0391 12.4696H21.15L20.8365 13.4099C20.7736 13.5986 20.6384 13.7546 20.4604 13.8436L19.4917 14.3279C19.2805 14.4335 19.032 14.4335 18.8209 14.3279L18.0961 13.9656ZM17.7072 17.7511C17.6707 17.8544 17.6112 17.9505 17.5305 18.0312L16.5305 19.0312C16.463 19.0987 16.3833 19.1526 16.2956 19.1902L10.6801 21.5969L12.8726 22.8497C13.183 23.027 13.325 23.3989 13.212 23.738L12.291 26.5009L12.5396 27.2466L19.7281 26.7673L23.25 24.1259V23.1226L22.7918 21.7478C22.786 21.7311 22.7808 21.7142 22.7762 21.6971C22.7623 21.646 22.7539 21.5937 22.7511 21.5409C22.7502 21.5243 22.7499 21.5079 22.75 21.4915V20.8759L21.05 19.6009C20.8612 19.4592 20.75 19.2369 20.75 19.0009V17.7511H17.7072ZM6.82934 18.8363L7.95305 21.0837L4.26652 22.4242C4.19672 22.3265 4.10322 22.2452 3.99169 22.1894L2.33206 21.3596L2.03413 20.4658L2.35212 20.6248C2.69043 20.794 3.10176 20.6847 3.31157 20.37L4.16984 19.0826L5.65133 18.3419L6.78244 18.7189C6.79456 18.7586 6.81015 18.7979 6.82934 18.8363ZM3.56565 25.2029L4.1326 24.069L8.93011 22.3245L11.5945 23.847L10.7889 26.2637C10.7376 26.4176 10.7376 26.5841 10.7889 26.738L11.226 28.0491L10.3601 32.3784L7.57724 29.5955C7.43658 29.4549 7.24582 29.3759 7.04691 29.3759H6.38882L5.28056 28.2676L4.85217 26.9825C4.82668 26.906 4.78902 26.8341 4.74066 26.7696L3.56565 25.2029ZM14.8006 35.8533L11.7264 33.2183L12.6171 28.7447L19.25 28.3025V29.5009C19.25 29.6998 19.329 29.8905 19.4697 30.0312L20.4697 31.0312C20.5267 31.0882 20.5925 31.1356 20.6646 31.1717L23.25 32.4644V32.6985L21.2409 32.2967C20.87 32.2225 20.5019 32.4361 20.3823 32.795L19.7436 34.7111C19.6704 34.7009 19.5952 34.7016 19.5205 34.7137C19.2825 34.7523 19.0776 34.903 18.9698 35.1186L18.4664 36.1254L18.2335 35.8924C17.9807 35.6396 17.5846 35.6004 17.2871 35.7987L16.0925 36.5951L15.0618 36.389C15.0525 36.1821 14.958 35.9882 14.8006 35.8533ZM25.6302 33.7353L24.75 33.2952V32.0009C24.75 31.7168 24.5895 31.4571 24.3354 31.33L21.4443 29.8845L20.75 29.1902V27.8759L24.2791 25.229L27.1648 26.6718C27.2283 26.7036 27.2961 26.7262 27.366 26.7389L29.7501 27.1724V30.3231L28.9183 31.9866L26.2953 33.7353H25.6302ZM24.8356 23.8302C24.8075 23.8161 24.7789 23.804 24.75 23.7938V23.0009C24.75 22.9202 24.737 22.8402 24.7116 22.7637L24.4891 22.0964L26.3828 21.7808L29.1647 23.1717C29.4188 23.2988 29.7228 23.2713 29.9501 23.1009L31.6212 21.8476L31.6794 21.9116C31.8174 22.0634 32.0115 22.152 32.2165 22.1569C32.3993 22.1613 32.5766 22.0987 32.7157 21.9824L32.2885 23.2639C32.2324 23.4322 32.2378 23.6149 32.3037 23.7796L33.1571 25.9133L32.9467 26.229L27.7397 25.2823L24.8356 23.8302ZM26.3768 20.2611L24.25 20.6156V20.5009C24.25 20.2648 24.1389 20.0425 23.95 19.9009L22.25 18.6259V17.9159L23.8529 18.2365C24.2238 18.3107 24.5919 18.0971 24.7115 17.7382L25.5443 15.2399L26.1398 15.3392L27.459 16.2187C27.5822 16.3008 27.727 16.3446 27.875 16.3446H29.5757L29.8078 16.7954L28.9121 17.3925C28.7422 17.5058 28.6258 17.6835 28.5899 17.8845C28.5539 18.0856 28.6015 18.2926 28.7217 18.4578L29.4267 19.4265C29.4426 19.4485 29.4598 19.4696 29.4781 19.4897L30.6078 20.7326L29.4209 21.6228L26.8355 20.3301C26.6938 20.2592 26.5332 20.235 26.3768 20.2611ZM28.1857 35.1884L27.6393 34.642L29.9161 33.1242C30.0247 33.0518 30.1125 32.9523 30.1709 32.8355L31.1709 30.8355C31.223 30.7314 31.2501 30.6166 31.2501 30.5001V27.4451L32.261 27.6289C32.2674 27.6657 32.2765 27.7023 32.2885 27.7382L32.7885 29.2382C32.8583 29.4475 33.0166 29.6155 33.2215 29.6974L33.9205 29.977L37.1609 34.0276L35.7721 33.7498C35.456 33.6866 35.1348 33.8325 34.9744 34.1122L33.9909 35.8276L33.8686 35.5923C33.766 35.3951 33.5813 35.2536 33.3642 35.2059L31.1604 34.7215C31.0119 34.6888 30.8569 34.7021 30.716 34.7596L29.6654 35.1884H28.1857ZM39.0613 34.0019L40.0407 33.806L41.231 32.2189L41.6787 30.4283C41.7409 30.1796 41.9258 29.9798 42.1691 29.8987L43.3275 29.5126L43.5242 29.1193L41.0924 28.7719L36.384 30.6552L39.0613 34.0019ZM34.7159 20.7247L34.7115 20.7382L33.7984 23.4776L34.6964 25.7225C34.7881 25.9518 34.761 26.2116 34.6241 26.4171L33.8275 27.6119L34.1015 28.4339L36 29.1933L39.7828 27.6801L38.5527 26.1425L35.7628 25.2125C35.4566 25.1104 35.25 24.8238 35.25 24.501V23.001C35.25 22.8846 35.2771 22.7697 35.3292 22.6656L36.3292 20.6656C36.4018 20.5205 36.5195 20.4028 36.6646 20.3302L36.9196 20.2027C36.8364 20.1847 36.7561 20.1525 36.6824 20.1067L35.219 19.1977L35.377 19.7464C35.4883 20.1329 35.275 20.5383 34.8935 20.6655L34.7159 20.7247ZM41.4001 27.3006L44.3949 27.7284L44.6885 27.288C44.8276 27.0793 45.0618 26.954 45.3125 26.954H46.5V26.5615L45.751 25.8125C45.694 25.7555 45.6465 25.6896 45.6105 25.6175L44.796 23.9886L43.1931 23.5879L43.1763 23.5834L43.1628 23.5796L43.1482 23.5751L43.1379 23.5718L41.9219 23.1664L40.706 23.5718C40.3997 23.6738 40.0625 23.5685 39.8688 23.3102L38.4157 21.3727C38.3713 21.3136 38.3369 21.2498 38.3123 21.1834L37.559 21.56L36.75 23.1781V23.9604L39.2372 24.7895C39.3743 24.8352 39.4953 24.9196 39.5857 25.0325L41.4001 27.3006Z" fill="currentColor"/>
</g>
<defs>
<clipPath id="clip0_100_999">
<rect width="48" height="48" fill="white" transform="translate(0 0.000854492)"/>
</clipPath>
</defs>
</svg>
