<svg width="48" height="48" viewBox="0 0 48 48" fill="none" xmlns="http://www.w3.org/2000/svg">
<ellipse cx="16.5002" cy="25.3346" rx="1.5" ry="1.49382" fill="currentColor"/>
<ellipse cx="31.5" cy="25.3346" rx="1.5" ry="1.49382" fill="currentColor"/>
<path fill-rule="evenodd" clip-rule="evenodd" d="M29.0835 15.5337C25.7206 14.9427 22.2799 14.9427 18.917 15.5337L15.6306 16.1112C15.2227 16.1829 14.8336 15.9117 14.7617 15.5055C14.6897 15.0993 14.962 14.7118 15.3699 14.6401L18.6563 14.0626C22.1916 13.4413 25.8089 13.4413 29.3441 14.0626L32.6306 14.6401C33.0385 14.7118 33.3108 15.0993 33.2388 15.5055C33.1669 15.9117 32.7778 16.1829 32.3699 16.1112L29.0835 15.5337Z" fill="currentColor"/>
<path fill-rule="evenodd" clip-rule="evenodd" d="M28.263 11.6038C25.496 10.6852 22.5044 10.6852 19.7374 11.6038C19.3444 11.7342 18.9197 11.5227 18.7887 11.1314C18.6577 10.7401 18.8701 10.3171 19.263 10.1866C22.338 9.16586 25.6624 9.16586 28.7374 10.1866C29.1303 10.3171 29.3427 10.7401 29.2117 11.1314C29.0807 11.5227 28.656 11.7342 28.263 11.6038Z" fill="currentColor"/>
<path fill-rule="evenodd" clip-rule="evenodd" d="M27.2045 36.1007C25.1581 36.9741 22.8418 36.9741 20.7954 36.1007C20.4147 35.9382 19.9738 36.1138 19.8106 36.493C19.6474 36.8721 19.8238 37.3112 20.2045 37.4737C22.6282 38.5082 25.3717 38.5082 27.7954 37.4737C28.1761 37.3112 28.3525 36.8721 28.1893 36.493C28.0261 36.1138 27.5852 35.9382 27.2045 36.1007Z" fill="currentColor"/>
<path fill-rule="evenodd" clip-rule="evenodd" d="M9.83928 8.29772C9.27776 8.04697 8.65524 7.90751 8 7.90751C5.82587 7.90751 4.01185 9.44299 3.59171 11.4844C1.54182 11.9028 0 13.7094 0 15.8746C0 18.2672 1.88277 20.2219 4.25333 20.3494C4.64158 20.9293 5.16194 21.4139 5.77157 21.7606C3.74366 22.2998 2.25 24.1419 2.25 26.3313C2.25 28.909 4.32028 31.0052 6.89526 31.0607C7.99728 39.4902 15.2353 46 24 46C32.7647 46 40.0027 39.4902 41.1047 31.0607C43.6797 31.0052 45.75 28.909 45.75 26.3313C45.75 24.1419 44.2563 22.2998 42.2284 21.7606C42.8381 21.4139 43.3584 20.9293 43.7467 20.3494C46.1172 20.2219 48 18.2672 48 15.8746C48 13.7094 46.4582 11.9028 44.4083 11.4844C43.9882 9.44299 42.1741 7.90751 40 7.90751C39.3449 7.90751 38.7224 8.04694 38.161 8.29762C31.2817 -1.43253 16.7184 -1.4325 9.83928 8.29772ZM11.0869 9.12811C11.9569 9.94527 12.5 11.104 12.5 12.389C12.5 13.4203 12.1502 14.3703 11.5622 15.1277C12.1502 15.885 12.5 16.835 12.5 17.8663C12.5 18.2092 12.4613 18.5431 12.3881 18.864C13.4426 18.2302 14.6785 17.8655 16 17.8655C19.5265 17.8655 22.4439 20.4625 22.9291 23.8408H25.0709C25.5561 20.4625 28.4735 17.8655 32 17.8655C33.3215 17.8655 34.5574 18.2302 35.6119 18.864C35.5387 18.5431 35.5 18.2092 35.5 17.8663C35.5 16.835 35.8498 15.885 36.4378 15.1277C35.8498 14.3703 35.5 13.4203 35.5 12.389C35.5 11.1039 36.0432 9.9451 36.9133 9.12794C30.6273 0.282435 17.3728 0.282495 11.0869 9.12811ZM9.66621 15.1277L10.3755 14.214C10.7675 13.709 11 13.0782 11 12.389C11 10.739 9.65685 9.40133 8 9.40133C6.55234 9.40133 5.34113 10.424 5.06116 11.7844L4.86244 12.7499L3.89288 12.9478C2.52689 13.2267 1.5 14.4329 1.5 15.8746C1.5 17.4692 2.75517 18.7728 4.33425 18.8578L5.08449 18.8981L5.50132 19.5207C6.04162 20.3276 6.9594 20.854 8 20.854C9.65685 20.854 11 19.5164 11 17.8663C11 17.1772 10.7675 16.5463 10.3755 16.0413L9.66621 15.1277ZM39 24.8367C39 23.852 38.795 22.915 38.4252 22.0657C38.8411 22.2205 39.2862 22.3157 39.75 22.341V28.8211C39.75 37.4837 32.6985 44.5062 24 44.5062C15.3015 44.5062 8.25 37.4837 8.25 28.8211V22.341C8.71379 22.3157 9.15887 22.2205 9.5748 22.0657C9.20499 22.915 9 23.852 9 24.8367C9 28.6867 12.134 31.8078 16 31.8078C19.6979 31.8078 22.726 28.9523 22.9824 25.3346H25.0176C25.274 28.9523 28.3021 31.8078 32 31.8078C35.866 31.8078 39 28.6867 39 24.8367ZM6.75 23.1042C5.07189 23.2313 3.75 24.6276 3.75 26.3313C3.75 28.0404 5.08012 29.4401 6.76566 29.5597C6.75526 29.3148 6.75 29.0685 6.75 28.8211V23.1042ZM41.25 23.1042V28.8211C41.25 29.0685 41.2447 29.3148 41.2343 29.5597C42.9199 29.4401 44.25 28.0404 44.25 26.3313C44.25 24.6276 42.9281 23.2313 41.25 23.1042ZM38.3338 15.1277L37.6245 14.214C37.2325 13.709 37 13.0782 37 12.389C37 10.739 38.3431 9.40133 40 9.40133C41.4477 9.40133 42.6589 10.424 42.9388 11.7844L43.1376 12.7499L44.1071 12.9478C45.4731 13.2267 46.5 14.4329 46.5 15.8746C46.5 17.4692 45.2448 18.7728 43.6658 18.8578L42.9155 18.8981L42.4987 19.5207C41.9584 20.3276 41.0406 20.854 40 20.854C38.3431 20.854 37 19.5164 37 17.8663C37 17.1772 37.2325 16.5463 37.6245 16.0413L38.3338 15.1277ZM16 30.314C19.0376 30.314 21.5 27.8617 21.5 24.8367C21.5 21.8116 19.0376 19.3593 16 19.3593C12.9624 19.3593 10.5 21.8116 10.5 24.8367C10.5 27.8617 12.9624 30.314 16 30.314ZM32 30.314C35.0376 30.314 37.5 27.8617 37.5 24.8367C37.5 21.8116 35.0376 19.3593 32 19.3593C28.9624 19.3593 26.5 21.8116 26.5 24.8367C26.5 27.8617 28.9624 30.314 32 30.314Z" fill="currentColor"/>
</svg>
