<svg width="48" height="48" viewBox="0 0 48 48" fill="none" xmlns="http://www.w3.org/2000/svg">
<path fill-rule="evenodd" clip-rule="evenodd" d="M0 10.0009C0 8.89632 0.895431 8.00089 2 8.00089H46C47.1046 8.00089 48 8.89632 48 10.0009V38.0009C48 39.1055 47.1046 40.0009 46 40.0009H2C0.895432 40.0009 0 39.1055 0 38.0009V10.0009ZM45.1815 9.50089H2.81819L23.6865 26.2862C23.8695 26.4334 24.1302 26.4334 24.3132 26.2862L45.1815 9.50089ZM1.5 10.3656V38.0009C1.5 38.277 1.72386 38.5009 2 38.5009H46C46.2761 38.5009 46.5 38.277 46.5 38.0009V10.3654L25.2534 27.4551C24.5214 28.0438 23.4783 28.0438 22.7463 27.4551L1.5 10.3656Z" fill="currentColor"/>
</svg>
