<svg width="48" height="48" viewBox="0 0 48 48" fill="none" xmlns="http://www.w3.org/2000/svg">
<path fill-rule="evenodd" clip-rule="evenodd" d="M26.3263 16.2386C26.6825 16.2386 26.7843 16.4421 26.8352 16.5948V16.6966C26.8352 16.7983 26.8352 16.951 26.7843 17.0018L26.7334 17.1036V17.1545L26.7843 17.2054L26.9369 17.4598L27.0387 17.6124C27.2422 17.9686 27.4966 18.4265 27.4966 18.8844C27.4966 19.6476 27.6492 20.5635 28.3616 21.3267H28.2089L28.1072 21.2758C27.9036 21.2249 27.7001 21.0723 27.4457 20.8688C27.3948 20.8688 27.3948 20.9705 27.3948 21.1232V22.3443C27.4457 22.6496 27.4966 22.904 27.5984 23.0566C27.7001 23.1584 27.4966 23.1075 27.2931 22.904L27.0387 22.6496C26.9878 22.5478 26.9369 22.4969 26.886 22.5478H26.8352L26.7843 22.5987L26.6316 22.904C26.5299 23.311 26.4281 23.9216 26.7843 24.5322C26.8352 24.6339 26.7843 24.6339 26.6825 24.583L26.6316 24.5322L26.5299 24.4813C26.3772 24.3795 26.1228 24.176 26.0211 23.9725C26.0211 23.9216 25.9702 23.9725 25.9193 24.0742L25.8175 24.2778V24.4304C25.7158 24.8883 25.7158 25.6515 26.0719 26.313C26.1228 26.4148 26.0211 26.3639 25.9193 26.313L25.7158 26.2112L25.8175 26.1603C25.8175 26.1603 25.7667 26.1603 25.7667 26.1095L25.614 25.9568V25.9059C25.5123 25.7533 25.3596 26.1095 25.614 26.6692L25.9193 27.2288L26.1228 27.6359C26.1637 27.704 26.2009 27.7685 26.2355 27.8284C26.3299 27.992 26.4045 28.1211 26.479 28.1956C26.5808 28.2973 26.7843 28.45 27.0387 28.5517L27.4457 28.7553C27.4712 28.7807 27.4966 28.7934 27.522 28.8061C27.5475 28.8189 27.5729 28.8316 27.5984 28.857H27.6492L28.1072 29.1623C28.5142 29.4167 29.1248 29.722 29.6845 29.722C30.5494 29.722 31.0074 29.1114 31.0074 28.8061H30.9565L30.6512 28.7553H30.5494L30.4477 28.7044L30.1424 28.6026H30.0915L29.9389 28.5517C29.1757 28.2465 28.2089 27.585 28.2089 25.9568C28.2089 24.6848 29.023 23.769 29.6845 23.2093L29.9898 23.0057L30.0915 22.904L30.3968 22.7005L30.8547 23.1584L30.7021 23.2602L30.4986 23.4128L30.3459 23.5146L30.1424 23.7181C29.5827 24.2269 28.8704 25.041 28.8704 25.9568C28.8704 27.4832 30.2442 28.1956 31.0582 28.1956V27.6359L31.0074 27.5341C30.8547 27.178 30.4986 26.7709 29.5827 26.3639H29.888C30.1933 26.3639 30.7021 26.4148 31.0582 26.9236C31.1848 27.0922 31.2414 27.0163 31.286 26.9563C31.2952 26.944 31.3039 26.9323 31.3126 26.9236L31.3244 26.9114C31.3956 26.8366 31.6431 26.5768 32.025 26.72L31.9232 26.7709V26.8218L31.8723 26.8727C31.7197 27.0762 31.5162 27.5341 31.7197 28.1447H31.8723L31.9741 28.0938H32.025L32.1267 28.0429C32.5847 27.7885 33.297 27.2797 33.297 26.1603C33.297 25.1427 32.5847 24.3795 31.8723 23.7181L31.6688 23.5146L31.2618 23.1584L31.0074 22.904C30.9364 22.8685 30.8902 22.8083 30.8515 22.7579C30.8347 22.7359 30.8192 22.7159 30.8038 22.7005L30.753 22.6496C30.7021 22.5987 30.6512 22.5351 30.6003 22.4715C30.5494 22.4079 30.4986 22.3443 30.4477 22.2934L29.9898 21.8355C29.4809 21.3267 29.023 20.767 28.9213 19.9529L28.8704 19.8512H28.8195C28.8077 19.8433 28.7944 19.8348 28.7798 19.8255C28.6063 19.7152 28.2598 19.4947 28.2598 18.8844C28.2598 18.4774 28.5142 18.0703 28.7686 17.765L28.8704 17.6124L29.1248 17.358L29.2265 17.3071L29.2774 17.2562H29.3283V17.3071L29.2774 17.5615L29.2265 17.6633C29.1757 17.8668 29.1757 18.1212 29.3792 18.1212C29.6845 18.1212 30.3459 17.358 30.3459 17.2054C30.3459 17.1545 30.3968 17.2054 30.3968 17.2562V17.5106L30.3459 17.6124C30.295 17.765 30.2442 17.9177 30.1424 18.0194L30.0915 18.0703C30.0661 18.1212 30.0279 18.1594 29.9898 18.1975C29.9516 18.2357 29.9134 18.2739 29.888 18.3247L29.5827 18.6809C29.5653 18.7041 29.5479 18.7266 29.531 18.7486C29.3992 18.9192 29.2948 19.0545 29.4301 19.1897C29.5827 19.3932 29.9389 19.1388 30.1424 18.9353L30.1933 18.8335L30.2442 18.7827V18.8844L30.1933 18.9862V19.0371L30.1424 19.1388C30.0406 19.3932 29.8371 19.6985 29.5318 19.8512V20.2073L29.5827 20.2582L29.6845 20.4617C29.6845 20.4617 29.6845 20.5126 29.7353 20.5126L29.7862 20.6144L30.0406 20.8688L30.1424 21.0214L30.4477 21.3267C30.3757 21.3627 30.3801 21.3732 30.3888 21.3943C30.3924 21.403 30.3968 21.4135 30.3968 21.4284L30.9565 21.9881L31.4653 22.3952L31.6688 22.5987L31.9741 22.8531L32.4829 23.2602L32.7882 23.5654H32.8391C32.8899 23.5146 32.9408 23.4637 32.9408 23.311V23.2602C32.9408 22.9549 33.0426 22.6496 33.1952 22.5478V23.3619C33.1952 23.769 33.2461 24.2269 33.3988 24.3286C33.5514 24.3795 33.6023 24.2269 33.6023 24.0234C33.6532 23.8198 33.8058 23.6163 33.8567 23.6672L33.8058 23.8198L33.7549 24.0234V24.3286C33.704 24.7357 33.704 25.1427 33.9584 25.2954C33.9801 25.2954 33.9925 25.2954 34.0036 25.2915C34.0185 25.2862 34.0309 25.2738 34.0602 25.2445L34.1111 25.1936C34.1432 25.1293 34.216 25.0853 34.3294 25.0873C34.1509 25.2487 33.9692 25.5552 34.0093 25.9568C34.0602 26.6692 33.3988 28.5009 31.7197 28.7553V28.857L31.6688 28.9588L31.6179 29.0097L31.5162 29.2132C31.2618 29.6711 30.753 30.3326 29.4809 30.1799L29.8371 30.5361L30.0406 30.8414C30.0406 30.8668 30.0534 30.8795 30.0661 30.8922C30.0788 30.905 30.0915 30.9177 30.0915 30.9431L30.1933 31.0958C30.6512 31.7572 31.1091 32.7239 31.0582 33.7924L31.0074 33.6907L30.9565 33.4872L30.753 32.9784L30.6512 32.8257C30.6512 32.8003 30.6385 32.7875 30.6258 32.7748C30.613 32.7621 30.6003 32.7494 30.6003 32.7239L30.4986 32.5713L30.295 32.1643L29.9898 31.7572C29.9195 31.6167 29.825 31.5004 29.723 31.3749C29.6772 31.3187 29.63 31.2605 29.5827 31.1975L29.3792 30.994C28.8704 30.3834 28.2598 29.8238 27.5475 29.4167L27.3948 29.3149C27.344 29.3149 27.2931 29.3658 27.344 29.5694C27.3948 29.8238 27.1913 30.3834 27.0387 30.6378C27.0387 30.6589 27.0299 30.6713 27.0197 30.6857C27.0053 30.7062 26.9878 30.7309 26.9878 30.7905V31.5537C27.0896 32.4187 27.5475 33.5889 28.9721 33.996C29.2265 34.0468 29.4301 34.0468 29.6336 34.0468H29.8371L29.9389 33.996V34.0468L29.8371 34.1486L29.888 34.0468C29.6845 34.1995 29.3283 34.403 28.616 34.403C28.3107 34.403 28.3107 34.8609 28.7686 34.8609V35.1662L28.616 35.6241L28.4633 36.2347L28.1581 36.8453C28.1581 36.8707 28.1453 36.8834 28.1326 36.8962C28.1199 36.9089 28.1072 36.9216 28.1072 36.947L28.0054 37.1506C27.8019 37.6085 27.5475 38.0155 27.2931 38.2699C27.1618 38.3574 27.2187 38.4073 27.2695 38.4519C27.2778 38.4592 27.286 38.4663 27.2931 38.4735H27.3948C27.4263 38.4735 27.4577 38.4929 27.5012 38.5198C27.528 38.5364 27.5595 38.5558 27.5984 38.5752L27.7001 38.6261C27.7001 38.6261 27.751 38.6261 27.751 38.677L27.8528 38.7279C27.8782 38.7533 27.9036 38.766 27.9291 38.7787C27.9545 38.7915 27.98 38.8042 28.0054 38.8296H27.9545C27.8528 38.8296 27.751 38.8296 27.751 38.8805V39.1858L27.7434 39.2087C27.6945 39.358 27.6342 39.542 27.344 39.542C26.9369 39.542 26.8352 39.1349 26.8352 38.9314C26.8352 38.7279 26.6316 38.7279 26.5299 38.7279C26.479 38.7279 26.1737 38.8296 26.0719 39.1858L26.0211 39.3384C25.9702 39.6946 25.8175 39.9999 25.5123 39.9999C25.1561 39.9999 25.0543 39.7455 25.0543 39.542C25.0543 39.5165 25.0543 39.5038 25.048 39.4974C25.0416 39.4911 25.0289 39.4911 25.0035 39.4911H24.9526C24.9017 39.4911 24.7999 39.4911 24.6982 39.4402L24.8508 39.3384L24.9526 39.2876L25.2579 39.084C25.5123 38.8805 25.7158 38.677 25.6649 38.5752C25.5631 38.3208 25.4105 38.3717 25.3087 38.4735L25.2579 38.5243L25.1561 38.5752C25.0035 38.677 24.749 38.8296 24.5455 38.8805C24.2402 38.9314 24.0876 38.5243 24.2402 38.2191L24.2911 38.1682C24.3271 38.1322 24.3122 38.1217 24.2824 38.1006C24.27 38.0919 24.2551 38.0813 24.2402 38.0664L24.1385 38.0155C24.113 37.9901 24.0876 37.9774 24.0622 37.9646C24.0367 37.9519 24.0113 37.9392 23.9858 37.9138H24.5455C24.9526 37.9138 25.4105 37.9138 25.4105 37.7103C25.3596 37.405 25.1052 37.405 24.9526 37.4558C24.7999 37.5067 24.342 37.4558 24.342 37.1506C24.342 37.1251 24.3547 37.0997 24.3674 37.0742C24.3802 37.0488 24.3929 37.0234 24.3929 36.9979L24.4438 36.8962C24.4946 36.8453 24.4946 36.7944 24.4946 36.7435C24.4946 36.6926 24.4438 36.6418 24.3929 36.5909L24.342 36.54H24.5455C24.6473 36.54 24.7999 36.54 24.9526 36.5909C25.0543 36.6418 25.1561 36.6926 25.2579 36.8453L25.4614 37.0488C25.6649 37.2523 25.9193 37.5067 26.1228 37.5067C26.5299 37.5067 26.886 36.8962 26.886 35.675V34.6065C26.8759 34.5658 26.8677 34.5292 26.8604 34.4962C26.8311 34.3643 26.8148 34.2911 26.7334 34.2504L26.6825 34.1995L26.5808 34.1486L26.5299 34.0977C26.5299 34.0977 26.479 34.0468 26.479 33.996V33.8942C26.479 33.8433 26.479 33.7416 26.3772 33.6907C26.2246 33.6398 26.0211 33.8433 25.9702 34.6574V35.4715L25.9193 35.6241L25.8175 35.4206V35.3697L25.7158 35.0645C25.6649 34.8609 25.614 34.6574 25.614 34.403V33.996C25.614 33.8942 25.614 33.8433 25.5631 33.7924C25.5631 33.7924 25.5123 33.7924 25.4614 33.8433L25.2579 34.0468C25.1052 34.1995 24.9017 34.403 24.6473 34.5048L24.7999 34.1995C24.9017 33.996 25.0035 33.6907 25.0035 33.4363C25.0035 33.3854 25.0035 33.3345 24.9526 33.2836V33.2328L25.0035 33.0801L24.8508 32.9275C24.6982 32.7239 24.4946 32.3169 24.4946 31.2484C24.4946 30.8922 24.5455 30.6378 24.5964 30.4343L24.6473 30.2817C24.6982 30.0782 24.749 29.8746 24.749 29.5694C24.749 29.2132 24.342 28.8061 23.8841 28.3991L23.477 28.0938L23.3753 27.9921L22.7138 27.5341L22.3068 27.2288L22.205 27.1271L21.9506 26.9236L21.34 26.313V26.2621C21.3043 26.2264 21.3438 26.1657 21.3881 26.0975C21.4069 26.0684 21.4266 26.0381 21.4418 26.0077L21.7471 25.6515L21.8489 25.4989C22.0015 25.2954 22.1033 25.0919 21.9506 24.9901C21.7471 24.8375 21.6453 24.9392 21.4927 25.1427L21.34 25.448C21.34 25.4735 21.3273 25.4862 21.3146 25.4989C21.3019 25.5116 21.2892 25.5243 21.2892 25.5498C21.0856 25.8551 20.7295 26.1603 20.5768 26.2621C20.526 26.2621 20.526 26.2112 20.526 26.1095V25.5498C20.526 25.2954 20.4751 25.041 20.3224 25.041C19.9663 25.041 19.9154 25.3971 19.9663 25.5498V25.6007C19.9663 25.6515 19.9663 25.6515 19.8645 25.6515H19.7627C19.6101 25.6515 19.4575 25.7024 19.3048 25.8551L19.2539 25.9568C19.2539 25.9568 19.2539 26.0077 19.2031 26.0077L19.1522 26.1095C19.1399 26.134 19.1269 26.1592 19.1135 26.1854C19.0151 26.3765 18.8916 26.6164 18.8469 26.9744V26.8727C18.796 26.72 18.7451 26.3639 18.8469 26.0586L18.8978 25.9568C18.8978 25.9372 18.8978 25.9251 18.8919 25.9177C18.8826 25.9059 18.8584 25.9059 18.796 25.9059H18.1854L17.7784 26.0077L17.4222 26.0586L16.9134 26.1603C16.8626 26.1603 16.8117 26.1603 16.7608 26.2112C16.6081 26.2621 16.5573 26.313 16.5573 26.5674V27.6359C16.5573 27.6868 16.5064 27.6359 16.5064 27.585V27.4324H16.3029C16.0993 27.4832 15.7941 27.4832 15.7941 27.178C15.7941 26.9236 15.8449 26.8727 15.9467 26.8218L15.9976 26.7709C16.0112 26.7573 16.0248 26.7473 16.0375 26.738C16.0721 26.7127 16.0993 26.6928 16.0993 26.6183C16.0993 26.313 15.8958 26.1603 15.6414 26.1603C15.4888 26.1603 15.387 26.2621 15.2853 26.3639L15.1835 26.4656C15.0308 26.6183 14.8782 26.7709 14.6747 26.7709C14.2168 26.7709 14.1659 26.4656 14.1659 26.313C14.1659 26.229 14.1813 26.1758 14.1952 26.128C14.2065 26.0889 14.2168 26.0534 14.2168 26.0077C14.2168 25.9059 14.115 25.8042 14.0132 25.8042C13.9624 25.8042 14.0641 25.7533 14.2168 25.7533H14.2676L14.5729 25.8042C14.9291 25.8551 15.387 25.8042 15.387 25.4989C15.387 25.3971 15.2853 25.3463 15.1835 25.3971H14.9291L14.7256 25.3463C14.4712 25.2954 14.115 25.1936 14.115 24.7866C14.115 24.583 14.3185 24.4813 14.4203 24.4304H14.4712C14.4712 24.4093 14.4799 24.3795 14.4901 24.3446C14.5046 24.2952 14.522 24.2356 14.522 24.176C14.522 24.1564 14.522 24.1443 14.5279 24.1398C14.5372 24.1327 14.5613 24.1447 14.6238 24.176L14.6238 24.0742L14.7256 24.1251L14.8782 24.2269L15.3361 24.6848C15.4379 24.8375 15.5905 24.7866 15.6414 24.7357H15.6923C15.7432 24.6848 15.8449 24.5322 15.5905 24.3795C15.2853 24.2269 15.2853 24.0742 15.2853 23.8198C15.2853 23.6361 15.4097 23.5768 15.5087 23.5295C15.5194 23.5244 15.5298 23.5195 15.5397 23.5146H15.5905C15.6414 23.5146 15.6923 23.311 15.6414 23.2093V23.1584C15.5905 23.0057 15.9976 23.3619 16.2011 23.769C16.2011 23.7944 16.2138 23.8198 16.2265 23.8453C16.2393 23.8707 16.252 23.8962 16.252 23.9216V24.176C16.252 24.4304 16.3029 24.6339 16.6081 24.7866H16.9643L17.0661 24.7357L17.2187 24.6848C17.2187 24.6848 17.2696 24.6848 17.3205 24.6339L17.4222 24.583L17.7275 24.4813L18.6434 24.1251L20.068 23.6163C20.1698 23.5654 20.3733 23.4637 20.2716 23.311C20.1698 23.1075 19.8136 23.0566 19.3048 23.4128L19.2539 23.4637C19.1522 23.5654 19.1013 23.5146 19.1522 23.4128L19.2031 23.3619L19.2539 23.2602C19.2539 23.2602 19.2539 23.2093 19.3048 23.2093L19.3557 23.1075C19.3557 23.1075 19.3557 23.0566 19.4066 23.0566L19.5083 22.9549C19.5278 22.9354 19.5398 22.916 19.5501 22.8994C19.5666 22.8725 19.5787 22.8531 19.6101 22.8531L19.7119 22.7513C20.068 22.2934 20.6277 21.8355 21.1365 21.8355C21.34 21.8355 21.3909 21.7337 21.3909 21.632V21.5811C21.3909 21.4793 21.2892 21.3776 20.933 21.3776C20.4751 21.3776 19.8645 21.8355 19.6101 22.2934H19.5083L19.3557 22.1917C19.2539 22.0899 19.0504 22.039 18.796 22.039C18.6172 22.039 18.4733 22.0565 18.354 22.0709C18.2698 22.0812 18.1978 22.0899 18.1346 22.0899L18.0328 22.1408H17.8802C17.7784 22.1408 18.1346 21.632 18.7451 21.632C18.8469 21.632 18.8469 21.4793 18.6434 21.3267L18.5925 21.2758C18.526 21.2426 18.4378 21.1442 18.3421 21.0374C18.2913 20.9808 18.2384 20.9217 18.1854 20.8688L17.7275 20.2582L17.6258 20.1564C17.524 20.0547 17.4222 20.2073 17.2696 20.4617L17.2187 20.5635L17.0661 21.0214C17.0661 21.0723 17.0152 21.0214 17.0152 20.9705V20.8179C17.0152 20.767 16.9643 20.767 16.9643 20.767L16.8626 20.7161C16.7099 20.6652 16.5573 20.5635 16.5573 20.2582C16.5573 19.902 16.7608 19.8512 16.9643 19.902H17.0152L17.117 19.9529H17.1678C17.3714 20.0038 17.5749 19.7494 17.524 19.5459C17.4068 19.4789 17.3061 19.4064 17.2128 19.3392C17.0228 19.2024 16.8638 19.0879 16.659 19.0879H16.6081C16.252 19.1388 15.7432 18.8844 15.7432 18.4774C15.7432 18.2739 15.8449 18.1721 15.9467 18.1212L16.0485 18.0703H16.0993C16.1502 18.0194 16.1502 17.8159 16.1502 17.765H16.2011L16.252 17.8159L16.3537 17.8668L16.9643 18.4774C17.117 18.63 17.1678 18.6809 17.2696 18.63C17.3714 18.5791 17.4222 18.3247 17.0661 18.0194C16.7099 17.7142 16.7608 17.358 16.9134 17.1545H17.1678C17.3205 17.1545 17.4731 17.1545 17.524 17.0527C17.524 16.951 17.5749 17.0018 17.5749 17.0527V17.2054L17.6258 17.3071V17.7142L17.6766 17.8159V17.9686C17.6766 18.2739 17.7784 18.3247 17.8802 18.3247C17.9819 18.3247 18.0837 18.2739 18.0328 17.8159C17.9819 17.4089 18.0837 17.3071 18.1854 17.2562L18.2363 17.2054C18.3381 17.1545 18.4907 17.1545 18.5925 17.2562C18.6943 17.358 18.8978 17.2054 18.8978 17.0527V17.2562C18.9487 17.4089 18.9487 17.6124 18.796 17.8159C18.7766 17.8354 18.7646 17.8548 18.7543 17.8714C18.7377 17.8983 18.7257 17.9177 18.6943 17.9177L18.4907 18.1212C18.2872 18.3247 18.1346 18.5791 18.3381 18.9862L18.389 19.0879L20.4242 21.174C20.4751 21.174 20.526 21.1232 20.4242 21.0214C20.3224 20.8688 20.3224 20.7161 20.4242 20.6144V20.5635L20.4751 20.6144L20.6786 20.7161C20.6786 20.7161 20.7295 20.7161 20.7295 20.767L20.8312 20.8179C21.1874 20.9705 21.6962 21.1232 22.4594 21.0214C23.6577 20.8883 24.2366 20.1358 24.2299 19.8106L24.0367 20.0038L23.9673 20.0458C23.7277 20.1912 23.4497 20.36 23.1717 20.36C22.6121 20.36 22.3068 19.8003 22.4085 19.4441V19.3932L22.5103 19.495C22.6121 19.5967 22.8665 19.7494 23.1717 19.7494C23.6297 19.7494 24.1385 19.1897 24.0367 18.8844C24.0367 18.8335 23.9858 18.8335 23.8841 18.8844L23.7823 18.8335L23.2735 18.9862L23.07 19.0371C23.0191 19.0371 23.0191 19.0371 22.9682 19.0879L22.7647 19.1388C22.4085 19.2406 21.8997 19.2915 21.3909 19.2915C19.7627 19.2915 19.5083 17.6633 20.6786 17.0018L20.6277 17.0527L20.5768 17.1545V17.6124C20.4751 18.1721 20.6277 18.8844 21.9506 18.8844C22.205 18.8844 22.4594 18.8844 22.6629 18.8335L22.8665 18.7827C22.9173 18.7827 23.0191 18.7827 23.07 18.7318L23.2735 18.6809L23.5788 18.5791L23.7823 18.4774L23.935 18.4265V18.3247C23.8841 18.1721 23.6806 17.8159 23.2226 17.8159C22.7924 17.8159 22.5867 18.1303 22.479 18.2949L22.4594 18.3247L22.4085 18.3756V18.4265L22.3577 18.3756L22.2559 18.4774C22.1033 18.3756 21.8489 18.0703 21.9506 17.7142C21.9506 17.6633 22.0015 17.6633 22.0524 17.6633H22.2559C22.4085 17.6124 22.5612 17.5615 22.5612 17.358C22.5612 17.2562 22.5103 17.2054 22.4594 17.2054H22.4085C22.3577 17.2054 22.3068 17.2562 22.2559 17.3071L22.205 17.4089C22.1914 17.4225 22.1814 17.4361 22.1721 17.4488C22.1468 17.4834 22.1269 17.5106 22.0524 17.5106C21.8489 17.5106 21.8489 16.9001 22.2559 16.9001H22.3068C22.4085 16.9001 22.5612 16.9001 22.6121 16.7983V16.7474C22.6121 16.5948 22.9682 16.4421 23.7314 16.3913H24.3929C24.9118 16.3913 25.2558 16.4787 25.4653 16.532L25.5123 16.5439L25.614 16.5948L25.7667 16.7474V16.6966C25.8175 16.493 25.9702 16.2386 26.3263 16.2386ZM23.4262 24.8883C23.3244 24.8883 23.2226 24.9392 23.2226 25.041V25.1936C23.2226 25.1936 23.2226 25.2445 23.1717 25.2445L23.07 25.448C22.9173 25.6515 22.7138 25.9059 22.2559 26.1095C22.205 26.1603 22.1541 26.2621 22.205 26.3639C22.2559 26.4148 22.3068 26.4656 22.4085 26.4656H22.4594C23.1209 26.1603 23.4262 25.7533 23.5279 25.448L23.5788 25.3463V25.0919C23.5788 24.9901 23.5279 24.8883 23.4262 24.8883ZM24.8508 24.7866C24.749 24.7866 24.6982 24.8375 24.6473 24.9392V25.1427C24.5964 25.3971 24.4438 25.8551 23.8841 26.1603C23.8332 26.2112 23.7823 26.313 23.8332 26.4148C23.8841 26.4656 23.935 26.5165 24.0367 26.5165H24.0876C24.6982 26.2112 24.9526 25.7024 25.0543 25.3463V24.9901C25.0035 24.8375 24.9526 24.7866 24.8508 24.7866ZM22.5612 22.4461C22.5103 22.5478 22.5612 22.6496 22.6121 22.7513L22.6629 22.8022C22.7138 22.8531 22.8665 23.0057 22.9173 23.2093C23.0191 23.5654 22.9173 24.0742 22.6121 24.583C22.5612 24.6339 22.5612 24.7866 22.6629 24.8375C22.6922 24.8667 22.7046 24.8791 22.7196 24.8844C22.7306 24.8883 22.7431 24.8883 22.7647 24.8883C22.8156 24.8883 22.9173 24.8375 22.9682 24.7866C23.3244 24.176 23.477 23.6163 23.3753 23.1584V23.0566C23.3311 22.7916 23.1718 22.6416 23.064 22.54C23.0477 22.5246 23.0325 22.5103 23.0191 22.4969L22.9682 22.4461L22.8156 22.3952C22.7138 22.3443 22.5612 22.3443 22.5612 22.4461ZM21.5944 22.5987L21.4927 22.6496L21.2892 22.8531C21.0348 23.1075 20.7804 23.5654 20.6786 24.3286C20.6786 24.4304 20.7295 24.5322 20.8312 24.5322H20.933C20.9839 24.5322 21.0856 24.4813 21.1365 24.3795V24.3286C21.1874 23.6163 21.4927 23.2093 21.6962 23.0057L21.798 22.904C21.8997 22.8531 21.8997 22.7005 21.8489 22.6496C21.798 22.5987 21.6962 22.5987 21.5944 22.5987ZM23.9858 21.2758C23.935 21.3776 23.935 21.4793 24.0367 21.5302L24.1894 21.6829V21.7337L24.2402 21.7846C24.3929 22.039 24.5455 22.4461 24.3929 23.2093L24.342 23.3619C24.2911 23.4637 24.342 23.5146 24.4438 23.5654H24.5455C24.5964 23.5654 24.6982 23.5146 24.749 23.4128C25.0035 22.2934 24.6473 21.6829 24.4438 21.4284L24.342 21.3267L24.2911 21.2249L24.2402 21.174C24.1385 21.174 24.0367 21.174 23.9858 21.2758ZM24.8508 18.7827C24.7999 18.8844 24.8508 18.9862 24.9526 19.0371C25.5123 19.2406 26.0211 19.5459 26.0719 19.6985H25.3087C25.2579 19.6985 25.1561 19.7494 25.1052 19.8003C25.0738 19.8317 25.0812 19.8632 25.0914 19.9066C25.0978 19.9335 25.1052 19.9649 25.1052 20.0038L25.1561 20.1056L25.207 20.1564V20.7161C25.207 20.9196 25.207 21.174 25.1561 21.4284C25.1561 21.5302 25.207 21.5811 25.3596 21.632H25.4614C25.5123 21.632 25.614 21.5302 25.614 21.4284V20.6144C25.614 20.36 25.5631 20.2073 25.5123 20.0547C25.8175 20.0547 26.0719 20.0038 26.2246 19.8512C26.2755 19.8003 26.3263 19.6985 26.3263 19.5967C26.3263 19.2406 25.8175 18.9353 25.4105 18.7318L25.1052 18.63L25.0035 18.5791H24.9526C24.984 18.6106 24.9572 18.642 24.92 18.6855C24.8971 18.7123 24.8702 18.7438 24.8508 18.7827ZM24.3929 16.7983H23.477C23.3562 16.7983 23.331 16.8302 23.3006 16.8687C23.2925 16.8788 23.2841 16.8895 23.2735 16.9001C23.2735 16.9597 23.291 17.0018 23.3054 17.0368C23.3157 17.0614 23.3244 17.0825 23.3244 17.1036L23.3753 17.1545H23.935C23.9858 17.1545 24.0876 17.1545 24.0876 17.2054C24.0876 17.2562 23.935 17.3071 23.7823 17.358L23.5279 17.358L23.5788 17.4089C23.6297 17.5106 23.7314 17.5615 23.935 17.5615C24.2402 17.5615 24.342 17.3071 24.342 17.1036V17.0018C24.3929 17.0018 24.5455 17.0018 24.5455 16.9001C24.5964 16.8492 24.4946 16.7983 24.3929 16.7983Z" fill="currentColor"/>
<path d="M34.3294 25.0873C34.377 25.0443 34.4244 25.0115 34.4672 24.9901L34.5181 24.9392L34.569 25.1427C34.4753 25.1053 34.3954 25.0885 34.3294 25.0873Z" fill="currentColor"/>
<path d="M20.933 27.9412H22.9173C22.9682 27.9412 22.9682 27.9921 22.9682 28.0429V28.0938C22.9682 28.1447 22.9682 28.2465 23.1209 28.2973C23.3244 28.3482 23.935 28.857 23.935 29.1114C23.935 29.1623 23.8841 29.2641 23.8332 29.3149L23.6806 29.5185C23.6297 29.6202 23.5788 29.722 23.6806 29.9255C23.935 30.2817 24.1385 30.2817 24.2911 30.2817H24.1894L24.1385 30.3326C23.9858 30.3834 23.6806 30.4343 23.2226 30.4343H23.1209C22.9173 30.4343 22.7138 30.3834 22.5103 30.3326L21.9506 30.2308L21.8853 30.2198C21.6083 30.1731 21.3689 30.1327 21.0856 30.1799H20.933C20.3733 30.2817 20.0172 30.7905 20.2716 32.4187V32.5713C20.2716 32.6222 20.3733 32.6731 20.5768 32.6731C20.8821 32.6731 21.6453 33.0292 22.1033 33.7924L21.8997 33.6907V33.5889L21.5944 33.4872C21.1874 33.2836 20.7804 33.131 20.6277 33.3854C20.526 33.5889 20.5768 33.7416 20.7295 33.8433C20.7804 33.8433 20.6786 33.8942 20.526 33.9451L20.3733 33.996L20.1189 34.0977H19.8645L19.3557 34.2504L18.4398 34.5048C18.2872 34.5557 18.2363 34.6574 18.5416 34.8609L18.5925 34.9118L18.8978 35.1153L18.9487 35.1662C18.9995 35.2171 19.0504 35.268 18.9995 35.268H18.8469C18.6943 35.268 18.5416 35.268 18.5416 35.3697C18.5416 35.4715 18.4907 35.7259 18.2363 35.7259C17.9819 35.7259 17.8293 35.5733 17.8293 35.3697V35.1153C17.8293 34.9118 17.7275 34.7592 17.524 34.7592C17.2187 34.7592 17.0152 35.0645 17.0152 35.6241C17.0152 36.0312 16.6081 36.1329 16.4555 36.1329C16.3029 36.1329 16.1502 36.0821 16.1502 35.8277C16.1502 35.7768 16.0485 35.7768 15.9467 35.7768H15.8449C15.7941 35.7768 15.8449 35.7259 15.9467 35.6241L16.0485 35.5733L16.3537 35.3697L16.659 35.1153C16.7608 35.0645 16.7608 34.8609 16.7099 34.8101L16.659 34.7592C16.5573 34.7083 16.4555 34.6574 16.252 34.8101C16.0485 35.0136 15.7941 35.1662 15.5905 35.1662C15.387 35.1662 15.1835 34.9627 15.1835 34.7592V34.5048C15.1835 34.403 15.1835 34.2504 15.0308 34.1995L14.98 34.1486C14.9569 34.1255 14.9443 34.1129 14.9469 34.106C14.95 34.0977 14.9752 34.0977 15.0308 34.0977H16.2011C16.4046 34.0977 16.6081 34.0468 16.6081 33.996C16.6081 33.7416 16.3537 33.6907 16.252 33.6907H16.0993C15.8449 33.6907 15.4888 33.6907 15.4888 33.3345C15.4888 33.2328 15.5397 33.1819 15.5905 33.131H15.6414C15.6414 33.1056 15.6541 33.0928 15.6669 33.0801C15.6796 33.0674 15.6923 33.0547 15.6923 33.0292C15.6923 32.9275 15.5397 32.9275 15.4888 32.9275L15.5905 32.8257C15.7432 32.7748 16.0485 32.6731 16.3537 32.9275L16.5573 33.131L16.7608 33.4363C16.9134 33.6398 17.0661 33.7924 17.3205 33.7924H17.4222C17.931 33.7416 19.1522 33.2836 19.1522 31.9099C19.1522 31.5028 19.0504 31.1466 18.9487 30.8414L18.8469 30.5361L18.6943 30.2308V30.1799C18.6943 30.1545 18.6943 30.1418 18.7006 30.1354C18.707 30.129 18.7197 30.129 18.7451 30.129H18.8469C18.9487 30.129 19.1013 30.0782 19.1013 29.8746C19.1013 29.4676 16.659 29.4167 15.8958 30.1799V29.9764L15.9467 29.8746C16.0993 29.6202 16.4555 29.2641 17.2696 29.2641C17.3888 29.2641 17.4906 29.2815 17.5749 29.296C17.6345 29.3062 17.6854 29.3149 17.7275 29.3149L17.8802 29.3658C18.0328 29.4167 18.1346 29.4167 18.2872 29.3658C18.3381 29.3658 18.3381 29.3149 18.2872 29.2641L18.0837 29.0097C17.931 28.857 17.7784 28.7044 17.8293 28.3991L17.8802 28.45C18.0328 28.6026 18.389 28.9079 18.796 28.9079C18.8176 28.9079 18.8301 28.9079 18.8411 28.904C18.8561 28.8987 18.8685 28.8863 18.8978 28.857L18.9487 28.8061L19.0504 28.6535L19.2539 28.45C19.5592 28.2465 20.068 27.9412 20.933 27.9412Z" fill="currentColor"/>
<path d="M32.2285 17.4089C32.3811 17.7142 32.6864 18.0703 32.9917 18.0194C33.0935 18.0194 33.0935 17.8668 33.0426 17.7142L32.9917 17.5106L32.9408 17.4089V17.2054L33.2461 17.5106C33.3988 17.6633 33.5514 17.8159 33.704 17.9177C34.0093 18.1212 34.0602 18.7318 33.9076 19.0879C33.8567 19.1727 33.7945 19.2575 33.7324 19.3423C33.608 19.5119 33.4836 19.6815 33.4496 19.8512V19.902C33.3988 20.0547 33.297 20.2582 33.1444 20.5635L33.0426 20.767C33.0214 20.7989 33.0023 20.8285 32.9841 20.8568C32.9152 20.9643 32.8581 21.0533 32.7373 21.174L32.5338 21.3776C32.3811 21.5811 32.1776 21.7846 31.9741 21.9881L31.8723 22.0899L31.3635 21.632L32.1776 20.8179C32.5338 20.4108 32.8391 20.0038 32.7882 19.6985H32.7373L32.6864 19.6476H32.6355L32.5338 19.5967C32.3303 19.4441 32.025 19.1388 32.0759 18.6809L32.1267 18.7827L32.1776 18.8335L32.2285 18.9353C32.3811 19.1388 32.6355 19.3423 32.7882 19.1897C33.0426 19.0371 32.8391 18.63 32.5338 18.3247L32.432 18.223V18.0703L32.3811 18.0194C32.1776 17.8159 32.0759 17.5106 32.0759 17.3071V17.1036L32.2285 17.4089Z" fill="currentColor"/>
<path fill-rule="evenodd" clip-rule="evenodd" d="M24.1894 13.9999L24.342 14.0508L24.4946 14.2034L24.6473 14.2543C24.8508 14.4069 25.0543 14.6104 25.0543 14.814C25.0543 15.0684 24.7999 15.1701 24.6473 15.221H24.5964C24.6982 15.4754 24.9017 15.5772 25.0035 15.6281H25.4614C25.7667 15.6281 25.7667 15.3737 25.7667 15.2719V15.1701H25.7158C25.614 15.1701 25.4105 15.0684 25.4105 14.8648C25.4105 14.6104 25.7667 14.4069 26.1228 14.3052L26.3263 14.2034L26.479 14.1525L26.3772 14.5596H26.3263C26.2246 14.5596 26.1228 14.6613 26.1228 14.814C26.1228 14.8648 26.1737 14.9157 26.2246 14.9666H26.2755L25.9702 15.9842H22.6121L22.3577 15.0175C22.3697 15.0055 22.3845 14.9935 22.4002 14.9808C22.4509 14.9398 22.5103 14.8917 22.5103 14.814C22.5103 14.6613 22.4085 14.5596 22.3068 14.5596H22.2559L22.1033 14.1016C22.4085 14.1525 23.1717 14.4578 23.1717 14.814C23.1717 15.0684 22.9682 15.1701 22.8665 15.1701H22.8156C22.8156 15.4754 23.0191 15.5772 23.1209 15.5772H23.6806C23.935 15.5772 23.9858 15.2719 23.9858 15.1701V15.1193H23.8332C23.6806 15.0684 23.5279 15.0175 23.5279 14.8648C23.5279 14.6104 23.7314 14.4069 23.935 14.2034L24.1385 13.9999H24.1894ZM24.2911 14.6104C24.1385 14.6104 24.0367 14.7122 24.0367 14.8648C24.0367 15.0175 24.1385 15.1193 24.2911 15.1193C24.4438 15.1193 24.5455 15.0175 24.5455 14.8648C24.5455 14.7122 24.4438 14.6104 24.2911 14.6104Z" fill="currentColor"/>
<path fill-rule="evenodd" clip-rule="evenodd" d="M45 9.99988V5.99988C45 4.89531 44.1046 3.99988 43 3.99988H2C0.89543 3.99988 0 4.89531 0 5.99988V41.9999C0 43.1044 0.895431 43.9999 2 43.9999H43.1687C44.2051 43.9999 45.0699 43.2081 45.161 42.1757L47.808 12.1757C47.9112 11.0063 46.9897 9.99988 45.8158 9.99988H45ZM43.5 5.99988C43.5 5.72374 43.2761 5.49988 43 5.49988H2C1.72386 5.49988 1.5 5.72374 1.5 5.99988V25.4999L2.85094 8.83825C2.93514 7.79976 3.8025 6.99988 4.8444 6.99988H20.1716C20.702 6.99988 21.2107 7.21059 21.5858 7.58566L24 9.99988H43.5V5.99988ZM20.5251 8.64632C20.4314 8.55256 20.3042 8.49988 20.1716 8.49988H4.8444C4.58393 8.49988 4.36709 8.69985 4.34604 8.95947L1.67036 41.9595C1.64676 42.2506 1.87665 42.4999 2.16873 42.4999H43.1687C43.4278 42.4999 43.644 42.3019 43.6668 42.0438L46.3138 12.0438C46.3396 11.7515 46.1092 11.4999 45.8158 11.4999H23.3787L20.5251 8.64632Z" fill="currentColor"/>
</svg>
