<svg width="48" height="48" viewBox="0 0 48 48" fill="none" xmlns="http://www.w3.org/2000/svg">
<g clip-path="url(#clip0_100_855)">
<path d="M35.75 1.50003C35.3358 1.50003 35 1.83582 35 2.25003V4.25003C35 4.66424 34.6642 5.00003 34.25 5.00003C33.8358 5.00003 33.5 4.66424 33.5 4.25003V2.25003C33.5 1.00739 34.5074 3.05176e-05 35.75 3.05176e-05H45.75C46.9926 3.05176e-05 48 1.00739 48 2.25003V13.75C48 14.9927 46.9926 16 45.75 16H35.75C34.5074 16 33.5 14.9927 33.5 13.75V11.75C33.5 11.3358 33.8358 11 34.25 11C34.6642 11 35 11.3358 35 11.75V13.75C35 14.1642 35.3358 14.5 35.75 14.5H45.75C46.1642 14.5 46.5 14.1642 46.5 13.75V2.25003C46.5 1.83582 46.1642 1.50003 45.75 1.50003H35.75Z" fill="currentColor"/>
<path d="M39.2803 2.9697L43.7803 7.4697C44.0732 7.76259 44.0732 8.23747 43.7803 8.53036L39.2803 13.0304C38.9874 13.3233 38.5126 13.3233 38.2197 13.0304C37.9268 12.7375 37.9268 12.2626 38.2197 11.9697L41.4393 8.75003H28.25C27.8358 8.75003 27.5 8.41424 27.5 8.00003C27.5 7.58582 27.8358 7.25003 28.25 7.25003H41.4393L38.2197 4.03036C37.9268 3.73747 37.9268 3.26259 38.2197 2.9697C38.5126 2.67681 38.9874 2.67681 39.2803 2.9697Z" fill="currentColor"/>
<path fill-rule="evenodd" clip-rule="evenodd" d="M27 20.5009C27 25.7476 22.7467 30.0009 17.5 30.0009C12.2533 30.0009 7.99998 25.7476 7.99998 20.5009C7.99998 15.2542 12.2533 11.0009 17.5 11.0009C22.7467 11.0009 27 15.2542 27 20.5009ZM25.5 20.5009C25.5 24.9192 21.9183 28.5009 17.5 28.5009C13.0817 28.5009 9.49998 24.9192 9.49998 20.5009C9.49998 16.0826 13.0817 12.5009 17.5 12.5009C21.9183 12.5009 25.5 16.0826 25.5 20.5009Z" fill="currentColor"/>
<path d="M32.4505 46.275C32.4832 46.6789 32.8134 47.0009 33.2186 47.0009C33.6422 47.0009 33.9837 46.6502 33.9515 46.2279C33.3016 37.71 26.1842 31.0009 17.4999 31.0009C8.81552 31.0009 1.69816 37.71 1.04825 46.2279C1.01602 46.6502 1.35753 47.0009 1.78112 47.0009C2.18638 47.0009 2.51657 46.6789 2.54924 46.275C3.17294 38.5641 9.62833 32.5009 17.4999 32.5009C25.3714 32.5009 31.8268 38.5641 32.4505 46.275Z" fill="currentColor"/>
</g>
<defs>
<clipPath id="clip0_100_855">
<rect width="48" height="48" fill="white" transform="translate(0 0.00088501)"/>
</clipPath>
</defs>
</svg>
